<svg xmlns="http://www.w3.org/2000/svg" xmlns:xlink="http://www.w3.org/1999/xlink" version="1.1" width="89.75364685058594" height="96.90711212158203" viewBox="0.7463562488555908 1.5999999046325684 89.75364685058594 96.90711212158203">
  <!-- Exported by Scratch - http://scratch.mit.edu/ -->
  <path id="ID0.40227043256163597_22_" fill="none" stroke="#000000" stroke-width="2" stroke-linecap="round" stroke-linejoin="round" d="M 21.7 76 C 19.3 75.2 16.6 73.9 14.5 71.2 C 9.8 65.3 9.4 56.9 5.2 58.4 C 1 59.9 -1 73.3 10.5 79.3 C 14.5 81.4 18.3 82 21.4 82.4 C 22.2 82.5 29.3 82.9 32.1 79.8 C 35 76.7 33.5 75.6 32.7 74.9 C 32 74.3 25 77.3 21.7 76 Z "/>
  <path id="ID0.48413723474368453_22_" fill="none" stroke="#000000" stroke-width="2" stroke-linecap="round" stroke-linejoin="round" d="M 53.7 12.5 C 52.2 12.2 49.2 11.6 47.5 11.5 C 42.9 11.1 38.4 12.3 38.4 12.3 L 26.9 2.6 L 26.8 21 C 27.5 20.3 15.2 32.1 20.6 43.8 C 26.1 55.7 40 62.4 58.5 61 C 77 59.6 82.6 49.8 82 44.2 C 81.4 38.6 74.9 35.7 74.9 35.7 C 74.9 35.7 75.3 31.4 72.9 25.8 C 71.4 22.4 65.8 17.1 65.8 17.1 L 64.4 5.6 L 56.4 11.7 L 53.7 12.5 Z "/>
  <g id="ID0.6419164715334773">
    <g id="ID0.7407716196030378_17_">
      <path id="ID0.15909873321652412_16_" fill="#FAA51F" stroke="#8E5322" stroke-width="1.4" stroke-linecap="round" stroke-linejoin="round" d="M 42.1 61 C 41.9 61.2 52.2 72 52 72 C 50 72.4 47.6 73.8 46.7 73.5 C 42.7 72.4 37.9 68.8 35.2 64.2 L 34.8 63 "/>
      <path id="ID0.8024068027734756_17_" fill="#FAA51F" stroke="#8E5322" stroke-width="1.4" stroke-linecap="round" stroke-linejoin="round" d="M 47 66.2 "/>
      <path id="ID0.06734407460317016_17_" fill="none" stroke="#8E5322" stroke-width="1.4" stroke-linecap="round" stroke-linejoin="round" d="M 45.6 62.9 "/>
    </g>
    <path id="ID0.1790580078959465_24_" fill="#000000" stroke="#000000" stroke-width="2" stroke-linecap="round" stroke-linejoin="round" d="M 44.1 63.7 C 44.8 64.5 46.4 66.5 47.4 66.4 C 48.2 66.3 49.2 65.8 49.9 65.2 C 53.9 61.7 57.7 63.4 58.3 64.9 C 59.8 68.6 55.6 71.7 47.2 73.5 "/>
  </g>
  <g id="ID0.15723733883351088_18_">
    <path id="ID0.527006761636585_18_" fill="#000000" stroke="#000000" stroke-width="2" stroke-linecap="round" stroke-linejoin="round" d="M 26.9 73.7 C 26.9 73.7 27.1 79.4 26.7 80.7 C 25.1 78.1 24.6 76.8 21.7 79.2 C 20 80.6 16.4 83.7 17.7 85.8 C 22.5 92.3 21.4 83 29.7 89 C 32.2 90.6 36.7 90.9 36.2 79.8 "/>
    <path id="ID0.8937406223267317_25_" fill="#FAA51F" stroke="#000000" stroke-width="2" stroke-linecap="round" stroke-linejoin="round" d="M 27.9 88 C 27.1 87.2 25.3 86.4 24.1 85.6 "/>
    <path id="ID0.8937406223267317_24_" fill="#FAA51F" stroke="#000000" stroke-width="2" stroke-linecap="round" stroke-linejoin="round" d="M 28.1 83.2 C 27.7 82.8 27.3 80.4 26.9 79.2 "/>
  </g>
  <path id="ID0.8535828334279358_22_" fill="#000000" d="M 21.7 76 C 19.3 75.2 16.6 73.9 14.5 71.2 C 9.8 65.3 9.4 56.9 5.2 58.4 C 1 59.9 -1 73.3 10.5 79.3 C 14.5 81.4 18.3 82 21.4 82.4 C 22.2 82.5 29.3 82.9 32.1 79.8 C 35 76.7 33.5 75.6 32.7 74.9 C 32 74.3 25 77.3 21.7 76 Z " stroke-width="1"/>
  <path id="ID0.914295740891248_22_" fill="#101010" d="M 5.4 58.3 C 3.3 58.7 1.4 63.3 1.8 67 C 2.3 70.7 3.9 73.2 4.9 74.7 C 6.3 76 4.7 71.6 7.1 70.1 C 9.5 68.6 13.5 69.9 13.5 69.9 C 13.5 69.9 11 65.1 9.7 62.4 C 8.6 59.9 7.6 58.1 5.4 58.3 Z " stroke-width="1"/>
  <g id="Layer_2_46_">
    <path id="ID0.39854341372847557_22_" fill="#FAA51F" stroke="#8E5322" stroke-width="1.4" stroke-linecap="round" stroke-linejoin="round" d="M 35.8 72.5 "/>
  </g>
  <path id="ID0.46792364912107587_22_" fill="#000000" stroke="#000000" stroke-width="2" stroke-linecap="round" stroke-linejoin="round" d="M 47.9 66.8 C 46 73.2 44.7 83.1 34.4 80 C 24.1 77 27.5 68.6 29.4 62.2 C 31.3 55.8 35.4 55.1 41.2 56.8 C 47 58.6 49.8 60.4 47.9 66.8 Z "/>
  <path id="ID0.38032895559445024_17_" fill="#101010" d="M 46.8 69.2 C 45.6 73.2 44.1 79.3 41.6 77.8 C 37 75 36.5 70.7 37.7 66.7 C 38.9 62.7 41.4 62 44.9 63.2 C 48.2 64.2 48 65.1 46.8 69.2 Z " stroke-width="1"/>
  <g id="ID0.16171270422637463_18_">
    <path id="ID0.007584026083350182_18_" fill="#000000" stroke="#000000" stroke-width="2" stroke-linecap="round" stroke-linejoin="round" d="M 43.8 77.6 C 43.8 77.6 41.2 80.5 41.2 89.3 C 41.2 93.1 48.6 88.5 47.5 95.8 C 47.1 97.9 38 97.8 35.9 96.9 C 34.1 96 33.6 95.3 34.1 93.3 C 35.9 86.1 32.7 79 32.7 79 "/>
    <path id="ID0.31672530295327306_17_" fill="#FAA51F" stroke="#000000" stroke-width="2" stroke-linecap="round" stroke-linejoin="round" d="M 42.8 90.9 C 42.8 90.9 41.8 90.6 40.2 90.4 "/>
  </g>
  <g id="ID0.32655431842431426">
    <g id="ID0.7407716196030378_33_">
      <path id="ID0.15909873321652412_29_" fill="#000000" stroke="#000000" stroke-width="2" stroke-linecap="round" stroke-linejoin="round" d="M 22.7 64.4 C 20.1 57.8 19.3 60.3 20.3 57.6 C 24 54 32.1 53.8 37.9 56 L 46.6 59.2 "/>
      <path id="ID0.8024068027734756_33_" fill="#FAA51F" stroke="#8E5322" stroke-width="1.4" stroke-linecap="round" stroke-linejoin="round" d="M 28.1 62.1 "/>
      <path id="ID0.06734407460317016_33_" fill="none" stroke="#8E5322" stroke-width="1.4" stroke-linecap="round" stroke-linejoin="round" d="M 31.3 63.8 "/>
      <path id="ID0.8143284288235009_15_" fill="#FAA51F" stroke="#000000" stroke-width="2" stroke-linecap="round" stroke-linejoin="round" d="M 27.4 62.5 L 33 62.4 "/>
      <path id="ID0.6682511982508004_6_" fill="none" stroke="#000000" stroke-width="2" stroke-linecap="round" stroke-linejoin="round" d="M 26.6 62.8 L 26.2 61 "/>
    </g>
    <path id="ID0.1790580078959465_36_" fill="#000000" stroke="#000000" stroke-width="2" stroke-linecap="round" stroke-linejoin="round" d="M 26.5 63.2 C 27.8 68.9 24.4 71.6 22.7 71.4 C 18.7 70.8 17.4 66.1 20.1 57.8 "/>
  </g>
  <path id="ID0.2591130444779992_22_" fill="#000000" d="M 53.7 12.5 C 52.2 12.2 49.2 11.6 47.5 11.5 C 42.9 11.1 38.4 12.3 38.4 12.3 L 26.9 2.6 L 26.8 21 C 27.5 20.3 15.2 32.1 20.6 43.8 C 26.1 55.7 40 62.4 58.5 61 C 77 59.6 82.6 49.8 82 44.2 C 81.4 38.6 74.9 35.7 74.9 35.7 C 74.9 35.7 75.3 31.4 72.9 25.8 C 71.4 22.4 65.8 17.1 65.8 17.1 L 64.4 5.6 L 56.4 11.7 L 53.7 12.5 Z " stroke-width="1"/>
  <path id="ID0.3588979784399271_22_" fill="#101010" d="M 74 35.4 L 71.9 33.1 L 62.8 34.6 C 62.8 34.6 62.4 37.9 58.1 38.3 C 53.9 38.7 47 36.2 47 36.2 L 39.7 37.1 C 39.7 37.1 31.7 35.6 30.5 41.9 C 28.5 52.8 37 59.2 45.5 60.2 C 51 60.9 54.5 60.6 58.5 60.4 C 75.9 59.4 82.1 49.7 81.3 44.1 C 80.8 38.5 74.4 36.1 74.4 36.1 L 74 35.4 Z " stroke-width="1"/>
  <path id="ID0.2727069961838424_22_" fill="none" stroke="#000000" stroke-width="2" stroke-linecap="round" stroke-linejoin="round" d="M 78.3 41.4 C 78.3 41.4 82.7 40.9 85 40.3 C 87.6 39.5 89.5 38 89.5 38 "/>
  <path id="ID0.5861211125738919_22_" fill="none" stroke="#000000" stroke-width="2" stroke-linecap="round" stroke-linejoin="round" d="M 78.1 47.2 C 78.1 47.2 80.7 48.4 83.5 48.6 C 86.2 49 88 48.8 88 48.8 "/>
  <path id="ID0.4793355236761272_22_" fill="none" stroke="#000000" stroke-width="2" stroke-linecap="round" stroke-linejoin="round" d="M 36.3 10.5 L 41 14.7 "/>
  <path id="ID0.9024141579866409_22_" fill="none" stroke="#000000" stroke-width="2" stroke-linecap="round" stroke-linejoin="round" d="M 9.5 37.7 C 9.5 37.7 13.4 38.8 15.1 39 C 16.9 39.2 20.4 39.4 20.4 39.4 "/>
  <path id="ID0.16030752705410123_22_" fill="none" stroke="#000000" stroke-width="2" stroke-linecap="round" stroke-linejoin="round" d="M 21.2 35.6 C 21.2 35.6 19.3 33.4 16.2 31.1 C 12.7 28.5 10.6 27.6 10.6 27.6 "/>
  <g id="Layer_5_23_">
    <path id="ID0.40023312577977777_22_" fill="#FFFFFF" stroke="black" stroke-width="2" stroke-linecap="round" stroke-linejoin="round" d="M 70.7 25.6 C 73 30.2 72.4 35.2 69.6 36.5 C 66.7 38 62.5 35.3 60.2 30.6 C 57.9 26 58.5 21 61.3 19.7 C 64.2 18.3 68.4 20.9 70.7 25.6 Z "/>
    <path id="ID0.43813491938635707_22_" fill="#414142" d="M 70.1 29.1 C 70.3 30.1 69.7 31.1 68.6 31.2 C 67.7 31.4 66.8 30.7 66.6 29.5 C 66.4 28.5 67 27.5 68.1 27.4 C 69.1 27.4 70 28.1 70.1 29.1 " stroke-width="1"/>
  </g>
  <g id="Layer_7_23_">
    <path id="ID0.4253597157076001_22_" fill="#FFFFFF" stroke="black" stroke-width="2" stroke-linecap="round" stroke-linejoin="round" d="M 47.3 25.8 C 49.6 30.4 48.6 35.5 45.2 37.2 C 41.8 38.9 37.1 36.5 34.9 31.8 C 32.6 27.2 33.6 22.1 37 20.4 C 40.4 18.8 45 21.2 47.3 25.8 Z "/>
    <path id="ID0.814307457767427_22_" fill="#414142" d="M 46.5 29.6 C 46.4 30.6 45.5 31.4 44.6 31.3 C 43.6 31.2 43 30.3 43.1 29.2 C 43.2 28.2 44.1 27.4 45 27.5 C 45.9 27.6 46.6 28.5 46.5 29.6 " stroke-width="1"/>
  </g>
  <path id="ID0.5240494590252638_22_" fill="#000000" stroke="#000000" stroke-width="2" stroke-linecap="round" stroke-linejoin="round" d="M 57 37 C 58.7 37 61.2 36 61.2 37.9 C 61.1 38.7 59.1 41.8 57.3 41.7 C 55.3 41.6 52.1 38.6 52.4 37.2 C 52.7 35.6 55.5 37 57 37 Z "/>
  <path id="ID0.046259244438260794_22_" fill="#FFFFFF" stroke="#000000" stroke-width="2" stroke-linecap="round" stroke-linejoin="round" d="M 46.1 51.1 C 46.1 51.1 48.3 53.7 53.8 53.3 "/>
  <path id="ID0.042709666304290295" fill="#101010" stroke="none" d="M 44.6058 26.8 C 45.2607 26.8 45.8545 27.091 46.2847 27.562 C 46.715 28.033 46.9808 28.683 46.9808 29.4 C 46.9808 30.117 46.715 30.767 46.2847 31.238 C 45.8545 31.709 45.2607 32 44.6058 32 C 43.9508 32 43.3571 31.709 42.9268 31.238 C 42.4966 30.767 42.2308 30.117 42.2308 29.4 C 42.2308 28.683 42.4966 28.033 42.9268 27.562 C 43.3571 27.091 43.9508 26.8 44.6058 26.8 Z " stroke-width="0.9577087324721634"/>
  <path id="ID0.042709666304290295" fill="#101010" stroke="none" d="M 68.1058 26.8 C 68.7607 26.8 69.3545 27.091 69.7847 27.562 C 70.215 28.033 70.4808 28.683 70.4808 29.4 C 70.4808 30.117 70.215 30.767 69.7847 31.238 C 69.3545 31.709 68.7607 32 68.1058 32 C 67.4508 32 66.8571 31.709 66.4268 31.238 C 65.9966 30.767 65.7308 30.117 65.7308 29.4 C 65.7308 28.683 65.9966 28.033 66.4268 27.562 C 66.8571 27.091 67.4508 26.8 68.1058 26.8 Z " stroke-width="0.9577087324721634"/>
</svg>