<svg xmlns="http://www.w3.org/2000/svg" xmlns:xlink="http://www.w3.org/1999/xlink" version="1.1" width="90.09520721435547" height="98.21268463134766" viewBox="-0.3952130079269409 2 90.09520721435547 98.21268463134766">
  <!-- Exported by Scratch - http://scratch.mit.edu/ -->
  <path id="ID0.40227043256163597_11_" fill="none" stroke="#000000" stroke-width="2" stroke-linecap="round" stroke-linejoin="round" d="M 17 69.3 C 15 67.8 12.9 65.7 11.7 62.5 C 9.1 55.5 11.4 47.3 6.9 47.4 C 2.4 47.5 -3.7 59.6 5.3 68.9 C 8.4 72.2 11.9 73.9 14.6 75.3 C 15.3 75.7 21.9 78.3 25.6 76.2 C 29.3 74.1 28.2 72.6 27.7 71.8 C 27.3 70.9 19.8 71.5 17 69.3 Z "/>
  <path id="ID0.48413723474368453_11_" fill="none" stroke="#000000" stroke-width="2" stroke-linecap="round" stroke-linejoin="round" d="M 54.4 14.3 C 52.9 13.9 49.9 13.2 48.2 13 C 43.6 12.4 39.1 13.3 39.1 13.3 L 28.1 3 L 27.1 21.4 C 27.8 20.7 14.9 31.8 19.7 43.8 C 24.5 56 38 63.4 56.6 63.1 C 75.1 62.7 81.2 53.2 81 47.5 C 80.8 41.9 74.4 38.6 74.4 38.6 C 74.4 38.6 75.1 34.3 72.9 28.6 C 71.6 25.1 66.3 19.5 66.3 19.5 L 65.5 8 L 57.2 13.6 L 54.4 14.3 Z "/>
  <path id="ID0.1790580078959465_13_" fill="#000000" stroke="#000000" stroke-width="2" stroke-linecap="round" stroke-linejoin="round" d="M 43.7 63 C 43.6 62 47.4 57.6 47.4 56.8 C 47.1 48.1 49.9 44.4 51.5 44.5 C 55.1 44.8 56.8 48.6 55.4 55.5 C 54.4 60.6 47.5 69.9 47.3 70.7 "/>
  <g id="ID0.15723733883351088_13_">
    <path id="ID0.527006761636585_13_" fill="#000000" stroke="#000000" stroke-width="2" stroke-linecap="round" stroke-linejoin="round" d="M 27.5 75.6 C 27.5 75.6 23.6 79.9 22.4 80.5 C 15.6 77.4 16.2 76.2 13.2 79.8 C 11.8 81.5 8.8 85.2 10.4 87.1 C 16.3 92.7 14 81.3 22.2 87.9 C 24.4 88.8 26.8 83.2 36.4 82.1 "/>
    <path id="ID0.8937406223267317_18_" fill="#FAA51F" stroke="#000000" stroke-width="2" stroke-linecap="round" stroke-linejoin="round" d="M 18.9 85.7 C 18.4 85.3 16.9 84.8 16.4 84.3 "/>
  </g>
  <path id="ID0.8535828334279358_11_" fill="#000000" d="M 17 69.3 C 15 67.8 12.9 65.7 11.7 62.5 C 9.1 55.5 11.4 47.3 6.9 47.4 C 2.4 47.5 -3.7 59.6 5.3 68.9 C 8.4 72.2 11.9 73.9 14.6 75.3 C 15.3 75.7 21.9 78.3 25.6 76.2 C 29.3 74.1 28.2 72.6 27.7 71.8 C 27.3 70.9 19.8 71.5 17 69.3 Z " stroke-width="1"/>
  <path id="ID0.914295740891248_11_" fill="#101010" d="M 7.1 47.3 C 5 47 1.7 50.8 0.9 54.4 C 0.2 58 0.9 60.9 1.4 62.7 C 2.3 64.4 2.2 59.7 4.9 59 C 7.6 58.3 11 60.8 11 60.8 C 11 60.8 10.2 55.4 9.8 52.5 C 9.6 49.8 9.3 47.9 7.1 47.3 Z " stroke-width="1"/>
  <g id="Layer_2_24_">
    <path id="ID0.39854341372847557_11_" fill="#FAA51F" stroke="#8E5322" stroke-width="1.4" stroke-linecap="round" stroke-linejoin="round" d="M 35.3 74.5 "/>
  </g>
  <path id="ID0.46792364912107587_11_" fill="#000000" stroke="#000000" stroke-width="2" stroke-linecap="round" stroke-linejoin="round" d="M 47.4 68.8 C 45.5 75.2 44.2 85.1 33.9 82 C 23.5 79 27 70.6 28.9 64.2 C 30.8 57.8 34.9 57.1 40.7 58.8 C 46.5 60.6 49.3 62.4 47.4 68.8 Z "/>
  <path id="ID0.38032895559445024_11_" fill="#101010" d="M 46.2 71.3 C 45 75.3 43.3 79.1 41.4 77.5 C 37.3 74.2 37.3 72.7 38.5 68.6 C 39.7 64.6 42.3 63.6 45.7 65.1 C 47.9 66.1 47.4 67.2 46.2 71.3 Z " stroke-width="1"/>
  <g id="ID0.16171270422637463_11_">
    <path id="ID0.007584026083350182_11_" fill="#000000" stroke="#000000" stroke-width="2" stroke-linecap="round" stroke-linejoin="round" d="M 45.3 76.8 C 45.3 76.8 43.5 77.4 43.2 79.9 C 42.9 82.2 44.1 86.2 45.6 90.2 C 46.9 93.8 52.6 87.8 54.1 95.1 C 54.5 97.2 45.5 99.4 43.3 99.2 C 41.3 99 40.6 98.5 40.4 96.5 C 39.6 89.2 30.9 79.4 30.9 79.4 "/>
    <path id="ID0.31672530295327306_11_" fill="#FAA51F" stroke="#000000" stroke-width="2" stroke-linecap="round" stroke-linejoin="round" d="M 47.9 91.4 C 47.9 91.4 46.6 91.5 45.2 92.2 "/>
  </g>
  <path id="ID0.2591130444779992_11_" fill="#000000" d="M 54.4 14.3 C 52.9 13.9 49.9 13.2 48.2 13 C 43.6 12.4 39.1 13.3 39.1 13.3 L 28.1 3 L 27.1 21.4 C 27.8 20.7 14.9 31.8 19.7 43.8 C 24.5 56 38 63.4 56.6 63.1 C 75.1 62.7 81.2 53.2 81 47.5 C 80.8 41.9 74.4 38.6 74.4 38.6 C 74.4 38.6 75.1 34.3 72.9 28.6 C 71.6 25.1 66.3 19.5 66.3 19.5 L 65.5 8 L 57.2 13.6 L 54.4 14.3 Z " stroke-width="1"/>
  <path id="ID0.3588979784399271_11_" fill="#101010" d="M 73.5 38.3 L 71.5 35.9 L 62.4 36.9 C 62.4 36.9 61.8 40.1 57.5 40.3 C 53.2 40.5 46.5 37.6 46.5 37.6 L 39.2 38.1 C 39.2 38.1 31.3 36.2 29.8 42.4 C 27.2 53.2 35.4 60.1 43.8 61.4 C 49.2 62.4 52.8 62.3 56.7 62.3 C 74.2 62.3 80.8 52.9 80.3 47.2 C 80.1 41.6 73.9 38.8 73.9 38.8 L 73.5 38.3 Z " stroke-width="1"/>
  <path id="ID0.2727069961838424_11_" fill="none" stroke="#000000" stroke-width="2" stroke-linecap="round" stroke-linejoin="round" d="M 77.4 44.5 C 77.4 44.5 81.8 44.3 84.1 43.7 C 86.8 43.1 88.7 41.7 88.7 41.7 "/>
  <path id="ID0.5861211125738919_11_" fill="none" stroke="#000000" stroke-width="2" stroke-linecap="round" stroke-linejoin="round" d="M 76.9 50.3 C 76.9 50.3 79.4 51.6 82.2 52 C 84.9 52.5 86.7 52.4 86.7 52.4 "/>
  <path id="ID0.4793355236761272_11_" fill="none" stroke="#000000" stroke-width="2" stroke-linecap="round" stroke-linejoin="round" d="M 37.1 11.5 L 41.6 16 "/>
  <path id="ID0.9024141579866409_11_" fill="none" stroke="#000000" stroke-width="2" stroke-linecap="round" stroke-linejoin="round" d="M 9 37.2 C 9 37.2 12.8 38.5 14.6 38.8 C 16.4 39.1 19.9 39.5 19.9 39.5 "/>
  <path id="ID0.16030752705410123_11_" fill="none" stroke="#000000" stroke-width="2" stroke-linecap="round" stroke-linejoin="round" d="M 20.7 35.7 C 20.7 35.7 18.9 33.4 15.9 30.9 C 12.5 28.1 10.5 27.1 10.5 27.1 "/>
  <g id="Layer_5_12_">
    <path id="ID0.40023312577977777_11_" fill="#FFFFFF" stroke="black" stroke-width="2" stroke-linecap="round" stroke-linejoin="round" d="M 70.7 28.3 C 72.7 33 71.9 38 69 39.2 C 66 40.5 62 37.6 60 32.8 C 58 28.1 58.8 23.1 61.7 21.9 C 64.6 20.7 68.7 23.6 70.7 28.3 Z "/>
    <path id="ID0.43813491938635707_11_" fill="#414142" d="M 69 33.8 C 69.1 34.8 68.5 35.7 67.4 35.9 C 66.5 36 65.6 35.3 65.5 34.1 C 65.4 33.1 66 32.2 67.1 32 C 68 32 68.8 32.8 69 33.8 " stroke-width="1"/>
  </g>
  <g id="Layer_7_12_">
    <path id="ID0.4253597157076001_11_" fill="#FFFFFF" stroke="black" stroke-width="2" stroke-linecap="round" stroke-linejoin="round" d="M 47.3 27.3 C 49.3 32 48.1 37.1 44.6 38.6 C 41.1 40.1 36.6 37.5 34.6 32.7 C 32.6 28 33.8 22.9 37.3 21.4 C 40.8 19.9 45.3 22.6 47.3 27.3 Z "/>
    <path id="ID0.814307457767427_11_" fill="#414142" d="M 45.3 33.1 C 45.1 34.1 44.2 34.8 43.3 34.7 C 42.3 34.5 41.8 33.6 42 32.5 C 42.2 31.5 43.1 30.8 44 30.9 C 44.9 31.1 45.5 32 45.3 33.1 " stroke-width="1"/>
  </g>
  <path id="ID0.5240494590252638_11_" fill="#000000" stroke="#000000" stroke-width="2" stroke-linecap="round" stroke-linejoin="round" d="M 56.4 39 C 58.1 39.1 60.6 38.2 60.6 40.1 C 60.5 40.9 58.3 43.9 56.5 43.6 C 54.5 43.3 51.5 40.3 51.9 38.8 C 52.2 37.4 54.9 38.9 56.4 39 Z "/>
  <path id="ID0.046259244438260794_11_" fill="#FFFFFF" stroke="#000000" stroke-width="2" stroke-linecap="round" stroke-linejoin="round" d="M 44.7 52.5 C 44.7 52.5 46.8 55.2 52.3 55.1 "/>
  <path id="ID0.1790580078959465_14_" fill="#000000" stroke="#000000" stroke-width="2" stroke-linecap="round" stroke-linejoin="round" d="M 33.3 59.4 C 33.4 58.4 29.6 54 29.6 53.2 C 29.9 44.5 27.1 40.8 25.5 40.9 C 21.9 41.2 20.2 45 21.6 51.9 C 22.6 57 29.5 66.3 29.7 67.1 "/>
  <path id="ID0.042709666304290295" fill="#101010" stroke="none" d="M 43.5058 30.3 C 44.1607 30.3 44.7545 30.591 45.1847 31.062 C 45.615 31.533 45.8808 32.183 45.8808 32.9 C 45.8808 33.617 45.615 34.267 45.1847 34.738 C 44.7545 35.209 44.1607 35.5 43.5058 35.5 C 42.8508 35.5 42.2571 35.209 41.8268 34.738 C 41.3966 34.267 41.1308 33.617 41.1308 32.9 C 41.1308 32.183 41.3966 31.533 41.8268 31.062 C 42.2571 30.591 42.8508 30.3 43.5058 30.3 Z " stroke-width="0.9577087324721634"/>
  <path id="ID0.042709666304290295" fill="#101010" stroke="none" d="M 67.3058 31.3 C 67.9607 31.3 68.5545 31.591 68.9847 32.062 C 69.415 32.533 69.6808 33.183 69.6808 33.9 C 69.6808 34.617 69.415 35.267 68.9847 35.738 C 68.5545 36.209 67.9607 36.5 67.3058 36.5 C 66.6508 36.5 66.0571 36.209 65.6268 35.738 C 65.1966 35.267 64.9308 34.617 64.9308 33.9 C 64.9308 33.183 65.1966 32.533 65.6268 32.062 C 66.0571 31.591 66.6508 31.3 67.3058 31.3 Z " stroke-width="0.9577087324721634"/>
</svg>