<svg xmlns="http://www.w3.org/2000/svg" xmlns:xlink="http://www.w3.org/1999/xlink" version="1.1" width="616.3873901367188" height="414.8078308105469" viewBox="0.11262321472167969 7.764669418334961 616.3873901367188 414.8078308105469">
  <!-- Exported by Scratch - http://scratch.mit.edu/ -->
  <path id="ID0.968818121124059" fill="#000000" stroke="#000000" stroke-width="13" stroke-linecap="round" d="M 160 249 C 196.967 249.367 231.972 270.722 269 271 C 301.529 271.242 333.356 262.074 364 252 C 392.436 242.65 414.346 214.97 444 211 C 460.357 208.838 474.965 225.74 487 238 C 490.693 241.102 487.994 247.274 487 253 C 485.661 260.565 480.362 266.341 480 275 C 479.531 287.468 477.488 302.094 486 312 C 495.71 323.216 521.725 313.708 528 327 C 535.478 342.894 507.05 366.212 519 379 L 610 415 L 153.05 410 C 1.238 408.812 73.714 416.917 34.05 416 C 24.133 415.771 15.233 414.848 13.05 408 C 5.392 388.351 5.774 366.584 8.05 346 C 10.372 324.92 19.543 305.929 28 287 C 30.172 282.129 34.892 279.923 39 278 C 48.379 273.18 58.066 269.263 68 267 C 98.43 260.057 128.68 248.006 160 249 Z "/>
  <path id="ID0.8267871094867587" fill="#000000" stroke="none" stroke-linecap="round" d="M 506.0209 59.5582 C 498.2799 70.7568 495.6374 84.4808 492.6589 98.2078 C 489.8261 111.3129 486.4857 125.8959 491.5557 138.5859 C 494.2346 145.6952 505.6681 148.7558 513.919 150.4133 C 522.5329 152.0946 532.9106 155.2081 537.2548 149.0718 C 547.3592 137.8586 549.8186 121.1604 549.9897 107.102 C 550.1131 93.9824 546.626 80.6114 541.0335 68.7745 C 537.6906 61.633 531.1424 56.1859 524.2392 54.6695 C 517.8952 52.6991 509.7605 54.1324 506.0209 59.5582 Z " stroke-width="0.9999999818162236"/>
  <path id="ID0.8267871094867587" fill="#000000" stroke="none" stroke-linecap="round" d="M 337.0584 19.0477 C 326.5338 25.8341 321.7829 39.922 320.8627 52.6164 C 319.8372 67.0403 324.7198 82.5892 332.0545 95.4105 C 335.4736 100.015 336.2597 91.7656 338.7289 91.9897 C 342.826 92.4961 344.0562 98.701 347.6579 99.0122 C 350.3134 99.0594 350.0715 94.5706 352.0857 95.6375 C 355.1798 95.0508 356.4019 99.3336 359.7575 100.1943 C 363.2001 100.9143 365.7539 95.8681 369.6114 96.8241 C 373.5107 96.945 376.1665 103.9593 380.3785 103.0452 C 384.8805 101.9296 382.6323 92.4792 386.842 90.199 C 389.9316 88.7099 394.7384 100.6842 395.7955 97.1723 C 399.9345 78.48 402.998 59.3809 398.3174 41.1573 C 395.6664 30.8453 385.8938 21.4246 375.6675 18.3487 C 363.3222 13.2768 347.6156 12.2985 337.0584 19.0477 Z " stroke-width="1.134902340937486"/>
</svg>