<svg xmlns="http://www.w3.org/2000/svg" xmlns:xlink="http://www.w3.org/1999/xlink" version="1.1" width="82.4990005493164" height="97.04083251953125" viewBox="0.7009999752044678 1.7000000476837158 82.4990005493164 97.04083251953125">
  <!-- Exported by Scratch - http://scratch.mit.edu/ -->
  <path id="ID0.40227043256163597_16_" fill="none" stroke="#000000" stroke-width="2" stroke-linecap="round" stroke-linejoin="round" d="M 28 72.501 C 25.7 71.501 23.1 70.001 21.2 67.2 C 17 61.001 17.2 52.501 12.9 53.7 C 8.6 54.9 5.6 68.101 16.6 74.9 C 20.401 77.3 24.201 78.2 27.201 78.8 C 28.001 79 35.001 79.9 38.1 77 C 41.201 74.1 39.8 72.899 39.1 72.199 C 38.4 71.601 31.2 74.001 28 72.501 Z "/>
  <path id="ID0.48413723474368453_16_" fill="none" stroke="#000000" stroke-width="2" stroke-linecap="round" stroke-linejoin="round" d="M 43.2 10.9 C 41.7 10.8 38.599 10.6 36.9 10.7 C 32.299 10.9 28 12.6 28 12.6 L 15.4 4.4 L 17.6 22.7 C 18.201 21.9 7.401 35.1 14.201 46.1 C 21.1 57.2 35.701 62.1 53.901 58.5 C 72.1 54.9 76.4 44.4 75.2 38.9 C 74 33.4 67.099 31.3 67.099 31.3 C 67.099 31.3 67 27.001 63.9 21.7 C 62 18.501 55.8 13.9 55.8 13.9 L 53 2.7 L 45.8 9.7 L 43.2 10.9 Z "/>
  <path id="ID0.30105241015553474_3_" fill="#000000" stroke="#000000" stroke-width="2" stroke-linecap="round" stroke-linejoin="round" d="M 48.563 72.646 C 48.98 72.506 55.433 73.713 55.775 73.504 C 60.488 70.637 58.264 61.65 54.311 57.584 L 50.105 56.921 "/>
  <path id="ID0.1790580078959465_42_" fill="#000000" stroke="#000000" stroke-width="2" stroke-linecap="round" stroke-linejoin="round" d="M 50.427 69.624 C 46.37 73.884 47.359 78.481 48.932 79.131 C 52.62 80.692 56.244 77.33 58.23 68.851 "/>
  <path id="ID0.8535828334279358_16_" fill="#000000" d="M 28 72.501 C 25.7 71.501 23.1 70.001 21.2 67.2 C 17 61.001 17.2 52.501 12.9 53.7 C 8.6 54.9 5.6 68.101 16.6 74.9 C 20.401 77.3 24.201 78.2 27.201 78.8 C 28.001 79 35.001 79.9 38.1 77 C 41.201 74.1 39.8 72.899 39.1 72.199 C 38.4 71.601 31.2 74.001 28 72.501 Z " stroke-width="1"/>
  <path id="ID0.914295740891248_16_" fill="#101010" d="M 13.1 53.601 C 11 53.801 8.701 58.301 8.8 62.001 C 9 65.7 10.4 68.301 11.3 69.9 C 12.6 71.3 11.3 66.8 13.8 65.501 C 16.3 64.2 20.2 65.801 20.2 65.801 C 20.2 65.801 18.099 60.801 17 58.001 C 16.1 55.4 15.3 53.601 13.1 53.601 Z " stroke-width="1"/>
  <path id="ID0.007584026083350182_16_" fill="#000000" stroke="#000000" stroke-width="2" stroke-linecap="round" stroke-linejoin="round" d="M 52.4 74.7 C 52.4 74.7 50.7 80.2 51.5 89.001 C 51.8 92.801 58.9 88.501 58.4 95.9 C 58.2 98.001 49 97.8 46.9 97.001 C 45 96.301 44.5 95.601 44.799 93.601 C 45.9 86.301 42.199 77.901 42.199 77.901 "/>
  <path id="ID0.31672530295327306_16_" fill="#FAA51F" stroke="#000000" stroke-width="2" stroke-linecap="round" stroke-linejoin="round" d="M 53.5 90.801 C 53.5 90.801 52.2 90.601 50.7 90.901 "/>
  <path id="ID0.46792364912107587_16_" fill="#000000" stroke="#000000" stroke-width="2" stroke-linecap="round" stroke-linejoin="round" d="M 53.2 63.801 C 53.2 70.501 54.9 80.301 43 80.301 C 31.1 80.301 32.2 71.301 32.2 64.601 C 32.2 57.901 36.3 56.101 43 56.101 C 49.7 56.101 53.2 57.101 53.2 63.801 Z "/>
  <path id="ID0.38032895559445024_22_" fill="#101010" d="M 50.6 66.7 C 50.6 70.9 51.5 77.2 45.1 77.2 C 38.701 77.2 39.201 71.501 39.201 67.301 C 39.201 63.101 41.401 61.901 45.1 61.901 C 48.8 61.9 50.6 62.501 50.6 66.7 Z " stroke-width="1"/>
  <path id="ID0.527006761636585_19_" fill="#000000" stroke="#000000" stroke-width="2" stroke-linecap="round" stroke-linejoin="round" d="M 33 74.7 C 33 74.7 35.6 80.2 34.3 88.9 C 33.7 92.7 28.1 88.001 28.5 95.6 C 28.6 98.1 36.2 97.9 38.4 97.5 C 40.5 97.1 41.299 96 41.099 93.899 C 40.799 89.699 42.299 80.599 42.299 80.599 "/>
  <path id="ID0.8937406223267317_26_" fill="#FAA51F" stroke="#000000" stroke-width="2" stroke-linecap="round" stroke-linejoin="round" d="M 31.9 90.7 C 31.9 90.7 33.5 90.501 34.9 90.9 "/>
  <path id="ID0.15909873321652412_36_" fill="#000000" stroke="#000000" stroke-width="2" stroke-linecap="round" stroke-linejoin="round" d="M 33.95 71.851 C 33.784 71.758 26.181 73.801 26.04 73.681 C 22.705 70.842 26.375 60.783 32.9 55.601 L 40.799 57.001 "/>
  <path id="ID0.8143284288235009_1_" fill="#FAA51F" stroke="#000000" stroke-width="2" stroke-linecap="round" stroke-linejoin="round" d="M 35.3 63.4 C 34.135 66.535 32.218 70.335 32.218 70.335 "/>
  <path id="ID0.6682511982508004_3_" fill="none" stroke="#000000" stroke-width="2" stroke-linecap="round" stroke-linejoin="round" d="M 32.563 70.501 L 31.364 70.2 "/>
  <path id="ID0.2591130444779992_16_" fill="#000000" d="M 43.2 10.9 C 41.7 10.8 38.599 10.6 36.9 10.7 C 32.299 10.9 28 12.6 28 12.6 L 15.4 4.4 L 17.6 22.7 C 18.201 21.9 7.401 35.1 14.201 46.1 C 21.1 57.2 35.701 62.1 53.901 58.5 C 72.1 54.9 76.4 44.4 75.2 38.9 C 74 33.4 67.099 31.3 67.099 31.3 C 67.099 31.3 67 27.001 63.9 21.7 C 62 18.501 55.8 13.9 55.8 13.9 L 53 2.7 L 45.8 9.7 L 43.2 10.9 Z " stroke-width="1"/>
  <path id="ID0.3588979784399271_16_" fill="#101010" d="M 66.2 31.2 L 63.8 29.2 L 55 31.801 C 55 31.801 55 35.101 50.8 36.001 C 46.6 36.9 39.5 35.301 39.5 35.301 L 32.4 37.101 C 32.4 37.101 24.299 36.601 23.9 43.001 C 23.2 54.101 32.5 59.4 41 59.301 C 46.5 59.301 50 58.601 53.9 57.901 C 71.099 54.801 76 44.401 74.5 38.901 C 73.3 33.401 66.7 31.801 66.7 31.801 L 66.2 31.2 Z " stroke-width="1"/>
  <path id="ID0.2727069961838424_16_" fill="none" stroke="#000000" stroke-width="2" stroke-linecap="round" stroke-linejoin="round" d="M 71.2 36.601 C 71.2 36.601 75.599 35.901 77.8 35.101 C 80.401 34.201 82.2 32.601 82.2 32.601 "/>
  <path id="ID0.5861211125738919_16_" fill="none" stroke="#000000" stroke-width="2" stroke-linecap="round" stroke-linejoin="round" d="M 71.7 42.4 C 71.7 42.4 74.3 43.501 77.099 43.7 C 79.799 44.001 81.599 43.801 81.599 43.801 "/>
  <path id="ID0.4793355236761272_16_" fill="none" stroke="#000000" stroke-width="2" stroke-linecap="round" stroke-linejoin="round" d="M 25.7 11.101 L 30.9 14.701 "/>
  <path id="ID0.9024141579866409_16_" fill="none" stroke="#000000" stroke-width="2" stroke-linecap="round" stroke-linejoin="round" d="M 2.5 41.9 C 2.5 41.9 6.5 42.3 8.3 42.2 C 10.1 42.1 13.6 41.6 13.6 41.6 "/>
  <path id="ID0.16030752705410123_16_" fill="none" stroke="#000000" stroke-width="2" stroke-linecap="round" stroke-linejoin="round" d="M 13.8 37.801 C 13.8 37.801 11.5 36.101 7.901 34.501 C 3.901 32.7 1.701 32.301 1.701 32.301 "/>
  <path id="ID0.40023312577977777_16_" fill="#101010" stroke="black" stroke-width="2" stroke-linecap="round" stroke-linejoin="round" d="M 61.7 21.801 C 64.5 26.101 64.599 31.101 61.9 32.801 C 59.2 34.601 54.7 32.501 51.9 28.101 C 49.099 23.801 49 18.801 51.7 17.101 C 54.4 15.401 58.9 17.501 61.7 21.801 Z "/>
  <path id="ID0.4253597157076001_16_" fill="#101010" stroke="black" stroke-width="2" stroke-linecap="round" stroke-linejoin="round" d="M 38.5 24.9 C 41.3 29.2 41 34.4 37.8 36.501 C 34.6 38.601 29.7 36.801 26.901 32.4 C 24.1 28.1 24.401 22.9 27.6 20.8 C 30.8 18.801 35.7 20.601 38.5 24.9 Z "/>
  <path id="ID0.5240494590252638_16_" fill="#000000" stroke="#000000" stroke-width="2" stroke-linecap="round" stroke-linejoin="round" d="M 49.5 34.801 C 51.2 34.601 53.5 33.301 53.8 35.2 C 53.8 36.001 52.2 39.301 50.401 39.4 C 48.401 39.501 44.901 37.001 45.001 35.501 C 45.101 34.001 48 35.001 49.5 34.801 Z "/>
  <path id="ID0.046259244438260794_16_" fill="#FFFFFF" stroke="#000000" stroke-width="2" stroke-linecap="round" stroke-linejoin="round" d="M 40.4 50.2 C 40.4 50.2 42.9 52.501 48.299 51.4 "/>
  <path id="ID0.1790580078959465_41_" fill="#000000" stroke="#000000" stroke-width="2" stroke-linecap="round" stroke-linejoin="round" d="M 33.332 71.025 C 38.491 73.85 38.305 78.161 37.003 79.257 C 33.962 81.864 29.49 79.764 25.021 72.288 "/>
</svg>