<svg xmlns="http://www.w3.org/2000/svg" xmlns:xlink="http://www.w3.org/1999/xlink" version="1.1" width="533.1405029296875" height="526.0713500976562" viewBox="0.8114376068115234 -6.5 533.1405029296875 526.0713500976562">
  <!-- Exported by Scratch - http://scratch.mit.edu/ -->
  <g id="ID0.24150228826329112">
    <path id="ID0.968818121124059" fill="#000000" stroke="#000000" stroke-width="13" stroke-linecap="round" d="M 348 133 C 325.046 123.951 308.695 101.215 286 91 C 262.273 81.562 235.789 81.282 211 75 C 147.041 58.808 64.81 -1.726 19 26 C -15.282 46.753 34.996 125.444 53 172 C 59.151 187.918 76.837 195.694 90 206 C 96.115 210.42 101.41 213.514 108 215 C 117.768 217.241 126.789 213.59 136 215 C 142.87 216.107 147.553 218.424 153 221 C 164.355 226.344 175.052 233.608 186 240 C 189.77 242.1 191.467 245.614 195 246 C 209.976 248.699 225.173 246.623 240 249 C 244.32 249.705 242.127 250.079 249 254 C 278.99 271.143 308.347 289.729 338 305 C 345.413 308.818 348.889 308.822 354 308 C 368.774 305.602 383.095 300.392 397 295 C 404.027 291.475 403.171 294.107 407 291 C 420.161 278.886 430.975 265.066 445 252 C 448.506 248.734 450.215 247.191 453 246 C 464.386 242.467 475.76 240.819 487 238 C 492.141 236.538 498.411 238.103 501 234 C 511.865 220.046 518.751 203.531 525 187 C 526.562 182.867 530.541 180.097 523 177 C 492.883 164.647 460.419 157.607 429 150 C 402.213 143.517 373.636 143.09 348 133 Z "/>
    <path id="ID0.7867436106316745" fill="#000000" stroke="none" stroke-linecap="round" d="M 41 0 L 114.5 0 L 123 37 L 37 20 L 41 0 Z " stroke-width="1"/>
  </g>
  <path id="ID0.968818121124059" fill="#000000" stroke="#000000" stroke-width="13" stroke-linecap="round" d="M 365 405 C 339.531 401.768 313.768 407.614 288 401 C 261.889 394.296 238.719 378.803 215 366 C 190.749 352.896 169.171 333.241 144 321 C 126.964 312.703 108.989 307.484 91 307 C 76.716 305.767 48.74 302.365 50 316 C 54.128 360.582 81.608 399.683 102 440 L 148 511 L 381 507 C 459.506 505.668 460.336 513.917 500 513 C 509.917 512.771 518.817 511.848 521 505 C 528.658 485.351 525.467 463.706 526 443 C 526.598 419.683 528.217 395.295 524 372 C 523.102 366.176 516.752 368.427 513 369 C 500.07 370.996 486.022 374.162 474 381 C 454.653 391.027 442.007 413.904 420 419 C 401.588 423.256 384.042 407.41 365 405 Z "/>
</svg>