<svg xmlns="http://www.w3.org/2000/svg" xmlns:xlink="http://www.w3.org/1999/xlink" version="1.1" width="89.82772064208984" height="95.26453399658203" viewBox="0.37227749824523926 1.7999999523162842 89.82772064208984 95.26453399658203">
  <!-- Exported by Scratch - http://scratch.mit.edu/ -->
  <path id="ID0.40227043256163597_8_" fill="none" stroke="#000000" stroke-width="2" stroke-linecap="round" stroke-linejoin="round" d="M 22.1 76.5 C 19.7 75.9 16.9 74.8 14.6 72.3 C 9.5 66.8 8.4 58.4 4.3 60.2 C 0.2 62 -0.7 75.5 11.2 80.6 C 15.3 82.4 19.2 82.7 22.3 82.8 C 23.1 82.9 30.2 82.7 32.8 79.4 C 35.4 76.1 33.9 75.1 33.1 74.5 C 32.2 74 25.5 77.5 22.1 76.5 Z "/>
  <path id="ID0.48413723474368453_4_" fill="none" stroke="#000000" stroke-width="2" stroke-linecap="round" stroke-linejoin="round" d="M 53.3 12.7 C 51.8 12.4 48.8 11.8 47.1 11.7 C 42.5 11.3 38 12.5 38 12.5 L 26.5 2.8 L 26.4 21.2 C 27.1 20.5 14.8 32.3 20.2 44 C 25.7 56 39.6 62.6 58.1 61.2 C 76.6 59.9 82.2 50 81.6 44.4 C 81.1 38.8 74.5 35.9 74.5 35.9 C 74.5 35.9 74.9 31.6 72.5 26 C 71 22.6 65.4 17.3 65.4 17.3 L 64 5.8 L 56 11.9 L 53.3 12.7 Z "/>
  <g id="ID0.7558174389414489">
    <g id="ID0.7407716196030378_8_">
      <path id="ID0.15909873321652412_8_" fill="#FAA51F" stroke="#8E5322" stroke-width="1.4" stroke-linecap="round" stroke-linejoin="round" d="M 40.5 61.1 C 40.3 61.3 49.4 73.1 49.2 73.2 C 47.1 73.7 45.1 74.3 44.2 74 C 40.3 72.6 35.8 68.6 33.4 63.9 L 33 62.5 "/>
      <path id="ID0.8024068027734756_8_" fill="#FAA51F" stroke="#8E5322" stroke-width="1.4" stroke-linecap="round" stroke-linejoin="round" d="M 45 66.7 "/>
      <path id="ID0.06734407460317016_8_" fill="none" stroke="#8E5322" stroke-width="1.4" stroke-linecap="round" stroke-linejoin="round" d="M 43.9 63.3 "/>
    </g>
    <path id="ID0.1790580078959465_8_" fill="#000000" stroke="#000000" stroke-width="2" stroke-linecap="round" stroke-linejoin="round" d="M 43.2 64.8 C 43.9 65.7 45 67 46 66.9 C 46.8 66.9 47.7 66.4 48.4 65.9 C 52.6 62.7 56.3 64.6 56.8 66.2 C 58 70 53.7 72.8 45.1 74 "/>
  </g>
  <g id="ID0.15723733883351088_11_">
    <path id="ID0.527006761636585_11_" fill="#000000" stroke="#000000" stroke-width="2" stroke-linecap="round" stroke-linejoin="round" d="M 26.6 74.6 C 26.6 74.6 29.9 78.9 30.1 80.3 C 26.2 80 26.8 76.9 25 81.2 C 24.2 83.2 22.3 87.7 24.5 88.9 C 31.7 92.5 26.5 84.7 36.7 86.2 C 39.6 86.4 44.9 85.4 39.4 77.4 "/>
    <path id="ID0.8937406223267317_15_" fill="#FAA51F" stroke="#000000" stroke-width="2" stroke-linecap="round" stroke-linejoin="round" d="M 34.5 86.2 C 33.4 85.9 31.5 85.9 30.1 85.8 "/>
    <path id="ID0.8937406223267317_14_" fill="#FAA51F" stroke="#000000" stroke-width="2" stroke-linecap="round" stroke-linejoin="round" d="M 32.4 81.8 C 31.9 81.6 30.4 79.7 29.4 78.8 "/>
  </g>
  <path id="ID0.8535828334279358_8_" fill="#000000" d="M 22.1 76.5 C 19.7 75.9 16.9 74.8 14.6 72.3 C 9.5 66.8 8.4 58.4 4.3 60.2 C 0.2 62 -0.7 75.5 11.2 80.6 C 15.3 82.4 19.2 82.7 22.3 82.8 C 23.1 82.9 30.2 82.7 32.8 79.4 C 35.4 76.1 33.9 75.1 33.1 74.5 C 32.2 74 25.5 77.5 22.1 76.5 Z " stroke-width="1"/>
  <path id="ID0.914295740891248_8_" fill="#101010" d="M 4.5 60.1 C 2.5 60.6 0.9 65.4 1.5 69.1 C 2.3 72.7 4 75.1 5.2 76.5 C 6.7 77.7 4.7 73.4 7 71.8 C 9.3 70.1 13.4 71.1 13.4 71.1 C 13.4 71.1 10.6 66.5 9 63.9 C 7.7 61.4 6.6 59.7 4.5 60.1 Z " stroke-width="1"/>
  <g id="Layer_2_18_">
    <path id="ID0.39854341372847557_8_" fill="#FAA51F" stroke="#8E5322" stroke-width="1.4" stroke-linecap="round" stroke-linejoin="round" d="M 35.3 73.1 "/>
  </g>
  <path id="ID0.46792364912107587_8_" fill="#000000" stroke="#000000" stroke-width="2" stroke-linecap="round" stroke-linejoin="round" d="M 47.3 67.5 C 45.4 73.9 44.2 83.8 33.4 80.6 C 22.6 77.4 26.2 69.1 28.1 62.7 C 30 56.3 34.2 55.6 40.3 57.4 C 46.3 59.2 49.2 61 47.3 67.5 Z "/>
  <g id="ID0.16171270422637463_9_">
    <path id="ID0.007584026083350182_9_" fill="#000000" stroke="#000000" stroke-width="2" stroke-linecap="round" stroke-linejoin="round" d="M 41.4 77.6 C 41.4 77.6 43.4 82.4 42.6 85.1 C 38.9 87.6 35.2 89.2 35.2 89.2 C 36 89.5 39.2 89.9 38.8 94.4 C 38.6 96.5 29.4 96.3 27.3 95.5 C 25.4 94.8 24.9 94.1 25.2 92.1 C 25.6 89.5 34.2 86.1 34.7 83.7 C 33.6 81.5 30.3 77.2 30.3 77.2 "/>
    <path id="ID0.31672530295327306_9_" fill="#FAA51F" stroke="#000000" stroke-width="2" stroke-linecap="round" stroke-linejoin="round" d="M 35.5 89.4 C 35.5 89.4 34.8 89.1 33.3 89.4 "/>
  </g>
  <path id="ID0.38032895559445024_8_" fill="#101010" d="M 46.3 69.1 C 45.1 73.1 43.3 79.8 40.2 77.9 C 35.6 75.1 35.1 70.8 36.3 66.8 C 37.5 62.8 39.9 62.2 43.5 63.3 C 47.1 64.4 47.5 65.1 46.3 69.1 Z " stroke-width="1"/>
  <g id="ID0.3596733887679875">
    <g id="ID0.7407716196030378_34_">
      <path id="ID0.15909873321652412_33_" fill="#000000" stroke="#000000" stroke-width="2" stroke-linecap="round" stroke-linejoin="round" d="M 23 65.6 C 19.8 59.2 19.3 61.8 20 59.1 C 23.3 55.2 32.1 54.5 38 56.3 L 38 56.3 "/>
      <path id="ID0.8024068027734756_34_" fill="#FAA51F" stroke="#8E5322" stroke-width="1.4" stroke-linecap="round" stroke-linejoin="round" d="M 28.2 62.9 "/>
      <path id="ID0.06734407460317016_34_" fill="none" stroke="#8E5322" stroke-width="1.4" stroke-linecap="round" stroke-linejoin="round" d="M 31.5 64.4 "/>
      <path id="ID0.8143284288235009_8_" fill="#FAA51F" stroke="#000000" stroke-width="2" stroke-linecap="round" stroke-linejoin="round" d="M 27.5 63.3 L 33.1 62.7 "/>
      <path id="ID0.6682511982508004_8_" fill="none" stroke="#000000" stroke-width="2" stroke-linecap="round" stroke-linejoin="round" d="M 26.7 63.7 L 26.1 61.9 "/>
    </g>
    <path id="ID0.1790580078959465_37_" fill="#000000" stroke="#000000" stroke-width="2" stroke-linecap="round" stroke-linejoin="round" d="M 27 63.7 C 29.3 69.1 26.5 72.4 24.8 72.4 C 20.8 72.6 18.6 68.2 19.7 59.5 "/>
  </g>
  <path id="ID0.2591130444779992_4_" fill="#000000" d="M 53.3 12.7 C 51.8 12.4 48.8 11.8 47.1 11.7 C 42.5 11.3 38 12.5 38 12.5 L 26.5 2.8 L 26.4 21.2 C 27.1 20.5 14.8 32.3 20.2 44 C 25.7 56 39.6 62.6 58.1 61.2 C 76.6 59.9 82.2 50 81.6 44.4 C 81.1 38.8 74.5 35.9 74.5 35.9 C 74.5 35.9 74.9 31.6 72.5 26 C 71 22.6 65.4 17.3 65.4 17.3 L 64 5.8 L 56 11.9 L 53.3 12.7 Z " stroke-width="1"/>
  <path id="ID0.3588979784399271_4_" fill="#101010" d="M 73.6 35.7 L 71.5 33.4 L 62.4 34.9 C 62.4 34.9 62 38.2 57.7 38.6 C 53.4 39 46.6 36.5 46.6 36.5 L 39.3 37.4 C 39.3 37.4 31.3 35.9 30.1 42.2 C 28 53.1 36.6 59.5 45.1 60.5 C 50.6 61.2 54.1 60.9 58.1 60.7 C 75.6 59.7 81.7 50 80.9 44.4 C 80.4 38.8 74 36.4 74 36.4 L 73.6 35.7 Z " stroke-width="1"/>
  <path id="ID0.2727069961838424_4_" fill="none" stroke="#000000" stroke-width="2" stroke-linecap="round" stroke-linejoin="round" d="M 77.9 41.6 C 77.9 41.6 82.3 41.2 84.6 40.6 C 87.3 39.9 89.2 38.4 89.2 38.4 "/>
  <path id="ID0.5861211125738919_4_" fill="none" stroke="#000000" stroke-width="2" stroke-linecap="round" stroke-linejoin="round" d="M 77.7 47.4 C 77.7 47.4 80.2 48.8 82.9 49.3 C 85.6 49.9 87.4 49.9 87.4 49.9 "/>
  <path id="ID0.4793355236761272_4_" fill="none" stroke="#000000" stroke-width="2" stroke-linecap="round" stroke-linejoin="round" d="M 35.9 10.8 L 40.6 15 "/>
  <path id="ID0.9024141579866409_4_" fill="none" stroke="#000000" stroke-width="2" stroke-linecap="round" stroke-linejoin="round" d="M 9.2 37.9 C 9.2 37.9 13.1 39 14.9 39.2 C 16.7 39.4 20.2 39.6 20.2 39.6 "/>
  <path id="ID0.16030752705410123_4_" fill="none" stroke="#000000" stroke-width="2" stroke-linecap="round" stroke-linejoin="round" d="M 20.8 35.8 C 20.8 35.8 18.9 33.7 15.6 31.4 C 12 28.9 10 28.1 10 28.1 "/>
  <g id="Layer_5_5_">
    <path id="ID0.40023312577977777_4_" fill="#FFFFFF" stroke="black" stroke-width="2" stroke-linecap="round" stroke-linejoin="round" d="M 70.3 25.8 C 72.6 30.4 72 35.4 69.2 36.7 C 66.3 38.2 62.1 35.5 59.8 30.8 C 57.5 26.2 58.1 21.2 60.9 19.9 C 63.8 18.5 68 21.2 70.3 25.8 Z "/>
    <path id="ID0.43813491938635707_4_" fill="#414142" d="M 69.8 29.3 C 70 30.3 69.4 31.3 68.3 31.4 C 67.4 31.6 66.5 30.9 66.3 29.7 C 66.1 28.7 66.7 27.7 67.8 27.6 C 68.8 27.6 69.6 28.3 69.8 29.3 " stroke-width="1"/>
  </g>
  <g id="Layer_7_5_">
    <path id="ID0.4253597157076001_4_" fill="#FFFFFF" stroke="black" stroke-width="2" stroke-linecap="round" stroke-linejoin="round" d="M 46.9 26 C 49.2 30.6 48.2 35.7 44.8 37.4 C 41.4 39.1 36.7 36.7 34.5 32 C 32.2 27.4 33.2 22.3 36.6 20.6 C 40 19 44.6 21.4 46.9 26 Z "/>
    <path id="ID0.814307457767427_4_" fill="#414142" d="M 46.1 29.9 C 46 30.9 45.1 31.7 44.2 31.6 C 43.2 31.5 42.6 30.6 42.7 29.5 C 42.8 28.5 43.7 27.7 44.6 27.8 C 45.6 27.9 46.2 28.8 46.1 29.9 " stroke-width="1"/>
  </g>
  <path id="ID0.5240494590252638_4_" fill="#000000" stroke="#000000" stroke-width="2" stroke-linecap="round" stroke-linejoin="round" d="M 56.6 37.2 C 58.3 37.2 60.8 36.2 60.8 38.1 C 60.7 38.9 58.7 42 56.9 41.9 C 54.9 41.8 51.7 38.8 52 37.4 C 52.3 36 55.1 37.2 56.6 37.2 Z "/>
  <path id="ID0.046259244438260794_4_" fill="#FFFFFF" stroke="#000000" stroke-width="2" stroke-linecap="round" stroke-linejoin="round" d="M 45.7 51.4 C 45.7 51.4 47.9 54 53.4 53.6 "/>
  <path id="ID0.042709666304290295" fill="#101010" stroke="none" d="M 44.0058 27.3 C 44.6607 27.3 45.2545 27.591 45.6847 28.062 C 46.115 28.533 46.3808 29.183 46.3808 29.9 C 46.3808 30.617 46.115 31.267 45.6847 31.738 C 45.2545 32.209 44.6607 32.5 44.0058 32.5 C 43.3508 32.5 42.7571 32.209 42.3268 31.738 C 41.8966 31.267 41.6308 30.617 41.6308 29.9 C 41.6308 29.183 41.8966 28.533 42.3268 28.062 C 42.7571 27.591 43.3508 27.3 44.0058 27.3 Z " stroke-width="0.9577087324721634"/>
  <path id="ID0.042709666304290295" fill="#101010" stroke="none" d="M 67.7558 26.95 C 68.4107 26.95 69.0045 27.241 69.4347 27.712 C 69.865 28.183 70.1308 28.833 70.1308 29.55 C 70.1308 30.267 69.865 30.917 69.4347 31.388 C 69.0045 31.859 68.4107 32.15 67.7558 32.15 C 67.1008 32.15 66.5071 31.859 66.0768 31.388 C 65.6466 30.917 65.3808 30.267 65.3808 29.55 C 65.3808 28.833 65.6466 28.183 66.0768 27.712 C 66.5071 27.241 67.1008 26.95 67.7558 26.95 Z " stroke-width="0.9577087324721634"/>
</svg>