<svg xmlns="http://www.w3.org/2000/svg" xmlns:xlink="http://www.w3.org/1999/xlink" version="1.1" width="90.80233764648438" height="93.27852630615234" viewBox="0.7976607084274292 1.2999999523162842 90.80233764648438 93.27852630615234">
  <!-- Exported by Scratch - http://scratch.mit.edu/ -->
  <path id="ID0.40227043256163597_18_" fill="none" stroke="#000000" stroke-width="2" stroke-linecap="round" stroke-linejoin="round" d="M 24.6 73.6 C 22.1 73.6 19.1 73.3 16.3 71.4 C 10 67.4 6.8 59.5 3.3 62.3 C -0.2 65.1 2.3 78.4 15.1 80.3 C 19.5 81 23.4 80.3 26.4 79.7 C 27.2 79.6 34 77.6 35.7 73.7 C 37.4 69.8 35.6 69.3 34.7 68.9 C 33.8 68.7 28.2 73.7 24.6 73.6 Z "/>
  <path id="ID0.48413723474368453_18_" fill="none" stroke="#000000" stroke-width="2" stroke-linecap="round" stroke-linejoin="round" d="M 54.5 12.2 C 53 11.9 50 11.3 48.3 11.2 C 43.7 10.8 39.2 12 39.2 12 L 27.7 2.3 L 27.6 20.7 C 28.3 20 16 31.8 21.4 43.5 C 27 55.4 40.8 62.1 59.3 60.7 C 77.8 59.4 83.4 49.5 82.8 43.9 C 82.3 38.3 75.7 35.4 75.7 35.4 C 75.7 35.4 76.1 31.1 73.7 25.5 C 72.2 22.1 66.6 16.8 66.6 16.8 L 65.2 5.3 L 57.2 11.4 L 54.5 12.2 Z "/>
  <g id="ID0.7722133221104741">
    <g id="ID0.7407716196030378_24_">
      <path id="ID0.15909873321652412_23_" fill="#000000" stroke="#000000" stroke-width="2" stroke-linecap="round" stroke-linejoin="round" d="M 34.1 63.9 C 34.1 63.6 19 57.8 19.2 57.7 C 20.9 56.6 23 55.4 23.9 55.2 C 27.9 54.2 33.9 55.1 38.4 57.7 L 40.5 59.6 "/>
      <path id="ID0.8024068027734756_24_" fill="#FAA51F" stroke="#8E5322" stroke-width="1.4" stroke-linecap="round" stroke-linejoin="round" d="M 27.3 61.7 "/>
      <path id="ID0.06734407460317016_24_" fill="none" stroke="#8E5322" stroke-width="1.4" stroke-linecap="round" stroke-linejoin="round" d="M 30.1 63.9 "/>
      <path id="ID0.8143284288235009_23_" fill="#FAA51F" stroke="#8E5322" stroke-width="1.4" stroke-linecap="round" stroke-linejoin="round" d="M 27.3 61.7 L 32.1 62.7 "/>
    </g>
    <path id="ID0.1790580078959465_27_" fill="#000000" stroke="#000000" stroke-width="2" stroke-linecap="round" stroke-linejoin="round" d="M 31.4 62.3 C 32.8 62.7 25.2 61.2 23.1 63.8 C 19.8 67.9 15.9 67.2 15 65.8 C 12.8 62.5 16.2 58.5 24 55 "/>
  </g>
  <path id="ID0.8535828334279358_18_" fill="#000000" d="M 24.6 73.6 C 22.1 73.6 19.1 73.3 16.3 71.4 C 10 67.4 6.8 59.5 3.3 62.3 C -0.2 65.1 2.3 78.4 15.1 80.3 C 19.5 81 23.4 80.3 26.4 79.7 C 27.2 79.6 34 77.6 35.7 73.7 C 37.4 69.8 35.6 69.3 34.7 68.9 C 33.8 68.7 28.2 73.7 24.6 73.6 Z " stroke-width="1"/>
  <path id="ID0.914295740891248_18_" fill="#101010" d="M 3.4 62.2 C 1.6 63.2 1.2 68.3 2.8 71.6 C 4.5 74.9 6.8 76.7 8.2 77.9 C 10 78.7 7 75.1 8.7 72.9 C 10.5 70.7 14.7 70.6 14.7 70.6 C 14.7 70.6 10.8 66.9 8.7 64.7 C 6.9 62.7 5.4 61.4 3.4 62.2 Z " stroke-width="1"/>
  <g id="ID0.16171270422637463_19_">
    <path id="ID0.007584026083350182_19_" fill="#000000" stroke="#000000" stroke-width="2" stroke-linecap="round" stroke-linejoin="round" d="M 46.3 71.6 C 46.3 71.6 49.6 77.9 55.9 84.1 C 58.6 86.8 61.2 78.9 65.6 84.9 C 66.8 86.6 59.7 92.4 57.6 93.2 C 55.7 93.9 54.9 93.7 53.8 92 C 49.9 85.7 38.6 79.7 38.6 79.7 "/>
    <path id="ID0.31672530295327306_19_" fill="#FAA51F" stroke="#000000" stroke-width="2" stroke-linecap="round" stroke-linejoin="round" d="M 58.6 84.1 C 58.6 84.1 57.5 84.8 56.5 86 "/>
  </g>
  <g id="Layer_2_38_">
    <path id="ID0.39854341372847557_18_" fill="#FAA51F" stroke="#8E5322" stroke-width="1.4" stroke-linecap="round" stroke-linejoin="round" d="M 36.5 71.6 "/>
  </g>
  <path id="ID0.46792364912107587_18_" fill="#000000" stroke="#000000" stroke-width="2" stroke-linecap="round" stroke-linejoin="round" d="M 48.6 65.9 C 46.7 72.3 45.6 82.2 34.2 78.9 C 22.8 75.5 26.4 67.2 28.3 60.8 C 29.8 55.6 35.3 56.3 41.1 55.7 C 47.7 55 50.5 59.5 48.6 65.9 Z "/>
  <path id="ID0.38032895559445024_18_" fill="#101010" d="M 45.3 68 C 44.1 72 43.2 78.3 37.1 76.5 C 31 74.7 33 69.4 34.2 65.3 C 34.5 64.1 36.5 63.6 37 63 C 38.4 61.4 40.2 61.4 41.4 61.8 C 44.9 62.9 46.5 64 45.3 68 Z " stroke-width="1"/>
  <g id="ID0.15723733883351088_21_">
    <path id="ID0.527006761636585_21_" fill="#000000" stroke="#000000" stroke-width="2" stroke-linecap="round" stroke-linejoin="round" d="M 27.9 71.4 C 27.9 71.4 20.9 76.1 19.5 76.6 C 18.4 74.8 17.1 74.4 15.2 75.3 C 13.2 76.3 6.9 80.6 8.3 82.7 C 12.5 89.1 15.4 81.3 18.2 84 C 20.2 85.1 28.4 78.7 37 78.9 "/>
    <path id="ID0.8937406223267317_29_" fill="#FAA51F" stroke="#000000" stroke-width="2" stroke-linecap="round" stroke-linejoin="round" d="M 18 83.9 C 16.9 82.9 16.3 81.4 16.3 81.4 "/>
  </g>
  <path id="ID0.2591130444779992_18_" fill="#000000" d="M 54.5 12.2 C 53 11.9 50 11.3 48.3 11.2 C 43.7 10.8 39.2 12 39.2 12 L 27.7 2.3 L 27.6 20.7 C 28.3 20 16 31.8 21.4 43.5 C 27 55.4 40.8 62.1 59.3 60.7 C 77.8 59.4 83.4 49.5 82.8 43.9 C 82.3 38.3 75.7 35.4 75.7 35.4 C 75.7 35.4 76.1 31.1 73.7 25.5 C 72.2 22.1 66.6 16.8 66.6 16.8 L 65.2 5.3 L 57.2 11.4 L 54.5 12.2 Z " stroke-width="1"/>
  <path id="ID0.3588979784399271_18_" fill="#101010" d="M 74.9 35.1 L 72.8 32.8 L 63.7 34.3 C 63.7 34.3 63.3 37.6 59 38 C 54.7 38.4 47.9 35.9 47.9 35.9 L 40.6 36.8 C 40.6 36.8 32.6 35.3 31.4 41.6 C 29.4 52.6 38 59 46.4 59.9 C 51.9 60.6 55.4 60.3 59.4 60.1 C 76.9 59.1 83 49.4 82.2 43.8 C 81.7 38.2 75.3 35.8 75.3 35.8 L 74.9 35.1 Z " stroke-width="1"/>
  <path id="ID0.2727069961838424_18_" fill="none" stroke="#000000" stroke-width="2" stroke-linecap="round" stroke-linejoin="round" d="M 79.2 41.1 C 79.2 41.1 83.7 40.9 85.9 40.4 C 88.6 39.8 90.6 38.5 90.6 38.5 "/>
  <path id="ID0.5861211125738919_18_" fill="none" stroke="#000000" stroke-width="2" stroke-linecap="round" stroke-linejoin="round" d="M 79 46.9 C 79 46.9 81.4 48.3 84.2 48.9 C 86.8 49.5 88.7 49.5 88.7 49.5 "/>
  <path id="ID0.4793355236761272_18_" fill="none" stroke="#000000" stroke-width="2" stroke-linecap="round" stroke-linejoin="round" d="M 37.2 10.2 L 41.9 14.4 "/>
  <path id="ID0.9024141579866409_18_" fill="none" stroke="#000000" stroke-width="2" stroke-linecap="round" stroke-linejoin="round" d="M 10.4 38 C 10.4 38 14.3 38.9 16.1 39 C 17.9 39.1 21.4 39.1 21.4 39.1 "/>
  <path id="ID0.16030752705410123_18_" fill="none" stroke="#000000" stroke-width="2" stroke-linecap="round" stroke-linejoin="round" d="M 22.1 35.3 C 22.1 35.3 20 33.3 16.6 31.3 C 12.9 29 10.7 28.4 10.7 28.4 "/>
  <g id="Layer_5_19_">
    <path id="ID0.40023312577977777_18_" fill="#FFFFFF" stroke="black" stroke-width="2" stroke-linecap="round" stroke-linejoin="round" d="M 71.6 25.2 C 73.9 29.8 73.3 34.8 70.5 36.1 C 67.6 37.6 63.4 34.9 61.1 30.2 C 58.8 25.6 59.4 20.6 62.2 19.3 C 65.1 18 69.3 20.6 71.6 25.2 Z "/>
    <path id="ID0.43813491938635707_18_" fill="#414142" d="M 71 28.8 C 71.2 29.8 70.6 30.8 69.5 30.9 C 68.6 31.1 67.7 30.4 67.5 29.2 C 67.3 28.2 67.9 27.2 69 27.1 C 70 27.1 70.9 27.8 71 28.8 " stroke-width="1"/>
  </g>
  <g id="Layer_7_19_">
    <path id="ID0.4253597157076001_18_" fill="#FFFFFF" stroke="black" stroke-width="2" stroke-linecap="round" stroke-linejoin="round" d="M 48.2 25.5 C 50.5 30.1 49.5 35.2 46.1 36.9 C 42.7 38.6 38 36.2 35.8 31.5 C 33.5 26.9 34.5 21.8 37.9 20.1 C 41.3 18.5 45.9 20.9 48.2 25.5 Z "/>
    <path id="ID0.814307457767427_18_" fill="#414142" d="M 47.4 29.3 C 47.3 30.3 46.4 31.1 45.5 31 C 44.5 30.9 43.9 30 44 28.9 C 44.1 27.9 45 27.1 45.9 27.2 C 46.8 27.3 47.5 28.2 47.4 29.3 " stroke-width="1"/>
  </g>
  <path id="ID0.5240494590252638_18_" fill="#000000" stroke="#000000" stroke-width="2" stroke-linecap="round" stroke-linejoin="round" d="M 57.9 36.7 C 59.6 36.7 62.1 35.7 62.1 37.6 C 62 38.4 60 41.5 58.2 41.4 C 56.2 41.3 53 38.3 53.3 36.9 C 53.6 35.5 56.4 36.7 57.9 36.7 Z "/>
  <path id="ID0.046259244438260794_18_" fill="#FFFFFF" stroke="#000000" stroke-width="2" stroke-linecap="round" stroke-linejoin="round" d="M 47 50.8 C 47 50.8 49.2 53.4 54.7 53 "/>
  <g id="ID0.7315213591791689">
    <g id="ID0.7407716196030378_15_">
      <path id="ID0.15909873321652412_14_" fill="#000000" stroke="#000000" stroke-width="2" stroke-linecap="round" stroke-linejoin="round" d="M 40.7 59.9 C 40.6 60.2 54.7 68.2 54.5 68.3 C 52.7 69.1 50.4 70 49.5 70.1 C 45.4 70.5 39.6 68.7 35.5 65.4 L 34.6 64.3 "/>
      <path id="ID0.8024068027734756_15_" fill="#FAA51F" stroke="#8E5322" stroke-width="1.4" stroke-linecap="round" stroke-linejoin="round" d="M 47.1 63 "/>
      <path id="ID0.06734407460317016_15_" fill="none" stroke="#8E5322" stroke-width="1.4" stroke-linecap="round" stroke-linejoin="round" d="M 44.6 60.4 "/>
      <path id="ID0.8143284288235009_14_" fill="#FAA51F" stroke="#000000" stroke-width="2" stroke-linecap="round" stroke-linejoin="round" d="M 47.1 63 L 42.5 61.3 "/>
    </g>
    <path id="ID0.1790580078959465_22_" fill="#000000" stroke="#000000" stroke-width="2" stroke-linecap="round" stroke-linejoin="round" d="M 43.2 61.8 C 42.1 61.3 47.6 63.2 48.5 63 C 49.3 62.8 50.9 62.1 51.6 61.5 C 55.3 57.8 59.3 59.2 59.9 60.7 C 61.6 64.3 57.7 67.7 49.4 70 "/>
  </g>
  <path id="ID0.042709666304290295" fill="#101010" stroke="none" d="M 45.5058 26.45 C 46.1607 26.45 46.7545 26.741 47.1847 27.212 C 47.615 27.683 47.8808 28.333 47.8808 29.05 C 47.8808 29.767 47.615 30.417 47.1847 30.888 C 46.7545 31.359 46.1607 31.65 45.5058 31.65 C 44.8508 31.65 44.2571 31.359 43.8268 30.888 C 43.3966 30.417 43.1308 29.767 43.1308 29.05 C 43.1308 28.333 43.3966 27.683 43.8268 27.212 C 44.2571 26.741 44.8508 26.45 45.5058 26.45 Z " stroke-width="0.9577087324721634"/>
  <path id="ID0.042709666304290295" fill="#101010" stroke="none" d="M 69.1058 26.5 C 69.7607 26.5 70.3545 26.791 70.7847 27.262 C 71.215 27.733 71.4808 28.383 71.4808 29.1 C 71.4808 29.817 71.215 30.467 70.7847 30.938 C 70.3545 31.409 69.7607 31.7 69.1058 31.7 C 68.4508 31.7 67.8571 31.409 67.4268 30.938 C 66.9966 30.467 66.7308 29.817 66.7308 29.1 C 66.7308 28.383 66.9966 27.733 67.4268 27.262 C 67.8571 26.791 68.4508 26.5 69.1058 26.5 Z " stroke-width="0.9577087324721634"/>
</svg>