<svg xmlns="http://www.w3.org/2000/svg" xmlns:xlink="http://www.w3.org/1999/xlink" version="1.1" width="88.24226381985636" height="99.4626846572587" viewBox="2.85124205247416 1.7499999870444725 88.24226381985636 99.4626846572587">
  <!-- Exported by Scratch - http://scratch.mit.edu/ -->
  <path id="ID0.48413723474368453_11_" fill="none" stroke="#000000" stroke-width="2" stroke-linecap="round" stroke-linejoin="round" d="M 55.4 15.3 C 53.9 14.9 50.9 14.2 49.2 14 C 44.6 13.4 42.421 15.732 40.1 14.3 L 31.75 2.75 L 27.15 21.75 C 25.916 28.018 16.009 36.58 20.7 44.8 C 27.743 56.363 39 64.4 57.6 64.1 C 76.1 63.7 82.2 54.2 82 48.5 C 81.8 42.9 75.4 39.6 75.4 39.6 C 75.4 39.6 76.1 35.3 73.9 29.6 C 72.6 26.1 68.693 23.668 67.3 20.5 L 63.75 7.75 L 58.2 14.6 L 55.4 15.3 Z "/>
  <path id="ID0.1790580078959465_13_" fill="#000000" stroke="#000000" stroke-width="2" stroke-linecap="round" stroke-linejoin="round" d="M 44.7 64 C 44.6 63 48.4 58.6 48.4 57.8 C 48.1 49.1 50.9 45.4 52.5 45.5 C 56.1 45.8 57.8 49.6 56.4 56.5 C 55.4 61.6 48.5 70.9 48.3 71.7 "/>
  <g id="ID0.15723733883351088_13_">
    <path id="ID0.527006761636585_13_" fill="#000000" stroke="#000000" stroke-width="2" stroke-linecap="round" stroke-linejoin="round" d="M 28.5 76.6 C 28.5 76.6 24.6 80.9 23.4 81.5 C 16.6 78.4 17.2 77.2 14.2 80.8 C 12.8 82.5 9.8 86.2 11.4 88.1 C 17.3 93.7 15 82.3 23.2 88.9 C 25.4 89.8 27.8 84.2 37.4 83.1 "/>
    <path id="ID0.8937406223267317_18_" fill="#FAA51F" stroke="#000000" stroke-width="2" stroke-linecap="round" stroke-linejoin="round" d="M 19.9 86.7 C 19.4 86.3 17.9 85.8 17.4 85.3 "/>
  </g>
  <g id="Layer_2_24_">
    <path id="ID0.39854341372847557_11_" fill="#FAA51F" stroke="#8E5322" stroke-width="1.4" stroke-linecap="round" stroke-linejoin="round" d="M 36.3 75.5 "/>
  </g>
  <path id="ID0.46792364912107587_11_" fill="#000000" stroke="#000000" stroke-width="2" stroke-linecap="round" stroke-linejoin="round" d="M 48.4 69.8 C 46.5 76.2 45.2 86.1 34.9 83 C 24.5 80 28 71.6 29.9 65.2 C 31.8 58.8 35.9 58.1 41.7 59.8 C 47.5 61.6 50.3 63.4 48.4 69.8 Z "/>
  <path id="ID0.38032895559445024_11_" fill="#101010" d="M 47.2 72.3 C 46 76.3 44.3 80.1 42.4 78.5 C 38.3 75.2 38.3 73.7 39.5 69.6 C 40.7 65.6 43.3 64.6 46.7 66.1 C 48.9 67.1 48.4 68.2 47.2 72.3 Z " stroke-width="1"/>
  <g id="ID0.16171270422637463_11_">
    <path id="ID0.007584026083350182_11_" fill="#000000" stroke="#000000" stroke-width="2" stroke-linecap="round" stroke-linejoin="round" d="M 46.3 77.8 C 46.3 77.8 44.5 78.4 44.2 80.9 C 43.9 83.2 45.1 87.2 46.6 91.2 C 47.9 94.8 53.6 88.8 55.1 96.1 C 55.5 98.2 46.5 100.4 44.3 100.2 C 42.3 100 41.6 99.5 41.4 97.5 C 40.6 90.2 31.9 80.4 31.9 80.4 "/>
    <path id="ID0.31672530295327306_11_" fill="#FAA51F" stroke="#000000" stroke-width="2" stroke-linecap="round" stroke-linejoin="round" d="M 48.9 92.4 C 48.9 92.4 47.6 92.5 46.2 93.2 "/>
  </g>
  <path id="ID0.2591130444779992_11_" fill="#000000" d="M 55.4 15.3 C 53.9 14.9 50.9 14.2 49.2 14 C 44.6 13.4 42.355 15.647 40.1 14.3 L 31.75 3.15 L 28.1 22.4 C 27.291 27.825 15.9 32.8 20.7 44.8 C 25.5 57 39 64.4 57.6 64.1 C 76.1 63.7 82.2 54.2 82 48.5 C 81.8 42.9 75.4 39.6 75.4 39.6 C 75.4 39.6 76.1 35.3 73.9 29.6 C 72.6 26.1 68.628 23.459 67.3 20.5 L 63.75 7.75 L 58.2 14.6 L 55.4 15.3 Z " stroke-width="1"/>
  <path id="ID0.3588979784399271_11_" fill="#101010" d="M 74.5 39.3 L 72.5 36.9 L 63.4 37.9 C 63.4 37.9 62.8 41.1 58.5 41.3 C 54.2 41.5 47.5 38.6 47.5 38.6 L 40.2 39.1 C 40.2 39.1 32.3 37.2 30.8 43.4 C 28.2 54.2 36.4 61.1 44.8 62.4 C 50.2 63.4 53.8 63.3 57.7 63.3 C 75.2 63.3 81.8 53.9 81.3 48.2 C 81.1 42.6 74.9 39.8 74.9 39.8 L 74.5 39.3 Z " stroke-width="1"/>
  <path id="ID0.2727069961838424_11_" fill="none" stroke="#000000" stroke-width="2.000000006320864" stroke-linecap="round" stroke-linejoin="round" d="M 78.602 47.1858 C 78.602 47.1858 83.0035 47.3473 85.345 46.9379 C 88.0851 46.5614 90.0935 45.3219 90.0935 45.3219 "/>
  <path id="ID0.5861211125738919_11_" fill="none" stroke="#000000" stroke-width="1.99999999846752" stroke-linecap="round" stroke-linejoin="round" d="M 78.2103 52.4165 C 78.2103 52.4165 80.5201 54.0305 83.2443 54.7911 C 85.8564 55.6379 87.6541 55.7727 87.6541 55.7727 "/>
  <path id="ID0.4793355236761272_11_" fill="none" stroke="#000000" stroke-width="2" stroke-linecap="round" stroke-linejoin="round" d="M 38.1 12.5 L 42.6 17 "/>
  <path id="ID0.9024141579866409_11_" fill="none" stroke="#000000" stroke-width="1.9999999607315826" stroke-linecap="round" stroke-linejoin="round" d="M 9.6618 40.9885 C 9.6618 40.9885 13.6293 41.6121 15.4541 41.5964 C 17.2788 41.5808 20.7953 41.3698 20.7953 41.3698 "/>
  <path id="ID0.16030752705410123_11_" fill="none" stroke="#000000" stroke-width="2.000000025911055" stroke-linecap="round" stroke-linejoin="round" d="M 21.8339 37.891 C 21.8339 37.891 19.8458 35.7515 16.645 33.5143 C 13.0203 31.012 10.9429 30.1847 10.9429 30.1847 "/>
  <g id="Layer_5_12_">
    <path id="ID0.40023312577977777_11_" fill="#FFFFFF" stroke="black" stroke-width="2" stroke-linecap="round" stroke-linejoin="round" d="M 71.7 29.3 C 73.7 34 72.9 39 70 40.2 C 67 41.5 63 38.6 61 33.8 C 59 29.1 59.8 24.1 62.7 22.9 C 65.6 21.7 69.7 24.6 71.7 29.3 Z "/>
    <path id="ID0.43813491938635707_11_" fill="#414142" d="M 70 34.8 C 70.1 35.8 69.5 36.7 68.4 36.9 C 67.5 37 66.6 36.3 66.5 35.1 C 66.4 34.1 67 33.2 68.1 33 C 69 33 69.8 33.8 70 34.8 " stroke-width="1"/>
  </g>
  <g id="Layer_7_12_">
    <path id="ID0.4253597157076001_11_" fill="#FFFFFF" stroke="black" stroke-width="2" stroke-linecap="round" stroke-linejoin="round" d="M 48.3 28.3 C 50.3 33 49.1 38.1 45.6 39.6 C 42.1 41.1 37.6 38.5 35.6 33.7 C 33.6 29 34.8 23.9 38.3 22.4 C 41.8 20.9 46.3 23.6 48.3 28.3 Z "/>
    <path id="ID0.814307457767427_11_" fill="#414142" d="M 46.3 34.1 C 46.1 35.1 45.2 35.8 44.3 35.7 C 43.3 35.5 42.8 34.6 43 33.5 C 43.2 32.5 44.1 31.8 45 31.9 C 45.9 32.1 46.5 33 46.3 34.1 " stroke-width="1"/>
  </g>
  <path id="ID0.5240494590252638_11_" fill="#000000" stroke="#000000" stroke-width="2" stroke-linecap="round" stroke-linejoin="round" d="M 57.4 40 C 59.1 40.1 61.6 39.2 61.6 41.1 C 61.5 41.9 59.3 44.9 57.5 44.6 C 55.5 44.3 52.5 41.3 52.9 39.8 C 53.2 38.4 55.9 39.9 57.4 40 Z "/>
  <path id="ID0.046259244438260794_11_" fill="#FFFFFF" stroke="#000000" stroke-width="2" stroke-linecap="round" stroke-linejoin="round" d="M 45.7 53.5 C 45.7 53.5 47.8 56.2 53.3 56.1 "/>
  <path id="ID0.1790580078959465_14_" fill="#000000" stroke="#000000" stroke-width="1.9999999596804199" stroke-linecap="round" stroke-linejoin="round" d="M 33.9497 59.9931 C 33.9183 58.9886 29.5764 55.1224 29.472 54.3292 C 28.6336 45.6645 25.3745 42.3617 23.8012 42.6698 C 20.2712 43.4372 19.0819 47.4266 21.3707 54.0848 C 23.028 59.0106 31.0831 67.3301 31.3858 68.0972 "/>
  <g id="ID0.1105764377862215">
    <path id="ID0.40227043256163597_11_" fill="none" stroke="#000000" stroke-width="1.9999999997344864" stroke-linecap="round" stroke-linejoin="round" d="M 18.4842 69.0433 C 16.7301 67.262 14.9666 64.8724 14.2569 61.5293 C 12.7293 54.2199 16.2259 46.4544 11.7612 45.8825 C 7.2966 45.3107 -0.5388 56.3663 6.9745 66.9039 C 9.548 70.6291 12.7555 72.8318 15.2167 74.6186 C 15.8492 75.1184 21.988 78.6731 25.9597 77.1481 C 29.9313 75.623 29.0672 73.9758 28.692 73.1102 C 28.4306 72.1607 20.925 71.6361 18.4842 69.0433 Z "/>
    <path id="ID0.8535828334279358_11_" fill="#000000" d="M 18.4842 69.0433 C 16.7301 67.262 14.9666 64.8724 14.2569 61.5293 C 12.7293 54.2199 16.2259 46.4544 11.7612 45.8825 C 7.2966 45.3107 -0.5388 56.3663 6.9745 66.9039 C 9.548 70.6291 12.7555 72.8318 15.2167 74.6186 C 15.8492 75.1184 21.988 78.6731 25.9597 77.1481 C 29.9313 75.623 29.0672 73.9758 28.692 73.1102 C 28.4306 72.1607 20.925 71.6361 18.4842 69.0433 Z " stroke-width="0.9999999998672432"/>
    <path id="ID0.914295740891248_11_" fill="#101010" d="M 11.9739 45.8134 C 9.9421 45.2038 6.1125 48.4695 4.7849 51.91 C 3.5561 55.3655 3.8161 58.3374 4.0422 60.1918 C 4.6787 62.007 5.2804 57.3446 8.0546 57.0548 C 10.8287 56.7651 13.8181 59.7439 13.8181 59.7439 C 13.8181 59.7439 13.832 54.285 13.8687 51.3578 C 14.0733 48.6581 14.0599 46.7347 11.9739 45.8134 Z " stroke-width="0.9999999998672432"/>
  </g>
  <path id="ID0.042709666304290295" fill="#101010" stroke="none" d="M 44.4058 31.3 C 45.0607 31.3 45.6545 31.591 46.0847 32.062 C 46.515 32.533 46.7808 33.183 46.7808 33.9 C 46.7808 34.617 46.515 35.267 46.0847 35.738 C 45.6545 36.209 45.0607 36.5 44.4058 36.5 C 43.7508 36.5 43.1571 36.209 42.7268 35.738 C 42.2966 35.267 42.0308 34.617 42.0308 33.9 C 42.0308 33.183 42.2966 32.533 42.7268 32.062 C 43.1571 31.591 43.7508 31.3 44.4058 31.3 Z " stroke-width="0.9577087324721634"/>
  <path id="ID0.042709666304290295" fill="#101010" stroke="none" d="M 68.0558 32.15 C 68.7107 32.15 69.3045 32.441 69.7347 32.912 C 70.165 33.383 70.4308 34.033 70.4308 34.75 C 70.4308 35.467 70.165 36.117 69.7347 36.588 C 69.3045 37.059 68.7107 37.35 68.0558 37.35 C 67.4008 37.35 66.8071 37.059 66.3768 36.588 C 65.9466 36.117 65.6808 35.467 65.6808 34.75 C 65.6808 34.033 65.9466 33.383 66.3768 32.912 C 66.8071 32.441 67.4008 32.15 68.0558 32.15 Z " stroke-width="0.9577087324721634"/>
</svg>