<svg xmlns="http://www.w3.org/2000/svg" xmlns:xlink="http://www.w3.org/1999/xlink" version="1.1" width="263.24125653493354" height="206.37068158376167" viewBox="8.374039739430202 4.102491468251003 263.24125653493354 206.37068158376167">
  <!-- Exported by Scratch - http://scratch.mit.edu/ -->
  <path id="ID0.029546690173447132" fill="#1F1F1F" stroke="#1F1F1F" stroke-width="6.225159453649815" stroke-linecap="round" d="M 49.0471 62.9268 C 52.2668 62.5881 58.2779 60.8201 58.696 64.0286 C 60.195 75.3517 52.1097 87.4956 52.6076 99.4489 C 53.156 112.1665 56.2743 125.2552 60.5898 137.4647 C 66.4139 153.7703 84.5639 169.7843 82.5973 185.4776 C 81.5737 193.7926 59.0886 193.7945 54.6044 185.4792 C 41.57 160.9922 43.8772 131.1086 39.6131 103.4596 C 37.7465 91.1662 35.1731 77.8066 37.7828 66.2291 C 38.626 62.413 44.589 63.3961 49.0471 62.9268 Z "/>
  <path id="ID0.029546690173447132" fill="#1F1F1F" stroke="#1F1F1F" stroke-width="6.2251590556395024" stroke-linecap="round" d="M 58.6487 42.7806 C 71.3759 46.9056 84.6959 50.4847 96.3705 57.9298 C 99.2942 59.7954 95.0019 63.3088 92.155 63.9899 C 80.7707 66.7138 67.8112 62.8903 56.5414 66.4938 C 53.5337 67.5835 66.4121 72.8244 63.6555 72.6415 C 53.7657 72.4486 40.6954 70.6016 30.6765 66.187 C 28.2175 64.8677 40.1032 63.6629 38.6246 61.2246 C 32.9025 51.6044 21.3705 46.4325 14.6475 37.9512 C 12.963 35.8271 10.6404 30.2158 14.3838 30.5737 C 29.3015 32.0134 44.0264 37.7795 58.6487 42.7806 Z "/>
  <path id="ID0.029546690173447132" fill="#1F1F1F" stroke="#1F1F1F" stroke-width="7.999999821066353" stroke-linecap="round" d="M 215.9245 42.6013 C 220.0144 43.3639 227.321 43.3347 227.4058 47.4943 C 227.7681 61.463 218.9789 75.3301 216.5564 89.6062 C 213.2498 109.1148 211.2529 129.2524 209.5572 149.6507 C 208.2595 166.5897 215.8477 185.3023 207.5739 201.6482 C 203.8992 208.8586 185.6556 207.7304 183.4108 199.9794 C 179.1053 185.0681 192.7405 171.1046 195.5518 156.6522 C 198.8002 133.2253 200.1207 109.5911 201.542 86.6362 C 202.4531 71.9804 196.1666 55.7612 200.8395 42.5411 C 202.4765 37.7874 210.2613 41.5458 215.9245 42.6013 Z "/>
  <path id="ID0.029546690173447132" fill="#1F1F1F" stroke="#1F1F1F" stroke-width="7.781146380530511" stroke-linecap="round" d="M 213.6041 8.6983 C 198.2984 8.2426 182.5766 6.8283 167.0637 11.0603 C 163.1783 12.1216 166.3668 18.5044 169.1452 20.6433 C 180.2553 29.1966 195.6887 30.1392 206.3223 39.7585 C 209.1086 42.4882 193.1918 43.3822 196.221 44.3833 C 206.9024 48.5633 221.6593 52.0658 234.1778 50.9419 C 237.3451 50.3665 225.0862 43.5182 227.6525 41.083 C 237.6586 31.425 252.104 30.0163 262.7249 22.2526 C 265.3857 20.3086 270.1337 14.2211 265.976 13.0008 C 249.4021 8.1544 231.2941 8.8892 213.6041 8.6983 Z "/>
</svg>