<svg xmlns="http://www.w3.org/2000/svg" xmlns:xlink="http://www.w3.org/1999/xlink" version="1.1" width="117.95780181884766" height="143.528076171875" viewBox="0.5297527313232422 -0.02808070182800293 117.95780181884766 143.528076171875">
  <!-- Exported by Scratch - http://scratch.mit.edu/ -->
  <path id="ID0.3472226425074041" fill="#000000" stroke="#000000" stroke-width="8" stroke-linecap="round" d="M 52.95 4 C 66.422 3.821 81.586 4.386 94.95 9 C 99.309 10.541 103.257 17.297 99.95 21 C 93.028 32.258 80.943 39.627 68.95 47 C 64.947 49.463 59.743 49.919 54.95 50 C 50.195 50.08 44.456 50.37 39.95 48 C 27.086 40.984 14.258 33.928 5.95 23 C 2.613 19.201 5.651 11.577 9.95 10 C 23.541 4.835 38.536 4.198 52.95 4 Z "/>
  <path id="ID0.7483457308262587" fill="none" stroke="#070707" stroke-width="2" stroke-linecap="round" d="M 97 27.5 C 97 27.5 97.927 81.262 96 107.5 C 95.58 114.037 93.729 114.495 90.5 115.5 C 88.438 116.203 86.589 113.124 85.4 111 C 83.409 107.369 82.629 103.607 82 99 C 79.607 81.356 76.5 45.5 76.5 45.5 "/>
  <path id="ID0.583631054032594" fill="none" stroke="#070707" stroke-width="2" stroke-linecap="round" d="M 94.4 34 C 94.4 34 94.728 36.002 94.9 37 C 95.637 42.667 96.408 44.928 96.4 48 C 96.328 57.396 96.137 65.088 94.9 73 C 93.466 82.06 92.203 95.61 88.5 99 C 85.932 100.859 83.227 89.297 82 84 C 80.454 77.175 80.568 70.226 80 63 C 79.442 56.092 79 42 79 42 "/>
  <path id="ID0.7191467992961407" fill="none" stroke="#070707" stroke-width="2" stroke-linecap="round" d="M 97 139.5 C 97 139.5 96.893 137.19 96.9 133 C 97.045 109.797 97.078 91.657 97.4 74.5 C 97.941 68.785 98.297 67.6 98.4 64.5 C 98.723 53.01 98.504 35.011 98.9 30 C 99.28 28.185 100.545 27.516 101.4 26.5 C 102.925 24.971 103.137 23.706 104.4 23 C 106.349 22.903 108.4 24 108.4 24 "/>
  <path id="ID0.6919829077087343" fill="none" stroke="#070707" stroke-width="2" stroke-linecap="round" d="M 112.9 15 C 112.9 15 111.9 15.4 111.4 15.5 C 110.7 15.55 110 15.3 109.4 15.5 C 108 15.8 106.6 16.3 105.4 17 C 104.75 17.3 104.35 18 103.9 18.5 C 103.4 18.95 102.9 19.5 102.4 20 C 101.75 20.5 100.4 21.5 100.4 21.5 C 100.4 21.5 102.05 21.25 102.9 21 C 103.6 20.75 104.15 19.8 104.9 20 C 105.8 20.2 106.2 21.3 106.9 22 C 107.05 22.15 107.4 22.5 107.4 22.5 C 106.4 21 109.092 21.198 110.4 21.5 C 111.274 21.702 112.183 21.962 112.9 22.5 C 113.566 22.999 114.072 23.735 114.4 24.5 C 114.597 24.959 114.4 26 114.4 26 "/>
  <path id="ID0.7851181789301336" fill="none" stroke="#070707" stroke-width="2" stroke-linecap="round" d="M 101.4 19.5 C 101.4 19.5 103.192 18.297 103.9 17.5 C 104.545 16.774 105.4 15 105.4 15 "/>
  <path id="ID0.048102959990501404" fill="none" stroke="#070707" stroke-width="2" stroke-linecap="round" d="M 100.9 15 C 101.733 14.334 102.646 13.754 103.4 13 C 103.663 12.737 103.9 12 103.9 12 "/>
  <path id="ID0.5258446601219475" fill="none" stroke="#000000" stroke-width="2" stroke-linecap="round" d="M 101.4 10.5 C 103.262 10.165 103.9 10 103.9 10 C 103.9 10 104.41 10 104.4 10 Z "/>
  <path id="ID0.3609454967081547" fill="none" stroke="#070707" stroke-width="2" stroke-linecap="round" d="M 100.4 27 C 100.4 27 102.43 27.209 103.4 27.5 C 104.113 27.714 104.873 27.973 105.4 28.5 C 105.772 28.872 105.9 30 105.9 30 "/>
</svg>