<svg xmlns="http://www.w3.org/2000/svg" xmlns:xlink="http://www.w3.org/1999/xlink" version="1.1" width="524.0288696289062" height="250.93812561035156" viewBox="-0.6615447998046875 0.4822196960449219 524.0288696289062 250.93812561035156">
  <!-- Exported by Scratch - http://scratch.mit.edu/ -->
  <path id="ID0.968818121124059" fill="#000000" stroke="#000000" stroke-width="13" stroke-linecap="round" d="M 301 24 C 302.188 27.223 302.366 29.747 301 32 C 297.04 38.808 289.42 43.413 286 51 C 280.94 61.057 282.695 74.162 276 84 C 269.7 93.246 256.195 95.541 249 104 C 246.124 107.385 245.129 112.655 246 117 C 248.342 128.022 253.447 138.308 257 149 C 264.81 172.528 282.833 200.305 279 221 C 277.833 230.305 258.367 209.403 247 209 C 235.664 208.611 219.205 228.983 215 220 C 206.206 202.983 221.731 177.654 221 157 C 220.247 136.046 213.817 115.651 210 95 C 206.519 76.181 198.512 57.847 197 39 C 196.757 33.626 200.457 28.286 205 26 C 213.857 21.557 223.068 22.949 232 21 C 250.503 16.965 268.122 6.493 287 7 C 293.986 7.252 297.893 17.454 301 24 Z "/>
  <path id="ID0.968818121124059" fill="#000000" stroke="#000000" stroke-width="13" stroke-linecap="round" d="M 234 187 C 241.764 191.775 239.672 216.952 226 219 C 171.312 227.192 115.177 218.523 60 214 C 41.915 212.166 -1.821 203.27 7 200 C 20.25 195.109 77.685 196.764 113 196 C 138.18 195.443 163.73 199.408 189 198 C 204.327 196.389 223.067 180.296 234 187 Z "/>
  <path id="ID0.968818121124059" fill="#000000" stroke="#000000" stroke-width="13" stroke-linecap="round" d="M 427.9 47 C 425.779 48.599 426.534 52.747 427.9 55 C 431.86 61.808 439.48 66.413 442.9 74 C 447.96 84.057 448.485 96.427 452.9 107 C 456.213 114.803 461.794 121.038 463 129 C 464.148 136.618 460.917 144.314 461 152 C 461.209 171.972 467 192.755 465 213 C 463.194 224.298 445.349 238.889 449.9 244 C 454.361 248.94 470.533 232.403 481.9 232 C 493.236 231.611 512.214 250.942 513.9 243 C 516.851 229.083 497.535 207.551 492 189 C 490.219 181.712 489.93 178.753 490 174 C 492.276 155.963 494.077 138.627 499 121 C 500.251 116.602 507.705 116.856 509 112 C 513.538 95.129 519.02 76.452 516 60 C 514.498 51.84 504.523 47.159 496.9 44 C 482.819 38.162 467.088 34.711 452 35 C 442.962 35.76 434.65 41.87 427.9 47 Z "/>
</svg>