<svg xmlns="http://www.w3.org/2000/svg" xmlns:xlink="http://www.w3.org/1999/xlink" version="1.1" width="83.36050421260583" height="100.63361364864099" viewBox="1.1495999978840925 1.700000016576109 83.36050421260583 100.63361364864099">
  <!-- Exported by Scratch - http://scratch.mit.edu/ -->
  <g id="ID0.3375165699981153">
    <path id="ID0.40227043256163597_16_" fill="none" stroke="#000000" stroke-width="2.0000000319958193" stroke-linecap="round" stroke-linejoin="round" d="M 35.612 78.8204 C 33.3858 79.9754 30.5823 81.048 27.2103 80.757 C 19.7505 80.1093 13.2784 74.5955 11.4983 78.6892 C 9.719 82.7836 18.0751 93.4346 30.2874 89.1821 C 34.5467 87.7445 37.6409 85.3622 39.9979 83.4117 C 40.6575 82.9167 45.7691 78.0504 45.4717 73.8165 C 45.1755 69.5811 43.36 69.9115 42.3753 70.0136 C 41.4698 70.18 38.7938 77.282 35.612 78.8204 Z "/>
    <path id="ID0.8535828334279358_16_" fill="#000000" d="M 35.612 78.8204 C 33.3858 79.9754 30.5823 81.048 27.2103 80.757 C 19.7505 80.1093 13.2784 74.5955 11.4983 78.6892 C 9.719 82.7836 18.0751 93.4346 30.2874 89.1821 C 34.5467 87.7445 37.6409 85.3622 39.9979 83.4117 C 40.6575 82.9167 45.7691 78.0504 45.4717 73.8165 C 45.1755 69.5811 43.36 69.9115 42.3753 70.0136 C 41.4698 70.18 38.7938 77.282 35.612 78.8204 Z " stroke-width="1.0000000159979097"/>
    <path id="ID0.914295740891248_16_" fill="#101010" d="M 11.5476 78.4716 C 10.3789 80.2278 12.4227 84.8493 15.3573 87.105 C 18.3547 89.2817 21.2563 89.8347 23.0649 90.1441 C 24.9712 90.0175 20.6586 88.1898 21.2263 85.4302 C 21.7924 82.6694 25.4939 80.6513 25.4939 80.6513 C 25.4939 80.6513 20.2881 79.1301 17.4217 78.218 C 14.8353 77.2769 12.9345 76.7638 11.5476 78.4716 Z " stroke-width="1.0000000159979097"/>
  </g>
  <path id="ID0.48413723474368453_16_" fill="none" stroke="#000000" stroke-width="2" stroke-linecap="round" stroke-linejoin="round" d="M 44.2 10.9 C 42.7 10.8 39.599 10.6 37.9 10.7 C 33.299 10.9 29 12.6 29 12.6 L 16.4 4.4 L 18.6 22.7 C 19.201 21.9 8.401 35.1 15.201 46.1 C 22.1 57.2 36.701 62.1 54.901 58.5 C 73.1 54.9 77.4 44.4 76.2 38.9 C 75 33.4 68.099 31.3 68.099 31.3 C 68.099 31.3 68 27.001 64.9 21.7 C 63 18.501 56.8 13.9 56.8 13.9 L 54 2.7 L 46.8 9.7 L 44.2 10.9 Z "/>
  <path id="ID0.007584026083350182_16_" fill="#000000" stroke="#000000" stroke-width="2" stroke-linecap="round" stroke-linejoin="round" d="M 53.4 74.7 C 53.4 74.7 52.11 83.182 51.75 87.65 C 51.663 88.525 51.688 88.157 52.15 89.65 C 53.289 92.161 56.615 93.818 56.75 96.65 C 56.865 98.697 54.77 100.868 52.75 101.25 C 50.958 101.574 49.485 99.479 48.15 98.25 C 47.087 96.868 46.198 95.291 45.799 93.601 C 45.066 90.39 45.304 86.824 44.75 83.25 C 44.435 81.579 43.199 77.901 43.199 77.901 "/>
  <path id="ID0.46792364912107587_16_" fill="#000000" stroke="#000000" stroke-width="2" stroke-linecap="round" stroke-linejoin="round" d="M 54.2 63.801 C 54.2 70.501 55.9 80.301 44 80.301 C 32.1 80.301 33.2 71.301 33.2 64.601 C 33.2 57.901 37.3 56.101 44 56.101 C 50.7 56.101 54.2 57.101 54.2 63.801 Z "/>
  <path id="ID0.38032895559445024_22_" fill="#101010" d="M 51.6 66.7 C 51.6 70.9 52.5 77.2 46.1 77.2 C 39.701 77.2 40.201 71.501 40.201 67.301 C 40.201 63.101 42.401 61.901 46.1 61.901 C 49.8 61.9 51.6 62.501 51.6 66.7 Z " stroke-width="1"/>
  <path id="ID0.8143284288235009_1_" fill="#FAA51F" stroke="#000000" stroke-width="2" stroke-linecap="round" stroke-linejoin="round" d="M 36.3 63.4 C 35.135 66.535 33.218 70.335 33.218 70.335 "/>
  <path id="ID0.2591130444779992_16_" fill="#000000" d="M 44.2 10.9 C 42.7 10.8 39.599 10.6 37.9 10.7 C 33.299 10.9 29 12.6 29 12.6 L 16.4 4.4 L 18.6 22.7 C 19.201 21.9 8.401 35.1 15.201 46.1 C 22.1 57.2 36.701 62.1 54.901 58.5 C 73.1 54.9 77.4 44.4 76.2 38.9 C 75 33.4 68.099 31.3 68.099 31.3 C 68.099 31.3 68 27.001 64.9 21.7 C 63 18.501 56.8 13.9 56.8 13.9 L 54 2.7 L 46.8 9.7 L 44.2 10.9 Z " stroke-width="1"/>
  <path id="ID0.3588979784399271_16_" fill="#101010" d="M 67.2 31.2 L 64.8 29.2 L 56 31.801 C 56 31.801 56 35.101 51.8 36.001 C 47.6 36.9 40.5 35.301 40.5 35.301 L 33.4 37.101 C 33.4 37.101 25.299 36.601 24.9 43.001 C 24.2 54.101 33.5 59.4 42 59.301 C 47.5 59.301 51 58.601 54.9 57.901 C 72.099 54.801 77 44.401 75.5 38.901 C 74.3 33.401 67.7 31.801 67.7 31.801 L 67.2 31.2 Z " stroke-width="1"/>
  <path id="ID0.2727069961838424_16_" fill="none" stroke="#000000" stroke-width="2.000000026469203" stroke-linecap="round" stroke-linejoin="round" d="M 71.8466 41.0685 C 71.8466 41.0685 76.2755 41.5442 78.6092 41.3482 C 81.355 41.1603 83.5101 40.087 83.5101 40.087 "/>
  <path id="ID0.5861211125738919_16_" fill="none" stroke="#000000" stroke-width="1.9999999807537598" stroke-linecap="round" stroke-linejoin="round" d="M 73.0679 44.3069 C 73.0679 44.3069 74.9359 46.4243 77.3734 47.8144 C 79.6775 49.2537 81.3869 49.852 81.3869 49.852 "/>
  <path id="ID0.4793355236761272_16_" fill="none" stroke="#000000" stroke-width="2" stroke-linecap="round" stroke-linejoin="round" d="M 26.7 11.101 L 31.9 14.701 "/>
  <path id="ID0.9024141579866409_16_" fill="none" stroke="#000000" stroke-width="2.000000020949746" stroke-linecap="round" stroke-linejoin="round" d="M 2.845 46.9662 C 2.845 46.9662 6.6955 45.8114 8.3215 45.0329 C 9.9475 44.2543 12.9927 42.458 12.9927 42.458 "/>
  <path id="ID0.16030752705410123_16_" fill="none" stroke="#000000" stroke-width="2.0000000274543552" stroke-linecap="round" stroke-linejoin="round" d="M 15.4171 39.9539 C 15.4171 39.9539 12.6596 39.1946 8.726 38.9958 C 4.346 38.7535 2.1496 39.1723 2.1496 39.1723 "/>
  <path id="ID0.40023312577977777_16_" fill="#FFFFFF" stroke="black" stroke-width="2" stroke-linecap="round" stroke-linejoin="round" d="M 62.7 21.801 C 65.5 26.101 65.599 31.101 62.9 32.801 C 60.2 34.601 55.7 32.501 52.9 28.101 C 50.099 23.801 50 18.801 52.7 17.101 C 55.4 15.401 59.9 17.501 62.7 21.801 Z "/>
  <path id="ID0.4253597157076001_16_" fill="#FFFFFF" stroke="black" stroke-width="2" stroke-linecap="round" stroke-linejoin="round" d="M 39.5 24.9 C 42.3 29.2 42 34.4 38.8 36.501 C 35.6 38.601 30.7 36.801 27.901 32.4 C 25.1 28.1 25.401 22.9 28.6 20.8 C 31.8 18.801 36.7 20.601 39.5 24.9 Z "/>
  <path id="ID0.5240494590252638_16_" fill="#000000" stroke="#000000" stroke-width="2" stroke-linecap="round" stroke-linejoin="round" d="M 50.5 34.801 C 52.2 34.601 54.5 33.301 54.8 35.2 C 54.8 36.001 53.2 39.301 51.401 39.4 C 49.401 39.501 45.901 37.001 46.001 35.501 C 46.101 34.001 49 35.001 50.5 34.801 Z "/>
  <path id="ID0.046259244438260794_16_" fill="#FFFFFF" stroke="#000000" stroke-width="2" stroke-linecap="round" stroke-linejoin="round" d="M 41.4 50.2 C 41.4 50.2 43.9 52.501 49.299 51.4 "/>
  <path id="ID0.042709666304290295" fill="#101010" stroke="none" d="M 57.9058 21.55 C 58.5607 21.55 59.1545 21.841 59.5847 22.312 C 60.015 22.783 60.2808 23.433 60.2808 24.15 C 60.2808 24.867 60.015 25.517 59.5847 25.988 C 59.1545 26.459 58.5607 26.75 57.9058 26.75 C 57.2508 26.75 56.6571 26.459 56.2268 25.988 C 55.7966 25.517 55.5308 24.867 55.5308 24.15 C 55.5308 23.433 55.7966 22.783 56.2268 22.312 C 56.6571 21.841 57.2508 21.55 57.9058 21.55 Z " stroke-width="0.9577087324721634"/>
  <path id="ID0.042709666304290295" fill="#101010" stroke="none" d="M 34.0058 24.55 C 34.6607 24.55 35.2545 24.841 35.6847 25.312 C 36.115 25.783 36.3808 26.433 36.3808 27.15 C 36.3808 27.867 36.115 28.517 35.6847 28.988 C 35.2545 29.459 34.6607 29.75 34.0058 29.75 C 33.3508 29.75 32.7571 29.459 32.3268 28.988 C 31.8966 28.517 31.6308 27.867 31.6308 27.15 C 31.6308 26.433 31.8966 25.783 32.3268 25.312 C 32.7571 24.841 33.3508 24.55 34.0058 24.55 Z " stroke-width="0.9577087324721634"/>
  <path id="ID0.1790580078959465_14_" fill="#000000" stroke="#000000" stroke-width="1.9999999867901614" stroke-linecap="round" stroke-linejoin="round" d="M 35.5753 60.4855 C 34.9224 59.7215 29.1163 59.4217 28.5386 58.8683 C 22.4637 52.6333 17.8549 52.0957 16.8203 53.3202 C 14.5466 56.1274 16.1146 59.9837 22.0657 63.746 C 26.4403 66.5519 37.9292 68.0027 38.6452 68.4117 "/>
  <path id="ID0.1790580078959465_13_" fill="#000000" stroke="#000000" stroke-width="2.0000000622152134" stroke-linecap="round" stroke-linejoin="round" d="M 53.7761 59.566 C 54.531 58.9027 60.3207 59.4319 60.9712 58.9663 C 67.8713 53.6588 72.5097 53.7823 73.3596 55.1416 C 75.2109 58.2436 73.1102 61.8377 66.6845 64.7151 C 61.9552 66.8702 50.3768 66.672 49.6098 66.975 "/>
  <path id="ID0.007584026083350182_16_" fill="#000000" stroke="#000000" stroke-width="2" stroke-linecap="round" stroke-linejoin="round" d="M 33.7 74.75 C 33.7 74.75 34.99 83.232 35.35 87.7 C 35.437 88.575 35.412 88.207 34.95 89.7 C 33.811 92.211 30.485 93.868 30.35 96.7 C 30.235 98.747 32.33 100.918 34.35 101.3 C 36.142 101.624 37.615 99.529 38.95 98.3 C 40.013 96.918 40.902 95.341 41.301 93.651 C 42.034 90.44 41.796 86.874 42.35 83.3 C 42.665 81.629 43.901 77.951 43.901 77.951 "/>
</svg>