<svg xmlns="http://www.w3.org/2000/svg" xmlns:xlink="http://www.w3.org/1999/xlink" version="1.1" width="82.5009994506836" height="97.04083251953125" viewBox="0.7000000476837158 1.7000000476837158 82.5009994506836 97.04083251953125">
  <!-- Exported by Scratch - http://scratch.mit.edu/ -->
  <path id="ID0.40227043256163597_34_" fill="none" stroke="#8E5322" stroke-width="1.4" stroke-linecap="round" stroke-linejoin="round" d="M 38.989 72.164 C 36.688 71.164 34.089 69.664 32.188 66.863 C 27.989 60.664 28.188 52.164 23.889 53.363 C 19.588 54.563 16.588 67.763 27.588 74.563 C 31.389 76.963 35.188 77.863 38.188 78.463 C 38.989 78.663 45.989 79.563 49.088 76.663 C 52.188 73.763 50.787 72.562 50.088 71.862 C 49.39 71.264 42.188 73.664 38.989 72.164 Z "/>
  <path id="ID0.48413723474368453_32_" fill="none" stroke="#000000" stroke-width="2" stroke-linecap="round" stroke-linejoin="round" d="M 40.701 10.9 C 42.201 10.8 45.301 10.6 47 10.7 C 51.602 10.9 55.9 12.6 55.9 12.6 L 68.5 4.4 L 66.301 22.7 C 65.701 21.9 76.5 35.1 69.701 46.1 C 62.801 57.2 48.201 62.1 30 58.5 C 11.801 54.9 7.501 44.4 8.7 38.9 C 9.901 33.4 16.801 31.3 16.801 31.3 C 16.801 31.3 16.901 27 20 21.699 C 21.9 18.5 28.102 13.899 28.102 13.899 L 30.9 2.7 L 38.101 9.7 L 40.701 10.9 Z "/>
  <path id="ID0.1790580078959465_46_" fill="#FAA51F" stroke="#8E5322" stroke-width="1.4" stroke-linecap="round" stroke-linejoin="round" d="M 51.886 68.2 C 48.646 73.999 47.243 79.53 48.805 80.208 C 50.288 80.866 55.177 82.417 58.105 70.848 "/>
  <path id="ID0.914295740891248_36_" fill="#FFFFFF" d="M 24.089 53.264 C 21.989 53.464 19.689 57.964 19.788 61.664 C 19.989 65.363 21.39 67.964 22.288 69.563 C 23.589 70.963 22.288 66.463 24.788 65.164 C 27.288 63.863 31.188 65.464 31.188 65.464 C 31.188 65.464 29.088 60.464 27.989 57.664 C 27.089 55.063 26.288 53.264 24.089 53.264 Z " stroke-width="1"/>
  <path id="ID0.40227043256163597_36_" fill="none" stroke="#8E5322" stroke-width="1.4" stroke-linecap="round" stroke-linejoin="round" d="M 38.989 72.164 C 36.688 71.164 34.089 69.664 32.188 66.863 C 27.989 60.664 28.188 52.164 23.889 53.363 C 19.588 54.563 16.588 67.763 27.588 74.563 C 31.389 76.963 35.188 77.863 38.188 78.463 C 38.989 78.663 45.989 79.563 49.088 76.663 C 52.188 73.763 50.787 72.562 50.088 71.862 C 49.39 71.264 42.188 73.664 38.989 72.164 Z "/>
  <path id="ID0.007584026083350182_38_" fill="#FAA51F" stroke="#8E5322" stroke-width="1.4" stroke-linecap="round" stroke-linejoin="round" d="M 50.401 74.7 C 50.401 74.7 48.7 80.2 49.501 89.001 C 49.8 92.801 56.901 88.501 56.401 95.9 C 56.2 98.001 47.001 97.8 44.901 97.001 C 43.001 96.301 42.501 95.601 42.799 93.601 C 43.901 86.301 40.199 77.901 40.199 77.901 "/>
  <path id="ID0.31672530295327306_38_" fill="#FAA51F" stroke="#8E5322" stroke-width="1.4" stroke-linecap="round" stroke-linejoin="round" d="M 51.501 90.801 C 51.501 90.801 50.2 90.601 48.7 90.901 "/>
  <path id="ID0.46792364912107587_36_" fill="#FAA51F" stroke="#8E5322" stroke-width="1.4" stroke-linecap="round" stroke-linejoin="round" d="M 51.2 63.801 C 51.2 70.501 52.901 80.301 41.001 80.301 C 29.101 80.301 30.2 71.301 30.2 64.601 C 30.2 57.901 34.3 56.101 41.001 56.101 C 47.7 56.101 51.2 57.101 51.2 63.801 Z "/>
  <path id="ID0.38032895559445024_36_" fill="#FFFFFF" d="M 47.601 66.7 C 47.601 70.9 48.501 77.2 42.101 77.2 C 35.701 77.2 36.201 71.501 36.201 67.301 C 36.201 63.101 38.402 61.901 42.101 61.901 C 45.8 61.901 47.601 62.501 47.601 66.7 Z " stroke-width="1"/>
  <path id="ID0.527006761636585_37_" fill="#FAA51F" stroke="#8E5322" stroke-width="1.4" stroke-linecap="round" stroke-linejoin="round" d="M 31.001 74.7 C 31.001 74.7 33.601 80.2 32.3 88.9 C 31.7 92.7 26.101 88.001 26.501 95.6 C 26.601 98.1 34.2 97.9 36.401 97.5 C 38.501 97.1 39.299 96 39.1 93.899 C 38.799 89.699 40.299 80.599 40.299 80.599 "/>
  <path id="ID0.8937406223267317_48_" fill="#FAA51F" stroke="#8E5322" stroke-width="1.4" stroke-linecap="round" stroke-linejoin="round" d="M 29.901 90.7 C 29.901 90.7 31.501 90.501 32.901 90.9 "/>
  <path id="ID0.30105241015553474_34_" fill="#FAA51F" stroke="#8E5322" stroke-width="1.4" stroke-linecap="round" stroke-linejoin="round" d="M 55.674 77.2 C 57.254 75.004 58.109 71.515 58.258 69.55 C 58.571 65.415 55.496 60.357 52.117 57.995 L 47.86 58.137 "/>
  <path id="ID0.7841392233967781_33_" fill="#FAA51F" stroke="#8E5322" stroke-width="1.4" stroke-linecap="round" stroke-linejoin="round" d="M 51.969 67.87 L 50.497 64.136 "/>
  <path id="ID0.15909873321652412_34_" fill="#FAA51F" stroke="#8E5322" stroke-width="1.4" stroke-linecap="round" stroke-linejoin="round" d="M 31.188 72.025 C 31.022 71.932 23.576 73.664 23.435 73.544 C 21.348 70.198 24.182 60.64 30.707 55.458 L 38.605 56.858 "/>
  <path id="ID0.8143284288235009_34_" fill="#FAA51F" stroke="#8E5322" stroke-width="1.4" stroke-linecap="round" stroke-linejoin="round" d="M 33.106 63.258 C 31.942 66.393 30.024 70.193 30.024 70.193 "/>
  <path id="ID0.1790580078959465_45_" fill="#FAA51F" stroke="#8E5322" stroke-width="1.4" stroke-linecap="round" stroke-linejoin="round" d="M 30.024 70.192 C 34.172 74.7 34.584 79.455 33.106 80.3 C 29.648 82.321 25.885 80.18 22.829 72.025 "/>
  <path id="ID0.1790580078959465_44_" fill="#FAA51F" stroke="#8E5322" stroke-width="1.4" stroke-linecap="round" stroke-linejoin="round" d="M 51.886 68.2 C 48.646 73.999 47.243 79.53 48.805 80.208 C 50.288 80.866 55.177 82.417 58.105 70.848 "/>
  <path id="ID0.914295740891248_35_" fill="#FFFFFF" d="M 24.089 53.264 C 21.989 53.464 19.689 57.964 19.788 61.664 C 19.989 65.363 21.39 67.964 22.288 69.563 C 23.589 70.963 22.288 66.463 24.788 65.164 C 27.288 63.863 31.188 65.464 31.188 65.464 C 31.188 65.464 29.088 60.464 27.989 57.664 C 27.089 55.063 26.288 53.264 24.089 53.264 Z " stroke-width="1"/>
  <path id="ID0.40227043256163597_35_" fill="none" stroke="#000000" stroke-width="2" stroke-linecap="round" stroke-linejoin="round" d="M 38.989 72.164 C 36.688 71.164 34.089 69.664 32.188 66.863 C 27.989 60.664 28.188 52.164 23.889 53.363 C 19.588 54.563 16.588 67.763 27.588 74.563 C 31.389 76.963 35.188 77.863 38.188 78.463 C 38.989 78.663 45.989 79.563 49.088 76.663 C 52.188 73.763 50.787 72.562 50.088 71.862 C 49.39 71.264 42.188 73.664 38.989 72.164 Z "/>
  <path id="ID0.007584026083350182_37_" fill="#FAA51F" stroke="#8E5322" stroke-width="1.4" stroke-linecap="round" stroke-linejoin="round" d="M 50.401 74.7 C 50.401 74.7 48.7 80.2 49.501 89.001 C 49.8 92.801 56.901 88.501 56.401 95.9 C 56.2 98.001 47.001 97.8 44.901 97.001 C 43.001 96.301 42.501 95.601 42.799 93.601 C 43.901 86.301 40.199 77.901 40.199 77.901 "/>
  <path id="ID0.31672530295327306_37_" fill="#FAA51F" stroke="#8E5322" stroke-width="1.4" stroke-linecap="round" stroke-linejoin="round" d="M 51.501 90.801 C 51.501 90.801 50.2 90.601 48.7 90.901 "/>
  <path id="ID0.46792364912107587_35_" fill="#FAA51F" stroke="#8E5322" stroke-width="1.4" stroke-linecap="round" stroke-linejoin="round" d="M 51.2 63.801 C 51.2 70.501 52.901 80.301 41.001 80.301 C 29.101 80.301 30.2 71.301 30.2 64.601 C 30.2 57.901 34.3 56.101 41.001 56.101 C 47.7 56.101 51.2 57.101 51.2 63.801 Z "/>
  <path id="ID0.38032895559445024_35_" fill="#FFFFFF" d="M 47.601 66.7 C 47.601 70.9 48.501 77.2 42.101 77.2 C 35.701 77.2 36.201 71.501 36.201 67.301 C 36.201 63.101 38.402 61.901 42.101 61.901 C 45.8 61.901 47.601 62.501 47.601 66.7 Z " stroke-width="1"/>
  <path id="ID0.527006761636585_36_" fill="#FAA51F" stroke="#8E5322" stroke-width="1.4" stroke-linecap="round" stroke-linejoin="round" d="M 31.001 74.7 C 31.001 74.7 33.601 80.2 32.3 88.9 C 31.7 92.7 26.101 88.001 26.501 95.6 C 26.601 98.1 34.2 97.9 36.401 97.5 C 38.501 97.1 39.299 96 39.1 93.899 C 38.799 89.699 40.299 80.599 40.299 80.599 "/>
  <path id="ID0.8937406223267317_47_" fill="#FAA51F" stroke="#8E5322" stroke-width="1.4" stroke-linecap="round" stroke-linejoin="round" d="M 29.901 90.7 C 29.901 90.7 31.501 90.501 32.901 90.9 "/>
  <path id="ID0.30105241015553474_33_" fill="#FAA51F" stroke="#8E5322" stroke-width="1.4" stroke-linecap="round" stroke-linejoin="round" d="M 55.674 77.2 C 57.254 75.004 58.109 71.515 58.258 69.55 C 58.571 65.415 55.496 60.357 52.117 57.995 L 47.86 58.137 "/>
  <path id="ID0.7841392233967781_32_" fill="#FAA51F" stroke="#8E5322" stroke-width="1.4" stroke-linecap="round" stroke-linejoin="round" d="M 51.969 67.87 L 50.497 64.136 "/>
  <path id="ID0.15909873321652412_33_" fill="#FAA51F" stroke="#8E5322" stroke-width="1.4" stroke-linecap="round" stroke-linejoin="round" d="M 31.188 72.025 C 31.022 71.932 23.576 73.664 23.435 73.544 C 21.348 70.198 24.182 60.64 30.707 55.458 L 38.605 56.858 "/>
  <path id="ID0.8143284288235009_33_" fill="#FAA51F" stroke="#8E5322" stroke-width="1.4" stroke-linecap="round" stroke-linejoin="round" d="M 33.106 63.258 C 31.942 66.393 30.024 70.193 30.024 70.193 "/>
  <path id="ID0.1790580078959465_43_" fill="#FAA51F" stroke="#8E5322" stroke-width="1.4" stroke-linecap="round" stroke-linejoin="round" d="M 30.024 70.192 C 34.172 74.7 34.584 79.455 33.106 80.3 C 29.648 82.321 25.885 80.18 22.829 72.025 "/>
  <path id="ID0.1790580078959465_42_" fill="#000000" stroke="#000000" stroke-width="2" stroke-linecap="round" stroke-linejoin="round" d="M 51.886 68.2 C 48.646 73.999 47.243 79.53 48.805 80.208 C 50.288 80.866 55.177 82.417 58.105 70.848 "/>
  <path id="ID0.914295740891248_34_" fill="#101010" d="M 24.089 53.264 C 21.989 53.464 19.689 57.964 19.788 61.664 C 19.989 65.363 21.39 67.964 22.288 69.563 C 23.589 70.963 22.288 66.463 24.788 65.164 C 27.288 63.863 31.188 65.464 31.188 65.464 C 31.188 65.464 29.088 60.464 27.989 57.664 C 27.089 55.063 26.288 53.264 24.089 53.264 Z " stroke-width="1"/>
  <path id="ID0.007584026083350182_36_" fill="#000000" stroke="#000000" stroke-width="2" stroke-linecap="round" stroke-linejoin="round" d="M 50.401 74.7 C 50.401 74.7 48.7 80.2 49.501 89.001 C 49.8 92.801 56.901 88.501 56.401 95.9 C 56.2 98.001 47.001 97.8 44.901 97.001 C 43.001 96.301 42.501 95.601 42.799 93.601 C 43.901 86.301 40.199 77.901 40.199 77.901 "/>
  <path id="ID0.31672530295327306_36_" fill="#FAA51F" stroke="#000000" stroke-width="2" stroke-linecap="round" stroke-linejoin="round" d="M 51.501 90.801 C 51.501 90.801 50.2 90.601 48.7 90.901 "/>
  <path id="ID0.46792364912107587_34_" fill="#000000" stroke="#000000" stroke-width="2" stroke-linecap="round" stroke-linejoin="round" d="M 51.2 63.801 C 51.2 70.501 52.901 80.301 41.001 80.301 C 29.101 80.301 30.2 71.301 30.2 64.601 C 30.2 57.901 34.3 56.101 41.001 56.101 C 47.7 56.101 51.2 57.101 51.2 63.801 Z "/>
  <path id="ID0.38032895559445024_34_" fill="#101010" d="M 47.601 66.7 C 47.601 70.9 48.501 77.2 42.101 77.2 C 35.701 77.2 36.201 71.501 36.201 67.301 C 36.201 63.101 38.402 61.901 42.101 61.901 C 45.8 61.901 47.601 62.501 47.601 66.7 Z " stroke-width="1"/>
  <path id="ID0.527006761636585_35_" fill="#000000" stroke="#000000" stroke-width="2" stroke-linecap="round" stroke-linejoin="round" d="M 31.001 74.7 C 31.001 74.7 33.601 80.2 32.3 88.9 C 31.7 92.7 26.101 88.001 26.501 95.6 C 26.601 98.1 34.2 97.9 36.401 97.5 C 38.501 97.1 39.299 96 39.1 93.899 C 38.799 89.699 40.299 80.599 40.299 80.599 "/>
  <path id="ID0.8937406223267317_46_" fill="#FAA51F" stroke="#000000" stroke-width="2" stroke-linecap="round" stroke-linejoin="round" d="M 29.901 90.7 C 29.901 90.7 31.501 90.501 32.901 90.9 "/>
  <path id="ID0.30105241015553474_32_" fill="#000000" stroke="#000000" stroke-width="2" stroke-linecap="round" stroke-linejoin="round" d="M 55.674 77.2 C 57.254 75.004 58.109 71.515 58.258 69.55 C 58.571 65.415 55.496 60.357 52.117 57.995 L 47.86 58.137 "/>
  <path id="ID0.7841392233967781_31_" fill="#FAA51F" stroke="#000000" stroke-width="2" stroke-linecap="round" stroke-linejoin="round" d="M 51.969 67.87 L 50.497 64.136 "/>
  <path id="ID0.15909873321652412_32_" fill="#000000" stroke="#000000" stroke-width="2" stroke-linecap="round" stroke-linejoin="round" d="M 31.188 72.025 C 31.022 71.932 23.576 73.664 23.435 73.544 C 21.348 70.198 24.182 60.64 30.707 55.458 L 38.605 56.858 "/>
  <path id="ID0.8143284288235009_32_" fill="#FAA51F" stroke="#000000" stroke-width="2" stroke-linecap="round" stroke-linejoin="round" d="M 33.106 63.258 C 31.942 66.393 30.024 70.193 30.024 70.193 "/>
  <path id="ID0.1790580078959465_41_" fill="#000000" stroke="#000000" stroke-width="2" stroke-linecap="round" stroke-linejoin="round" d="M 30.024 70.192 C 34.172 74.7 34.584 79.455 33.106 80.3 C 29.648 82.321 25.885 80.18 22.829 72.025 "/>
  <path id="ID0.2591130444779992_32_" fill="#000000" d="M 40.701 10.9 C 42.201 10.8 45.301 10.6 47 10.7 C 51.602 10.9 55.9 12.6 55.9 12.6 L 68.5 4.4 L 66.301 22.7 C 65.701 21.9 76.5 35.1 69.701 46.1 C 62.801 57.2 48.201 62.1 30 58.5 C 11.801 54.9 7.501 44.4 8.7 38.9 C 9.901 33.4 16.801 31.3 16.801 31.3 C 16.801 31.3 16.901 27 20 21.699 C 21.9 18.5 28.102 13.899 28.102 13.899 L 30.9 2.7 L 38.101 9.7 L 40.701 10.9 Z " stroke-width="1"/>
  <path id="ID0.3588979784399271_32_" fill="#101010" d="M 17.701 31.2 L 20.101 29.2 L 28.9 31.801 C 28.9 31.801 28.9 35.101 33.101 36.001 C 37.3 36.9 44.4 35.301 44.4 35.301 L 51.5 37.101 C 51.5 37.101 59.602 36.601 60 43.001 C 60.701 54.101 51.4 59.4 42.9 59.301 C 37.4 59.301 33.9 58.601 30 57.901 C 12.801 54.801 7.901 44.401 9.401 38.901 C 10.6 33.401 17.201 31.801 17.201 31.801 L 17.701 31.2 Z " stroke-width="1"/>
  <path id="ID0.2727069961838424_32_" fill="none" stroke="#000000" stroke-width="2" stroke-linecap="round" stroke-linejoin="round" d="M 12.701 36.601 C 12.701 36.601 8.302 35.901 6.1 35.101 C 3.5 34.201 1.7 32.601 1.7 32.601 "/>
  <path id="ID0.5861211125738919_32_" fill="none" stroke="#000000" stroke-width="2" stroke-linecap="round" stroke-linejoin="round" d="M 12.201 42.4 C 12.201 42.4 9.6 43.501 6.802 43.7 C 4.101 44.001 2.302 43.801 2.302 43.801 "/>
  <path id="ID0.4793355236761272_32_" fill="none" stroke="#000000" stroke-width="2" stroke-linecap="round" stroke-linejoin="round" d="M 58.201 11.101 L 53 14.7 "/>
  <path id="ID0.9024141579866409_32_" fill="none" stroke="#000000" stroke-width="2" stroke-linecap="round" stroke-linejoin="round" d="M 81.4 41.9 C 81.4 41.9 77.4 42.3 75.601 42.2 C 73.8 42.1 70.3 41.6 70.3 41.6 "/>
  <path id="ID0.16030752705410123_32_" fill="none" stroke="#000000" stroke-width="2" stroke-linecap="round" stroke-linejoin="round" d="M 70.102 37.801 C 70.102 37.801 72.401 36.101 76 34.501 C 80 32.7 82.201 32.301 82.201 32.301 "/>
  <path id="ID0.40023312577977777_32_" fill="#FFFFFF" stroke="black" stroke-width="2" stroke-linecap="round" stroke-linejoin="round" d="M 24.201 21.801 C 21.4 26.101 21.301 31.101 24 32.801 C 26.701 34.601 31.201 32.501 34 28.101 C 36.801 23.801 36.9 18.801 34.201 17.101 C 31.5 15.4 27 17.501 24.201 21.801 Z "/>
  <path id="ID0.43813491938635707_32_" fill="#414142" d="M 26.301 25.4 C 26 26.4 26.5 27.4 27.5 27.7 C 28.4 28.001 29.4 27.4 29.701 26.301 C 30 25.301 29.5 24.301 28.5 24.001 C 27.5 23.801 26.602 24.4 26.301 25.4 " stroke-width="1"/>
  <path id="ID0.4253597157076001_32_" fill="#FFFFFF" stroke="black" stroke-width="2" stroke-linecap="round" stroke-linejoin="round" d="M 47.4 24.9 C 44.601 29.2 44.9 34.4 48.101 36.501 C 51.3 38.601 56.201 36.801 58.999 32.4 C 61.8 28.1 61.499 22.9 58.3 20.8 C 55.102 18.801 50.201 20.601 47.4 24.9 Z "/>
  <path id="ID0.814307457767427_32_" fill="#414142" d="M 50.701 28.801 C 50.701 29.801 51.5 30.7 52.4 30.7 C 53.4 30.7 54.101 29.9 54.101 28.801 C 54.101 27.801 53.3 26.901 52.4 26.901 C 51.5 26.901 50.701 27.7 50.701 28.801 " stroke-width="1"/>
  <path id="ID0.5240494590252638_32_" fill="#000000" stroke="#000000" stroke-width="2" stroke-linecap="round" stroke-linejoin="round" d="M 36.4 34.801 C 34.701 34.601 32.4 33.301 32.101 35.2 C 32.101 36.001 33.701 39.301 35.499 39.4 C 37.499 39.501 40.999 37.001 40.899 35.501 C 40.799 34.001 37.9 35.001 36.4 34.801 Z "/>
  <path id="ID0.046259244438260794_32_" fill="#FFFFFF" stroke="#000000" stroke-width="2" stroke-linecap="round" stroke-linejoin="round" d="M 44.552 50.563 C 44.552 50.563 41.853 52.627 36.577 51.04 "/>
  <path id="ID0.042709666304290295" fill="#101010" stroke="none" d="M 28.0058 23.3 C 28.6607 23.3 29.2545 23.591 29.6847 24.062 C 30.115 24.533 30.3808 25.183 30.3808 25.9 C 30.3808 26.617 30.115 27.267 29.6847 27.738 C 29.2545 28.209 28.6607 28.5 28.0058 28.5 C 27.3508 28.5 26.7571 28.209 26.3268 27.738 C 25.8966 27.267 25.6308 26.617 25.6308 25.9 C 25.6308 25.183 25.8966 24.533 26.3268 24.062 C 26.7571 23.591 27.3508 23.3 28.0058 23.3 Z " stroke-width="0.9577087324721634"/>
  <path id="ID0.042709666304290295" fill="#101010" stroke="none" d="M 52.4058 26.3 C 53.0607 26.3 53.6545 26.591 54.0847 27.062 C 54.515 27.533 54.7808 28.183 54.7808 28.9 C 54.7808 29.617 54.515 30.267 54.0847 30.738 C 53.6545 31.209 53.0607 31.5 52.4058 31.5 C 51.7508 31.5 51.1571 31.209 50.7268 30.738 C 50.2966 30.267 50.0308 29.617 50.0308 28.9 C 50.0308 28.183 50.2966 27.533 50.7268 27.062 C 51.1571 26.591 51.7508 26.3 52.4058 26.3 Z " stroke-width="0.9577087324721634"/>
</svg>