<svg xmlns="http://www.w3.org/2000/svg" xmlns:xlink="http://www.w3.org/1999/xlink" version="1.1" width="232.81343614476395" height="131.8887382687874" viewBox="18.06501120618248 -0.27738338419532693 232.81343614476395 131.8887382687874">
  <!-- Exported by Scratch - http://scratch.mit.edu/ -->
  <path id="ID0.8664965587668121" fill="#000000" stroke="none" stroke-linecap="round" d="M 153.3512 46.1307 C 156.6961 52.7624 160.434 63.6973 163.1033 72.8525 C 167.0701 86.4614 183.0121 100.2437 172.7581 114.8061 C 163.9387 127.5161 133.9683 135.8026 124.9564 127.3973 C 113.9061 117.081 130.3343 93.4047 133.1379 76.9909 C 136.0216 60.0782 137.1941 35.7043 143.1624 26.0511 L 153.3512 46.1307 Z " stroke-width="1.4705870194872235"/>
  <path id="ID0.8664965587668121" fill="#000000" stroke="none" stroke-linecap="round" d="M 105.49 31.3046 C 106.9767 41.5413 110.2529 51.3324 110.5518 61.8261 C 111.0344 78.658 121.6113 100.4002 108.4451 114.38 C 98.9584 123.5863 70.4877 118.3222 65.2461 108.1984 C 56.488 91.2807 67.6107 68.0988 74.0217 47.775 C 79.6924 31.7428 92.5308 5.3873 101.0284 0.5328 L 105.49 31.3046 Z " stroke-width="1.6203666867561324"/>
  <path id="ID0.8664965587668121" fill="#000000" stroke="none" stroke-linecap="round" d="M 216.4351 56.3628 C 215.285 64.2819 212.7505 71.8563 212.5193 79.9743 C 212.146 92.9954 203.9637 109.8152 214.149 120.63 C 221.488 127.7521 243.513 123.6798 247.5679 115.8479 C 254.3432 102.7604 245.7386 84.8269 240.779 69.1043 C 236.3922 56.7018 226.4604 36.3131 219.8866 32.5576 L 216.4351 56.3628 Z " stroke-width="1.2535192187737965"/>
  <path id="ID0.8664965587668121" fill="#000000" stroke="none" stroke-linecap="round" d="M 196.0888 78.7344 C 196.3958 84.8203 196.0499 94.0747 195.2792 101.8923 C 194.0134 110.1313 196.4106 121.9327 190.0183 126.7194 C 185.1137 130.3903 174.3035 124.4503 172.0941 118.2274 C 169.3385 110.4638 174.9964 101.7369 177.8646 93.9505 C 182.7139 82.3207 189.6199 65.1747 195.1258 60.2851 L 196.0888 78.7344 Z " stroke-width="0.9999999872468254"/>
  <path id="ID0.8664965587668121" fill="#000000" stroke="none" stroke-linecap="round" d="M 33.34 64.2779 C 34.9537 70.1496 36.8334 79.1717 38.0833 86.8482 C 39.08 94.9906 43.577 105.7368 40.0649 111.5505 C 36.2752 117.8232 23.9816 122.3637 20.3573 115.948 C 15.9279 107.1595 22.7193 92.4352 23.9576 81.1421 C 25.231 69.5044 25.6577 51.8604 28.4252 46.4815 L 33.34 64.2779 Z " stroke-width="0.8680667268694187"/>
</svg>