<svg xmlns="http://www.w3.org/2000/svg" xmlns:xlink="http://www.w3.org/1999/xlink" version="1.1" width="90.45943450927734" height="95.26453399658203" viewBox="0.24056148529052734 1.2999999523162842 90.45943450927734 95.26453399658203">
  <!-- Exported by Scratch - http://scratch.mit.edu/ -->
  <path id="ID0.40227043256163597_14_" fill="none" stroke="#000000" stroke-width="2" stroke-linecap="round" stroke-linejoin="round" d="M 22.6 76.7 C 20.1 76.3 17.3 75.4 14.8 73.1 C 9.3 68 7.5 59.7 3.6 61.9 C -0.3 64.1 -0.2 77.6 12.1 81.7 C 16.4 83.2 20.3 83.2 23.3 83 C 24.1 83 31.1 82.3 33.5 78.7 C 35.8 75.2 34.2 74.3 33.4 73.8 C 32.5 73.4 26.1 77.4 22.6 76.7 Z "/>
  <path id="ID0.48413723474368453_14_" fill="none" stroke="#000000" stroke-width="2" stroke-linecap="round" stroke-linejoin="round" d="M 53.8 12.2 C 52.3 11.9 49.3 11.3 47.6 11.2 C 43 10.8 38.5 12 38.5 12 L 27 2.3 L 26.9 20.7 C 27.6 20 15.3 31.8 20.7 43.5 C 26.2 55.4 40.1 62 58.6 60.7 C 77.1 59.4 82.7 49.5 82.1 43.9 C 81.6 38.3 75 35.4 75 35.4 C 75 35.4 75.4 31.1 73 25.5 C 71.5 22.1 65.9 16.8 65.9 16.8 L 64.5 5.3 L 56.5 11.4 L 53.8 12.2 Z "/>
  <g id="ID0.9297856376506388">
    <g id="ID0.7407716196030378_28_">
      <path id="ID0.15909873321652412_27_" fill="#000000" stroke="#000000" stroke-width="2" stroke-linecap="round" stroke-linejoin="round" d="M 28.6 71.4 C 22.8 67.3 23.6 69.8 22.9 67 C 24 62 31.5 57.3 37.5 56.1 L 43.9 60.9 "/>
      <path id="ID0.8024068027734756_28_" fill="#FAA51F" stroke="#8E5322" stroke-width="1.4" stroke-linecap="round" stroke-linejoin="round" d="M 31.9 66.6 "/>
      <path id="ID0.06734407460317016_28_" fill="none" stroke="#8E5322" stroke-width="1.4" stroke-linecap="round" stroke-linejoin="round" d="M 35.5 66.4 "/>
      <path id="ID0.8143284288235009_10_" fill="#FAA51F" stroke="#8E5322" stroke-width="1.4" stroke-linecap="round" stroke-linejoin="round" d="M 31.5 67.3 L 36.2 64.2 "/>
      <path id="ID0.6682511982508004_11_" fill="none" stroke="#8E5322" stroke-width="1.4" stroke-linecap="round" stroke-linejoin="round" d="M 31 68 L 29.7 66.7 "/>
    </g>
    <path id="ID0.1790580078959465_31_" fill="#000000" stroke="#000000" stroke-width="2" stroke-linecap="round" stroke-linejoin="round" d="M 31.2 67.8 C 35.8 71.5 34.8 75.7 33.3 76.6 C 29.8 78.6 25.8 75.8 22.8 67.6 "/>
  </g>
  <g id="ID0.16171270422637463_14_">
    <path id="ID0.007584026083350182_14_" fill="#000000" stroke="#000000" stroke-width="2" stroke-linecap="round" stroke-linejoin="round" d="M 36.9 77.9 C 36.9 77.9 35.2 82.4 33.7 84.6 C 30 87.1 26.3 88.7 26.3 88.7 C 27.1 89 30.3 89.4 29.9 93.9 C 29.7 96 20.5 95.8 18.4 95 C 16.5 94.3 16 93.6 16.3 91.6 C 16.7 89 23.1 85 25.8 83.2 C 26.5 80.7 27 75.4 27 75.4 "/>
    <path id="ID0.31672530295327306_14_" fill="#FAA51F" stroke="#000000" stroke-width="2" stroke-linecap="round" stroke-linejoin="round" d="M 26.5 88.9 C 26.5 88.9 25.8 88.6 24.3 88.9 "/>
  </g>
  <path id="ID0.8535828334279358_14_" fill="#000000" d="M 22.6 76.7 C 20.1 76.3 17.3 75.4 14.8 73.1 C 9.3 68 7.5 59.7 3.6 61.9 C -0.3 64.1 -0.2 77.6 12.1 81.7 C 16.4 83.2 20.3 83.2 23.3 83 C 24.1 83 31.1 82.3 33.5 78.7 C 35.8 75.2 34.2 74.3 33.4 73.8 C 32.5 73.4 26.1 77.4 22.6 76.7 Z " stroke-width="1"/>
  <path id="ID0.914295740891248_14_" fill="#101010" d="M 3.8 61.8 C 1.8 62.5 0.6 67.4 1.6 71 C 2.7 74.6 4.6 76.8 5.9 78.1 C 7.5 79.2 5.2 75.1 7.3 73.2 C 9.4 71.4 13.6 72 13.6 72 C 13.6 72 10.4 67.6 8.7 65.2 C 7.1 62.8 5.9 61.2 3.8 61.8 Z " stroke-width="1"/>
  <g id="Layer_2_30_">
    <path id="ID0.39854341372847557_14_" fill="#FAA51F" stroke="#8E5322" stroke-width="1.4" stroke-linecap="round" stroke-linejoin="round" d="M 35.8 72.6 "/>
  </g>
  <path id="ID0.46792364912107587_14_" fill="#000000" stroke="#000000" stroke-width="2" stroke-linecap="round" stroke-linejoin="round" d="M 47.8 67 C 45.9 73.4 44.8 83.3 33.4 80 C 22 76.7 25.6 68.3 27.5 61.9 C 29.4 55.5 33.8 54.9 40.3 56.8 C 46.6 58.6 49.7 60.5 47.8 67 Z "/>
  <path id="ID0.38032895559445024_14_" fill="#101010" d="M 46.5 69 C 45.3 73 45.8 76.3 39.7 74.5 C 33.6 72.7 34.2 70.4 35.4 66.4 C 36.6 62.4 39 61.8 42.6 62.9 C 46.2 64 47.7 65 46.5 69 Z " stroke-width="1"/>
  <g id="ID0.15723733883351088_17_">
    <path id="ID0.527006761636585_17_" fill="#000000" stroke="#000000" stroke-width="2" stroke-linecap="round" stroke-linejoin="round" d="M 29.5 78.3 C 29.5 78.3 33.6 81.2 35.5 81.5 C 32.8 81.2 30.7 80.3 30.9 85 C 31 87.1 31.2 92 33.7 92.2 C 41.8 92.4 33.8 87.6 43.6 84.6 C 46.4 83.6 50.7 80.5 42.3 75.5 "/>
    <path id="ID0.8937406223267317_23_" fill="#FAA51F" stroke="#000000" stroke-width="2" stroke-linecap="round" stroke-linejoin="round" d="M 42.7 84.7 C 41.6 85.1 40 86.1 38.7 86.8 "/>
    <path id="ID0.8937406223267317_22_" fill="#FAA51F" stroke="#000000" stroke-width="2" stroke-linecap="round" stroke-linejoin="round" d="M 38.6 82.1 C 38 82.2 35.8 81.4 34.5 81.2 "/>
  </g>
  <path id="ID0.2591130444779992_14_" fill="#000000" d="M 53.8 12.2 C 52.3 11.9 49.3 11.3 47.6 11.2 C 43 10.8 38.5 12 38.5 12 L 27 2.3 L 26.9 20.7 C 27.6 20 15.3 31.8 20.7 43.5 C 26.2 55.4 40.1 62 58.6 60.7 C 77.1 59.4 82.7 49.5 82.1 43.9 C 81.6 38.3 75 35.4 75 35.4 C 75 35.4 75.4 31.1 73 25.5 C 71.5 22.1 65.9 16.8 65.9 16.8 L 64.5 5.3 L 56.5 11.4 L 53.8 12.2 Z " stroke-width="1"/>
  <path id="ID0.3588979784399271_14_" fill="#101010" d="M 74.1 35.2 L 72 32.9 L 62.9 34.4 C 62.9 34.4 62.5 37.7 58.2 38.1 C 54 38.4 47.1 36 47.1 36 L 39.8 36.9 C 39.8 36.9 31.8 35.4 30.6 41.7 C 28.6 52.6 37.2 59 45.7 60 C 51.2 60.7 54.7 60.4 58.7 60.2 C 76.2 59.2 82.3 49.5 81.5 43.9 C 81 38.3 74.6 35.9 74.6 35.9 L 74.1 35.2 Z " stroke-width="1"/>
  <path id="ID0.2727069961838424_14_" fill="none" stroke="#000000" stroke-width="2" stroke-linecap="round" stroke-linejoin="round" d="M 78.4 41.1 C 78.4 41.1 82.8 40.7 85.1 40.1 C 87.8 39.4 89.7 37.9 89.7 37.9 "/>
  <path id="ID0.5861211125738919_14_" fill="none" stroke="#000000" stroke-width="2" stroke-linecap="round" stroke-linejoin="round" d="M 78.2 46.9 C 78.2 46.9 80.7 48.3 83.4 48.8 C 86.1 49.4 87.9 49.4 87.9 49.4 "/>
  <path id="ID0.4793355236761272_14_" fill="none" stroke="#000000" stroke-width="2" stroke-linecap="round" stroke-linejoin="round" d="M 36.4 10.3 L 41.1 14.5 "/>
  <path id="ID0.9024141579866409_14_" fill="none" stroke="#000000" stroke-width="2" stroke-linecap="round" stroke-linejoin="round" d="M 9.7 37.4 C 9.7 37.4 13.6 38.5 15.4 38.7 C 17.2 38.9 20.7 39.1 20.7 39.1 "/>
  <path id="ID0.16030752705410123_14_" fill="none" stroke="#000000" stroke-width="2" stroke-linecap="round" stroke-linejoin="round" d="M 21.3 35.3 C 21.3 35.3 19.4 33.2 16.1 30.9 C 12.5 28.4 10.4 27.6 10.4 27.6 "/>
  <g id="Layer_5_15_">
    <path id="ID0.40023312577977777_14_" fill="#FFFFFF" stroke="black" stroke-width="2" stroke-linecap="round" stroke-linejoin="round" d="M 70.8 25.3 C 73.1 29.9 72.5 34.9 69.7 36.2 C 66.8 37.7 62.6 35 60.3 30.3 C 58 25.7 58.6 20.7 61.4 19.4 C 64.3 18 68.5 20.7 70.8 25.3 Z "/>
    <path id="ID0.43813491938635707_14_" fill="#414142" d="M 70.3 28.8 C 70.5 29.8 69.9 30.8 68.8 30.9 C 67.9 31.1 67 30.4 66.8 29.2 C 66.6 28.2 67.2 27.2 68.3 27.1 C 69.3 27.1 70.1 27.8 70.3 28.8 " stroke-width="1"/>
  </g>
  <g id="Layer_7_15_">
    <path id="ID0.4253597157076001_14_" fill="#FFFFFF" stroke="black" stroke-width="2" stroke-linecap="round" stroke-linejoin="round" d="M 47.4 25.5 C 49.7 30.1 48.7 35.2 45.3 36.9 C 41.9 38.6 37.2 36.2 35 31.5 C 32.7 26.9 33.7 21.8 37.1 20.1 C 40.5 18.5 45.1 20.9 47.4 25.5 Z "/>
    <path id="ID0.814307457767427_14_" fill="#414142" d="M 46.6 29.4 C 46.5 30.4 45.6 31.2 44.7 31.1 C 43.7 31 43.1 30.1 43.2 29 C 43.3 28 44.2 27.2 45.1 27.3 C 46.1 27.4 46.7 28.3 46.6 29.4 " stroke-width="1"/>
  </g>
  <path id="ID0.5240494590252638_14_" fill="#000000" stroke="#000000" stroke-width="2" stroke-linecap="round" stroke-linejoin="round" d="M 57.1 36.7 C 58.8 36.7 61.3 35.7 61.3 37.6 C 61.2 38.4 59.2 41.5 57.4 41.4 C 55.4 41.3 52.2 38.3 52.5 36.9 C 52.8 35.5 55.6 36.7 57.1 36.7 Z "/>
  <path id="ID0.046259244438260794_14_" fill="#FFFFFF" stroke="#000000" stroke-width="2" stroke-linecap="round" stroke-linejoin="round" d="M 46.2 50.9 C 46.2 50.9 48.4 53.5 53.9 53.1 "/>
  <g id="ID0.7407716196030378_29_">
    <path id="ID0.15909873321652412_28_" fill="#000000" stroke="#000000" stroke-width="2" stroke-linecap="round" stroke-linejoin="round" d="M 38.8 60.9 C 38.6 61 40.6 74.6 40.3 74.7 C 38.4 75.5 36.5 75.2 35.9 74.6 C 33 71.6 31.1 65.4 31.2 60.2 L 31.5 58.8 "/>
    <path id="ID0.8024068027734756_29_" fill="#FAA51F" stroke="#8E5322" stroke-width="1.4" stroke-linecap="round" stroke-linejoin="round" d="M 40.3 67.9 "/>
    <path id="ID0.06734407460317016_29_" fill="none" stroke="#8E5322" stroke-width="1.4" stroke-linecap="round" stroke-linejoin="round" d="M 40.8 64.4 "/>
  </g>
  <path id="ID0.1790580078959465_32_" fill="#000000" stroke="#000000" stroke-width="2" stroke-linecap="round" stroke-linejoin="round" d="M 38.4 68.7 C 43.1 65.2 49.6 65.6 50 67.3 C 51.1 71.2 47.3 74.3 38.6 75.2 "/>
  <path id="ID0.042709666304290295" fill="#101010" stroke="none" d="M 44.6058 26.8 C 45.2607 26.8 45.8545 27.091 46.2847 27.562 C 46.715 28.033 46.9808 28.683 46.9808 29.4 C 46.9808 30.117 46.715 30.767 46.2847 31.238 C 45.8545 31.709 45.2607 32 44.6058 32 C 43.9508 32 43.3571 31.709 42.9268 31.238 C 42.4966 30.767 42.2308 30.117 42.2308 29.4 C 42.2308 28.683 42.4966 28.033 42.9268 27.562 C 43.3571 27.091 43.9508 26.8 44.6058 26.8 Z " stroke-width="0.9577087324721634"/>
  <path id="ID0.042709666304290295" fill="#101010" stroke="none" d="M 68.2058 26.45 C 68.8607 26.45 69.4545 26.741 69.8847 27.212 C 70.315 27.683 70.5808 28.333 70.5808 29.05 C 70.5808 29.767 70.315 30.417 69.8847 30.888 C 69.4545 31.359 68.8607 31.65 68.2058 31.65 C 67.5508 31.65 66.9571 31.359 66.5268 30.888 C 66.0966 30.417 65.8308 29.767 65.8308 29.05 C 65.8308 28.333 66.0966 27.683 66.5268 27.212 C 66.9571 26.741 67.5508 26.45 68.2058 26.45 Z " stroke-width="0.9577087324721634"/>
</svg>