<svg xmlns="http://www.w3.org/2000/svg" xmlns:xlink="http://www.w3.org/1999/xlink" version="1.1" width="51.45815065450358" height="27.441406040856116" viewBox="0.88494168248332 0.5322166534916207 51.45815065450358 27.441406040856116">
  <!-- Exported by Scratch - http://scratch.mit.edu/ -->
  <path id="ID0.5443468582816422" fill="#000000" stroke="#000000" stroke-width="1.2630203299447569" d="M 30.1936 1.321 C 34.8733 1.14 39.6152 2.9726 42.5126 5.3691 C 45.8157 8.096 47.4122 11.815 47.7056 15.132 C 48.0103 18.5119 48.049 22.8695 43.6877 24.9188 C 38.9193 27.6433 31.2474 27.1304 24.7543 27.1333 C 18.4917 27.1371 11.123 27.7395 6.1241 25.2759 C 2.0676 23.0043 1.2753 18.6086 1.803 15.132 C 2.3352 11.6559 5.1356 7.6669 9.6493 5.3691 C 15.3175 2.4778 22.9925 1.1405 30.1936 1.321 Z "/>
  <path id="ID0.37750169076025486" fill="#FFFFFF" stroke="#000000" stroke-width="0.8471974517271978" d="M 46.7166 6.696 C 48.0559 6.696 49.2692 7.2341 50.1478 8.1041 C 51.0264 8.9735 51.5704 10.1747 51.5704 11.4999 C 51.5704 12.825 51.0264 14.0263 50.1478 14.8957 C 49.2692 15.7657 48.0559 16.3038 46.7166 16.3038 C 45.3774 16.3038 44.1641 15.7657 43.2854 14.8957 C 42.4068 14.0263 41.8628 12.825 41.8628 11.4999 C 41.8628 10.1747 42.4068 8.9735 43.2854 8.1041 C 44.1641 7.2341 45.3774 6.696 46.7166 6.696 Z "/>
  <path id="ID0.37750169076025486" fill="#FFFFFF" stroke="#000000" stroke-width="1.1104878126595163" d="M 36.3339 5.2129 C 38.3221 5.211 40.124 5.8832 41.4294 6.9714 C 42.7349 8.0589 43.5439 9.5625 43.5456 11.222 C 43.5472 12.8816 42.741 14.3867 41.4377 15.4768 C 40.1343 16.5675 38.3337 17.2432 36.3455 17.2451 C 34.3573 17.2471 32.5554 16.5749 31.2499 15.4867 C 29.9445 14.3991 29.1354 12.8955 29.1338 11.236 C 29.1322 9.5765 29.9383 8.0713 31.2417 6.9812 C 32.545 5.8905 34.3456 5.2148 36.3339 5.2129 Z "/>
  <path id="ID0.234124637208879" fill="#000000" stroke="black" stroke-width="1.178983154000629" stroke-linecap="round" d="M 46.7693 7.3284 C 47.1323 7.3284 47.4609 7.7773 47.6989 8.5033 C 47.9372 9.2292 48.0845 10.2314 48.0845 11.337 C 48.0845 12.4427 47.9372 13.4449 47.6989 14.1708 C 47.4609 14.8967 47.1323 15.3457 46.7693 15.3457 C 46.4062 15.3457 46.0776 14.8967 45.8397 14.1708 C 45.6013 13.4449 45.454 12.4427 45.454 11.337 C 45.454 10.2314 45.6013 9.2292 45.8397 8.5033 C 46.0776 7.7773 46.4062 7.3284 46.7693 7.3284 Z "/>
  <path id="ID0.234124637208879" fill="#000000" stroke="black" stroke-width="1.5453851515738875" stroke-linecap="round" d="M 36.0253 5.8243 C 36.5642 5.8237 37.0526 6.3855 37.4068 7.2943 C 37.7615 8.2031 37.9814 9.4579 37.9828 10.8426 C 37.9841 12.2272 37.7666 13.4825 37.4136 14.392 C 37.0612 15.3014 36.5739 15.8641 36.035 15.8647 C 35.4961 15.8652 35.0077 15.3034 34.6535 14.3946 C 34.2988 13.4859 34.0789 12.231 34.0775 10.8464 C 34.0762 9.4617 34.2937 8.2064 34.6467 7.297 C 34.999 6.3875 35.4864 5.8248 36.0253 5.8243 Z "/>
</svg>