<svg xmlns="http://www.w3.org/2000/svg" xmlns:xlink="http://www.w3.org/1999/xlink" version="1.1" width="71.12896307034569" height="40.4757648281582" viewBox="-0.564481654382138 -0.564481654382138 71.12896307034569 40.4757648281582">
  <!-- Exported by Scratch - http://scratch.mit.edu/ -->
  <path id="ID0.47984435874968767" fill="#191919" stroke="none" d="M 5.9576 0.3468 L 63.9576 0.3468 L 63.9576 39.3468 L 5.9576 39.3468 L 5.9576 0.3468 Z " stroke-width="1.128963070345697"/>
  <path id="ID0.7572614094242454" fill="#000000" stroke="none" d="M 6.5 0 C 8.293 0 9.918 0.728 11.095 1.905 C 12.272 3.082 13 4.707 13 6.5 C 13 8.293 12.272 9.918 11.095 11.095 C 9.918 12.272 8.293 13 6.5 13 C 4.707 13 3.082 12.272 1.905 11.095 C 0.728 9.918 0 8.293 0 6.5 C 0 4.707 0.728 3.082 1.905 1.905 C 3.082 0.728 4.707 0 6.5 0 Z " stroke-width="1"/>
  <path id="ID0.7572614094242454" fill="#000000" stroke="none" d="M 63.5 0 C 65.293 0 66.918 0.728 68.095 1.905 C 69.272 3.082 70 4.707 70 6.5 C 70 8.293 69.272 9.918 68.095 11.095 C 66.918 12.272 65.293 13 63.5 13 C 61.707 13 60.082 12.272 58.905 11.095 C 57.728 9.918 57 8.293 57 6.5 C 57 4.707 57.728 3.082 58.905 1.905 C 60.082 0.728 61.707 0 63.5 0 Z " stroke-width="1"/>
  <path id="ID0.7675207699649036" fill="#000000" stroke="none" d="M 6 0 L 64 0 L 64 13 L 6 13 L 6 0 Z " stroke-width="1"/>
</svg>