<svg xmlns="http://www.w3.org/2000/svg" xmlns:xlink="http://www.w3.org/1999/xlink" version="1.1" width="404.62942194219187" height="335.51955866094187" viewBox="-0.5258153641012979 -0.6656936371115518 404.62942194219187 335.51955866094187">
  <!-- Exported by Scratch - http://scratch.mit.edu/ -->
  <g id="ID0.5932151433080435">
    <path id="ID0.957860148511827" d="M 182.8088 0.3909 C 161.0827 1.5999 139.18 7.9074 118.5189 15.4645 C 110.6677 18.345 104.6314 25.4989 98.0123 31.1245 C 84.7455 42.8981 69.2551 53.164 58.8614 67.6651 C 48.4337 82.2167 41.6154 99.6872 37.2367 117.2553 C 31.3302 139.4491 23.9714 163.0462 28.2876 185.8619 C 33.9706 215.8594 43.2506 248.8814 65.6989 269.5811 C 99.699 300.9322 142.4853 328.5494 188.2437 333.5145 C 227.2994 337.7524 264.5402 312.3947 300.1018 295.4817 C 311.4023 289.916 321.207 279.297 325.829 267.5182 C 337.5316 237.6919 344.1638 205.4844 347.5005 173.4999 C 350.428 146.9853 356.1969 117.5075 344.4752 93.3865 C 329.1607 61.8716 297.8605 40.6031 271.7642 17.3287 C 265.0656 11.5095 256.5039 9.8857 248.6473 8.3796 C 226.9581 4.2148 204.8596 -0.8369 182.8088 0.3909 Z M 188.0372 63.7632 L 188.0372 114.9567 L 186.0191 115.4047 C 184.823 115.6307 181.9088 116.4527 179.5167 117.2748 C 177.0505 118.0228 174.9583 118.6189 174.8843 118.4709 C 174.8103 118.3968 163.2275 98.4415 149.2525 74.2279 L 123.7688 30.133 L 131.0933 26.6188 C 144.4721 20.1163 163.4534 14.9619 179.8205 13.4659 C 183.7087 13.0918 187.145 12.7178 187.519 12.6438 C 187.8151 12.6477 188.0372 35.5912 188.0372 63.7632 Z M 217.4832 14.5139 C 228.4699 16.01 241.1748 19.3722 251.5615 23.5565 C 264.1923 28.5629 265.9105 29.5369 265.0884 31.1031 C 264.1183 32.9731 214.791 118.3189 214.643 118.467 C 214.569 118.615 212.4768 118.0189 210.0106 117.2709 C 207.6185 116.4488 204.7043 115.6268 203.5822 115.4008 L 201.4901 114.9528 L 201.4901 63.8334 L 201.4901 12.7958 L 205.4523 13.0957 C 207.5445 13.2438 212.9989 13.9178 217.4832 14.5139 Z M 163.5275 124.6733 C 163.6015 124.8993 161.4353 127.2135 158.7432 129.9796 L 153.8849 134.838 L 140.132 126.9174 C 132.5854 122.5071 112.7041 110.9983 95.963 101.3596 L 65.4729 83.7965 L 69.9572 77.52 C 79.8219 63.6191 92.6008 50.8402 106.5017 40.9755 L 112.7041 36.4912 L 138.1178 80.4303 C 152.0927 104.5699 163.5275 124.4473 163.5275 124.6733 Z M 286.3138 43.3638 C 290.8721 46.652 298.2706 53.1544 302.829 57.7127 C 311.2755 66.2333 323.5284 81.7043 323.1583 83.4224 C 323.0102 84.1705 237.6645 134.1678 235.8684 134.5419 C 235.6424 134.6159 233.3282 132.4497 230.562 129.7576 L 225.7037 124.8993 L 233.6243 111.1464 C 238.0346 103.5998 249.3914 83.8705 258.96 67.2774 C 268.5247 50.7623 276.7452 37.2354 277.1933 37.2354 C 277.7192 37.2354 281.8295 40.0015 286.3138 43.3638 Z M 104.3355 120.937 C 127.9531 134.538 147.3824 145.8247 147.4565 145.8987 C 147.6045 145.9727 147.0084 148.0649 146.2604 150.531 C 145.4383 152.9232 144.6163 155.8374 144.3903 156.9594 L 143.9462 159.0516 L 92.8267 159.0516 L 41.6333 159.0516 L 42.0073 154.7154 C 43.7255 135.1341 48.2838 117.5709 56.1303 100.5337 C 58.3705 95.6754 58.9705 94.8533 60.0926 95.4533 C 60.7666 95.8273 80.7219 107.2582 104.3355 120.937 Z M 335.1891 104.5699 C 337.5011 120.0465 338.4699 135.831 339.5001 151.5012 C 339.9142 155.3894 340.3973 157.0104 339.2507 159.4996 L 335.7502 160.2496 L 296.7746 159.0516 L 245.5811 159.0516 L 245.1331 156.9594 C 244.9071 155.8374 244.0851 152.9232 243.2669 150.531 C 242.5189 148.0649 241.9189 145.9727 242.0708 145.8987 C 243.1929 144.7767 330.4918 94.4572 330.8529 95.2312 C 332.2887 98.3198 334.6111 100.7008 335.1891 104.5699 Z M 207.6185 129.8277 C 215.243 132.4419 221.5194 137.3743 226.3037 144.3247 C 231.162 151.4232 232.3581 155.8335 232.3581 165.7722 C 232.3581 175.7109 231.162 180.1212 226.3037 187.2197 C 221.5973 194.0961 215.391 198.9505 207.6185 201.7946 C 201.4901 204.0348 188.0372 204.0348 181.9088 201.7946 C 174.1363 198.9544 167.9338 194.0961 163.2236 187.2197 C 158.3653 180.1212 157.1692 175.7109 157.1692 165.7722 C 157.1692 155.8335 158.3653 151.4232 163.2236 144.3247 C 169.052 135.8042 176.7505 130.6498 186.9152 128.4057 C 191.6254 127.3615 202.7602 128.1096 207.6185 129.8277 Z M 144.3942 174.5187 C 144.6202 175.7148 145.4422 178.629 146.2643 181.0211 C 147.0123 183.4873 147.6084 185.5054 147.4604 185.6535 C 147.3863 185.7275 128.8531 196.4883 106.2056 209.4931 C 83.6361 222.572 63.6808 234.0808 61.9626 235.0509 L 58.8225 236.843 L 57.4043 234.0029 C 49.6318 218.6838 43.5774 196.0363 42.0852 176.3849 L 41.7853 172.4967 L 92.8306 172.4967 L 143.9462 172.4967 L 144.3942 174.5187 Z M 339.5001 176.0011 C 339.2227 177.6102 325.4209 208.1236 318.2513 223.9999 L 316.7513 227.2511 L 287.0618 211.6632 C 277.0763 206.3226 243.2669 186.4015 242.7448 186.0275 C 242.0708 185.6535 242.1488 184.5314 243.2669 181.0952 C 244.089 178.629 244.911 175.7148 245.1331 174.5187 L 245.5811 172.5006 L 296.7005 172.5006 L 340.5013 171.5013 L 339.5001 176.0011 Z M 163.5275 206.8789 C 163.1534 208.6711 113.1561 294.0168 112.408 294.1688 C 110.6159 294.4688 95.1449 282.286 86.6983 273.8395 C 78.2518 265.3929 66.0729 249.9258 66.3729 248.1297 C 66.521 247.6077 86.2503 235.7989 110.2419 221.898 L 153.8849 196.7142 L 158.7432 201.5725 C 161.4314 204.3387 163.6015 206.6568 163.5275 206.8789 Z M 282.6516 223.846 C 318.6 244.5454 323.7544 247.7596 323.1583 248.9557 C 320.9921 253.14 309.8573 266.7409 302.7549 273.7693 C 295.6564 280.8678 282.1295 292.0026 277.9413 294.1727 C 276.7452 294.7688 273.309 289.2403 251.1875 250.7518 L 225.7037 206.6568 L 230.6361 201.6505 L 235.4944 196.6441 L 238.4826 198.3622 C 240.1267 199.3323 260.008 210.8411 282.6516 223.846 Z M 180.1907 214.5774 C 182.2828 215.1735 184.823 215.9215 186.0191 216.1475 L 188.0372 216.5955 L 188.0372 267.7149 L 188.0372 318.7603 L 184.149 318.4603 C 164.4937 316.9643 141.8501 310.9138 126.531 303.1413 L 123.6909 301.7231 L 125.035 299.331 C 125.783 297.9869 137.3658 278.0316 150.6668 254.8659 C 164.0456 231.7743 175.2544 212.9411 175.7025 213.0891 C 176.0804 213.2333 178.1725 213.9034 180.1907 214.5774 Z M 240.1267 257.1022 L 265.6845 301.4192 L 261.8002 303.4374 C 247.0772 311.1359 225.3297 316.8903 205.4523 318.4603 L 201.4901 318.7603 L 201.4901 267.7149 L 201.4901 216.5955 L 203.5822 216.1475 C 204.7043 215.9215 207.4705 215.1034 209.7107 214.3553 C 211.9509 213.6073 213.969 212.9333 214.1949 212.9333 C 214.4209 212.8593 226.0777 232.8146 240.1267 257.1022 Z " stroke-width="0.03896000236272812" fill="undefined"/>
    <path id="ID0.9232685985043645" d="M 185.797 142.0105 C 180.0426 144.2507 173.1662 151.2012 171 157.0335 C 167.4118 166.5982 169.578 175.8667 177.1284 183.4133 C 182.5828 188.7937 187.8892 191.1858 194.7656 191.1858 C 201.642 191.1858 206.9484 188.7937 212.4028 183.4133 C 217.7832 177.9589 220.1753 172.6525 220.1753 165.7761 C 220.1753 158.8997 217.7832 153.5933 212.4028 148.1389 C 204.8523 140.5924 195.2877 138.3483 185.797 142.0105 Z M 199.3239 153.8193 C 205.1523 155.4634 208.5886 162.5619 206.8705 169.2903 C 205.6744 173.8486 202.8342 176.6888 198.3499 177.8849 C 190.9514 179.7549 183.5529 175.5667 182.4309 168.8422 C 180.6387 158.0036 188.5632 150.831 199.3239 153.8193 Z " stroke-width="0.03896000236272812" fill="undefined"/>
    <path id="ID0.3623940930701792" fill="#000000" stroke="none" d="M 196.7822 116.5413 C 210.1544 116.5413 222.2723 121.9731 231.0479 130.7473 C 239.8221 139.5229 245.2539 151.6408 245.2539 165.013 C 245.2539 178.3853 239.8221 190.5032 231.0479 199.2788 C 222.2723 208.0529 210.1544 213.4848 196.7822 213.4848 C 183.4099 213.4848 171.292 208.0529 162.5164 199.2788 C 153.7423 190.5032 148.3104 178.3853 148.3104 165.013 C 148.3104 151.6408 153.7423 139.5229 162.5164 130.7473 C 171.292 121.9731 183.4099 116.5413 196.7822 116.5413 Z " stroke-width="1.491437554359436"/>
  </g>
  <path id="ID0.23621115181595087" fill="#000000" stroke="none" stroke-linecap="round" d="M 329.5973 159.7979 L 403.2344 152.3261 L 402.8228 168.9136 L 386.4239 167.7342 L 386.1073 170.0172 L 330.9368 173.2336 L 329.5973 159.7979 Z " stroke-width="0.999999979642082"/>
  <path id="ID0.44418960995972157" fill="#000000" stroke="none" d="M 269.7953 106.2561 L 364.2284 198.4137 L 356.0218 206.8229 L 261.5887 114.6653 L 269.7953 106.2561 Z " stroke-width="1.7384307312543537"/>
  <path id="ID0.44418960995972157" fill="#000000" stroke="none" d="M 301.2759 89.6701 L 301.3073 176.5052 L 289.5573 176.5095 L 289.5259 89.6743 L 301.2759 89.6701 Z " stroke-width="1.261866775850923"/>
  <path id="ID0.23621115181595087" fill="#000000" stroke="none" stroke-linecap="round" d="M 73.431 174.0513 L 0.3434 129.9933 L 10.8152 117.084 L 25.3623 129.1564 L 27.0456 127.5561 L 80.3558 162.459 L 73.431 174.0513 Z " stroke-width="1.0792511173909642"/>
  <path id="ID0.44418960995972157" fill="#000000" stroke="none" d="M 131.7237 135.1578 L 48.2462 159.0711 L 45.0104 147.7754 L 128.4879 123.8621 L 131.7237 135.1578 Z " stroke-width="1.2618667545868179"/>
</svg>