<svg xmlns="http://www.w3.org/2000/svg" xmlns:xlink="http://www.w3.org/1999/xlink" version="1.1" width="329.8663079163978" height="234.97894829725712" viewBox="12.674871592643411 19.453345446708354 329.8663079163978 234.97894829725712">
  <!-- Exported by Scratch - http://scratch.mit.edu/ -->
  <path id="ID0.8267871094867587" fill="#000000" stroke="none" stroke-linecap="round" d="M 303.9904 20.0464 C 286.195 20.7626 268.0768 29.8544 259.9385 43.9515 C 252.4857 56.8991 257.9865 76.2215 261.6284 91.6437 C 262.7023 95.7278 266.3102 89.4918 268.5959 90.379 C 272.3622 91.9733 272.3069 97.9579 275.6441 99.2377 C 278.1402 100.0154 278.7916 95.8654 280.4828 97.3932 C 283.517 97.7157 283.8307 101.9497 286.828 103.6611 C 289.9349 105.2687 293.6516 101.7154 296.7853 103.3223 C 299.3758 104.6378 296.0596 109.3581 297.5508 109.6049 C 303.0179 111.5634 309.6111 106.6368 311.9332 107.9907 C 313.6982 108.9975 305.5577 117.5406 307.9138 115.9658 C 316.9302 110.8096 330.9505 104.1644 335.9853 92.0317 C 341.6015 77.1279 345.3647 58.0499 337.5626 40.0148 C 333.1177 28.2336 316.7609 19.2574 303.9904 20.0464 Z " stroke-width="1.0895440003821213"/>
  <path id="ID0.8267871094867587" fill="#000000" stroke="none" stroke-linecap="round" d="M 65.1869 185.1427 C 53.9313 178.5834 36.2515 183.7571 26.1638 191.9697 C 16.7879 200.4068 12.7082 215.3112 13.2706 228.2912 C 13.5285 235.9247 22.6371 242.1153 29.5282 246.3317 C 36.7387 250.6894 44.4593 256.249 51.0075 252.8219 C 63.5921 246.6426 76.7827 236.6121 79.8166 224.163 C 82.3487 209.8139 76.6348 191.8494 65.1869 185.1427 Z " stroke-width="0.9599573928585418"/>
</svg>