<svg xmlns="http://www.w3.org/2000/svg" xmlns:xlink="http://www.w3.org/1999/xlink" version="1.1" width="238.8235626220703" height="304.8748779296875" viewBox="-0.7869577407836914 0.784541130065918 238.8235626220703 304.8748779296875">
  <!-- Exported by Scratch - http://scratch.mit.edu/ -->
  <path id="ID0.6647510239854455" fill="#070A07" stroke="#070A07" stroke-width="13" d="M 89 30 C 87.131 26.066 94.909 37.957 99 40 C 104 43.446 110.284 48.53 115.5 46 C 120.574 43.54 115.994 34.493 119 30 C 120.157 28.313 124.266 28.625 125 32 C 126.431 45.745 121.36 60.157 124.5 73.5 C 127.316 85.463 130.169 107.187 142 106 C 160.419 104.937 173.492 83.979 185 69 C 195.411 55.444 195.299 35.059 206 21.5 C 208.752 18.021 212.085 27.284 215.5 29.5 C 218.28 31.804 221.497 33.369 224.5 35 C 225.43 35.504 228.669 36.54 227 37 C 220.314 38.834 210.842 34.104 206 39 C 192.002 54.394 186.997 76.355 175 93 C 167.425 103.506 156.473 110.83 148 121 C 145.938 123.065 144.453 125.442 144 129 C 142.799 139.902 144.514 150.815 144 162 C 143.851 166.059 142.631 169.344 143 173 C 144.113 183.692 146.674 193.22 148 203 C 149.339 211.876 149.424 221.026 151 229 C 154.955 249.127 161.996 268.434 165 289 C 165.751 294.142 162.001 292.249 159 293 C 146.995 296 135.584 300.011 124 299 C 120.621 299.202 122.04 294.992 122 291 C 121.839 275.032 122.63 258.285 124 242 C 125.376 225.605 128.315 209.244 129 193 C 129.733 188.681 128.488 187.006 128 184 C 126.686 175.892 124.733 167.976 123 160 C 121.552 153.313 122.89 144.706 118 140 C 109.076 130.354 96.356 125.615 84.5 120 C 74.457 115.252 63.745 113.057 53 109 C 46.026 106.365 38.429 104.595 32.5 100 C 30.895 99.043 32.412 94.492 34 95 C 37.949 96.254 39.023 102.535 43 104 C 54.003 108.053 66.144 109.702 78 111.5 C 80.852 111.749 80.787 109.076 82.5 109.5 C 86.507 110.488 89.652 113.581 93.5 115 C 101.381 117.099 109.665 122.762 117.5 120 C 122.13 118.331 118.167 109.995 118 105 C 117.694 95.814 119.721 85.761 116.5 77 C 110.416 60.519 95.6 43.86 89 30 Z "/>
  <path id="ID0.1718252836726606" fill="#070707" stroke="#070A07" stroke-width="7" stroke-linecap="round" d="M 20 103.5 C 24.588 103.061 34.04 104.303 34 104.5 C 33.961 104.696 23.807 105.743 19 106.5 C 15.355 107.076 7.956 108.24 8 108 C 8.044 107.76 15.748 104.251 20 103.5 Z "/>
  <path id="ID0.1718252836726606" fill="#070707" stroke="#070A07" stroke-width="7.513706629306558" stroke-linecap="round" d="M 22.0731 79.5985 C 27.5066 83.5534 37.3266 93.3503 37.1556 93.4642 C 36.9863 93.5783 24.9129 84.8834 19.0299 80.9679 C 14.5677 78.0005 5.5134 71.9728 5.7164 71.8296 C 5.9194 71.6864 16.8172 76.1976 22.0731 79.5985 Z "/>
  <path id="ID0.1718252836726606" fill="#070A07" stroke="#070A07" stroke-width="3.9046471609772135" stroke-linecap="round" d="M 212.7259 12.7315 C 215.3652 10.9996 218.1991 9.4443 221.1853 8.4497 C 224.3548 7.394 231.2594 7.0229 231.5366 7.4716 C 231.4326 7.6751 224.6582 9.2754 221.9629 11.3791 C 217.0954 15.1642 214.0455 21.3967 208.5167 24.1409 C 206.0078 25.3796 198.9797 24.1307 199.5429 22.0242 C 201.0843 18.426 208.4202 15.5491 212.7259 12.7315 Z "/>
</svg>