<svg xmlns="http://www.w3.org/2000/svg" xmlns:xlink="http://www.w3.org/1999/xlink" version="1.1" width="82.5009994506836" height="97.04083251953125" viewBox="0.7000000476837158 1.7000000476837158 82.5009994506836 97.04083251953125">
  <!-- Exported by Scratch - http://scratch.mit.edu/ -->
  <path id="ID0.40227043256163597_34_" fill="none" stroke="#000000" stroke-width="2" stroke-linecap="round" stroke-linejoin="round" d="M 41.075 72.164 C 43.376 71.164 45.975 69.664 47.876 66.863 C 52.075 60.664 51.876 52.164 56.175 53.363 C 60.476 54.563 63.476 67.763 52.476 74.563 C 48.675 76.963 44.876 77.863 41.876 78.463 C 41.075 78.663 34.075 79.563 30.976 76.663 C 27.876 73.763 29.277 72.562 29.976 71.862 C 30.675 71.264 37.876 73.664 41.075 72.164 Z "/>
  <path id="ID0.48413723474368453_32_" fill="none" stroke="#000000" stroke-width="2" stroke-linecap="round" stroke-linejoin="round" d="M 40.701 10.9 C 42.201 10.8 45.301 10.6 47 10.7 C 51.602 10.9 55.9 12.6 55.9 12.6 L 68.5 4.4 L 66.301 22.7 C 65.701 21.9 76.5 35.1 69.701 46.1 C 62.801 57.2 48.201 62.1 30 58.5 C 11.801 54.9 7.501 44.4 8.7 38.9 C 9.901 33.4 16.801 31.3 16.801 31.3 C 16.801 31.3 16.901 27 20 21.699 C 21.9 18.5 28.102 13.899 28.102 13.899 L 30.9 2.7 L 38.101 9.7 L 40.701 10.9 Z "/>
  <path id="ID0.1790580078959465_42_" fill="#000000" stroke="#000000" stroke-width="2" stroke-linecap="round" stroke-linejoin="round" d="M 28.179 68.2 C 31.419 73.999 32.822 79.53 31.26 80.208 C 29.777 80.866 24.888 82.417 21.96 70.848 "/>
  <path id="ID0.914295740891248_34_" fill="#101010" d="M 55.976 53.264 C 58.076 53.464 60.376 57.964 60.277 61.664 C 60.076 65.363 58.675 67.964 57.777 69.563 C 56.476 70.963 57.777 66.463 55.277 65.164 C 52.777 63.863 48.877 65.464 48.877 65.464 C 48.877 65.464 50.977 60.464 52.076 57.664 C 52.976 55.063 53.776 53.264 55.976 53.264 Z " stroke-width="1"/>
  <path id="ID0.007584026083350182_36_" fill="#000000" stroke="#000000" stroke-width="2" stroke-linecap="round" stroke-linejoin="round" d="M 29.663 74.7 C 29.663 74.7 31.364 80.2 30.563 89.001 C 30.264 92.801 23.163 88.501 23.663 95.9 C 23.864 98.001 33.063 97.8 35.163 97.001 C 37.063 96.301 37.563 95.601 37.265 93.601 C 36.163 86.301 39.865 77.901 39.865 77.901 "/>
  <path id="ID0.31672530295327306_36_" fill="#FAA51F" stroke="#000000" stroke-width="2" stroke-linecap="round" stroke-linejoin="round" d="M 28.563 90.801 C 28.563 90.801 29.864 90.601 31.364 90.901 "/>
  <path id="ID0.46792364912107587_34_" fill="#000000" stroke="#000000" stroke-width="2" stroke-linecap="round" stroke-linejoin="round" d="M 28.864 63.801 C 28.864 70.501 27.163 80.301 39.063 80.301 C 50.963 80.301 49.864 71.301 49.864 64.601 C 49.864 57.901 45.764 56.101 39.063 56.101 C 32.364 56.101 28.864 57.101 28.864 63.801 Z "/>
  <path id="ID0.38032895559445024_34_" fill="#101010" d="M 32.464 66.7 C 32.464 70.9 31.564 77.2 37.964 77.2 C 44.364 77.2 43.864 71.501 43.864 67.301 C 43.864 63.101 41.663 61.901 37.964 61.901 C 34.265 61.901 32.464 62.501 32.464 66.7 Z " stroke-width="1"/>
  <path id="ID0.527006761636585_35_" fill="#000000" stroke="#000000" stroke-width="2" stroke-linecap="round" stroke-linejoin="round" d="M 49.063 74.7 C 49.063 74.7 46.463 80.2 47.764 88.9 C 48.364 92.7 53.963 88.001 53.563 95.6 C 53.463 98.1 45.864 97.9 43.663 97.5 C 41.563 97.1 40.765 96 40.964 93.899 C 41.265 89.699 39.765 80.599 39.765 80.599 "/>
  <path id="ID0.8937406223267317_46_" fill="#FAA51F" stroke="#000000" stroke-width="2" stroke-linecap="round" stroke-linejoin="round" d="M 50.163 90.7 C 50.163 90.7 48.563 90.501 47.163 90.9 "/>
  <path id="ID0.30105241015553474_32_" fill="#000000" stroke="#000000" stroke-width="2" stroke-linecap="round" stroke-linejoin="round" d="M 24.391 77.2 C 22.811 75.004 21.956 71.515 21.807 69.55 C 21.494 65.415 24.569 60.357 27.948 57.995 L 32.205 58.137 "/>
  <path id="ID0.7841392233967781_31_" fill="#FAA51F" stroke="#000000" stroke-width="2" stroke-linecap="round" stroke-linejoin="round" d="M 28.096 67.87 L 29.568 64.136 "/>
  <path id="ID0.15909873321652412_32_" fill="#000000" stroke="#000000" stroke-width="2" stroke-linecap="round" stroke-linejoin="round" d="M 48.876 72.025 C 49.042 71.932 56.488 73.664 56.629 73.544 C 58.716 70.198 55.882 60.64 49.357 55.458 L 41.459 56.858 "/>
  <path id="ID0.8143284288235009_32_" fill="#FAA51F" stroke="#000000" stroke-width="2" stroke-linecap="round" stroke-linejoin="round" d="M 46.958 63.258 C 48.122 66.393 50.04 70.193 50.04 70.193 "/>
  <path id="ID0.1790580078959465_41_" fill="#000000" stroke="#000000" stroke-width="2" stroke-linecap="round" stroke-linejoin="round" d="M 50.04 70.192 C 45.892 74.7 45.48 79.455 46.958 80.3 C 50.416 82.321 54.179 80.18 57.235 72.025 "/>
  <path id="ID0.2591130444779992_32_" fill="#000000" d="M 40.701 10.9 C 42.201 10.8 45.301 10.6 47 10.7 C 51.602 10.9 55.9 12.6 55.9 12.6 L 68.5 4.4 L 66.301 22.7 C 65.701 21.9 76.5 35.1 69.701 46.1 C 62.801 57.2 48.201 62.1 30 58.5 C 11.801 54.9 7.501 44.4 8.7 38.9 C 9.901 33.4 16.801 31.3 16.801 31.3 C 16.801 31.3 16.901 27 20 21.699 C 21.9 18.5 28.102 13.899 28.102 13.899 L 30.9 2.7 L 38.101 9.7 L 40.701 10.9 Z " stroke-width="1"/>
  <path id="ID0.3588979784399271_32_" fill="#101010" d="M 17.701 31.2 L 20.101 29.2 L 28.9 31.801 C 28.9 31.801 28.9 35.101 33.101 36.001 C 37.3 36.9 44.4 35.301 44.4 35.301 L 51.5 37.101 C 51.5 37.101 59.602 36.601 60 43.001 C 60.701 54.101 51.4 59.4 42.9 59.301 C 37.4 59.301 33.9 58.601 30 57.901 C 12.801 54.801 7.901 44.401 9.401 38.901 C 10.6 33.401 17.201 31.801 17.201 31.801 L 17.701 31.2 Z " stroke-width="1"/>
  <path id="ID0.2727069961838424_32_" fill="none" stroke="#000000" stroke-width="2" stroke-linecap="round" stroke-linejoin="round" d="M 12.701 36.601 C 12.701 36.601 8.302 35.901 6.1 35.101 C 3.5 34.201 1.7 32.601 1.7 32.601 "/>
  <path id="ID0.5861211125738919_32_" fill="none" stroke="#000000" stroke-width="2" stroke-linecap="round" stroke-linejoin="round" d="M 12.201 42.4 C 12.201 42.4 9.6 43.501 6.802 43.7 C 4.101 44.001 2.302 43.801 2.302 43.801 "/>
  <path id="ID0.4793355236761272_32_" fill="none" stroke="#000000" stroke-width="2" stroke-linecap="round" stroke-linejoin="round" d="M 58.201 11.101 L 53 14.7 "/>
  <path id="ID0.9024141579866409_32_" fill="none" stroke="#000000" stroke-width="2" stroke-linecap="round" stroke-linejoin="round" d="M 81.4 41.9 C 81.4 41.9 77.4 42.3 75.601 42.2 C 73.8 42.1 70.3 41.6 70.3 41.6 "/>
  <path id="ID0.16030752705410123_32_" fill="none" stroke="#000000" stroke-width="2" stroke-linecap="round" stroke-linejoin="round" d="M 70.102 37.801 C 70.102 37.801 72.401 36.101 76 34.501 C 80 32.7 82.201 32.301 82.201 32.301 "/>
  <path id="ID0.40023312577977777_32_" fill="#FFFFFF" stroke="black" stroke-width="2" stroke-linecap="round" stroke-linejoin="round" d="M 22.201 21.801 C 19.4 26.101 19.301 31.101 22 32.801 C 24.701 34.601 29.201 32.501 32 28.101 C 34.801 23.801 34.9 18.801 32.201 17.101 C 29.5 15.4 25 17.501 22.201 21.801 Z "/>
  <path id="ID0.43813491938635707_32_" fill="#414142" d="M 22.301 25.4 C 22 26.4 22.5 27.4 23.5 27.7 C 24.4 28.001 25.4 27.4 25.701 26.301 C 26 25.301 25.5 24.301 24.5 24.001 C 23.5 23.801 22.602 24.4 22.301 25.4 " stroke-width="1"/>
  <path id="ID0.4253597157076001_32_" fill="#FFFFFF" stroke="black" stroke-width="2" stroke-linecap="round" stroke-linejoin="round" d="M 45.4 24.9 C 42.601 29.2 42.9 34.4 46.101 36.501 C 49.3 38.601 54.201 36.801 56.999 32.4 C 59.8 28.1 59.499 22.9 56.3 20.8 C 53.102 18.801 48.201 20.601 45.4 24.9 Z "/>
  <path id="ID0.814307457767427_32_" fill="#414142" d="M 45.701 28.801 C 45.701 29.801 46.5 30.7 47.4 30.7 C 48.4 30.7 49.101 29.9 49.101 28.801 C 49.101 27.801 48.3 26.901 47.4 26.901 C 46.5 26.901 45.701 27.7 45.701 28.801 " stroke-width="1"/>
  <path id="ID0.5240494590252638_32_" fill="#000000" stroke="#000000" stroke-width="2" stroke-linecap="round" stroke-linejoin="round" d="M 34.4 34.801 C 32.701 34.601 30.4 33.301 30.101 35.2 C 30.101 36.001 31.701 39.301 33.499 39.4 C 35.499 39.501 38.999 37.001 38.899 35.501 C 38.799 34.001 35.9 35.001 34.4 34.801 Z "/>
  <path id="ID0.046259244438260794_32_" fill="#FFFFFF" stroke="#000000" stroke-width="2" stroke-linecap="round" stroke-linejoin="round" d="M 43.5 50.2 C 43.5 50.2 41 52.501 35.602 51.4 "/>
  <path id="ID0.042709666304290295" fill="#101010" stroke="none" d="M 24.4058 23.45 C 25.0607 23.45 25.6545 23.741 26.0847 24.212 C 26.515 24.683 26.7808 25.333 26.7808 26.05 C 26.7808 26.767 26.515 27.417 26.0847 27.888 C 25.6545 28.359 25.0607 28.65 24.4058 28.65 C 23.7508 28.65 23.1571 28.359 22.7268 27.888 C 22.2966 27.417 22.0308 26.767 22.0308 26.05 C 22.0308 25.333 22.2966 24.683 22.7268 24.212 C 23.1571 23.741 23.7508 23.45 24.4058 23.45 Z " stroke-width="0.9577087324721634"/>
  <path id="ID0.042709666304290295" fill="#101010" stroke="none" d="M 47.5558 26.3 C 48.2107 26.3 48.8045 26.591 49.2347 27.062 C 49.665 27.533 49.9308 28.183 49.9308 28.9 C 49.9308 29.617 49.665 30.267 49.2347 30.738 C 48.8045 31.209 48.2107 31.5 47.5558 31.5 C 46.9008 31.5 46.3071 31.209 45.8768 30.738 C 45.4466 30.267 45.1808 29.617 45.1808 28.9 C 45.1808 28.183 45.4466 27.533 45.8768 27.062 C 46.3071 26.591 46.9008 26.3 47.5558 26.3 Z " stroke-width="0.9577087324721634"/>
</svg>