<svg xmlns="http://www.w3.org/2000/svg" xmlns:xlink="http://www.w3.org/1999/xlink" version="1.1" width="22.399999618530273" height="22.400001525878906" viewBox="-0.4479999952018261 0.0858999490737915 22.399999618530273 22.400001525878906">
  <defs>
    <radialGradient id="grad_1" cx="0.4936" cy="0.4962" r="0.6583199999999999">
      <stop offset="0" stop-color="#FFFFFF" stop-opacity="1"/>
      <stop offset="1" stop-color="#FFFFFF" stop-opacity="0"/>
    </radialGradient>
  <radialGradient id="grad_1-.5404040813446045,0,0,0.5404040813446045,-120.35,-76.8" cx="10.6151" cy="11.2045" r="14.088" gradientUnits="userSpaceOnUse">
      <stop offset="0" stop-color="#FFFFFF" stop-opacity="1"/>
      <stop offset="1" stop-color="#FFFFFF" stop-opacity="0"/>
    </radialGradient></defs>
  <!-- Exported by Scratch - http://scratch.mit.edu/ -->
  <path id="ID0.7450102074071765" fill="url(#grad_1-.5404040813446045,0,0,0.5404040813446045,-120.35,-76.8)" stroke="none" d="M 10.752 0.5859 C 13.7043 0.5859 16.3793 1.785 18.3161 3.7218 C 20.2529 5.6586 21.452 8.3336 21.452 11.2859 C 21.452 14.2381 20.2529 16.9131 18.3161 18.8499 C 16.3793 20.7867 13.7043 21.9859 10.752 21.9859 C 7.7998 21.9859 5.1248 20.7867 3.188 18.8499 C 1.2512 16.9131 0.052 14.2381 0.052 11.2859 C 0.052 8.3336 1.2512 5.6586 3.188 3.7218 C 5.1248 1.785 7.7998 0.5859 10.752 0.5859 Z " stroke-width="0.5404040813446045"/>
  <path id="ID0.8790538497269154" fill="#FFFFFF" stroke="#FFFFFF" stroke-width="0.6285714507102966" d="M 10.5871 5.9629 C 12.0178 5.9629 13.3142 6.544 14.253 7.4827 C 15.1917 8.4215 15.7729 9.7179 15.7729 11.1486 C 15.7729 12.5792 15.1917 13.8756 14.253 14.8144 C 13.3142 15.7532 12.0178 16.3343 10.5871 16.3343 C 9.1565 16.3343 7.8601 15.7532 6.9213 14.8144 C 5.9825 13.8756 5.4014 12.5792 5.4014 11.1486 C 5.4014 9.7179 5.9825 8.4215 6.9213 7.4827 C 7.8601 6.544 9.1565 5.9629 10.5871 5.9629 Z "/>
</svg>