<svg xmlns="http://www.w3.org/2000/svg" xmlns:xlink="http://www.w3.org/1999/xlink" version="1.1" width="482.57867431640625" height="362.5679931640625" viewBox="0.6862221956253052 0.7457777261734009 482.57867431640625 362.5679931640625">
  <!-- Exported by Scratch - http://scratch.mit.edu/ -->
  <path id="ID0.7033852632157505" fill="#000000" stroke="#000000" stroke-width="2" stroke-linecap="round" d="M 83 2 C 82.141 4.289 82.302 7.352 82 10 C 81.916 10.739 81.181 11.278 81 12 C 80.838 12.646 81.162 13.354 81 14 C 80.819 14.722 80.333 15.334 80 16 C 79.667 16.666 79.333 17.334 79 18 C 78.667 18.666 78.333 19.334 78 20 C 77.667 20.666 77.333 21.334 77 22 C 76.667 22.666 76.447 23.404 76 24 C 75.435 24.753 74.575 25.254 74 26 C 72.56 28.385 71.846 29.01 71 30 C 69.892 31.466 68.701 32.075 68 33 C 67.025 34.511 66.779 36.076 66 37 C 65.512 37.561 64.477 37.433 64 38 C 61.959 41.72 61.08 43.841 60 46 C 59.667 46.666 59.218 47.289 59 48 C 58.646 49.752 58.203 50.962 58 52 C 57.864 52.651 58.015 53.911 58 54 C 57.99 54.044 58.084 51.224 58 51.75 C 57.14 57.595 57.289 58.037 57.25 59.5 C 57.289 60.541 57.367 61.61 57.5 62.5 C 57.545 62.779 57.765 62.929 57.75 63.25 C 57.832 67.948 57.478 68.587 57 70 C 56.619 70.937 55.795 71.768 55.25 72.75 C 55.059 73.051 54.978 73.47 54.75 73.75 C 54.23 74.488 53.396 75.002 53 75.75 C 52.591 76.694 52.828 77.887 52.5 78.75 C 51.678 80.588 50.862 82.167 50 84 C 49.476 85.065 49.567 86.744 49 88 C 48.853 88.322 48.961 86.623 48.75 87.25 C 47.475 91.667 47.455 92.227 46.75 94.5 C 46.638 94.411 47.469 92.011 47.25 92.5 C 46.611 93.843 45.417 96.641 44.75 98.5 C 44.215 100.021 43.562 101.45 43.25 103 C 43.184 107.96 42.409 108.563 42.25 111 C 42.34 114.926 42.616 115.776 43 118 C 43.097 118.558 43.275 116.435 43.25 116.75 C 43.149 118.58 42.8 120.536 42.75 122.25 C 42.715 123.507 43.122 124.88 43 126 C 42.898 126.89 42.584 127.93 42.25 129 C 41.911 129.612 41.399 130.247 41 131 C 40.706 131.557 40.64 131.642 40.25 132.25 C 37.18 137.019 35.943 137.792 34.25 140.75 C 33.032 143.968 32.545 145.097 31.75 147.25 C 31.025 149.441 32.131 149.993 32 151 C 31.266 153.489 30.725 153.354 30.5 154.5 C 30.143 157.858 30.084 159.368 30 161 C 29.953 161.993 30.002 163.7 30 164 C 29.998 164.588 30.018 166.429 30 168 C 29.928 169.437 29.983 170.757 30 172 C 30.007 173.488 30 174.67 30 175.6 C 30 176.418 29.866 177.27 30 178 C 30.514 179.764 30.702 181.026 31 182 C 31.208 182.714 31.819 183.278 32 184 C 32.162 184.646 31.838 185.354 32 186 C 32.181 186.722 32.723 187.309 33 188 C 33.391 188.978 33.793 189.967 34 191 C 34.131 191.653 34 192.334 34 193 C 34 193.666 33.838 194.354 34 195 C 34.181 195.722 34.775 196.291 35 197 C 35.37 198.152 35.396 199.265 35.5 200.4 C 35.729 201.598 35.732 202.832 36 204 C 36.938 206.321 36.686 206.701 37 208 C 37.944 212.922 37.699 214.104 38 216 C 38.305 217.493 38.642 218.882 39 220 C 39.22 220.711 39.667 221.334 40 222 C 41.166 224.332 41.387 224.877 42 226 C 42.911 227.298 42.676 227.382 43 228 C 44.79 231.362 45.083 232.556 46 234 C 46.512 234.79 47.435 235.247 48 236 C 48.447 236.596 48.553 237.404 49 238 C 49.565 238.753 50.435 239.247 51 240 C 51.447 240.596 51.553 241.404 52 242 C 52.565 242.753 53.435 243.247 54 244 C 54.447 244.596 54.473 245.473 55 246 C 55.527 246.527 56.473 246.473 57 247 C 57.527 247.527 57.553 248.404 58 249 C 58.565 249.753 59.334 250.334 60 251 C 60.666 251.666 61.334 252.334 62 253 C 62.666 253.666 63.192 254.515 64 255 C 64.903 255.542 66.022 255.609 67 256 C 67.691 256.277 68.334 256.667 69 257 C 69.666 257.333 70.309 257.723 71 258 C 71.978 258.391 73.022 258.609 74 259 C 74.691 259.277 75.334 259.667 76 260 C 76.666 260.333 77.334 260.667 78 261 C 78.666 261.333 79.27 261.854 80 262 C 80.98 262.196 82.001 262 83 262 C 83.999 262 85.001 262 86 262 C 86.666 262 87.354 261.838 88 262 C 88.722 262.181 89.278 262.819 90 263 C 90.646 263.162 91.334 263 92 263 C 92.666 263 93.334 263 94 263 C 94.999 263 96.001 263 97 263 C 97.999 263 99.001 263 100 263 C 100.666 263 101.334 263 102 263 C 102.666 263 103.334 263 104 263 C 104.999 263 106.02 262.804 107 263 C 107.73 263.146 108.278 263.819 109 264 C 109.646 264.162 110.334 264 111 264 C 111.666 264 112.354 263.838 113 264 C 113.722 264.181 114.334 264.667 115 265 C 115.666 265.333 116.334 265.667 117 266 C 117.666 266.333 118.334 266.667 119 267 C 119.666 267.333 120.334 267.667 121 268 C 121.666 268.333 122.404 268.553 123 269 C 123.753 269.565 124.247 270.435 125 271 C 125.596 271.447 126.334 271.667 127 272 C 127.666 272.333 128.334 272.667 129 273 C 129.666 273.333 130.334 273.667 131 274 C 131.666 274.333 132.404 274.553 133 275 C 133.753 275.565 134.247 276.435 135 277 C 135.596 277.447 136.334 277.667 137 278 C 137.666 278.333 138.334 278.667 139 279 C 139.666 279.333 140.362 279.617 141 280 C 142.03 280.618 143.001 281.334 144 282 C 144.999 282.666 145.885 283.554 147 284 C 147.618 284.247 148.404 283.702 149 284 C 149.842 284.421 150.247 285.435 151 286 C 151.596 286.447 152.334 286.667 153 287 C 153.666 287.333 154.334 287.667 155 288 C 155.666 288.333 156.282 288.806 157 289 C 159.367 289.244 159.976 289.731 161 290 C 162.717 290.312 163.899 290.715 165 291 C 166.62 291.317 167.883 291.791 169 292 C 169.653 292.129 170.334 292 171 292 C 171.666 292 172.334 292 173 292 C 173.666 292 174.334 292 175 292 C 175.999 292 177.001 292 178 292 C 178.666 292 179.334 292 180 292 C 180.999 292 182.001 292 183 292 C 183.666 292 184.334 292 185 292 C 185.666 292 186.334 291.997 187 292 C 189.616 292.011 189.02 292.086 189.9 292.1 C 195.196 292.077 196.125 292.796 198 293 C 198.989 293.129 200.001 293 201 293 C 201.999 293 203.001 293 204 293 C 204.666 293 205.337 292.947 206 293 C 206.827 293.069 207.738 293.296 208.65 293.5 C 209.687 293.702 210.72 294.139 211.8 294.2 C 212.55 294.239 213.269 293.782 214 293.7 C 214.596 293.633 215.215 293.669 215.8 293.6 C 216.554 293.497 217.284 293.064 218 293 C 218.994 292.914 220.02 293.196 221 293 C 221.73 292.854 222.278 292.181 223 292 C 223.646 291.838 224.35 292.101 225 292 C 228.49 291.546 229.46 292.44 231 293 C 231.681 293.278 232.334 293.667 233 294 C 233.666 294.333 234.334 294.667 235 295 C 235.666 295.333 236.334 295.667 237 296 C 237.666 296.333 238.334 296.667 239 297 C 239.666 297.333 240.278 297.819 241 298 C 241.646 298.162 242.354 297.838 243 298 C 243.722 298.181 244.334 298.667 245 299 C 245.666 299.333 246.278 299.819 247 300 C 247.646 300.162 248.354 299.838 249 300 C 249.722 300.181 250.278 300.819 251 301 C 251.646 301.162 252.354 300.838 253 301 C 253.722 301.181 254.278 301.819 255 302 C 255.646 302.162 256.334 302 257 302 C 257.666 302 258.354 301.838 259 302 C 259.722 302.181 260.278 302.819 261 303 C 261.646 303.162 262.334 303 263 303 C 263.666 303 264.334 303 265 303 C 265.666 303 266.334 303 267 303 C 267.666 303 268.334 303 269 303 C 269.666 303 270.334 303 271 303 C 271.666 303 272.334 303 273 303 C 273.999 303 275.001 303 276 303 C 276.666 303 277.334 303 278 303 C 278.666 303 279.334 303 280 303 C 280.666 303 281.334 303 282 303 C 282.666 303 283.334 303 284 303 C 284.666 303 285.334 303 286 303 C 286.666 303 287.334 303 288 303 C 288.666 303 289.334 303 290 303 C 290.666 303 291.334 303 292 303 C 292.666 303 293.334 303 294 303 C 294.666 303 295.334 303 296 303 C 296.666 303 297.334 303 298 303 C 298.666 303 299.334 303 300 303 C 300.666 303 301.334 303 302 303 C 302.666 303 303.347 302.869 304 303 C 305.033 303.207 305.961 303.827 307 304 C 307.985 304.164 309.001 304 310 304 C 310.666 304 311.334 304 312 304 C 312.666 304 313.334 304 314 304 C 314.666 304 315.354 303.838 316 304 C 316.722 304.181 317.278 304.819 318 305 C 318.646 305.162 319.334 305 320 305 C 320.666 305 321.334 305 322 305 C 322.666 305 323.354 304.838 324 305 C 324.722 305.181 325.278 305.819 326 306 C 326.646 306.162 327.334 306 328 306 C 328.666 306 329.334 306 330 306 C 330.666 306 331.354 305.838 332 306 C 332.722 306.181 333.278 306.819 334 307 C 334.646 307.162 335.334 307 336 307 C 336.666 307 337.334 307 338 307 C 338.666 307 339.334 307 340 307 C 340.666 307 341.334 307 342 307 C 342.666 307 343.354 307.162 344 307 C 344.722 306.819 345.334 306.333 346 306 C 346.666 305.667 347.404 305.447 348 305 C 348.753 304.435 349.158 303.421 350 303 C 350.596 302.702 351.354 303.162 352 303 C 352.722 302.819 353.334 302.333 354 302 C 354.666 301.667 355.473 301.527 356 301 C 356.527 300.473 356.553 299.596 357 299 C 357.565 298.247 358.334 297.666 359 297 C 359.666 296.334 360.435 295.753 361 295 C 361.447 294.404 361.667 293.666 362 293 C 362.333 292.334 362.553 291.596 363 291 C 363.565 290.247 364.435 289.753 365 289 C 365.447 288.404 365.553 287.596 366 287 C 366.565 286.247 367.435 285.753 368 285 C 368.447 284.404 368.723 283.691 369 283 C 369.391 282.022 369.334 280.813 370 280 C 370.712 279.136 372.459 279.338 373.1 278.35 C 374.166 276.463 374.098 274.083 374.75 272 C 374.972 271.292 375.456 270.609 375.5 269.9 C 375.566 268.923 375.13 267.953 375 267 C 374.91 266.341 375 265.666 375 265 C 375 264.334 374.851 263.649 375 263 C 375.928 260.677 375.729 259.983 376 259 C 376.899 255.749 378.248 253.464 379.1 251.15 C 379.54 249.99 379.712 248.74 379.9 247.5 C 380.051 246.513 380.384 245.389 380 244.5 C 379.394 243.088 378.235 241.803 377 241 C 376.441 240.641 375.666 241 375 241 C 374.334 241 373.554 241.369 373 241 C 372.38 240.587 372.181 239.722 372 239 C 371.838 238.354 372 237.666 372 237 C 372 236.334 372 235.666 372 235 C 372 234.334 371.838 233.646 372 233 C 372.181 232.278 372.667 231.666 373 231 C 373.333 230.334 373.667 229.666 374 229 C 374.333 228.334 374.667 227.666 375 227 C 375.333 226.334 375.667 225.666 376 225 C 376.333 224.334 376.667 223.666 377 223 C 377.333 222.334 377.473 221.527 378 221 C 378.527 220.473 379.473 220.527 380 220 C 380.849 219.151 381.151 217.849 382 217 C 382.527 216.473 383.473 216.527 384 216 C 384.527 215.473 384.38 214.413 385 214 C 385.554 213.631 386.382 214.247 387 214 C 388.115 213.554 388.97 212.618 390 212 C 390.638 211.617 391.334 211.333 392 211 C 392.666 210.667 393.334 210.333 394 210 C 394.666 209.667 395.27 209.146 396 209 C 396.98 208.804 398.015 209.164 399 209 C 400.039 208.827 401.022 208.391 402 208 C 402.691 207.723 403.278 207.181 404 207 C 404.646 206.838 405.354 207.162 406 207 C 406.722 206.819 407.27 206.146 408 206 C 408.98 205.804 410.02 206.196 411 206 C 411.73 205.854 412.278 205.181 413 205 C 413.646 204.838 414.334 205 415 205 C 415.666 205 416.334 205 417 205 C 417.666 205 418.334 205 419 205 C 419.666 205 420.347 204.869 421 205 C 422.033 205.207 423.022 205.609 424 206 C 424.691 206.277 425.334 206.667 426 207 C 426.666 207.333 427.334 207.667 428 208 C 428.666 208.333 429.334 208.667 430 209 C 430.666 209.333 431.473 209.473 432 210 C 432.527 210.527 432.38 211.587 433 212 C 433.554 212.369 434.446 211.631 435 212 C 435.62 212.413 435.38 213.587 436 214 C 436.554 214.369 437.354 213.838 438 214 C 438.722 214.181 439.334 214.667 440 215 C 440.666 215.333 441.278 215.819 442 216 C 442.646 216.162 443.347 215.869 444 216 C 445.033 216.207 446.022 216.609 447 217 C 447.691 217.277 448.334 217.667 449 218 C 449.666 218.333 450.278 218.819 451 219 C 451.646 219.162 452.334 219 453 219 C 453.666 219 454.334 219 455 219 C 455.666 219 456.334 219 457 219 C 457.666 219 458.334 219 459 219 C 459.666 219 460.334 219 461 219 C 461.666 219 462.334 219 463 219 C 463.999 219 465.001 219 466 219 C 466.666 219 467.334 219 468 219 C 468.666 219 469.334 219 470 219 C 470.999 219 472.001 219 473 219 C 473.666 219 474.334 219 475 219 C 475.666 219 476.334 219 477 219 C 477.666 219 478.334 219 479 219 C 479.666 219 480.529 218.529 481 219 C 481.745 219.745 481.827 220.961 482 222 C 482.164 222.985 482 224.001 482 225 C 482 225.666 482 226.334 482 227 C 482 228.332 482 229.668 482 231 C 482 231.999 482 233.001 482 234 C 482 235.665 482 237.335 482 239 C 482 240.332 482 241.668 482 243 C 482 244.332 482 245.668 482 247 C 482 248.665 482 250.335 482 252 C 482 252.999 482 254.001 482 255 C 482 256.665 482 258.335 482 260 C 482 260.666 482 261.334 482 262 C 482 263.665 482 265.335 482 267 C 482 268.665 482 270.335 482 272 C 482 273.665 482 275.335 482 277 C 482 277.999 482 279.001 482 280 C 482 281.332 482 282.668 482 284 C 482 284.999 482 286.001 482 287 C 482 287.666 482 288.334 482 289 C 482 290.332 482 291.668 482 293 C 482 293.999 482 295.001 482 296 C 482 296.666 482 297.334 482 298 C 482 298.666 482 299.334 482 300 C 482 301.332 482 302.668 482 304 C 482 304.666 482 305.334 482 306 C 482 306.999 482 308.001 482 309 C 482 310.332 482 311.668 482 313 C 482 314.332 482 315.668 482 317 C 482 317.999 482 319.001 482 320 C 482 320.999 482 322.001 482 323 C 482 323.666 482 324.334 482 325 C 482 325.999 482 327.001 482 328 C 482 328.666 482 329.334 482 330 C 482 330.666 482 331.334 482 332 C 482 332.666 482 333.334 482 334 C 482 334.999 482 336.001 482 337 C 482 337.666 482 338.334 482 339 C 482 339.666 482 340.334 482 341 C 482 341.666 482 342.334 482 343 C 482 343.666 482 344.334 482 345 C 482 345.999 482 347.001 482 348 C 482 348.666 482 349.334 482 350 C 482 350.666 482 351.334 482 352 C 482 352.666 482 353.334 482 354 C 482 354.666 482 355.334 482 356 C 482 356.666 482 357.334 482 358 C 482 358.666 482 359.334 482 360 C 482 360.666 482.596 361.702 482 362 C 480.809 362.596 479.332 362 478 362 C 476.335 362 474.665 362 473 362 C 471.002 362 468.998 362 467 362 C 465.002 362 462.998 362 461 362 C 459.002 362 456.998 362 455 362 C 453.002 362 450.998 362 449 362 C 447.002 362 444.998 362 443 362 C 441.002 362 438.998 362 437 362 C 435.002 362 432.998 362 431 362 C 429.335 362 427.665 362 426 362 C 424.002 362 421.998 362 420 362 C 418.002 362 415.998 362 414 362 C 411.669 362 409.331 362 407 362 C 405.002 362 402.998 362 401 362 C 399.002 362 396.998 362 395 362 C 393.002 362 390.998 362 389 362 C 387.002 362 384.998 362 383 362 C 380.336 362 377.664 362 375 362 C 373.002 362 370.998 362 369 362 C 367.002 362 364.998 362 363 362 C 361.335 362 359.665 362 358 362 C 356.002 362 353.998 362 352 362 C 350.335 362 348.665 362 347 362 C 345.335 362 343.665 362 342 362 C 341.001 362 339.999 362 339 362 C 337.335 362 335.665 362 334 362 C 332.668 362 331.332 362 330 362 C 328.335 362 326.665 362 325 362 C 323.335 362 321.665 362 320 362 C 318.002 362 315.998 362 314 362 C 311.669 362 309.331 362 307 362 C 304.669 362 302.331 362 300 362 C 298.002 362 295.998 362 294 362 C 291.336 362 288.664 362 286 362 C 284.002 362 281.998 362 280 362 C 278.002 362 275.998 362 274 362 C 271.336 362 268.664 362 266 362 C 264.002 362 261.998 362 260 362 C 257.669 362 255.331 362 253 362 C 251.668 362 250.332 362 249 362 C 246.669 362 244.331 362 242 362 C 240.335 362 238.665 362 237 362 C 235.335 362 233.665 362 232 362 C 230.335 362 228.665 362 227 362 C 225.002 362 222.998 362 221 362 C 218.669 362 216.331 362 214 362 C 212.002 362 209.998 362 208 362 C 206.002 362 203.998 362 202 362 C 200.002 362 197.998 362 196 362 C 194.002 362 191.998 362 190 362 C 188.335 362 186.665 362 185 362 C 182.669 362 180.331 362 178 362 C 175.669 362 173.331 362 171 362 C 167.67 362 164.33 362 161 362 C 158.336 362 155.664 362 153 362 C 149.67 362 146.33 362 143 362 C 139.67 362 136.33 362 133 362 C 130.669 362 128.331 362 126 362 C 124.002 362 121.998 362 120 362 C 118.002 362 115.998 362 114 362 C 112.668 362 111.332 362 110 362 C 108.335 362 106.665 362 105 362 C 103.335 362 101.665 362 100 362 C 98.002 362 95.998 362 94 362 C 92.002 362 89.998 362 88 362 C 86.668 362 85.332 362 84 362 C 82.668 362 81.332 362 80 362 C 78.002 362 75.998 362 74 362 C 72.335 362 70.665 362 69 362 C 67.335 362 65.665 362 64 362 C 62.002 362 59.998 362 58 362 C 56.668 362 55.332 362 54 362 C 52.668 362 51.332 362 50 362 C 48.668 362 47.332 362 46 362 C 44.335 362 42.665 362 41 362 C 39.668 362 38.332 362 37 362 C 35.335 362 33.665 362 32 362 C 30.668 362 29.332 362 28 362 C 27.001 362 25.999 362 25 362 C 23.668 362 22.332 362 21 362 C 19.668 362 18.332 362 17 362 C 16.334 362 15.666 362 15 362 C 13.668 362 12.332 362 11 362 C 10.001 362 8.999 362 8 362 C 7.001 362 5.999 362 5 362 C 4.001 362 2.706 362.706 2 362 C 1.294 361.294 2 359.999 2 359 C 2 357.002 2 354.998 2 353 C 2 351.002 2 348.998 2 347 C 2 344.669 2 342.331 2 340 C 2 338.002 2 335.998 2 334 C 2 331.336 2 328.664 2 326 C 2 323.669 2 321.331 2 319 C 2 317.002 2 314.998 2 313 C 2 310.669 2 308.331 2 306 C 2 304.002 2 301.998 2 300 C 2 298.002 2 295.998 2 294 C 2 291.669 2 289.331 2 287 C 2 285.002 2 282.998 2 281 C 2 279.002 2 276.998 2 275 C 2 273.002 2 270.998 2 269 C 2 267.335 2 265.665 2 264 C 2 262.002 2 259.998 2 258 C 2 256.335 2 254.665 2 253 C 2 251.335 2 249.665 2 248 C 2 246.335 2 244.665 2 243 C 2 241.668 2 240.332 2 239 C 2 237.668 2 236.332 2 235 C 2 234.001 2 232.999 2 232 C 2 230.335 2 228.665 2 227 C 2 225.335 2 223.665 2 222 C 2 220.335 2 218.665 2 217 C 2 215.002 2 212.998 2 211 C 2 209.002 2 206.998 2 205 C 2 203.002 2 200.998 2 199 C 2 197.335 2 195.665 2 194 C 2 192.002 2 189.998 2 188 C 2 186.335 2 184.665 2 183 C 2 181.002 2 178.998 2 177 C 2 175.335 2 173.665 2 172 C 2 169.669 2 167.331 2 165 C 2 163.335 2 161.665 2 160 C 2 157.669 2 155.331 2 153 C 2 151.335 2 149.665 2 148 C 2 146.002 2 143.998 2 142 C 2 140.002 2 137.998 2 136 C 2 134.335 2 132.665 2 131 C 2 129.002 2 126.998 2 125 C 2 123.335 2 121.665 2 120 C 2 118.335 2 116.665 2 115 C 2 113.335 2 111.665 2 110 C 2 109.001 2 107.999 2 107 C 2 105.335 2 103.665 2 102 C 2 100.668 2 99.332 2 98 C 2 96.335 2 94.665 2 93 C 2 91.668 2 90.332 2 89 C 2 87.668 2 86.332 2 85 C 2 83.668 2 82.332 2 81 C 2 79.668 2 78.332 2 77 C 2 76.001 2 74.999 2 74 C 2 72.668 2 71.332 2 70 C 2 68.668 2 67.332 2 66 C 2 65.001 2 63.999 2 63 C 2 62.334 2 61.666 2 61 C 2 60.001 2 58.999 2 58 C 2 57.001 2 55.999 2 55 C 2 54.001 2 52.999 2 52 C 2 50.668 2 49.332 2 48 C 2 46.668 2 45.332 2 44 C 2 42.668 2 41.332 2 40 C 2 38.668 2 37.332 2 36 C 2 34.668 2 33.332 2 32 C 2 30.668 2 29.332 2 28 C 2 26.668 2 25.332 2 24 C 2 22.335 2 20.665 2 19 C 2 18.334 2 17.666 2 17 C 2 15.668 2 14.332 2 13 C 2 11.668 2 10.332 2 9 C 2 8.001 2 6.999 2 6 C 2 5.001 1.401 3.799 2 3 C 2.632 2.158 3.967 2.207 5 2 C 5.653 1.869 6.334 2 7 2 C 7.666 2 8.334 2 9 2 C 9.999 2 11.001 2 12 2 C 12.999 2 14.001 2 15 2 C 15.666 2 16.334 2 17 2 C 17.666 2 18.334 2 19 2 C 19.999 2 21.001 2 22 2 C 22.666 2 23.334 2 24 2 C 24.666 2 25.334 2 26 2 C 26.666 2 27.334 2 28 2 C 28.666 2 29.334 2 30 2 C 30.666 2 31.334 2 32 2 C 32.666 2 33.334 2 34 2 C 34.666 2 35.334 2 36 2 C 36.666 2 37.334 2 38 2 C 38.666 2 39.334 2 40 2 C 40.666 2 41.334 2 42 2 C 42.666 2 43.334 2 44 2 C 44.666 2 45.334 2 46 2 C 46.999 2 48.001 2 49 2 C 49.666 2 50.334 2 51 2 C 51.666 2 52.334 2 53 2 C 53.666 2 54.334 2 55 2 C 55.666 2 56.334 2 57 2 C 57.999 2 59.001 2 60 2 C 60.666 2 61.334 2 62 2 C 62.666 2 63.334 2 64 2 C 64.666 2 65.334 2 66 2 C 66.666 2 67.334 2 68 2 C 68.666 2 69.334 2 70 2 C 70.666 2 71.334 2 72 2 C 72.666 2 73.334 2 74 2 C 74.666 2 75.334 2 76 2 C 76.666 2 77.334 2 78 2 C 78.666 2 79.334 2 80 2 C 80.666 2 81.334 2 82 2 C 82.166 2 82 1.428 82 2 Z "/>
  <path id="ID0.7483457308262587" fill="none" stroke="#070707" stroke-width="2" stroke-linecap="round" d="M 73.5 21.5 C 73.5 21.5 74.681 75.262 72.75 102 C 72.267 108.684 70.482 110.15 67.25 111.5 C 64.861 112.399 62.851 108.535 61.5 106.5 C 60.249 104.614 59.844 102.359 59.5 100 C 58.115 90.557 56.5 71.5 56.5 71.5 "/>
  <path id="ID0.583631054032594" fill="none" stroke="#070707" stroke-width="2" stroke-linecap="round" d="M 71 26.5 C 71 26.5 71.371 27.499 71.5 29.5 C 72.039 38.087 72.796 46.007 72.5 54.25 C 72.04 67.04 72.637 80.062 69.75 92.5 C 69.028 95.61 65.223 95.148 63.75 93.75 C 60.973 91.16 60.501 86.552 59.5 82.75 C 58.331 78.289 57.25 68.5 57.25 68.5 "/>
  <path id="ID0.7520295851863921" fill="none" stroke="#070707" stroke-width="2" stroke-linecap="round" d="M 56 74 C 56 74 56.5 112.25 56.5 112.25 "/>
  <path id="ID0.7191467992961407" fill="none" stroke="#070707" stroke-width="2" stroke-linecap="round" d="M 72.75 132.25 C 72.75 132.25 73.503 127.62 73.5 125.5 C 73.45 119.506 73.4 113.45 73.5 107.5 C 73.55 101.5 73.9 95.45 74 89.5 C 74.05 82 73.85 74.45 74 67 C 74 65.1 74.35 64.3 74.5 63 C 74.65 61 74.9 59.85 75 57 C 75.25 45.5 75.5 22.5 75.5 22.5 C 76 21.5 77.135 19.869 78 19 C 80.932 16.392 81.849 14.549 83.5 15 C 85.471 15.915 86.5 20.5 86.5 20.5 "/>
  <path id="ID0.6919829077087343" fill="none" stroke="#070707" stroke-width="2" stroke-linecap="round" d="M 89.5 7.5 C 89.5 7.5 87.274 7.413 86.25 7.75 C 84.047 8.505 81.994 9.127 80.25 10.25 C 78.837 11.261 76.342 13.246 77 14 C 78.286 15.005 81.889 14.081 83.5 14.5 C 83.899 14.601 83.713 15.049 84 15 C 85.161 14.805 86.153 13.287 87.25 13.5 C 88.908 14.074 89.989 15.734 91 17 C 91.312 17.39 91 18.5 91 18.5 "/>
  <path id="ID0.7851181789301336" fill="none" stroke="#070707" stroke-width="2" stroke-linecap="round" d="M 78 12 C 78 12 79.792 10.797 80.5 10 C 81.145 9.274 82 7.5 82 7.5 "/>
  <path id="ID0.048102959990501404" fill="none" stroke="#070707" stroke-width="2" stroke-linecap="round" d="M 77.5 7.5 C 78.333 6.834 79.246 6.254 80 5.5 C 80.263 5.237 80.5 4.5 80.5 4.5 "/>
  <path id="ID0.5258446601219475" fill="none" stroke="#000000" stroke-width="2" stroke-linecap="round" d="M 78 3 C 79.862 2.665 80.5 2.5 80.5 2.5 C 80.5 2.5 81.01 2.5 81 2.5 Z "/>
  <path id="ID0.3609454967081547" fill="none" stroke="#070707" stroke-width="2" stroke-linecap="round" d="M 77 19.5 C 77 19.5 79.03 19.709 80 20 C 80.713 20.214 81.473 20.473 82 21 C 82.372 21.372 82.5 22.5 82.5 22.5 "/>
  <path id="ID0.11981560289859772" fill="#070707" stroke="#070707" stroke-width="1.5789474248886108" stroke-linecap="round" d="M 218.5 242.4921 C 218.8479 242.9932 214.7884 251.4137 212.5 255.4921 C 210.4226 258.4658 207.1758 260.4368 205.5 263.4921 C 202.8495 268.3511 201.2853 273.5142 199.5 278.4921 C 196.7947 285.6711 194.9453 293.1911 192 299.9921 C 191.3379 301.6926 191.9126 297.6526 192.5 295.4921 C 194.8505 286.86 197.9911 278.0047 201 269.9921 C 203.3295 263.7832 205.5468 257.0921 208.9542 251.7337 C 211.3247 248.0005 218.1521 241.9911 218.5 242.4921 Z "/>
  <path id="ID0.11981560289859772" fill="#070707" stroke="#070707" stroke-width="1.7527643135374824" stroke-linecap="round" d="M 217.6817 223.6217 C 218.099 224.155 214.1327 233.7441 211.8546 238.409 C 209.7404 241.8361 206.3193 244.1838 204.6028 247.7181 C 200.8217 255.5176 198.2171 263.2898 195.5445 270.9997 C 192.3658 280.709 190.1043 290.8117 187.0459 299.9845 C 186.2814 302.2776 187.5478 296.5563 188.0486 294.4848 C 190.0522 286.1986 191.5123 278.0289 194.0538 270.0022 C 198.0636 258.0083 202.027 245.6525 207.6871 234.4679 C 209.9053 230.0863 217.2645 223.0884 217.6817 223.6217 Z "/>
  <path id="ID0.11981560289859772" fill="#070707" stroke="#070707" stroke-width="1.2057922879139393" stroke-linecap="round" d="M 195.4575 255.0441 C 195.853 255.5861 193.2985 261.3515 191.9519 264.5456 C 191.3671 266.4448 190.2106 268.1357 189.6607 270.3246 C 188.6656 274.3218 188.3178 278.5181 187.8797 282.5329 C 187.1508 288.346 187.1182 294.2598 186.1438 299.8352 C 185.9553 301.216 185.6618 298.1135 185.7127 296.4045 C 185.9191 289.5755 186.6723 282.44 187.478 275.9536 C 188.1008 270.9278 188.4413 265.7283 190.1292 260.9774 C 191.0342 258.4267 195.025 254.4907 195.4575 255.0441 Z "/>
  <path id="ID0.11981560289859772" fill="#070707" stroke="#070707" stroke-width="1.0536327624239954" stroke-linecap="round" d="M 73.088 203.3768 C 73.2121 203.9499 69.1303 207.6514 66.9239 209.7264 C 65.7843 211.0367 64.2618 211.9782 63.0476 213.5321 C 60.8376 216.3732 59.0742 219.6025 57.303 222.6547 C 54.6628 227.0407 52.5432 231.7536 49.791 235.8627 C 49.1516 236.8991 50.0154 234.3167 50.6611 232.9694 C 53.2435 227.5869 56.3713 222.153 59.3112 217.2564 C 61.5879 213.4618 63.7006 209.4285 66.7309 206.2306 C 68.3568 204.5133 72.9384 202.7816 73.088 203.3768 Z "/>
  <path id="ID0.11981560289859772" fill="#070707" stroke="#070707" stroke-width="1.265745668674722" stroke-linecap="round" d="M 83.6272 205.559 C 83.6831 206.2611 78.2301 210.0139 75.2705 212.1307 C 73.7038 213.508 71.7402 214.3848 70.0454 216.0403 C 66.959 219.0685 64.3419 222.6306 61.7438 225.9806 C 57.8975 230.7793 54.6185 236.0506 50.6832 240.5017 C 49.7559 241.6331 51.1982 238.697 52.1829 237.1964 C 56.1202 231.2021 60.715 225.234 65.0001 219.8754 C 68.3189 215.7226 71.4807 211.2593 75.601 207.9377 C 77.8121 206.1537 83.5444 204.8264 83.6272 205.559 Z "/>
  <path id="ID0.11981560289859772" fill="#070707" stroke="#070707" stroke-width="1.2057922879139393" stroke-linecap="round" d="M 40.8575 162.5441 C 41.253 163.0861 38.6985 168.8515 37.3519 172.0456 C 36.7671 173.9448 35.6106 175.6357 35.0607 177.8246 C 34.0656 181.8218 33.7178 186.0181 33.2797 190.0329 C 32.5508 195.846 32.5182 201.7598 31.5438 207.3352 C 31.3553 208.716 31.0618 205.6135 31.1127 203.9045 C 31.3191 197.0755 32.0723 189.94 32.878 183.4536 C 33.5008 178.4278 33.8413 173.2283 35.5292 168.4774 C 36.4342 165.9267 40.425 161.9907 40.8575 162.5441 Z "/>
  <path id="ID0.11981560289859772" fill="#070707" stroke="#070707" stroke-width="1.2057922651951096" stroke-linecap="round" d="M 49.6101 164.2959 C 49.8501 164.9224 45.8769 169.8193 43.7419 172.5501 C 42.6809 174.2304 41.1225 175.5601 40.0193 177.529 C 38.0137 181.1269 36.5807 185.0863 35.108 188.8468 C 32.8845 194.2671 31.3066 199.9666 28.9082 205.0932 C 28.3653 206.3767 28.8932 203.3054 29.3892 201.6692 C 31.3741 195.1317 33.9669 188.4414 36.4407 182.3914 C 38.356 177.7032 40.0442 172.7737 42.9156 168.6295 C 44.4561 166.4042 49.3373 163.6486 49.6101 164.2959 Z "/>
  <path id="ID0.11981560289859772" fill="#070707" stroke="#070707" stroke-width="1.5789475028972588" stroke-linecap="round" d="M 51.2425 177.8664 C 51.4758 178.4301 45.7169 185.7935 42.6128 189.2913 C 39.95 191.7546 36.358 192.9894 34.0703 195.6179 C 30.4462 199.8013 27.8188 204.5132 25.0148 208.997 C 20.8434 215.4355 17.4356 222.3895 13.1101 228.4077 C 12.1012 229.9283 13.5227 226.1033 14.5566 224.1173 C 18.6907 216.1834 23.6442 208.1996 28.2898 201.0111 C 31.8875 195.4403 35.4784 189.3746 39.9483 184.8643 C 43.0591 181.7213 51.0092 177.3028 51.2425 177.8664 Z "/>
  <path id="ID0.11981560289859772" fill="#070707" stroke="#070707" stroke-width="1.0536327559182905" stroke-linecap="round" d="M 363.5509 237.637 C 364.1338 237.7004 367.3869 233.2528 369.219 230.8409 C 370.4025 229.5702 371.1791 227.9574 372.5971 226.5868 C 375.1907 224.0911 378.2172 221.9987 381.0668 219.9171 C 385.1518 216.8314 389.6164 214.2292 393.4142 211.0612 C 394.3778 210.3167 391.9002 211.4466 390.6281 212.23 C 385.5461 215.3627 380.4703 219.0431 375.909 222.4804 C 372.3741 225.1426 368.5846 227.6666 365.7222 231.0156 C 364.1849 232.8127 362.9433 237.5506 363.5509 237.637 Z "/>
  <path id="ID0.11981560289859772" fill="#070707" stroke="#070707" stroke-width="1.0536327060375947" stroke-linecap="round" d="M 365.4064 219.9084 C 365.9078 220.2122 370.7365 217.5577 373.4168 216.1468 C 375.0266 215.4959 376.4124 214.3628 378.277 213.7205 C 381.6826 212.5557 385.3101 211.9396 388.7726 211.2583 C 393.7792 210.1897 398.9254 209.7197 403.7066 208.455 C 404.8947 208.1878 402.1718 208.1639 400.6876 208.3359 C 394.7577 209.0255 388.6016 210.2141 383.0147 211.3999 C 378.6856 212.3174 374.1843 213.0021 370.1741 214.8264 C 368.0211 215.8047 364.8923 219.5731 365.4064 219.9084 Z "/>
  <path id="ID0.11981560289859772" fill="#070707" stroke="#070707" stroke-width="1.2057923122657863" stroke-linecap="round" d="M 426.297 172.4351 C 426.8866 172.7555 427.0482 179.0594 427.1998 182.5224 C 427.485 184.4891 427.1644 186.5124 427.6051 188.7259 C 428.4184 192.7639 429.9018 196.7047 431.2258 200.5201 C 433.0575 206.085 435.5616 211.4427 437.0695 216.898 C 437.4907 218.2264 435.8964 215.5488 435.2103 213.9827 C 432.4713 207.7237 430.095 200.9534 428.0444 194.7472 C 426.454 189.9391 424.5343 185.095 424.0242 180.0791 C 423.7492 177.3866 425.6691 172.1204 426.297 172.4351 Z "/>
  <path id="ID0.11981560289859772" fill="#070707" stroke="#070707" stroke-width="0.8563703479775839" stroke-linecap="round" d="M 438.1212 191.1978 C 438.4939 191.4948 437.8267 195.9235 437.5041 198.3641 C 437.4602 199.7747 436.9855 201.1501 437.0198 202.7526 C 437.0888 205.6772 437.6385 208.6168 438.0922 211.449 C 438.6844 215.5675 439.7725 219.6243 440.1519 223.626 C 440.2821 224.6072 439.4985 222.5373 439.2125 221.3571 C 438.0716 216.6409 437.2478 211.6121 436.5818 207.018 C 436.0646 203.4586 435.3216 199.8333 435.5857 196.2623 C 435.7266 194.3453 437.7211 190.9 438.1212 191.1978 Z "/>
</svg>