<svg xmlns="http://www.w3.org/2000/svg" xmlns:xlink="http://www.w3.org/1999/xlink" version="1.1" width="90.90071105957031" height="92.19999694824219" viewBox="0.39929473400115967 1.2999999523162842 90.90071105957031 92.19999694824219">
  <!-- Exported by Scratch - http://scratch.mit.edu/ -->
  <path id="ID0.40227043256163597_15_" fill="none" stroke="#000000" stroke-width="2" stroke-linecap="round" stroke-linejoin="round" d="M 23.9 75.4 C 21.4 75.3 18.4 74.8 15.7 72.9 C 9.6 68.6 6.7 60.6 3.1 63.3 C -0.5 66 1.4 79.4 14.1 81.8 C 18.5 82.7 22.4 82.2 25.4 81.7 C 26.2 81.6 33.1 79.9 34.9 76.1 C 36.8 72.3 35 71.7 34.1 71.3 C 33.3 70.8 27.4 75.6 23.9 75.4 Z "/>
  <path id="ID0.48413723474368453_15_" fill="none" stroke="#000000" stroke-width="2" stroke-linecap="round" stroke-linejoin="round" d="M 54.1 12.2 C 52.6 11.9 49.6 11.3 47.9 11.2 C 43.3 10.8 38.8 12 38.8 12 L 27.3 2.3 L 27.2 20.7 C 27.9 20 15.6 31.8 21 43.5 C 26.5 55.4 40.4 62 58.9 60.7 C 77.4 59.4 83 49.5 82.4 43.9 C 81.8 38.3 75.3 35.4 75.3 35.4 C 75.3 35.4 75.7 31.1 73.3 25.5 C 71.8 22.1 66.2 16.8 66.2 16.8 L 64.8 5.3 L 56.8 11.4 L 54.1 12.2 Z "/>
  <g id="ID0.7407716196030378_32_">
    <path id="ID0.15909873321652412_31_" fill="#FAA51F" stroke="#8E5322" stroke-width="1.4" stroke-linecap="round" stroke-linejoin="round" d="M 41.1 58.2 C 40.9 58.3 45 70.5 44.7 70.6 C 43 71.7 41.1 71.9 40.4 71.3 C 37 68.9 33.9 63.2 32.9 58.1 L 32.9 56.7 "/>
    <path id="ID0.8024068027734756_32_" fill="#FAA51F" stroke="#8E5322" stroke-width="1.4" stroke-linecap="round" stroke-linejoin="round" d="M 43.4 63.9 "/>
    <path id="ID0.06734407460317016_32_" fill="none" stroke="#8E5322" stroke-width="1.4" stroke-linecap="round" stroke-linejoin="round" d="M 43.2 60.4 "/>
  </g>
  <path id="ID0.1790580078959465_35_" fill="#000000" stroke="#000000" stroke-width="2" stroke-linecap="round" stroke-linejoin="round" d="M 42.2 65.3 C 47.1 62 53.5 62.7 53.9 64.4 C 54.8 68.3 50.9 71.3 42.2 71.8 "/>
  <g id="Layer_2_32_">
    <path id="ID0.39854341372847557_15_" fill="#FAA51F" stroke="#8E5322" stroke-width="1.4" stroke-linecap="round" stroke-linejoin="round" d="M 36.1 70.6 "/>
  </g>
  <g id="ID0.16171270422637463_15_">
    <path id="ID0.007584026083350182_15_" fill="#000000" stroke="#000000" stroke-width="2" stroke-linecap="round" stroke-linejoin="round" d="M 33.6 78.5 C 33.6 78.5 26.6 79.9 18.9 84.2 C 15.6 86 17.5 92 12.5 92.5 C 9 92.5 9.6 89.4 9.7 83.3 C 10 80.5 10 80.5 11.9 80 C 19 78 27.9 68.9 27.9 68.9 "/>
    <path id="ID0.31672530295327306_26_" fill="#FAA51F" stroke="#8E5322" stroke-width="1.4" stroke-linecap="round" stroke-linejoin="round" d="M 17.6 85.8 "/>
  </g>
  <path id="ID0.8535828334279358_15_" fill="#000000" d="M 23.9 75.4 C 21.4 75.3 18.4 74.8 15.7 72.9 C 9.6 68.6 6.7 60.6 3.1 63.3 C -0.5 66 1.4 79.4 14.1 81.8 C 18.5 82.7 22.4 82.2 25.4 81.7 C 26.2 81.6 33.1 79.9 34.9 76.1 C 36.8 72.3 35 71.7 34.1 71.3 C 33.3 70.8 27.4 75.6 23.9 75.4 Z " stroke-width="1"/>
  <path id="ID0.914295740891248_15_" fill="#101010" d="M 3.2 63.1 C 1.3 64 0.8 69.1 2.2 72.5 C 3.7 75.9 5.9 77.8 7.4 79 C 9.1 79.8 6.3 76.1 8.2 74 C 10.1 71.9 14.3 72 14.3 72 C 14.3 72 10.6 68.1 8.5 65.9 C 6.7 63.7 5.3 62.3 3.2 63.1 Z " stroke-width="1"/>
  <path id="ID0.46792364912107587_15_" fill="#000000" stroke="#000000" stroke-width="2" stroke-linecap="round" stroke-linejoin="round" d="M 48.1 64.9 C 46.2 71.3 45.1 81.2 33.7 77.9 C 22.3 74.5 25.9 66.2 27.8 59.8 C 29.7 53.4 34.1 52.8 40.6 54.7 C 46.9 56.6 50 58.5 48.1 64.9 Z "/>
  <path id="ID0.38032895559445024_15_" fill="#101010" d="M 47.1 67.4 C 46.1 71.5 45 72.5 38.9 70.5 C 37.2 70 37.6 69.3 38.7 65.3 C 39.8 61.3 42.4 60.6 45.9 61.8 C 48.6 62.7 48.1 63.1 47.1 67.4 Z " stroke-width="1"/>
  <g id="ID0.998940727673471">
    <g id="ID0.7407716196030378_31_">
      <path id="ID0.15909873321652412_30_" fill="#000000" stroke="#000000" stroke-width="2" stroke-linecap="round" stroke-linejoin="round" d="M 34.4 61.4 C 34.2 61.3 25.6 70.8 25.4 70.7 C 23.6 69.8 22.5 68.2 22.6 67.3 C 23 63.2 26.4 57.7 30.4 54.3 L 31.6 53.6 "/>
      <path id="ID0.8024068027734756_31_" fill="#FAA51F" stroke="#8E5322" stroke-width="1.4" stroke-linecap="round" stroke-linejoin="round" d="M 30.6 66.2 "/>
      <path id="ID0.06734407460317016_31_" fill="none" stroke="#8E5322" stroke-width="1.4" stroke-linecap="round" stroke-linejoin="round" d="M 33.6 64.3 "/>
    </g>
    <path id="ID0.1790580078959465_34_" fill="#000000" stroke="#000000" stroke-width="2" stroke-linecap="round" stroke-linejoin="round" d="M 28.8 65.9 C 34.1 68.5 36.6 74.4 35.4 75.6 C 32.5 78.3 27.9 76.4 23.2 69.1 "/>
  </g>
  <path id="ID0.2591130444779992_15_" fill="#000000" d="M 54.1 12.2 C 52.6 11.9 49.6 11.3 47.9 11.2 C 43.3 10.8 38.8 12 38.8 12 L 27.3 2.3 L 27.2 20.7 C 27.9 20 15.6 31.8 21 43.5 C 26.5 55.4 40.4 62 58.9 60.7 C 77.4 59.4 83 49.5 82.4 43.9 C 81.8 38.3 75.3 35.4 75.3 35.4 C 75.3 35.4 75.7 31.1 73.3 25.5 C 71.8 22.1 66.2 16.8 66.2 16.8 L 64.8 5.3 L 56.8 11.4 L 54.1 12.2 Z " stroke-width="1"/>
  <path id="ID0.3588979784399271_15_" fill="#101010" d="M 74.4 35.1 L 72.3 32.8 L 63.2 34.3 C 63.2 34.3 62.8 37.6 58.5 38 C 54.2 38.4 47.4 35.9 47.4 35.9 L 40.1 36.8 C 40.1 36.8 32.1 35.3 30.9 41.6 C 28.9 52.6 37.5 59 46 59.9 C 51.5 60.6 55 60.3 59 60.1 C 76.4 59.1 82.6 49.4 81.8 43.8 C 81.3 38.2 74.9 35.8 74.9 35.8 L 74.4 35.1 Z " stroke-width="1"/>
  <path id="ID0.2727069961838424_15_" fill="none" stroke="#000000" stroke-width="2" stroke-linecap="round" stroke-linejoin="round" d="M 78.7 41.1 C 78.7 41.1 83.1 41.8 85.4 41.7 C 88.2 41.6 90.3 40.6 90.3 40.6 "/>
  <path id="ID0.5861211125738919_15_" fill="none" stroke="#000000" stroke-width="2" stroke-linecap="round" stroke-linejoin="round" d="M 78.5 46.9 C 78.5 46.9 80.7 48.7 83.3 49.7 C 85.8 50.8 87.6 51.1 87.6 51.1 "/>
  <path id="ID0.4793355236761272_15_" fill="none" stroke="#000000" stroke-width="2" stroke-linecap="round" stroke-linejoin="round" d="M 36.7 10.2 L 41.4 14.4 "/>
  <path id="ID0.9024141579866409_15_" fill="none" stroke="#000000" stroke-width="2" stroke-linecap="round" stroke-linejoin="round" d="M 9.9 40.4 C 9.9 40.4 13.9 40.4 15.7 40.1 C 17.5 39.8 20.9 39 20.9 39 "/>
  <path id="ID0.16030752705410123_15_" fill="none" stroke="#000000" stroke-width="2" stroke-linecap="round" stroke-linejoin="round" d="M 21.6 35.3 C 19.3 33.8 19.3 33.8 15.5 32.4 C 11.4 30.9 9.2 30.6 9.2 30.6 "/>
  <g id="Layer_5_16_">
    <path id="ID0.40023312577977777_15_" fill="#FFFFFF" stroke="black" stroke-width="2" stroke-linecap="round" stroke-linejoin="round" d="M 71.1 25.2 C 73.4 29.8 72.8 34.8 70 36.1 C 67.1 37.6 62.9 34.9 60.6 30.2 C 58.3 25.6 58.9 20.6 61.7 19.3 C 64.6 18 68.8 20.6 71.1 25.2 Z "/>
    <path id="ID0.43813491938635707_15_" fill="#414142" d="M 70.6 28.8 C 70.8 29.8 70.2 30.8 69.1 30.9 C 68.2 31.1 67.3 30.4 67.1 29.2 C 66.9 28.2 67.5 27.2 68.6 27.1 C 69.6 27.1 70.4 27.8 70.6 28.8 " stroke-width="1"/>
  </g>
  <g id="Layer_7_16_">
    <path id="ID0.4253597157076001_15_" fill="#FFFFFF" stroke="black" stroke-width="2" stroke-linecap="round" stroke-linejoin="round" d="M 47.7 25.5 C 50 30.1 49 35.2 45.6 36.9 C 42.2 38.6 37.5 36.2 35.3 31.5 C 33 26.9 34 21.8 37.4 20.1 C 40.8 18.5 45.4 20.9 47.7 25.5 Z "/>
    <path id="ID0.814307457767427_15_" fill="#414142" d="M 46.9 29.3 C 46.8 30.3 45.9 31.1 45 31 C 44 30.9 43.4 30 43.5 28.9 C 43.6 27.9 44.5 27.1 45.4 27.2 C 46.4 27.3 47.1 28.2 46.9 29.3 " stroke-width="1"/>
  </g>
  <path id="ID0.5240494590252638_15_" fill="#000000" stroke="#000000" stroke-width="2" stroke-linecap="round" stroke-linejoin="round" d="M 57.4 36.6 C 59.1 36.6 61.6 35.6 61.6 37.5 C 61.5 38.3 59.5 41.4 57.7 41.3 C 55.7 41.2 52.5 38.2 52.8 36.8 C 53.1 35.4 55.9 36.7 57.4 36.6 Z "/>
  <path id="ID0.046259244438260794_15_" fill="#FFFFFF" stroke="#000000" stroke-width="2" stroke-linecap="round" stroke-linejoin="round" d="M 46.5 50.8 C 46.5 50.8 48.7 53.4 54.2 53 "/>
  <g id="ID0.16171270422637463_25_">
    <path id="ID0.007584026083350182_25_" fill="#000000" stroke="#000000" stroke-width="2" stroke-linecap="round" stroke-linejoin="round" d="M 43.8 71.1 C 43.8 71.1 46.4 73 54.4 76.8 C 57.8 78.4 57.7 70.1 63.8 74.3 C 65.5 75.5 60.7 83.4 59 84.8 C 57.4 86.1 56.6 86.2 55 84.9 C 49.2 80.3 36.6 78.4 36.6 78.4 "/>
    <path id="ID0.31672530295327306_25_" fill="#FAA51F" stroke="#000000" stroke-width="2" stroke-linecap="round" stroke-linejoin="round" d="M 57 76 C 57 76 56.2 77 55.7 78.5 "/>
  </g>
  <path id="ID0.042709666304290295" fill="#101010" stroke="none" d="M 44.9058 26.45 C 45.5607 26.45 46.1545 26.741 46.5847 27.212 C 47.015 27.683 47.2808 28.333 47.2808 29.05 C 47.2808 29.767 47.015 30.417 46.5847 30.888 C 46.1545 31.359 45.5607 31.65 44.9058 31.65 C 44.2508 31.65 43.6571 31.359 43.2268 30.888 C 42.7966 30.417 42.5308 29.767 42.5308 29.05 C 42.5308 28.333 42.7966 27.683 43.2268 27.212 C 43.6571 26.741 44.2508 26.45 44.9058 26.45 Z " stroke-width="0.9577087324721634"/>
  <path id="ID0.042709666304290295" fill="#101010" stroke="none" d="M 68.6558 26.5 C 69.3107 26.5 69.9045 26.791 70.3347 27.262 C 70.765 27.733 71.0308 28.383 71.0308 29.1 C 71.0308 29.817 70.765 30.467 70.3347 30.938 C 69.9045 31.409 69.3107 31.7 68.6558 31.7 C 68.0008 31.7 67.4071 31.409 66.9768 30.938 C 66.5466 30.467 66.2808 29.817 66.2808 29.1 C 66.2808 28.383 66.5466 27.733 66.9768 27.262 C 67.4071 26.791 68.0008 26.5 68.6558 26.5 Z " stroke-width="0.9577087324721634"/>
</svg>