<svg xmlns="http://www.w3.org/2000/svg" xmlns:xlink="http://www.w3.org/1999/xlink" version="1.1" width="83.02780165448578" height="98.75740828290375" viewBox="0.29929988496108595 0.9499999772767598 83.02780165448578 98.75740828290375">
  <!-- Exported by Scratch - http://scratch.mit.edu/ -->
  <g id="ID0.5404896885156631">
    <path id="ID0.40227043256163597_16_" fill="none" stroke="#000000" stroke-width="1.9999999018915997" stroke-linecap="round" stroke-linejoin="round" d="M 32.7205 76.5312 C 30.2133 76.5948 27.2232 76.3316 24.319 74.5935 C 17.8959 70.7448 14.4916 62.9538 11.0987 65.8548 C 7.7063 68.7567 10.555 81.9912 23.3965 83.5153 C 27.8552 84.0879 31.6802 83.3009 34.6533 82.5794 C 35.463 82.4232 42.1893 80.2863 43.7757 76.3497 C 45.364 72.4122 43.5871 71.9143 42.6571 71.5749 C 41.7702 71.328 36.2546 76.5413 32.7205 76.5312 Z "/>
    <path id="ID0.8535828334279358_16_" fill="#000000" d="M 32.7205 76.5312 C 30.2133 76.5948 27.2232 76.3316 24.319 74.5935 C 17.8959 70.7448 14.4916 62.9538 11.0987 65.8548 C 7.7063 68.7567 10.555 81.9912 23.3965 83.5153 C 27.8552 84.0879 31.6802 83.3009 34.6533 82.5794 C 35.463 82.4232 42.1893 80.2863 43.7757 76.3497 C 45.364 72.4122 43.5871 71.9143 42.6571 71.5749 C 41.7702 71.328 36.2546 76.5413 32.7205 76.5312 Z " stroke-width="0.9999999509457999"/>
    <path id="ID0.914295740891248_16_" fill="#101010" d="M 11.2383 65.6807 C 9.4187 66.7479 9.2325 71.7977 10.8831 75.1106 C 12.6248 78.38 14.9914 80.1477 16.4819 81.2178 C 18.2512 81.9387 15.1742 78.4071 16.8929 76.1747 C 18.6108 73.9405 22.8221 73.7469 22.8221 73.7469 C 22.8221 73.7469 18.808 70.0999 16.6304 68.0248 C 14.7172 66.0462 13.233 64.7526 11.2383 65.6807 Z " stroke-width="0.9999999509457999"/>
  </g>
  <path id="ID0.48413723474368453_16_" fill="none" stroke="#000000" stroke-width="2" stroke-linecap="round" stroke-linejoin="round" d="M 43.2 10.15 C 41.7 10.05 38.599 9.85 36.9 9.95 C 32.299 10.15 28 11.85 28 11.85 L 15.4 3.65 L 17.6 21.95 C 18.201 21.15 7.401 34.35 14.201 45.35 C 21.1 56.45 35.701 61.35 53.901 57.75 C 72.1 54.15 76.4 43.65 75.2 38.15 C 74 32.65 67.099 30.55 67.099 30.55 C 67.099 30.55 67 26.251 63.9 20.95 C 62 17.751 55.8 13.15 55.8 13.15 L 53 1.95 L 45.8 8.95 L 43.2 10.15 Z "/>
  <path id="ID0.007584026083350182_16_" fill="#000000" stroke="#000000" stroke-width="2.0000000152895208" stroke-linecap="round" stroke-linejoin="round" d="M 53.0901 75.7422 C 53.0901 75.7422 52.1391 81.4199 54.1062 90.0355 C 54.9105 93.7615 61.3733 88.5526 61.865 95.9522 C 61.9471 98.0611 52.8025 99.0894 50.6147 98.5777 C 48.6383 98.1374 48.0493 97.5104 48.0788 95.4884 C 48.196 88.1068 43.4074 80.2756 43.4074 80.2756 "/>
  <path id="ID0.46792364912107587_16_" fill="#000000" stroke="#000000" stroke-width="2" stroke-linecap="round" stroke-linejoin="round" d="M 53.2 64.801 C 53.2 71.501 54.9 81.301 43 81.301 C 31.1 81.301 32.2 72.301 32.2 65.601 C 32.2 58.901 36.3 57.101 43 57.101 C 49.7 57.101 53.2 58.101 53.2 64.801 Z "/>
  <path id="ID0.38032895559445024_22_" fill="#101010" d="M 50.6 67.7 C 50.6 71.9 51.5 78.2 45.1 78.2 C 38.701 78.2 39.201 72.501 39.201 68.301 C 39.201 64.101 41.401 62.901 45.1 62.901 C 48.8 62.9 50.6 63.501 50.6 67.7 Z " stroke-width="1"/>
  <path id="ID0.527006761636585_19_" fill="#000000" stroke="#000000" stroke-width="2.00000005776444" stroke-linecap="round" stroke-linejoin="round" d="M 33.2505 74.4142 C 33.2505 74.4142 34.4723 80.3738 31.1466 88.5175 C 29.6628 92.0669 25.3366 86.1741 23.9234 93.6513 C 23.4279 96.1037 30.8586 97.7113 33.0907 97.8444 C 35.2256 97.9537 36.2627 97.0745 36.5665 94.986 C 37.2709 90.8346 40.8857 82.3497 40.8857 82.3497 "/>
  <path id="ID0.8143284288235009_1_" fill="#FAA51F" stroke="#000000" stroke-width="2" stroke-linecap="round" stroke-linejoin="round" d="M 35.3 64.4 C 34.135 67.535 32.218 71.335 32.218 71.335 "/>
  <path id="ID0.2591130444779992_16_" fill="#000000" d="M 43.2 10.15 C 41.7 10.05 38.599 9.85 36.9 9.95 C 32.299 10.15 28 11.85 28 11.85 L 15.4 3.65 L 17.6 21.95 C 18.201 21.15 7.401 34.35 14.201 45.35 C 21.1 56.45 35.701 61.35 53.901 57.75 C 72.1 54.15 76.4 43.65 75.2 38.15 C 74 32.65 67.099 30.55 67.099 30.55 C 67.099 30.55 67 26.251 63.9 20.95 C 62 17.751 55.8 13.15 55.8 13.15 L 53 1.95 L 45.8 8.95 L 43.2 10.15 Z " stroke-width="1"/>
  <path id="ID0.3588979784399271_16_" fill="#101010" d="M 66.2 30.45 L 63.8 28.45 L 55 31.051 C 55 31.051 55 34.351 50.8 35.251 C 46.6 36.15 39.5 34.551 39.5 34.551 L 32.4 36.351 C 32.4 36.351 24.299 35.851 23.9 42.251 C 23.2 53.351 32.5 58.65 41 58.551 C 46.5 58.551 50 57.851 53.9 57.151 C 71.099 54.051 76 43.651 74.5 38.151 C 73.3 32.651 66.7 31.051 66.7 31.051 L 66.2 30.45 Z " stroke-width="1"/>
  <path id="ID0.2727069961838424_16_" fill="none" stroke="#000000" stroke-width="2.000000048288857" stroke-linecap="round" stroke-linejoin="round" d="M 70.9323 37.4841 C 70.9323 37.4841 75.3832 37.3075 77.6631 36.7725 C 80.3521 36.1853 82.3271 34.8085 82.3271 34.8085 "/>
  <path id="ID0.5861211125738919_16_" fill="none" stroke="#000000" stroke-width="1.9999999650495965" stroke-linecap="round" stroke-linejoin="round" d="M 71.5417 43.3102 C 71.5417 43.3102 74.0609 44.5853 76.8399 44.974 C 79.5132 45.4578 81.3227 45.3805 81.3227 45.3805 "/>
  <path id="ID0.4793355236761272_16_" fill="none" stroke="#000000" stroke-width="2" stroke-linecap="round" stroke-linejoin="round" d="M 25.7 10.351 L 30.9 13.951 "/>
  <path id="ID0.9024141579866409_16_" fill="none" stroke="#000000" stroke-width="1.9999999817917855" stroke-linecap="round" stroke-linejoin="round" d="M 3.5169 44.3833 C 3.5169 44.3833 7.5319 44.184 9.297 43.8174 C 11.0622 43.4508 14.4489 42.4359 14.4489 42.4359 "/>
  <path id="ID0.16030752705410123_16_" fill="none" stroke="#000000" stroke-width="1.9999999817917855" stroke-linecap="round" stroke-linejoin="round" d="M 14.0817 39.3994 C 14.0817 39.3994 11.5545 38.0603 7.7575 37.0133 C 3.5342 35.8272 1.2993 35.7598 1.2993 35.7598 "/>
  <path id="ID0.40023312577977777_16_" fill="#FFFFFF" stroke="black" stroke-width="2" stroke-linecap="round" stroke-linejoin="round" d="M 61.7 21.051 C 64.5 25.351 64.599 30.351 61.9 32.051 C 59.2 33.851 54.7 31.751 51.9 27.351 C 49.099 23.051 49 18.051 51.7 16.351 C 54.4 14.651 58.9 16.751 61.7 21.051 Z "/>
  <path id="ID0.4253597157076001_16_" fill="#FFFFFF" stroke="black" stroke-width="2" stroke-linecap="round" stroke-linejoin="round" d="M 38.5 24.15 C 41.3 28.45 41 33.65 37.8 35.751 C 34.6 37.851 29.7 36.051 26.901 31.65 C 24.1 27.35 24.401 22.15 27.6 20.05 C 30.8 18.051 35.7 19.851 38.5 24.15 Z "/>
  <path id="ID0.5240494590252638_16_" fill="#000000" stroke="#000000" stroke-width="2" stroke-linecap="round" stroke-linejoin="round" d="M 49.5 34.051 C 51.2 33.851 53.5 32.551 53.8 34.45 C 53.8 35.251 52.2 38.551 50.401 38.65 C 48.401 38.751 44.901 36.251 45.001 34.751 C 45.101 33.251 48 34.251 49.5 34.051 Z "/>
  <path id="ID0.046259244438260794_16_" fill="#FFFFFF" stroke="#000000" stroke-width="2" stroke-linecap="round" stroke-linejoin="round" d="M 40.4 49.45 C 40.4 49.45 42.9 51.751 48.299 50.65 "/>
  <path id="ID0.042709666304290295" fill="#101010" stroke="none" d="M 58.2558 23.55 C 58.9107 23.55 59.5045 23.841 59.9347 24.312 C 60.365 24.783 60.6308 25.433 60.6308 26.15 C 60.6308 26.867 60.365 27.517 59.9347 27.988 C 59.5045 28.459 58.9107 28.75 58.2558 28.75 C 57.6008 28.75 57.0071 28.459 56.5768 27.988 C 56.1466 27.517 55.8808 26.867 55.8808 26.15 C 55.8808 25.433 56.1466 24.783 56.5768 24.312 C 57.0071 23.841 57.6008 23.55 58.2558 23.55 Z " stroke-width="0.9577087324721634"/>
  <path id="ID0.042709666304290295" fill="#101010" stroke="none" d="M 33.9058 27.05 C 34.5607 27.05 35.1545 27.341 35.5847 27.812 C 36.015 28.283 36.2808 28.933 36.2808 29.65 C 36.2808 30.367 36.015 31.017 35.5847 31.488 C 35.1545 31.959 34.5607 32.25 33.9058 32.25 C 33.2508 32.25 32.6571 31.959 32.2268 31.488 C 31.7966 31.017 31.5308 30.367 31.5308 29.65 C 31.5308 28.933 31.7966 28.283 32.2268 27.812 C 32.6571 27.341 33.2508 27.05 33.9058 27.05 Z " stroke-width="0.9577087324721634"/>
  <path id="ID0.1790580078959465_14_" fill="#000000" stroke="#000000" stroke-width="2.00000001908883" stroke-linecap="round" stroke-linejoin="round" d="M 33.245 59.6513 C 32.504 58.9724 26.7046 59.3812 26.0639 58.9022 C 19.2756 53.4525 14.6356 53.4795 13.7577 54.8209 C 11.8423 57.8838 13.8678 61.5207 20.2324 64.5311 C 24.9159 66.7839 36.4959 66.8263 37.2564 67.1452 "/>
  <path id="ID0.1790580078959465_13_" fill="#000000" stroke="#000000" stroke-width="2.000000140813912" stroke-linecap="round" stroke-linejoin="round" d="M 52.7222 59.5384 C 53.5111 58.9158 59.2647 59.75 59.939 59.3194 C 67.1096 54.3836 71.735 54.7518 72.512 56.154 C 74.1969 59.3495 71.9094 62.8276 65.3407 65.3618 C 60.5043 67.2642 48.9525 66.455 48.1706 66.7171 "/>
</svg>