<svg xmlns="http://www.w3.org/2000/svg" xmlns:xlink="http://www.w3.org/1999/xlink" version="1.1" width="55.51905992574381" height="24.355069904991858" viewBox="0.574033364917402 -0.15056909594380408 55.51905992574381 24.355069904991858">
  <!-- Exported by Scratch - http://scratch.mit.edu/ -->
  <path id="ID0.5443468582816422" fill="#000000" stroke="#000000" stroke-width="1.30558801450409" d="M 32.3979 0.6363 C 37.4901 0.4769 42.65 2.0911 45.8028 4.2019 C 49.397 6.6038 51.1342 9.8796 51.4535 12.8013 C 51.7851 15.7783 51.8272 19.6166 47.0814 21.4216 C 41.8927 23.8215 33.5446 23.3697 26.4792 23.3722 C 19.6645 23.3756 11.6464 23.9062 6.2069 21.7363 C 1.7928 19.7353 0.9307 15.8635 1.5049 12.8013 C 2.084 9.7395 5.1312 6.2259 10.0427 4.2019 C 16.2106 1.6552 24.5621 0.4773 32.3979 0.6363 Z "/>
  <path id="ID0.37750169076025486" fill="#FFFFFF" stroke="#000000" stroke-width="0.8471974517271978" d="M 50.4666 3.896 C 51.8059 3.896 53.0192 4.4341 53.8978 5.3041 C 54.7764 6.1735 55.3204 7.3747 55.3204 8.6999 C 55.3204 10.025 54.7764 11.2263 53.8978 12.0957 C 53.0192 12.9657 51.8059 13.5038 50.4666 13.5038 C 49.1274 13.5038 47.9141 12.9657 47.0354 12.0957 C 46.1568 11.2263 45.6128 10.025 45.6128 8.6999 C 45.6128 7.3747 46.1568 6.1735 47.0354 5.3041 C 47.9141 4.4341 49.1274 3.896 50.4666 3.896 Z "/>
  <path id="ID0.37750169076025486" fill="#FFFFFF" stroke="#000000" stroke-width="1.1104878126595163" d="M 39.9339 2.3629 C 41.9221 2.361 43.724 3.0332 45.0294 4.1214 C 46.3349 5.2089 47.1439 6.7125 47.1456 8.372 C 47.1472 10.0316 46.341 11.5367 45.0377 12.6268 C 43.7343 13.7175 41.9337 14.3932 39.9455 14.3951 C 37.9573 14.3971 36.1554 13.7249 34.8499 12.6367 C 33.5445 11.5491 32.7354 10.0455 32.7338 8.386 C 32.7322 6.7265 33.5383 5.2213 34.8417 4.1312 C 36.145 3.0405 37.9456 2.3648 39.9339 2.3629 Z "/>
  <path id="ID0.234124637208879" fill="#000000" stroke="black" stroke-width="1.178983154000629" stroke-linecap="round" d="M 50.5193 4.4784 C 50.8823 4.4784 51.2109 4.9273 51.4489 5.6533 C 51.6872 6.3792 51.8345 7.3814 51.8345 8.487 C 51.8345 9.5927 51.6872 10.5949 51.4489 11.3208 C 51.2109 12.0467 50.8823 12.4957 50.5193 12.4957 C 50.1562 12.4957 49.8276 12.0467 49.5897 11.3208 C 49.3513 10.5949 49.204 9.5927 49.204 8.487 C 49.204 7.3814 49.3513 6.3792 49.5897 5.6533 C 49.8276 4.9273 50.1562 4.4784 50.5193 4.4784 Z "/>
  <path id="ID0.234124637208879" fill="#000000" stroke="black" stroke-width="1.5453851515738875" stroke-linecap="round" d="M 39.7253 2.9243 C 40.2642 2.9237 40.7526 3.4855 41.1068 4.3943 C 41.4615 5.3031 41.6814 6.5579 41.6828 7.9426 C 41.6841 9.3272 41.4666 10.5825 41.1136 11.492 C 40.7612 12.4014 40.2739 12.9641 39.735 12.9647 C 39.1961 12.9652 38.7077 12.4034 38.3535 11.4946 C 37.9988 10.5859 37.7789 9.331 37.7775 7.9464 C 37.7762 6.5617 37.9937 5.3064 38.3467 4.397 C 38.699 3.4875 39.1864 2.9248 39.7253 2.9243 Z "/>
</svg>