<svg xmlns="http://www.w3.org/2000/svg" xmlns:xlink="http://www.w3.org/1999/xlink" version="1.1" width="86.4553223375286" height="95.65217597522391" viewBox="4.150779688169291 9.871100389768412 86.4553223375286 95.65217597522391">
  <!-- Exported by Scratch - http://scratch.mit.edu/ -->
  <path id="ID0.48413723474368453_11_" fill="none" stroke="#000000" stroke-width="2.0000000363522954" stroke-linecap="round" stroke-linejoin="round" d="M 50.7501 19.136 C 49.2018 19.0236 46.1238 18.8971 44.4164 19.0186 C 39.7853 19.2895 35.5331 21.0153 35.5331 21.0153 L 22.8007 12.9544 L 25.2598 31.2168 C 25.8165 30.3982 15.2203 43.7151 22.18 54.6055 C 29.1771 65.6925 43.8229 70.4369 62.0386 66.6634 C 80.1373 62.8103 84.3528 52.337 83.0902 46.775 C 81.8464 41.3112 74.9421 39.2665 74.9421 39.2665 C 74.9421 39.2665 74.8255 34.9115 71.5982 29.7235 C 69.6666 26.5284 63.4127 22.0185 63.4127 22.0185 L 60.4759 10.8711 L 53.3698 17.9247 L 50.7501 19.136 Z "/>
  <path id="ID0.1790580078959465_13_" fill="#000000" stroke="#000000" stroke-width="2.0000000719036053" stroke-linecap="round" stroke-linejoin="round" d="M 52.9748 70.7956 C 53.8693 70.3377 59.3525 72.2704 60.0973 71.9785 C 68.0881 68.5249 72.5547 69.782 73.0453 71.3081 C 74.0795 74.7694 71.1617 77.7387 64.2265 78.9527 C 59.1132 79.8824 47.9368 76.8512 47.119 76.9568 "/>
  <g id="Layer_2_24_">
    <path id="ID0.39854341372847557_11_" fill="#FAA51F" stroke="#8E5322" stroke-width="1.4" stroke-linecap="round" stroke-linejoin="round" d="M 40.3 82.5 "/>
  </g>
  <path id="ID0.46792364912107587_11_" fill="#000000" stroke="#000000" stroke-width="2" stroke-linecap="round" stroke-linejoin="round" d="M 52.4 76.8 C 50.5 83.2 49.2 93.1 38.9 90 C 28.5 87 32 78.6 33.9 72.2 C 35.8 65.8 39.9 65.1 45.7 66.8 C 51.5 68.6 54.3 70.4 52.4 76.8 Z "/>
  <path id="ID0.38032895559445024_11_" fill="#101010" d="M 51.2 79.3 C 50 83.3 48.3 87.1 46.4 85.5 C 42.3 82.2 42.3 80.7 43.5 76.6 C 44.7 72.6 47.3 71.6 50.7 73.1 C 52.9 74.1 52.4 75.2 51.2 79.3 Z " stroke-width="1"/>
  <g id="ID0.16171270422637463_11_">
    <path id="ID0.007584026083350182_11_" fill="#000000" stroke="#000000" stroke-width="1.999999966515294" stroke-linecap="round" stroke-linejoin="round" d="M 50.5673 81.4797 C 50.5673 81.4797 50.0653 83.9608 50.4169 85.6737 C 51.16 88.6805 52.7258 91.6041 55.0959 95.1583 C 57.1804 98.3684 61.3669 91.2296 64.4874 97.9974 C 65.3544 99.9514 57.0903 104.1401 54.9025 104.4455 C 52.9094 104.7055 52.114 104.3777 51.4645 102.4756 C 49.0257 95.5487 38.3254 87.9834 38.3254 87.9834 "/>
    <path id="ID0.31672530295327306_11_" fill="#FAA51F" stroke="#000000" stroke-width="1.999999966515294" stroke-linecap="round" stroke-linejoin="round" d="M 57.6085 95.8039 C 57.6085 95.8039 56.3653 96.1969 55.1611 97.1969 "/>
  </g>
  <path id="ID0.2591130444779992_11_" fill="#000000" d="M 50.7501 19.136 C 49.2018 19.0236 46.1238 18.8971 44.4164 19.0186 C 39.7853 19.2895 35.5331 21.0153 35.5331 21.0153 L 22.8007 12.9544 L 25.2598 31.2168 C 25.8165 30.3982 15.2203 43.7151 22.18 54.6055 C 29.1771 65.6925 43.8229 70.4369 62.0386 66.6634 C 80.1373 62.8103 84.3528 52.337 83.0902 46.775 C 81.8464 41.3112 74.9421 39.2665 74.9421 39.2665 C 74.9421 39.2665 74.8255 34.9115 71.5982 29.7235 C 69.6666 26.5284 63.4127 22.0185 63.4127 22.0185 L 60.4759 10.8711 L 53.3698 17.9247 L 50.7501 19.136 Z " stroke-width="1.0000000181761477"/>
  <path id="ID0.3588979784399271_11_" fill="#101010" d="M 74.0019 39.1401 L 71.5883 37.1565 L 62.8359 39.8409 C 62.8359 39.8409 62.845 43.0967 58.6583 44.0974 C 54.4716 45.0981 47.3474 43.5024 47.3474 43.5024 L 40.2698 45.3589 C 40.2698 45.3589 32.1538 44.97 31.8399 51.3412 C 31.3057 62.4369 40.6516 67.6814 49.1465 67.3874 C 54.6382 67.3598 58.156 66.5882 61.9872 65.8588 C 79.1784 62.5857 83.9038 52.1171 82.3465 46.6112 C 81.1026 41.1475 74.4883 39.5565 74.4883 39.5565 L 74.0019 39.1401 Z " stroke-width="1.0000000181761477"/>
  <path id="ID0.2727069961838424_11_" fill="none" stroke="#000000" stroke-width="2.0000000363522954" stroke-linecap="round" stroke-linejoin="round" d="M 78.9927 44.5013 C 78.9927 44.5013 83.2776 43.4819 85.4248 42.4623 C 87.9649 41.3679 89.5696 39.6372 89.5696 39.6372 "/>
  <path id="ID0.5861211125738919_11_" fill="none" stroke="#000000" stroke-width="2.0000000363522954" stroke-linecap="round" stroke-linejoin="round" d="M 79.5863 50.2924 C 79.5863 50.2924 82.2853 51.1019 85.1107 50.9712 C 87.8566 50.9573 89.6061 50.5224 89.6061 50.5224 "/>
  <path id="ID0.4793355236761272_11_" fill="none" stroke="#000000" stroke-width="2.0000000363522954" stroke-linecap="round" stroke-linejoin="round" d="M 33.2317 19.6211 L 38.4939 23.2 "/>
  <path id="ID0.9024141579866409_11_" fill="none" stroke="#000000" stroke-width="2.0000000363522954" stroke-linecap="round" stroke-linejoin="round" d="M 10.4344 50.1233 C 10.4344 50.1233 14.4104 50.6896 16.2348 50.6476 C 18.0591 50.6057 21.5722 50.344 21.5722 50.344 "/>
  <path id="ID0.16030752705410123_11_" fill="none" stroke="#000000" stroke-width="2.0000000363522954" stroke-linecap="round" stroke-linejoin="round" d="M 21.6473 46.4614 C 21.6473 46.4614 19.4489 44.5387 16.0343 42.6439 C 12.1706 40.5292 10.0188 39.9209 10.0188 39.9209 "/>
  <path id="ID0.40023312577977777_11_" fill="#FFFFFF" stroke="black" stroke-width="2.0000000363522954" stroke-linecap="round" stroke-linejoin="round" d="M 69.3809 29.7903 C 72.2247 34.0333 72.374 39.0947 69.7496 40.8159 C 67.0457 42.6541 62.5739 40.5534 59.7114 36.2121 C 56.8677 31.9692 56.7184 26.9078 59.3427 25.1865 C 61.9671 23.4653 66.5372 25.5473 69.3809 29.7903 Z "/>
  <path id="ID0.43813491938635707_11_" fill="#414142" d="M 68.2396 36.5112 C 68.5249 37.4748 68.1038 38.4712 67.0606 38.8734 C 66.1952 39.1399 65.1802 38.6206 64.8575 37.4605 C 64.5722 36.4969 64.9933 35.5005 66.0365 35.0983 C 66.9206 34.93 67.8561 35.5662 68.2396 36.5112 " stroke-width="1.0000000181761477"/>
  <path id="ID0.4253597157076001_11_" fill="#FFFFFF" stroke="black" stroke-width="2.0000000363522954" stroke-linecap="round" stroke-linejoin="round" d="M 46.2068 33.1845 C 49.0506 37.4275 48.8257 42.662 45.668 44.7901 C 42.5103 46.9183 37.6034 45.2058 34.7409 40.8646 C 31.8972 36.6216 32.1221 31.3872 35.2798 29.259 C 38.4375 27.1309 43.3631 28.9415 46.2068 33.1845 Z "/>
  <path id="ID0.814307457767427_11_" fill="#414142" d="M 44.0769 41.1563 C 44.0675 42.176 43.3143 43.032 42.4115 43.1021 C 41.3917 43.0927 40.7322 42.3021 40.7229 41.1841 C 40.7324 40.1643 41.4856 39.3083 42.3884 39.2382 C 43.3099 39.2664 44.0677 40.0383 44.0769 41.1563 " stroke-width="1.0000000181761477"/>
  <path id="ID0.5240494590252638_11_" fill="#000000" stroke="#000000" stroke-width="2.0000000363522954" stroke-linecap="round" stroke-linejoin="round" d="M 57.3346 43.0261 C 59.0233 42.8063 61.3108 41.4546 61.6662 43.3211 C 61.7176 44.1257 60.1175 47.4842 58.2932 47.5262 C 56.2723 47.6055 52.7642 45.2196 52.8766 43.6712 C 52.9094 42.2398 55.8423 43.2084 57.3346 43.0261 Z "/>
  <path id="ID0.046259244438260794_11_" fill="#FFFFFF" stroke="#000000" stroke-width="2.0000000363522954" stroke-linecap="round" stroke-linejoin="round" d="M 48.366 58.4761 C 48.366 58.4761 50.9339 60.7357 56.3182 59.6088 "/>
  <path id="ID0.1790580078959465_14_" fill="#000000" stroke="#000000" stroke-width="1.999999994989782" stroke-linecap="round" stroke-linejoin="round" d="M 36.0463 69.5863 C 35.3367 68.8746 29.5248 69.0205 28.9064 68.5129 C 22.3718 62.7615 17.7353 62.5785 16.7975 63.8787 C 14.7455 66.8518 16.6043 70.5767 22.8261 73.872 C 27.4027 76.3346 38.969 76.9012 39.7143 77.2542 "/>
  <g id="ID0.16171270422637463_11_">
    <path id="ID0.007584026083350182_11_" fill="#000000" stroke="#000000" stroke-width="1.9999999105870978" stroke-linecap="round" stroke-linejoin="round" d="M 31.3474 81.1134 C 31.3474 81.1134 29.9381 83.3471 29.2773 84.703 C 27.7099 87.5979 26.1169 90.2267 23.2472 93.3913 C 20.7109 96.2579 17.6261 88.5785 13.5391 94.8104 C 12.3927 96.6147 19.9465 101.9794 22.0652 102.605 C 23.9979 103.1569 24.833 102.9504 25.7566 101.1652 C 29.193 94.6751 40.8944 88.7754 40.8944 88.7754 "/>
    <path id="ID0.31672530295327306_11_" fill="#FAA51F" stroke="#000000" stroke-width="1.9999999105870978" stroke-linecap="round" stroke-linejoin="round" d="M 20.6668 93.6583 C 20.6668 93.6583 21.8382 94.2308 22.8813 95.3978 "/>
  </g>
  <g id="ID0.9516936047002673">
    <path id="ID0.40227043256163597_11_" fill="none" stroke="#000000" stroke-width="2.0000000294938367" stroke-linecap="round" stroke-linejoin="round" d="M 27.7494 83.5275 C 25.2501 83.4677 22.321 82.9775 19.4858 81.0691 C 13.3042 76.8801 10.415 68.8687 6.8096 71.5632 C 3.2041 74.2578 5.2643 87.6509 17.9919 89.9959 C 22.432 90.8824 26.2686 90.234 29.2797 89.8059 C 30.0818 89.725 36.9648 88.0092 38.7576 84.1509 C 40.5504 80.2927 38.7838 79.7103 37.9122 79.3493 C 37.064 78.8489 31.3065 83.6926 27.7494 83.5275 Z "/>
    <path id="ID0.8535828334279358_11_" fill="#000000" d="M 27.7494 83.5275 C 25.2501 83.4677 22.321 82.9775 19.4858 81.0691 C 13.3042 76.8801 10.415 68.8687 6.8096 71.5632 C 3.2041 74.2578 5.2643 87.6509 17.9919 89.9959 C 22.432 90.8824 26.2686 90.234 29.2797 89.8059 C 30.0818 89.725 36.9648 88.0092 38.7576 84.1509 C 40.5504 80.2927 38.7838 79.7103 37.9122 79.3493 C 37.064 78.8489 31.3065 83.6926 27.7494 83.5275 Z " stroke-width="1.0000000147469184"/>
    <path id="ID0.914295740891248_11_" fill="#101010" d="M 6.9143 71.3657 C 5.0304 72.3409 4.5505 77.3508 5.9897 80.7462 C 7.5103 84.0836 9.7642 86.038 11.2165 87.2131 C 12.9364 88.0745 10.1257 84.3062 11.9174 82.1684 C 13.709 80.0307 17.9288 80.0916 17.9288 80.0916 C 17.9288 80.0916 14.1417 76.1599 12.1321 74.0312 C 10.4014 71.9492 9.0538 70.5766 6.9143 71.3657 Z " stroke-width="1.0000000147469184"/>
  </g>
  <path id="ID0.8822423233650625" fill="#000000" stroke="none" d="M 31.1448 28.0236 L 46.9182 24.7393 L 49.7682 38.4268 L 33.9948 41.7111 L 31.1448 28.0236 Z " stroke-width="1.2833772060694923"/>
  <path id="ID0.8822423233650625" fill="#000000" stroke="none" d="M 52.8948 24.2736 L 65.4953 24.7581 L 72.2451 35.5335 L 57.7473 37.0401 L 52.8948 24.2736 Z " stroke-width="1.2833772060694923"/>
</svg>