<svg xmlns="http://www.w3.org/2000/svg" xmlns:xlink="http://www.w3.org/1999/xlink" version="1.1" width="503.485107421875" height="261.4620361328125" viewBox="0.0821390151977539 0.15618419647216797 503.485107421875 261.4620361328125">
  <!-- Exported by Scratch - http://scratch.mit.edu/ -->
  <path id="ID0.029546690173447132" fill="#191919" stroke="#191919" stroke-width="7.999999948764584" stroke-linecap="round" d="M 175.9287 7.1856 C 171.7683 7.1788 164.1699 5.6014 163.7406 9.8712 C 160.8698 21.6156 169.3234 33.4792 167.9923 45.6956 C 163.7474 84.3642 141.7301 122.246 145.2558 160.3038 C 146.3137 171.6985 174.9671 178.6464 178.78 167.8619 C 192.0774 130.2302 181.3721 86.4507 185.0192 45.9847 C 186.1334 33.6927 194.047 21.7853 190.7646 9.916 C 190.0821 4.8618 181.6895 7.1955 175.9287 7.1856 Z "/>
  <path id="ID0.968818121124059" fill="#000000" stroke="#000000" stroke-width="13" stroke-linecap="round" d="M 445.8 127 C 416.801 152.743 401.205 200.673 364 207 C 299.718 218.094 230.567 200.441 172 174 C 128.38 154.302 103.24 106.231 67.8 75 C 56.99 65.475 44.885 57.024 31.8 51 C 25.27 48 12.837 36.51 11 48 C 3.296 94.22 8.012 141.55 8 188 L 12 252 L 337 254 C 444.556 254.46 436.505 256.268 486.8 254 C 499.374 253.433 494.065 256.615 494.8 246 C 497.743 203.542 497.902 161.148 494.8 119 C 494.134 108.402 489.889 112.942 486.8 112 C 480.635 110.814 474.074 111.075 468.8 113 C 460.383 116.087 453.05 120.564 445.8 127 Z "/>
</svg>