<svg xmlns="http://www.w3.org/2000/svg" xmlns:xlink="http://www.w3.org/1999/xlink" version="1.1" width="503.0804138183594" height="260.44451904296875" viewBox="-0.40357494354248047 0.25618410110473633 503.0804138183594 260.44451904296875">
  <!-- Exported by Scratch - http://scratch.mit.edu/ -->
  <path id="ID0.029546690173447132" fill="#191919" stroke="#191919" stroke-width="7.999999948764584" stroke-linecap="round" d="M 327.8213 7.2856 C 331.9817 7.2788 339.5801 5.7014 340.0094 9.9712 C 342.8802 21.7156 334.4266 33.5792 335.7577 45.7956 C 340.0026 84.4642 362.0199 122.346 358.4942 160.4038 C 357.4363 171.7985 328.7829 178.7464 324.97 167.9619 C 311.6726 130.3302 322.3779 86.5507 318.7308 46.0847 C 317.6166 33.7927 309.703 21.8853 312.9854 10.016 C 313.6679 4.9618 322.0605 7.2955 327.8213 7.2856 Z "/>
  <path id="ID0.968818121124059" fill="#000000" stroke="#000000" stroke-width="13" stroke-linecap="round" d="M 58 127 C 121.421 143.447 185.606 164.443 250 170 C 287.583 173.244 328.748 170.232 362 153 C 394.273 136.766 410.163 99.312 436 75 C 446.491 65.126 459.288 57.834 472 51 C 477.786 47.837 485.563 43.438 493 45 C 496.117 45.839 493.628 52.226 494 56 C 495.311 70.961 495.994 86.284 496 101 C 495.939 146.679 497.37 192.785 493 238 C 491.907 249.304 500.375 248.064 481 249 C 403.502 252.743 325.935 249.315 248 250 C 171.069 250.677 92.999 255.197 17 254 C -2 253.701 9.772 256.635 9 246 C 5.91 203.462 5.898 161.148 9 119 C 9.666 108.402 13.911 112.942 17 112 C 23.165 110.814 29.726 111.075 35 113 C 43.417 116.087 42.145 122.888 58 127 Z "/>
</svg>