<svg xmlns="http://www.w3.org/2000/svg" xmlns:xlink="http://www.w3.org/1999/xlink" version="1.1" width="501.8365173339844" height="277.38519287109375" viewBox="-0.40357494354248047 -1.698652744293213 501.8365173339844 277.38519287109375">
  <!-- Exported by Scratch - http://scratch.mit.edu/ -->
  <path id="ID0.968818121124059" fill="#000000" stroke="#000000" stroke-width="13" stroke-linecap="round" d="M 58 142 C 121.421 158.447 185.606 179.443 250 185 C 287.583 188.244 328.748 185.232 362 168 C 394.273 151.766 410.163 114.312 436 90 C 446.491 80.126 459.288 72.834 472 66 C 477.786 62.837 486.74 57.447 493 60 C 497.152 61.743 493.381 57.449 493 73 L 488 266 L 454 268 C 442.757 269.339 455.985 268.161 440 268 C 376.061 267.356 312.407 264.787 248 265 C 171.066 265.252 92.999 270.197 17 269 C -2 268.701 9.772 271.635 9 261 C 5.91 218.462 5.898 176.148 9 134 C 9.666 123.402 13.911 127.942 17 127 C 23.165 125.814 29.726 126.075 35 128 C 43.417 131.087 42.145 137.888 58 142 Z "/>
  <path id="ID0.029546690173447132" fill="#000000" stroke="#000000" stroke-width="8" stroke-linecap="round" d="M 330 6 C 347.187 6.471 364.907 6.054 382 11 C 386.281 12.24 382.263 18.128 379 20 C 365.952 27.486 348.588 27.471 336 36 C 332.687 38.434 350.465 40.226 347 41 C 334.737 44.348 317.953 46.81 304 45 C 300.49 44.265 314.707 38.47 312 36 C 301.457 26.214 285.364 24.019 274 16 C 271.153 13.992 266.255 7.916 271 7 C 289.914 3.366 310.159 5.136 330 6 Z "/>
</svg>