<svg xmlns="http://www.w3.org/2000/svg" xmlns:xlink="http://www.w3.org/1999/xlink" version="1.1" width="58.02175310201334" height="16.011503964134924" viewBox="0.9471493813053414 0.1402034017101571 58.02175310201334 16.011503964134924">
  <!-- Exported by Scratch - http://scratch.mit.edu/ -->
  <path id="ID0.5443468582816422" fill="#000000" stroke="#000000" stroke-width="1.3442560785934845" d="M 29.9523 4.7546 C 37.7296 4.7546 44.776 5.3265 49.8793 6.2504 C 54.9826 7.1743 57.936 8.5083 58.1408 9.8582 C 58.4062 11.5535 57.9239 13.7739 52.0422 14.901 C 46.195 15.8976 37.2333 15.0389 29.9523 14.9617 C 22.7987 14.8858 13.6788 15.4053 7.7692 14.3846 C 2.4648 13.375 1.4806 11.4233 1.7637 9.8582 C 2.0048 8.5124 4.9219 7.1743 10.0252 6.2504 C 15.1285 5.3265 22.1749 4.7546 29.9523 4.7546 Z "/>
  <path id="ID0.37750169076025486" fill="#FFFFFF" stroke="#000000" stroke-width="0.8471974517271978" d="M 42.8166 2.446 C 44.1559 2.446 45.3692 2.9841 46.2478 3.8541 C 47.1264 4.7235 47.6704 5.9247 47.6704 7.2499 C 47.6704 8.575 47.1264 9.7763 46.2478 10.6457 C 45.3692 11.5157 44.1559 12.0538 42.8166 12.0538 C 41.4774 12.0538 40.2641 11.5157 39.3854 10.6457 C 38.5068 9.7763 37.9628 8.575 37.9628 7.2499 C 37.9628 5.9247 38.5068 4.7235 39.3854 3.8541 C 40.2641 2.9841 41.4774 2.446 42.8166 2.446 Z "/>
  <path id="ID0.37750169076025486" fill="#FFFFFF" stroke="#000000" stroke-width="1.1104878126595163" d="M 32.4339 0.9129 C 34.4221 0.911 36.224 1.5832 37.5294 2.6714 C 38.8349 3.7589 39.6439 5.2625 39.6456 6.922 C 39.6472 8.5816 38.841 10.0867 37.5377 11.1768 C 36.2343 12.2675 34.4337 12.9432 32.4455 12.9451 C 30.4573 12.9471 28.6554 12.2749 27.3499 11.1867 C 26.0445 10.0991 25.2354 8.5955 25.2338 6.936 C 25.2322 5.2765 26.0383 3.7713 27.3417 2.6812 C 28.645 1.5905 30.4456 0.9148 32.4339 0.9129 Z "/>
  <path id="ID0.234124637208879" fill="#000000" stroke="black" stroke-width="1.178983154000629" stroke-linecap="round" d="M 42.8693 3.0784 C 43.2323 3.0784 43.5609 3.5273 43.7989 4.2533 C 44.0372 4.9792 44.1845 5.9814 44.1845 7.087 C 44.1845 8.1927 44.0372 9.1949 43.7989 9.9208 C 43.5609 10.6467 43.2323 11.0957 42.8693 11.0957 C 42.5062 11.0957 42.1776 10.6467 41.9397 9.9208 C 41.7013 9.1949 41.554 8.1927 41.554 7.087 C 41.554 5.9814 41.7013 4.9792 41.9397 4.2533 C 42.1776 3.5273 42.5062 3.0784 42.8693 3.0784 Z "/>
  <path id="ID0.234124637208879" fill="#000000" stroke="black" stroke-width="1.5453851515738875" stroke-linecap="round" d="M 32.0253 1.3243 C 32.5642 1.3237 33.0526 1.8855 33.4068 2.7943 C 33.7615 3.7031 33.9814 4.9579 33.9828 6.3426 C 33.9841 7.7272 33.7666 8.9825 33.4136 9.892 C 33.0612 10.8014 32.5739 11.3641 32.035 11.3647 C 31.4961 11.3652 31.0077 10.8034 30.6535 9.8946 C 30.2988 8.9859 30.0789 7.731 30.0775 6.3464 C 30.0762 4.9617 30.2937 3.7064 30.6467 2.797 C 30.999 1.8875 31.4864 1.3248 32.0253 1.3243 Z "/>
</svg>