<svg xmlns="http://www.w3.org/2000/svg" xmlns:xlink="http://www.w3.org/1999/xlink" version="1.1" width="97.26081085205078" height="96.00313568115234" viewBox="-0.18991553783416748 0.014772534370422363 97.26081085205078 96.00313568115234">
  <!-- Exported by Scratch - http://scratch.mit.edu/ -->
  <path id="ID0.547056726180017" fill="#000000" stroke="none" stroke-linecap="round" d="M 41 1.25 C 43.888 0.504 47.047 0.304 49.75 0.75 C 56.462 1.861 62.939 3.621 69.5 6 C 71.802 6.835 73.843 8.083 75.5 10.25 C 82.127 18.917 89.457 27.143 93.5 37 C 96.325 44.056 97.662 52.295 95.5 59.5 C 92.07 70.929 85.063 81.346 77.25 90.5 C 74.467 93.852 69.472 95.723 65 95.5 C 49.226 94.711 33.787 91.189 18.25 87.5 C 14.366 86.578 13.936 85.002 12.75 83 C 8.189 75.958 4.197 68.547 1.25 60.75 C 0.208 57.903 0.019 54.661 0.75 51.5 C 3.741 39.433 7.272 27.374 12.25 15.75 C 13.495 12.844 16.3 11.074 19 9.75 C 26.196 6.224 33.557 3.528 41 1.25 Z " stroke-width="1"/>
</svg>