<svg xmlns="http://www.w3.org/2000/svg" xmlns:xlink="http://www.w3.org/1999/xlink" version="1.1" width="496.0672607421875" height="278.242919921875" viewBox="0.5 -1.698652744293213 496.0672607421875 278.242919921875">
  <!-- Exported by Scratch - http://scratch.mit.edu/ -->
  <path id="ID0.968818121124059" fill="#000000" stroke="#000000" stroke-width="13" stroke-linecap="round" d="M 438.8 142 C 409.801 167.743 394.205 215.673 357 222 C 292.718 233.094 223.567 215.441 165 189 C 121.38 169.302 96.24 121.231 60.8 90 C 49.99 80.475 37.775 72.26 24.8 66 L 7 64 L 12 269 L 330 269 C 435.427 269.159 429.505 271.268 479.8 269 C 492.374 268.433 487.065 271.615 487.8 261 C 490.743 218.542 490.902 176.148 487.8 134 C 487.134 123.402 482.889 127.942 479.8 127 C 473.635 125.814 467.074 126.075 461.8 128 C 453.383 131.087 446.05 135.564 438.8 142 Z "/>
  <path id="ID0.029546690173447132" fill="#000000" stroke="#000000" stroke-width="8" stroke-linecap="round" d="M 166.8 6 C 149.613 6.471 131.893 6.054 114.8 11 C 110.519 12.24 114.537 18.128 117.8 20 C 130.848 27.486 148.212 27.471 160.8 36 C 164.113 38.434 146.335 40.226 149.8 41 C 162.063 44.348 178.847 46.81 192.8 45 C 196.31 44.265 182.093 38.47 184.8 36 C 195.343 26.214 211.436 24.019 222.8 16 C 225.647 13.992 230.545 7.916 225.8 7 C 206.886 3.366 186.641 5.136 166.8 6 Z "/>
</svg>