<svg xmlns="http://www.w3.org/2000/svg" xmlns:xlink="http://www.w3.org/1999/xlink" version="1.1" width="45.21350267476725" height="32.74600008077311" viewBox="0.5295916649357125 0.4792157265201852 45.21350267476725 32.74600008077311">
  <!-- Exported by Scratch - http://scratch.mit.edu/ -->
  <path id="ID0.5443468582816422" fill="#000000" stroke="#000000" stroke-width="1.2374464515622894" d="M 26.275 1.2713 C 30.3704 1.0533 34.5201 3.2612 37.0558 6.1486 C 39.9463 9.4341 41.3435 13.9149 41.6003 17.9114 C 41.867 21.9836 41.9008 27.2338 38.0841 29.7029 C 33.9111 32.9855 27.1972 32.3676 21.5149 32.371 C 16.0343 32.3756 9.5857 33.1015 5.211 30.1332 C 1.661 27.3962 0.9677 22.1001 1.4295 17.9114 C 1.8952 13.7232 4.3459 8.9171 8.296 6.1486 C 13.2565 2.6651 19.9731 1.0538 26.275 1.2713 Z "/>
  <path id="ID0.37750169076025486" fill="#FFFFFF" stroke="#000000" stroke-width="0.8471974517271978" d="M 40.1166 11.146 C 41.4559 11.146 42.6692 11.6841 43.5478 12.5541 C 44.4264 13.4235 44.9704 14.6247 44.9704 15.9499 C 44.9704 17.275 44.4264 18.4763 43.5478 19.3457 C 42.6692 20.2157 41.4559 20.7538 40.1166 20.7538 C 38.7774 20.7538 37.5641 20.2157 36.6854 19.3457 C 35.8068 18.4763 35.2628 17.275 35.2628 15.9499 C 35.2628 14.6247 35.8068 13.4235 36.6854 12.5541 C 37.5641 11.6841 38.7774 11.146 40.1166 11.146 Z "/>
  <path id="ID0.37750169076025486" fill="#FFFFFF" stroke="#000000" stroke-width="1.1104878126595163" d="M 29.7339 9.6129 C 31.7221 9.611 33.524 10.2832 34.8294 11.3714 C 36.1349 12.4589 36.9439 13.9625 36.9456 15.622 C 36.9472 17.2816 36.141 18.7867 34.8377 19.8768 C 33.5343 20.9675 31.7337 21.6432 29.7455 21.6451 C 27.7573 21.6471 25.9554 20.9749 24.6499 19.8867 C 23.3445 18.7991 22.5354 17.2955 22.5338 15.636 C 22.5322 13.9765 23.3383 12.4713 24.6417 11.3812 C 25.945 10.2905 27.7456 9.6148 29.7339 9.6129 Z "/>
  <path id="ID0.234124637208879" fill="#000000" stroke="black" stroke-width="1.178983154000629" stroke-linecap="round" d="M 40.1693 11.7284 C 40.5323 11.7284 40.8609 12.1773 41.0989 12.9033 C 41.3372 13.6292 41.4845 14.6314 41.4845 15.737 C 41.4845 16.8427 41.3372 17.8449 41.0989 18.5708 C 40.8609 19.2967 40.5323 19.7457 40.1693 19.7457 C 39.8062 19.7457 39.4776 19.2967 39.2397 18.5708 C 39.0013 17.8449 38.854 16.8427 38.854 15.737 C 38.854 14.6314 39.0013 13.6292 39.2397 12.9033 C 39.4776 12.1773 39.8062 11.7284 40.1693 11.7284 Z "/>
  <path id="ID0.234124637208879" fill="#000000" stroke="black" stroke-width="1.5453851515738875" stroke-linecap="round" d="M 29.3753 10.1743 C 29.9142 10.1737 30.4026 10.7355 30.7568 11.6443 C 31.1115 12.5531 31.3314 13.8079 31.3328 15.1926 C 31.3341 16.5772 31.1166 17.8325 30.7636 18.742 C 30.4112 19.6514 29.9239 20.2141 29.385 20.2147 C 28.8461 20.2152 28.3577 19.6534 28.0035 18.7446 C 27.6488 17.8359 27.4289 16.581 27.4275 15.1964 C 27.4262 13.8117 27.6437 12.5564 27.9967 11.647 C 28.349 10.7375 28.8364 10.1748 29.3753 10.1743 Z "/>
</svg>