<svg xmlns="http://www.w3.org/2000/svg" xmlns:xlink="http://www.w3.org/1999/xlink" version="1.1" width="41.02249986344955" height="41.02250367814682" viewBox="-0.4612506946642284 0.08874931725670054 41.02249986344955 41.02250367814682">
  <defs>
    <radialGradient id="grad_1" cx="0.4797" cy="0.48979999999999996" r="0.6763899999999999">
      <stop offset="0" stop-color="#EAEAEA" stop-opacity="1"/>
      <stop offset="1" stop-color="#EAEAEA" stop-opacity="0"/>
    </radialGradient>
  <radialGradient id="grad_1-,0,0,1,-222.55,-142.4" cx="19.2461" cy="20.1961" r="26.785" gradientUnits="userSpaceOnUse">
      <stop offset="0" stop-color="#EAEAEA" stop-opacity="1"/>
      <stop offset="1" stop-color="#EAEAEA" stop-opacity="0"/>
    </radialGradient></defs>
  <!-- Exported by Scratch - http://scratch.mit.edu/ -->
  <path id="ID0.7450102074071765" fill="url(#grad_1-,0,0,1,-222.55,-142.4)" stroke="none" d="M 20.05 0.8 C 25.513 0.8 30.463 3.019 34.047 6.603 C 37.631 10.187 39.85 15.137 39.85 20.6 C 39.85 26.063 37.631 31.013 34.047 34.597 C 30.463 38.181 25.513 40.4 20.05 40.4 C 14.587 40.4 9.637 38.181 6.053 34.597 C 2.469 31.013 0.25 26.063 0.25 20.6 C 0.25 15.137 2.469 10.187 6.053 6.603 C 9.637 3.019 14.587 0.8 20.05 0.8 Z " stroke-width="1"/>
  <path id="ID0.8790538497269154" fill="#F6F6F6" stroke="#EAEAEA" stroke-width="1.4225013893284568" d="M 19.9166 8.7689 C 22.7258 8.7689 25.2715 10.2375 27.1149 12.61 C 28.9583 14.9826 30.0994 18.259 30.0994 21.8746 C 30.0994 25.4902 28.9583 28.7666 27.1149 31.1391 C 25.2715 33.5117 22.7258 34.9803 19.9166 34.9803 C 17.1073 34.9803 14.5616 33.5117 12.7182 31.1391 C 10.8748 28.7666 9.7337 25.4902 9.7337 21.8746 C 9.7337 18.259 10.8748 14.9826 12.7182 12.61 C 14.5616 10.2375 17.1073 8.7689 19.9166 8.7689 Z "/>
</svg>