<svg xmlns="http://www.w3.org/2000/svg" xmlns:xlink="http://www.w3.org/1999/xlink" version="1.1" width="414.1601256457305" height="193.94677725705864" viewBox="-4.276024775074727 50.8622475103867 414.1601256457305 193.94677725705864">
  <!-- Exported by Scratch - http://scratch.mit.edu/ -->
  <path id="ID0.597796970512718" fill="none" stroke="#272727" stroke-width="14.999999913308633" stroke-linecap="round" d="M 380.2314 210.0092 C 380.2314 210.0092 369.9749 189.3929 364.0383 180.5238 C 358.2832 172.8504 351.0103 166.5471 344.6467 159.4979 C 337.2487 151.4576 329.1433 143.8875 320.5277 136.9973 C 308.6595 127.5836 298.6511 118.3081 286.1479 111.5582 C 276.7061 106.156 266.5601 103.233 255.4407 100.9552 C 238.8107 97.6881 226.3629 97.4913 211.7957 97.3051 C 199.0208 97.2449 187.5808 94.7451 175.9986 97.0291 C 138.5308 113.1091 124.7816 129.4522 97.6057 142.608 C 86.4347 147.9992 63.999 153.0325 63.999 153.0325 "/>
  <path id="ID0.597796970512718" fill="none" stroke="#272727" stroke-width="14.999999913308633" stroke-linecap="round" d="M 387.9976 212.9777 C 387.9976 212.9777 376.8651 183.5558 367.984 170.5746 C 359.6349 159.2791 352.3467 152.7021 343.9725 144.99 C 337.5795 140.0953 333.1801 139.6778 323.9766 133.0028 C 310.6011 123.4871 297.909 112.3162 283.13 105.4114 C 273.0077 100.7344 262.0814 99.7695 251.974 96.9605 C 242.2872 94.3147 239.0978 89.5776 231.9596 89.1352 C 214.4906 88.0543 196.8216 90.1604 179.9644 94.5781 C 167.2606 97.6985 155.9084 106.2986 143.9842 113.0045 C 127.9143 121.7721 113.732 135.739 95.9635 140.9952 C 76.4663 146.7333 37.5607 145.0046 37.5607 145.0046 "/>
  <path id="ID0.597796970512718" fill="none" stroke="#272727" stroke-width="14.999999707998136" stroke-linecap="round" d="M 329.8432 128.4996 C 329.8432 128.4996 343.2383 126.3918 349.8777 124.6763 C 355.4242 122.4862 359.1305 121.2229 365.9477 116.8179 C 376.7237 108.8217 385.7653 98.1491 394.2079 87.4662 C 398.3602 82.0166 402.3841 67.5376 402.3841 67.5376 "/>
  <path id="ID0.597796970512718" fill="none" stroke="#272727" stroke-width="14.999999707998136" stroke-linecap="round" d="M 333.8937 142.5358 C 333.8937 142.5358 344.5054 133.5571 349.999 130.6775 C 355.185 126.2811 360.0237 123.9578 365.9477 119.5679 C 376.3882 111.0627 385.7653 100.8991 394.2079 90.2162 C 398.3602 84.7666 402.3841 70.2876 402.3841 70.2876 "/>
  <path id="ID0.08594858646392822" fill="none" stroke="#272727" stroke-width="5.999999790903299" stroke-linecap="round" d="M 261.8522 106.8055 L 233.327 106.0044 "/>
  <path id="ID0.329490824136883" fill="none" stroke="#272727" stroke-width="10.999999785865299" stroke-linecap="round" d="M 396.6861 101.7798 L 380.5984 111.6382 "/>
  <path id="ID0.597796970512718" fill="none" stroke="#272727" stroke-width="14.999999676586087" stroke-linecap="round" d="M 147.9989 226.5635 C 147.9989 226.5635 143.0082 233.6669 135.9626 234.5719 C 126.72 235.697 116.5811 238.2155 108.0141 232.9749 C 100.6854 228.5334 96.4056 219.4533 94.5041 211.0464 C 92.5757 202.1996 98.2362 192.2957 99.9847 182.6058 C 99.9523 173.0155 96.7826 163.2809 99.6429 153.3978 C 101.6202 146.5296 111.3045 135.2868 111.3045 135.2868 "/>
  <path id="ID0.597796970512718" fill="none" stroke="#272727" stroke-width="14.999999676586087" stroke-linecap="round" d="M 155.9584 214.5956 C 155.9584 214.5956 142.5002 234.8839 131.9542 237.006 C 121.826 239.0236 111.5153 230.5085 103.9686 225.0048 C 100.2492 222.2459 99.4425 217.3331 97.5187 212.6578 C 95.3085 206.7344 97.291 200.5914 97.5 193.2211 C 98.4984 179.7918 101.4653 166.2853 105.3929 153.2478 C 107.4849 146.7238 117.0545 135.1368 117.0545 135.1368 "/>
  <path id="ID0.7485630684532225" fill="none" stroke="#2B2B2B" stroke-width="4" stroke-linecap="round" d="M 56 153 C 56 153 33.185 149.976 24 145 C 15.119 139.412 4.814 132.524 4 122.6 C 2.464 103.522 7.29 81.3 20 66.6 C 27.726 57.179 44.319 59.617 56 62.6 C 63.044 64.409 68.301 71.784 69.6 78.6 C 71.825 87.348 65.6 105 65.6 105 "/>
  <path id="ID0.7485630684532225" fill="none" stroke="#2B2B2B" stroke-width="7" stroke-linecap="round" d="M 44 153 C 44 153 29.048 146.382 24 141 C 16.771 134.671 10.637 126.835 8 118.6 C 5 109.095 2.854 98.319 5.6 89 C 8.562 79.195 24 65 24 65 "/>
  <path id="ID0.7485630684532225" fill="none" stroke="#2B2B2B" stroke-width="5" stroke-linecap="round" d="M 43.85 144 C 43.85 144 27.095 142.61 19.85 138.4 C 14.291 134.56 10.11 129.84 7.85 122.4 C 4.128 108.276 -0.367 90.191 7.85 78.4 C 17.202 64.906 36.697 57.776 51.85 58.4 C 61.688 59.188 69.932 70.417 71.85 80 C 73.666 89.202 68.911 100.627 61.45 106.4 C 54.108 112.052 42.231 111.171 33.45 108 C 28.608 106.41 29.45 94.4 29.45 94.4 "/>
</svg>