<svg xmlns="http://www.w3.org/2000/svg" xmlns:xlink="http://www.w3.org/1999/xlink" version="1.1" width="91.32853698730469" height="95.6891098022461" viewBox="0.5714653730392456 1.2999999523162842 91.32853698730469 95.6891098022461">
  <!-- Exported by Scratch - http://scratch.mit.edu/ -->
  <path id="ID0.40227043256163597_3_" fill="none" stroke="#000000" stroke-width="2" stroke-linecap="round" stroke-linejoin="round" d="M 24.5 75.9 C 22 75.9 19 75.7 16.1 73.9 C 9.7 70 6.3 62.2 2.9 65.1 C -0.5 68 2.3 81.2 15.1 82.8 C 19.6 83.4 23.4 82.6 26.4 81.9 C 27.2 81.7 33.9 79.7 35.6 75.7 C 37.3 71.7 35.4 71.3 34.5 70.9 C 33.5 70.8 28 76 24.5 75.9 Z "/>
  <path id="ID0.48413723474368453_3_" fill="none" stroke="#000000" stroke-width="2" stroke-linecap="round" stroke-linejoin="round" d="M 54.6 12.2 C 53.1 11.9 50.1 11.3 48.4 11.2 C 43.8 10.8 39.3 12 39.3 12 L 27.8 2.3 L 27.7 20.7 C 28.4 20 16.1 31.8 21.5 43.5 C 27 55.4 40.9 62.1 59.4 60.7 C 77.9 59.4 83.5 49.5 82.9 43.9 C 82.4 38.3 75.8 35.4 75.8 35.4 C 75.8 35.4 76.2 31.1 73.8 25.5 C 72.3 22.1 66.7 16.8 66.7 16.8 L 65.3 5.3 L 57.3 11.4 L 54.6 12.2 Z "/>
  <g id="ID0.15723733883351088_5_">
    <path id="ID0.527006761636585_5_" fill="#000000" stroke="#000000" stroke-width="2" stroke-linecap="round" stroke-linejoin="round" d="M 35.7 78 C 35.7 78 41 79 42.1 79.8 C 39 82.2 37.4 79.5 39 83.9 C 39.7 85.9 41.4 90.5 43.8 90 C 51.6 87.8 42.5 85.5 51 79.8 C 53.3 78 56.5 73.7 47.1 71.5 "/>
    <path id="ID0.8937406223267317_6_" fill="#FAA51F" stroke="#000000" stroke-width="2" stroke-linecap="round" stroke-linejoin="round" d="M 49.4 81.3 C 48.4 81.8 47 83.2 45.8 84 "/>
    <path id="ID0.8937406223267317_5_" fill="#FAA51F" stroke="#000000" stroke-width="2" stroke-linecap="round" stroke-linejoin="round" d="M 44.9 79.4 C 44.4 79.6 42 79.2 40.7 79.2 "/>
  </g>
  <g id="Layer_2_10_">
    <path id="ID0.39854341372847557_3_" fill="#FAA51F" stroke="#8E5322" stroke-width="1.4" stroke-linecap="round" stroke-linejoin="round" d="M 36.6 70.6 "/>
  </g>
  <path id="ID0.8535828334279358_3_" fill="#000000" d="M 24.5 75.9 C 22 75.9 19 75.7 16.1 73.9 C 9.7 70 6.3 62.2 2.9 65.1 C -0.5 68 2.3 81.2 15.1 82.8 C 19.6 83.4 23.4 82.6 26.4 81.9 C 27.2 81.7 33.9 79.7 35.6 75.7 C 37.3 71.7 35.4 71.3 34.5 70.9 C 33.5 70.8 28 76 24.5 75.9 Z " stroke-width="1"/>
  <path id="ID0.914295740891248_3_" fill="#101010" d="M 3.1 65 C 1.3 66.1 1.1 71.1 2.7 74.4 C 4.4 77.7 6.8 79.5 8.3 80.5 C 10.1 81.2 7 77.7 8.7 75.5 C 10.4 73.3 14.6 73.1 14.6 73.1 C 14.6 73.1 10.6 69.4 8.4 67.3 C 6.5 65.3 5.1 64 3.1 65 Z " stroke-width="1"/>
  <path id="ID0.46792364912107587_3_" fill="#000000" stroke="#000000" stroke-width="2" stroke-linecap="round" stroke-linejoin="round" d="M 48.6 64.9 C 46.7 71.3 45.6 81.2 34.2 77.9 C 22.8 74.5 26.4 66.2 28.3 59.8 C 30.2 53.4 34.6 52.8 41.1 54.7 C 47.4 56.6 50.5 58.5 48.6 64.9 Z "/>
  <g id="ID0.16171270422637463_3_">
    <path id="ID0.007584026083350182_3_" fill="#000000" stroke="#000000" stroke-width="2" stroke-linecap="round" stroke-linejoin="round" d="M 34.8 78.1 C 34.8 78.1 28.2 80.7 21.4 86.3 C 18.4 88.7 26 92.1 19.6 95.9 C 17.8 96.9 12.7 89.2 12.2 87 C 11.7 85 12 84.2 13.8 83.3 C 20.4 80.1 27.6 69.5 27.6 69.5 "/>
    <path id="ID0.31672530295327306_3_" fill="#FAA51F" stroke="#000000" stroke-width="2" stroke-linecap="round" stroke-linejoin="round" d="M 21.1 89 C 21.1 89 20.5 87.8 19.4 86.7 "/>
  </g>
  <path id="ID0.38032895559445024_3_" fill="#101010" d="M 46.7 67.5 C 45.5 71.5 44.6 77.8 38.5 76 C 32.4 74.2 34.4 68.9 35.6 64.8 C 36.8 60.7 39.2 60.2 42.8 61.3 C 46.3 62.4 47.9 63.4 46.7 67.5 Z " stroke-width="1"/>
  <path id="ID0.2591130444779992_3_" fill="#000000" d="M 54.6 12.2 C 53.1 11.9 50.1 11.3 48.4 11.2 C 43.8 10.8 39.3 12 39.3 12 L 27.8 2.3 L 27.7 20.7 C 28.4 20 16.1 31.8 21.5 43.5 C 27 55.4 40.9 62.1 59.4 60.7 C 77.9 59.4 83.5 49.5 82.9 43.9 C 82.4 38.3 75.8 35.4 75.8 35.4 C 75.8 35.4 76.2 31.1 73.8 25.5 C 72.3 22.1 66.7 16.8 66.7 16.8 L 65.3 5.3 L 57.3 11.4 L 54.6 12.2 Z " stroke-width="1"/>
  <path id="ID0.3588979784399271_3_" fill="#101010" d="M 74.9 35.1 L 72.8 32.8 L 63.7 34.3 C 63.7 34.3 63.3 37.6 59 38 C 54.7 38.4 47.9 35.9 47.9 35.9 L 40.6 36.8 C 40.6 36.8 32.6 35.3 31.4 41.6 C 29.4 52.6 38 59 46.5 59.9 C 52 60.6 55.5 60.3 59.5 60.1 C 77 59.1 83.1 49.4 82.3 43.8 C 81.8 38.2 75.4 35.8 75.4 35.8 L 74.9 35.1 Z " stroke-width="1"/>
  <path id="ID0.2727069961838424_3_" fill="none" stroke="#000000" stroke-width="2" stroke-linecap="round" stroke-linejoin="round" d="M 79.2 41.1 C 79.2 41.1 83.6 41.8 85.9 41.7 C 88.7 41.6 90.9 40.6 90.9 40.6 "/>
  <path id="ID0.5861211125738919_3_" fill="none" stroke="#000000" stroke-width="2" stroke-linecap="round" stroke-linejoin="round" d="M 79 46.9 C 79 46.9 81.2 48.7 83.8 49.7 C 86.3 50.8 88.1 51.1 88.1 51.1 "/>
  <path id="ID0.4793355236761272_3_" fill="none" stroke="#000000" stroke-width="2" stroke-linecap="round" stroke-linejoin="round" d="M 37.2 10.2 L 41.9 14.4 "/>
  <path id="ID0.9024141579866409_3_" fill="none" stroke="#000000" stroke-width="2" stroke-linecap="round" stroke-linejoin="round" d="M 10.4 40.4 C 10.4 40.4 14.4 40.4 16.2 40.1 C 18 39.8 21.4 39 21.4 39 "/>
  <path id="ID0.16030752705410123_3_" fill="none" stroke="#000000" stroke-width="2" stroke-linecap="round" stroke-linejoin="round" d="M 22.1 35.3 C 19.8 33.8 19.8 33.8 16 32.4 C 11.9 30.9 9.7 30.6 9.7 30.6 "/>
  <g id="Layer_5_3_">
    <path id="ID0.40023312577977777_3_" fill="#FFFFFF" stroke="black" stroke-width="2" stroke-linecap="round" stroke-linejoin="round" d="M 71.6 25.2 C 73.9 29.8 73.3 34.8 70.5 36.1 C 67.6 37.6 63.4 34.9 61.1 30.2 C 58.8 25.6 59.4 20.6 62.2 19.3 C 65.1 18 69.3 20.6 71.6 25.2 Z "/>
    <path id="ID0.43813491938635707_3_" fill="#414142" d="M 71.1 28.8 C 71.3 29.8 70.7 30.8 69.6 30.9 C 68.7 31.1 67.8 30.4 67.6 29.2 C 67.4 28.2 68 27.2 69.1 27.1 C 70.1 27.1 70.9 27.8 71.1 28.8 " stroke-width="1"/>
  </g>
  <g id="Layer_7_3_">
    <path id="ID0.4253597157076001_3_" fill="#FFFFFF" stroke="black" stroke-width="2" stroke-linecap="round" stroke-linejoin="round" d="M 48.2 25.5 C 50.5 30.1 49.5 35.2 46.1 36.9 C 42.7 38.6 38 36.2 35.8 31.5 C 33.5 26.9 34.5 21.8 37.9 20.1 C 41.3 18.5 45.9 20.9 48.2 25.5 Z "/>
    <path id="ID0.814307457767427_3_" fill="#414142" d="M 47.4 29.3 C 47.3 30.3 46.4 31.1 45.5 31 C 44.5 30.9 43.9 30 44 28.9 C 44.1 27.9 45 27.1 45.9 27.2 C 46.9 27.3 47.6 28.2 47.4 29.3 " stroke-width="1"/>
  </g>
  <path id="ID0.5240494590252638_3_" fill="#000000" stroke="#000000" stroke-width="2" stroke-linecap="round" stroke-linejoin="round" d="M 57.9 36.6 C 59.6 36.6 62.1 35.6 62.1 37.5 C 62 38.3 60 41.4 58.2 41.3 C 56.2 41.2 53 38.2 53.3 36.8 C 53.6 35.4 56.4 36.7 57.9 36.6 Z "/>
  <path id="ID0.046259244438260794_3_" fill="#FFFFFF" stroke="#000000" stroke-width="2" stroke-linecap="round" stroke-linejoin="round" d="M 47 50.8 C 47 50.8 49.2 53.4 54.7 53 "/>
  <g id="ID0.7407716196030378_3_">
    <path id="ID0.15909873321652412_3_" fill="#000000" stroke="#000000" stroke-width="2" stroke-linecap="round" stroke-linejoin="round" d="M 35 61.3 C 34.7 61.3 31.4 73.6 31.2 73.6 C 29.2 73.6 27.5 72.7 27.2 71.8 C 25.7 67.9 26.3 61.5 28.3 56.6 L 29.5 54.6 "/>
    <path id="ID0.8024068027734756_3_" fill="#FAA51F" stroke="#8E5322" stroke-width="1.4" stroke-linecap="round" stroke-linejoin="round" d="M 33.7 67.3 "/>
    <path id="ID0.06734407460317016_3_" fill="none" stroke="#8E5322" stroke-width="1.4" stroke-linecap="round" stroke-linejoin="round" d="M 35.6 64.3 "/>
  </g>
  <path id="ID0.1790580078959465_3_" fill="#000000" stroke="#000000" stroke-width="2" stroke-linecap="round" stroke-linejoin="round" d="M 31.7 67.3 C 37.4 65.9 43.2 68.7 43 70.4 C 42.5 74.4 37.8 75.9 29.5 73.4 "/>
  <path id="ID0.042709666304290295" fill="#101010" stroke="none" d="M 45.3558 26.55 C 46.0107 26.55 46.6045 26.841 47.0347 27.312 C 47.465 27.783 47.7308 28.433 47.7308 29.15 C 47.7308 29.867 47.465 30.517 47.0347 30.988 C 46.6045 31.459 46.0107 31.75 45.3558 31.75 C 44.7008 31.75 44.1071 31.459 43.6768 30.988 C 43.2466 30.517 42.9808 29.867 42.9808 29.15 C 42.9808 28.433 43.2466 27.783 43.6768 27.312 C 44.1071 26.841 44.7008 26.55 45.3558 26.55 Z " stroke-width="0.9577087324721634"/>
  <path id="ID0.042709666304290295" fill="#101010" stroke="none" d="M 69.1058 26.5 C 69.7607 26.5 70.3545 26.791 70.7847 27.262 C 71.215 27.733 71.4808 28.383 71.4808 29.1 C 71.4808 29.817 71.215 30.467 70.7847 30.938 C 70.3545 31.409 69.7607 31.7 69.1058 31.7 C 68.4508 31.7 67.8571 31.409 67.4268 30.938 C 66.9966 30.467 66.7308 29.817 66.7308 29.1 C 66.7308 28.383 66.9966 27.733 67.4268 27.262 C 67.8571 26.791 68.4508 26.5 69.1058 26.5 Z " stroke-width="0.9577087324721634"/>
</svg>