<svg xmlns="http://www.w3.org/2000/svg" xmlns:xlink="http://www.w3.org/1999/xlink" version="1.1" width="38.202174894194016" height="38.202174894194016" viewBox="-0.029387470175925356 -0.503087442209426 38.202174894194016 38.202174894194016">
  <defs>
    <radialGradient id="grad_1" cx="0.4924" cy="0.5025" r="0.65988">
      <stop offset="0" stop-color="#EAEAEA" stop-opacity="1"/>
      <stop offset="1" stop-color="#EAEAEA" stop-opacity="0"/>
    </radialGradient>
  <radialGradient id="grad_1-.9343434572219849,0,0,0.9343434572219849,-207.6,-133.7" cx="18.7905" cy="18.6905" r="24.4156" gradientUnits="userSpaceOnUse">
      <stop offset="0" stop-color="#EAEAEA" stop-opacity="1"/>
      <stop offset="1" stop-color="#EAEAEA" stop-opacity="0"/>
    </radialGradient></defs>
  <!-- Exported by Scratch - http://scratch.mit.edu/ -->
  <path id="ID0.7450102074071765" fill="url(#grad_1-.9343434572219849,0,0,0.9343434572219849,-207.6,-133.7)" stroke="none" d="M 19.0717 0.098 C 24.176 0.098 28.801 2.1713 32.1497 5.52 C 35.4984 8.8687 37.5717 13.4937 37.5717 18.598 C 37.5717 23.7023 35.4984 28.3273 32.1497 31.676 C 28.801 35.0247 24.176 37.098 19.0717 37.098 C 13.9674 37.098 9.3424 35.0247 5.9937 31.676 C 2.645 28.3273 0.5717 23.7023 0.5717 18.598 C 0.5717 13.4937 2.645 8.8687 5.9937 5.52 C 9.3424 2.1713 13.9674 0.098 19.0717 0.098 Z " stroke-width="0.9343434572219849"/>
  <path id="ID0.8790538497269154" fill="#F6F6F6" stroke="#E5E5E5" stroke-width="1.2021748941940138" d="M 19.0794 5.7189 C 20.458 5.7189 21.7073 7.1875 22.612 9.56 C 23.5166 11.9326 24.0766 15.209 24.0766 18.8246 C 24.0766 22.4402 23.5166 25.7166 22.612 28.0891 C 21.7073 30.4617 20.458 31.9303 19.0794 31.9303 C 17.7008 31.9303 16.4515 30.4617 15.5469 28.0891 C 14.6423 25.7166 14.0823 22.4402 14.0823 18.8246 C 14.0823 15.209 14.6423 11.9326 15.5469 9.56 C 16.4515 7.1875 17.7008 5.7189 19.0794 5.7189 Z "/>
</svg>