<svg xmlns="http://www.w3.org/2000/svg" xmlns:xlink="http://www.w3.org/1999/xlink" version="1.1" width="93.00000004638532" height="95.61692051757673" viewBox="0.49999997680733643 1.5999998814399048 93.00000004638532 95.61692051757673">
  <!-- Exported by Scratch - http://scratch.mit.edu/ -->
  <g id="ID0.8967384546995163">
    <path id="ID0.40227043256163597_10_" fill="none" stroke="#000000" stroke-width="2.000000046385327" stroke-linecap="round" stroke-linejoin="round" d="M 62.9269 63.6372 C 64.1592 61.4255 65.3749 58.6756 65.3095 55.3521 C 65.0429 47.9104 59.8546 41.1221 64.0424 39.5624 C 68.2301 38.0027 78.4232 46.829 73.6279 58.8112 C 71.9922 63.0047 69.4093 66.0011 67.4166 68.2548 C 66.8607 68.9036 61.7899 73.7603 57.5955 73.2951 C 53.401 72.83 53.7701 70.9422 53.9845 70.0624 C 54.011 69.1141 61.2581 66.7541 62.9269 63.6372 Z "/>
    <path id="ID0.8535828334279358_10_" fill="#000000" d="M 62.9269 63.6372 C 64.1592 61.4255 65.3749 58.6756 65.3095 55.3521 C 65.0429 47.9104 59.8546 41.1221 64.0424 39.5624 C 68.2301 38.0027 78.4232 46.829 73.6279 58.8112 C 71.9922 63.0047 69.4093 66.0011 67.4166 68.2548 C 66.8607 68.9036 61.7899 73.7603 57.5955 73.2951 C 53.401 72.83 53.7701 70.9422 53.9845 70.0624 C 54.011 69.1141 61.2581 66.7541 62.9269 63.6372 Z " stroke-width="1.0000000231926636"/>
    <path id="ID0.914295740891248_10_" fill="#101010" d="M 63.7263 39.5536 C 65.4957 38.4958 70.0815 40.8067 72.1805 43.8074 C 74.2453 46.9021 74.6698 49.8243 74.839 51.6955 C 74.5638 53.6176 72.9787 49.2077 70.2786 49.6068 C 67.4503 50.0655 65.294 53.6433 65.294 53.6433 C 65.294 53.6433 64.0173 48.3879 63.2766 45.4568 C 62.4332 42.8075 61.948 40.9275 63.7263 39.5536 Z " stroke-width="1.0000000231926636"/>
  </g>
  <path id="ID0.48413723474368453_10_" fill="none" stroke="#000000" stroke-width="2" stroke-linecap="round" stroke-linejoin="round" d="M 40.5 10.8 C 42 10.7 45.1 10.4 46.8 10.5 C 51.4 10.6 55.7 12.2 55.7 12.2 L 68.1 3.8 L 66.3 22.1 C 65.7 21.3 76.7 34.3 70.2 45.4 C 63.6 56.7 49.1 61.9 30.8 58.6 C 12.5 55.4 8 45 9.1 39.4 C 10.2 33.9 17 31.6 17 31.6 C 17 31.6 17 27.3 20 21.9 C 21.8 18.7 27.9 13.9 27.9 13.9 L 30.5 2.6 L 37.8 9.5 L 40.5 10.8 Z "/>
  <path id="ID0.1790580078959465_11_" fill="#000000" stroke="#000000" stroke-width="2.000000007778972" stroke-linecap="round" stroke-linejoin="round" d="M 42.7255 61.4401 C 41.9899 61.9958 41.3374 67.7901 40.6994 68.3672 C 34.1245 74.0952 33.3161 78.7295 34.4366 79.691 C 37.0807 82.1115 41.0675 80.7311 45.1697 75.0767 C 48.2463 70.8359 50.3115 59.5158 50.7754 58.7983 "/>
  <g id="Layer_2_22_">
    <path id="ID0.39854341372847557_10_" fill="#FAA51F" stroke="#8E5322" stroke-width="1.4" stroke-linecap="round" stroke-linejoin="round" d="M 92.5 69.6 "/>
  </g>
  <g id="ID0.16171270422637463_7_">
    <path id="ID0.007584026083350182_7_" fill="#000000" stroke="#000000" stroke-width="2.0000000299947085" stroke-linecap="round" stroke-linejoin="round" d="M 56.8865 74.8212 C 56.8865 74.8212 62.5675 79.0693 67.6505 86.264 C 69.9116 89.37 61.6841 90.646 66.8558 95.9989 C 68.3285 97.4381 75.2781 91.3551 76.3404 89.3647 C 77.35 87.5673 77.2716 86.7165 75.7725 85.3738 C 70.2497 80.547 66.0991 68.4238 66.0991 68.4238 "/>
    <path id="ID0.31672530295327306_7_" fill="#FAA51F" stroke="#000000" stroke-width="2.0000000299947085" stroke-linecap="round" stroke-linejoin="round" d="M 67.228 88.9475 C 67.228 88.9475 68.1232 87.9482 69.4743 87.1771 "/>
  </g>
  <path id="ID0.46792364912107587_10_" fill="#000000" stroke="#000000" stroke-width="2" stroke-linecap="round" stroke-linejoin="round" d="M 44.5 63.9 C 46.4 70.3 47.6 80.2 58.4 77 C 69.2 73.8 65.7 65.5 63.8 59 C 61.9 52.5 57.7 51.9 51.6 53.7 C 45.5 55.6 42.6 57.5 44.5 63.9 Z "/>
  <path id="ID0.38032895559445024_10_" fill="#101010" d="M 45.5 66.1 C 46.7 70.1 47.6 71.5 53.7 69.6 C 55.4 69.1 55 68.4 53.9 64.4 C 52.8 60.4 50.3 59.8 46.7 60.9 C 43.2 61.9 44.3 62 45.5 66.1 Z " stroke-width="1"/>
  <path id="ID0.2591130444779992_10_" fill="#000000" d="M 40.5 10.8 C 42 10.7 45.1 10.4 46.8 10.5 C 51.4 10.6 55.7 12.2 55.7 12.2 L 68.1 3.8 L 66.3 22.1 C 65.7 21.3 76.7 34.3 70.2 45.4 C 63.6 56.7 49.1 61.9 30.8 58.6 C 12.5 55.4 8 45 9.1 39.4 C 10.2 33.9 17 31.6 17 31.6 C 17 31.6 17 27.3 20 21.9 C 21.8 18.7 27.9 13.9 27.9 13.9 L 30.5 2.6 L 37.8 9.5 L 40.5 10.8 Z " stroke-width="1"/>
  <path id="ID0.3588979784399271_10_" fill="#101010" d="M 18 31.6 L 20.4 29.6 L 29.2 32 C 29.2 32 29.3 35.3 33.5 36.1 C 37.7 36.9 44.8 35.2 44.8 35.2 L 51.9 36.9 C 51.9 36.9 60 36.2 60.5 42.6 C 61.4 53.7 52.2 59.2 43.7 59.2 C 38.2 59.3 34.7 58.7 30.8 58.1 C 13.5 55.3 8.4 45 9.8 39.5 C 10.9 34 17.5 32.2 17.5 32.2 L 18 31.6 Z " stroke-width="1"/>
  <path id="ID0.2727069961838424_10_" fill="none" stroke="#000000" stroke-width="2" stroke-linecap="round" stroke-linejoin="round" d="M 13.1 37.1 C 13.1 37.1 8.6 37.3 6.3 37 C 3.6 36.6 1.5 35.4 1.5 35.4 "/>
  <path id="ID0.5861211125738919_10_" fill="none" stroke="#000000" stroke-width="2" stroke-linecap="round" stroke-linejoin="round" d="M 12.7 42.9 C 12.7 42.9 10.4 44.5 7.7 45.2 C 5.1 46 3.3 46.2 3.3 46.2 "/>
  <path id="ID0.4793355236761272_10_" fill="none" stroke="#000000" stroke-width="2" stroke-linecap="round" stroke-linejoin="round" d="M 58 10.7 L 52.9 14.4 "/>
  <path id="ID0.9024141579866409_10_" fill="none" stroke="#000000" stroke-width="2" stroke-linecap="round" stroke-linejoin="round" d="M 81.6 43.4 C 81.6 43.4 77.6 43 75.9 42.5 C 74.2 42 70.8 40.9 70.8 40.9 "/>
  <path id="ID0.16030752705410123_10_" fill="none" stroke="#000000" stroke-width="2" stroke-linecap="round" stroke-linejoin="round" d="M 70.5 37.1 C 73 35.8 73 35.8 76.9 34.8 C 81.1 33.7 83.4 33.7 83.4 33.7 "/>
  <path id="ID0.40023312577977777_10_" fill="#FFFFFF" stroke="black" stroke-width="2" stroke-linecap="round" stroke-linejoin="round" d="M 22.3 22.1 C 19.6 26.5 19.6 31.5 22.3 33.1 C 25 34.8 29.5 32.7 32.2 28.2 C 34.9 23.8 34.9 18.8 32.2 17.2 C 29.4 15.5 25 17.7 22.3 22.1 Z "/>
  <path id="ID0.4253597157076001_10_" fill="#FFFFFF" stroke="black" stroke-width="2" stroke-linecap="round" stroke-linejoin="round" d="M 45.5 24.7 C 42.8 29.1 43.2 34.2 46.4 36.3 C 49.6 38.3 54.5 36.4 57.2 32 C 59.9 27.6 59.5 22.5 56.3 20.4 C 53.1 18.5 48.2 20.4 45.5 24.7 Z "/>
  <path id="ID0.5240494590252638_10_" fill="#000000" stroke="#000000" stroke-width="2" stroke-linecap="round" stroke-linejoin="round" d="M 34.7 34.8 C 33 34.6 30.7 33.4 30.4 35.3 C 30.4 36.1 32.1 39.4 33.9 39.4 C 35.9 39.5 39.3 36.9 39.2 35.4 C 39.1 33.9 36.2 35 34.7 34.8 Z "/>
  <path id="ID0.046259244438260794_10_" fill="#FFFFFF" stroke="#000000" stroke-width="2" stroke-linecap="round" stroke-linejoin="round" d="M 44.1 50.1 C 44.1 50.1 41.6 52.4 36.2 51.5 "/>
  <g id="ID0.15723733883351088_12_">
    <path id="ID0.527006761636585_12_" fill="#000000" stroke="#000000" stroke-width="2.0000000363375565" stroke-linecap="round" stroke-linejoin="round" d="M 60.2355 74.4122 C 60.2355 74.4122 58.2966 79.4452 58.398 80.8016 C 62.0702 79.4286 60.6163 76.6472 63.5158 80.3232 C 64.848 81.971 67.8649 85.8373 66.1767 87.615 C 60.2012 93.0897 63.0344 84.1414 53.7143 88.3695 C 51.111 89.3456 46.131 89.7915 48.3326 81.8636 C 48.4581 81.4708 51.1013 75.1097 51.2267 74.717 "/>
    <path id="ID0.8937406223267317_17_" fill="#FAA51F" stroke="#000000" stroke-width="2.0000000363375565" stroke-linecap="round" stroke-linejoin="round" d="M 55.8318 87.7984 C 56.7833 87.2112 58.7105 86.7575 60.0222 86.1581 "/>
    <path id="ID0.8937406223267317_16_" fill="#FAA51F" stroke="#000000" stroke-width="2.0000000363375565" stroke-linecap="round" stroke-linejoin="round" d="M 56.5844 82.972 C 57.0176 82.6521 57.9405 80.4008 58.6246 79.2954 "/>
  </g>
  <path id="ID0.1790580078959465_10_" fill="#000000" stroke="#000000" stroke-width="2.0000000069659123" stroke-linecap="round" stroke-linejoin="round" d="M 61.7194 55.8976 C 62.2052 55.114 67.9454 54.0277 68.4615 53.3394 C 73.6872 46.3315 78.1626 45.2266 79.3182 46.2239 C 81.9062 48.7602 80.8674 52.7615 75.5832 57.2702 C 71.6428 60.7231 60.4996 63.6282 59.8277 64.156 "/>
  <g id="ID0.7407716196030378_10_">
    <path id="ID0.8024068027734756_10_" fill="#FAA51F" stroke="#8E5322" stroke-width="1.4" stroke-linecap="round" stroke-linejoin="round" d="M 87.7 57 "/>
    <path id="ID0.06734407460317016_10_" fill="none" stroke="#8E5322" stroke-width="1.4" stroke-linecap="round" stroke-linejoin="round" d="M 90.9 55.4 "/>
  </g>
  <path id="ID0.042709666304290295" fill="#101010" stroke="none" d="M 49.5942 30.15 C 48.9393 30.15 48.3455 30.441 47.9153 30.912 C 47.485 31.383 47.2192 32.033 47.2192 32.75 C 47.2192 33.467 47.485 34.117 47.9153 34.588 C 48.3455 35.059 48.9393 35.35 49.5942 35.35 C 50.2492 35.35 50.8429 35.059 51.2732 34.588 C 51.7034 34.117 51.9692 33.467 51.9692 32.75 C 51.9692 32.033 51.7034 31.383 51.2732 30.912 C 50.8429 30.441 50.2492 30.15 49.5942 30.15 Z " stroke-width="0.9577087324721634"/>
  <path id="ID0.042709666304290295" fill="#101010" stroke="none" d="M 26.0442 26.45 C 25.3893 26.45 24.7955 26.741 24.3653 27.212 C 23.935 27.683 23.6692 28.333 23.6692 29.05 C 23.6692 29.767 23.935 30.417 24.3653 30.888 C 24.7955 31.359 25.3893 31.65 26.0442 31.65 C 26.6992 31.65 27.2929 31.359 27.7232 30.888 C 28.1534 30.417 28.4192 29.767 28.4192 29.05 C 28.4192 28.333 28.1534 27.683 27.7232 27.212 C 27.2929 26.741 26.6992 26.45 26.0442 26.45 Z " stroke-width="0.9577087324721634"/>
</svg>