<svg xmlns="http://www.w3.org/2000/svg" xmlns:xlink="http://www.w3.org/1999/xlink" version="1.1" width="94.71649932861328" height="94.38911437988281" viewBox="-0.11650431156158447 1.5999999046325684 94.71649932861328 94.38911437988281">
  <!-- Exported by Scratch - http://scratch.mit.edu/ -->
  <path id="ID0.40227043256163597_10_" fill="none" stroke="#000000" stroke-width="2" stroke-linecap="round" stroke-linejoin="round" d="M 24.7 76.6 C 22.2 77 19.2 77.2 16.1 76 C 9.2 73.2 4.6 66 1.7 69.4 C -1.2 72.8 3.6 85.4 16.5 85 C 21 84.9 24.7 83.5 27.5 82.4 C 28.3 82.1 34.6 79 35.6 74.9 C 36.6 70.8 34.7 70.5 33.8 70.4 C 32.9 70.1 28.2 76.1 24.7 76.6 Z "/>
  <path id="ID0.48413723474368453_10_" fill="none" stroke="#000000" stroke-width="2" stroke-linecap="round" stroke-linejoin="round" d="M 54.6 10.8 C 53.1 10.7 50 10.4 48.3 10.5 C 43.7 10.6 39.4 12.2 39.4 12.2 L 27 3.8 L 28.8 22.1 C 29.4 21.3 18.4 34.3 24.9 45.4 C 31.5 56.7 46 61.9 64.3 58.6 C 82.6 55.4 87.1 45 86 39.4 C 84.9 33.9 78.1 31.6 78.1 31.6 C 78.1 31.6 78.1 27.3 75.1 21.9 C 73.3 18.7 67.2 13.9 67.2 13.9 L 64.6 2.6 L 57.3 9.5 L 54.6 10.8 Z "/>
  <path id="ID0.1790580078959465_11_" fill="#000000" stroke="#000000" stroke-width="2" stroke-linecap="round" stroke-linejoin="round" d="M 51.6 58.7 C 52.3 58.1 58.1 58.7 58.8 58.2 C 65.8 53 70.5 53.2 71.2 54.5 C 73 57.6 70.8 61.2 64.4 64 C 59.6 66.1 48.1 65.7 47.3 66 "/>
  <g id="Layer_2_22_">
    <path id="ID0.39854341372847557_10_" fill="#FAA51F" stroke="#8E5322" stroke-width="1.4" stroke-linecap="round" stroke-linejoin="round" d="M 38.6 69.6 "/>
  </g>
  <g id="ID0.16171270422637463_7_">
    <path id="ID0.007584026083350182_7_" fill="#000000" stroke="#000000" stroke-width="2" stroke-linecap="round" stroke-linejoin="round" d="M 36.8 77.1 C 36.8 77.1 30.2 79.7 23.4 85.3 C 20.4 87.7 28 91.1 21.6 94.9 C 19.8 95.9 14.7 88.2 14.2 86 C 13.7 84 14 83.2 15.8 82.3 C 22.4 79.1 29.6 68.5 29.6 68.5 "/>
    <path id="ID0.31672530295327306_7_" fill="#FAA51F" stroke="#000000" stroke-width="2" stroke-linecap="round" stroke-linejoin="round" d="M 23.1 88 C 23.1 88 22.5 86.8 21.4 85.7 "/>
  </g>
  <path id="ID0.8535828334279358_10_" fill="#000000" d="M 24.7 76.6 C 22.2 77 19.2 77.2 16.1 76 C 9.2 73.2 4.6 66 1.7 69.4 C -1.2 72.8 3.6 85.4 16.5 85 C 21 84.9 24.7 83.5 27.5 82.4 C 28.3 82.1 34.6 79 35.6 74.9 C 36.6 70.8 34.7 70.5 33.8 70.4 C 32.9 70.1 28.2 76.1 24.7 76.6 Z " stroke-width="1"/>
  <path id="ID0.914295740891248_10_" fill="#101010" d="M 1.8 69.1 C 0.2 70.4 0.8 75.5 2.9 78.5 C 5.1 81.5 7.7 82.9 9.4 83.7 C 11.3 84.1 7.7 81.1 9 78.7 C 10.4 76.2 14.5 75.4 14.5 75.4 C 14.5 75.4 10 72.4 7.5 70.7 C 5.3 69 3.7 67.9 1.8 69.1 Z " stroke-width="1"/>
  <path id="ID0.46792364912107587_10_" fill="#000000" stroke="#000000" stroke-width="2" stroke-linecap="round" stroke-linejoin="round" d="M 50.6 63.9 C 48.7 70.3 47.5 80.2 36.7 77 C 25.9 73.8 29.4 65.5 31.3 59 C 33.2 52.5 37.4 51.9 43.5 53.7 C 49.6 55.6 52.5 57.5 50.6 63.9 Z "/>
  <path id="ID0.38032895559445024_10_" fill="#101010" d="M 49.6 66.1 C 48.4 70.1 47.5 71.5 41.4 69.6 C 39.7 69.1 40.1 68.4 41.2 64.4 C 42.3 60.4 44.8 59.8 48.4 60.9 C 51.9 61.9 50.8 62 49.6 66.1 Z " stroke-width="1"/>
  <path id="ID0.2591130444779992_10_" fill="#000000" d="M 54.6 10.8 C 53.1 10.7 50 10.4 48.3 10.5 C 43.7 10.6 39.4 12.2 39.4 12.2 L 27 3.8 L 28.8 22.1 C 29.4 21.3 18.4 34.3 24.9 45.4 C 31.5 56.7 46 61.9 64.3 58.6 C 82.6 55.4 87.1 45 86 39.4 C 84.9 33.9 78.1 31.6 78.1 31.6 C 78.1 31.6 78.1 27.3 75.1 21.9 C 73.3 18.7 67.2 13.9 67.2 13.9 L 64.6 2.6 L 57.3 9.5 L 54.6 10.8 Z " stroke-width="1"/>
  <path id="ID0.3588979784399271_10_" fill="#101010" d="M 77.1 31.6 L 74.7 29.6 L 65.9 32 C 65.9 32 65.8 35.3 61.6 36.1 C 57.4 36.9 50.3 35.2 50.3 35.2 L 43.2 36.9 C 43.2 36.9 35.1 36.2 34.6 42.6 C 33.7 53.7 42.9 59.2 51.4 59.2 C 56.9 59.3 60.4 58.7 64.3 58.1 C 81.6 55.3 86.7 45 85.3 39.5 C 84.2 34 77.6 32.2 77.6 32.2 L 77.1 31.6 Z " stroke-width="1"/>
  <path id="ID0.2727069961838424_10_" fill="none" stroke="#000000" stroke-width="2" stroke-linecap="round" stroke-linejoin="round" d="M 82 37.1 C 82 37.1 86.5 37.3 88.8 37 C 91.5 36.6 93.6 35.4 93.6 35.4 "/>
  <path id="ID0.5861211125738919_10_" fill="none" stroke="#000000" stroke-width="2" stroke-linecap="round" stroke-linejoin="round" d="M 82.4 42.9 C 82.4 42.9 84.7 44.5 87.4 45.2 C 90 46 91.8 46.2 91.8 46.2 "/>
  <path id="ID0.4793355236761272_10_" fill="none" stroke="#000000" stroke-width="2" stroke-linecap="round" stroke-linejoin="round" d="M 37.1 10.7 L 42.2 14.4 "/>
  <path id="ID0.9024141579866409_10_" fill="none" stroke="#000000" stroke-width="2" stroke-linecap="round" stroke-linejoin="round" d="M 13.5 43.4 C 13.5 43.4 17.5 43 19.2 42.5 C 20.9 42 24.3 40.9 24.3 40.9 "/>
  <path id="ID0.16030752705410123_10_" fill="none" stroke="#000000" stroke-width="2" stroke-linecap="round" stroke-linejoin="round" d="M 24.6 37.1 C 22.1 35.8 22.1 35.8 18.2 34.8 C 14 33.7 11.7 33.7 11.7 33.7 "/>
  <g id="Layer_5_11_">
    <path id="ID0.40023312577977777_10_" fill="#FFFFFF" stroke="black" stroke-width="2" stroke-linecap="round" stroke-linejoin="round" d="M 72.8 22.1 C 75.5 26.5 75.5 31.5 72.8 33.1 C 70.1 34.8 65.6 32.7 62.9 28.2 C 60.2 23.8 60.2 18.8 62.9 17.2 C 65.7 15.5 70.1 17.7 72.8 22.1 Z "/>
    <path id="ID0.43813491938635707_10_" fill="#414142" d="M 72.7 25.7 C 73 26.7 72.5 27.7 71.5 28 C 70.6 28.3 69.6 27.7 69.3 26.6 C 69 25.6 69.5 24.6 70.5 24.3 C 71.5 24.1 72.4 24.7 72.7 25.7 " stroke-width="1"/>
  </g>
  <g id="Layer_7_11_">
    <path id="ID0.4253597157076001_10_" fill="#FFFFFF" stroke="black" stroke-width="2" stroke-linecap="round" stroke-linejoin="round" d="M 49.6 24.7 C 52.3 29.1 51.9 34.2 48.7 36.3 C 45.5 38.3 40.6 36.4 37.9 32 C 35.2 27.6 35.6 22.5 38.8 20.4 C 42 18.5 46.9 20.4 49.6 24.7 Z "/>
    <path id="ID0.814307457767427_10_" fill="#414142" d="M 49.2 28.6 C 49.2 29.6 48.4 30.5 47.5 30.5 C 46.5 30.5 45.8 29.7 45.8 28.6 C 45.8 27.6 46.6 26.7 47.5 26.7 C 48.4 26.7 49.2 27.5 49.2 28.6 " stroke-width="1"/>
  </g>
  <path id="ID0.5240494590252638_10_" fill="#000000" stroke="#000000" stroke-width="2" stroke-linecap="round" stroke-linejoin="round" d="M 60.4 34.8 C 62.1 34.6 64.4 33.4 64.7 35.3 C 64.7 36.1 63 39.4 61.2 39.4 C 59.2 39.5 55.8 36.9 55.9 35.4 C 56 33.9 58.9 35 60.4 34.8 Z "/>
  <path id="ID0.046259244438260794_10_" fill="#FFFFFF" stroke="#000000" stroke-width="2" stroke-linecap="round" stroke-linejoin="round" d="M 51 50.1 C 51 50.1 53.5 52.4 58.9 51.5 "/>
  <g id="ID0.15723733883351088_12_">
    <path id="ID0.527006761636585_12_" fill="#000000" stroke="#000000" stroke-width="2" stroke-linecap="round" stroke-linejoin="round" d="M 37.7 77 C 37.7 77 43 78 44.1 78.8 C 41 81.2 39.4 78.5 41 82.9 C 41.7 84.9 43.4 89.5 45.8 89 C 53.6 86.8 44.5 84.5 53 78.8 C 55.2 77.1 58.2 73.1 50.3 70.8 C 49.9 70.7 43.1 69.6 42.7 69.5 "/>
    <path id="ID0.8937406223267317_17_" fill="#FAA51F" stroke="#000000" stroke-width="2" stroke-linecap="round" stroke-linejoin="round" d="M 51.4 80.3 C 50.4 80.8 49 82.2 47.8 83 "/>
    <path id="ID0.8937406223267317_16_" fill="#FAA51F" stroke="#000000" stroke-width="2" stroke-linecap="round" stroke-linejoin="round" d="M 46.9 78.4 C 46.4 78.6 44 78.2 42.7 78.2 "/>
  </g>
  <path id="ID0.1790580078959465_10_" fill="#000000" stroke="#000000" stroke-width="2" stroke-linecap="round" stroke-linejoin="round" d="M 37.6 56.4 C 38.3 55.8 44.1 56.5 44.8 56 C 51.9 50.9 56.5 51.2 57.3 52.5 C 59 55.7 56.8 59.2 50.4 61.9 C 45.6 64 34.1 63.4 33.3 63.7 "/>
  <g id="ID0.7407716196030378_10_">
    <path id="ID0.8024068027734756_10_" fill="#FAA51F" stroke="#8E5322" stroke-width="1.4" stroke-linecap="round" stroke-linejoin="round" d="M 43.4 57 "/>
    <path id="ID0.06734407460317016_10_" fill="none" stroke="#8E5322" stroke-width="1.4" stroke-linecap="round" stroke-linejoin="round" d="M 40.2 55.4 "/>
  </g>
  <path id="ID0.042709666304290295" fill="#101010" stroke="none" d="M 47.3558 25.95 C 48.0107 25.95 48.6045 26.241 49.0347 26.712 C 49.465 27.183 49.7308 27.833 49.7308 28.55 C 49.7308 29.267 49.465 29.917 49.0347 30.388 C 48.6045 30.859 48.0107 31.15 47.3558 31.15 C 46.7008 31.15 46.1071 30.859 45.6768 30.388 C 45.2466 29.917 44.9808 29.267 44.9808 28.55 C 44.9808 27.833 45.2466 27.183 45.6768 26.712 C 46.1071 26.241 46.7008 25.95 47.3558 25.95 Z " stroke-width="0.9577087324721634"/>
  <path id="ID0.042709666304290295" fill="#101010" stroke="none" d="M 70.7058 23.45 C 71.3607 23.45 71.9545 23.741 72.3847 24.212 C 72.815 24.683 73.0808 25.333 73.0808 26.05 C 73.0808 26.767 72.815 27.417 72.3847 27.888 C 71.9545 28.359 71.3607 28.65 70.7058 28.65 C 70.0508 28.65 69.4571 28.359 69.0268 27.888 C 68.5966 27.417 68.3308 26.767 68.3308 26.05 C 68.3308 25.333 68.5966 24.683 69.0268 24.212 C 69.4571 23.741 70.0508 23.45 70.7058 23.45 Z " stroke-width="0.9577087324721634"/>
</svg>