<svg xmlns="http://www.w3.org/2000/svg" xmlns:xlink="http://www.w3.org/1999/xlink" version="1.1" width="340.05303955078125" height="160.5" viewBox="-0.5530300140380859 -0.5 340.05303955078125 160.5">
  <!-- Exported by Scratch - http://scratch.mit.edu/ -->
  <path id="ID0.8664965587668121" fill="#000000" stroke="none" stroke-linecap="round" d="M 29.5 22 C 29.624 29.326 25.14 54.366 20.5 69.5 C 18.204 76.983 14.94 85.301 9 90 C 6.607 91.897 -0.221 89.601 0.5 86.5 C 3.384 74.096 13.481 64.587 17.5 52.5 C 23.205 35.748 25.651 9.96 29.5 0.5 L 29.5 22 Z " stroke-width="1"/>
  <path id="ID0.8664965587668121" fill="#000000" stroke="none" stroke-linecap="round" d="M 48.1661 67.7811 C 47.5388 75.771 48.3749 100.0006 48.4734 116.0535 C 48.6478 125.2691 54.5413 137.3835 48.9876 143.6604 C 44.8399 148.3561 31.0322 144.7154 29.0913 137.9951 C 25.4338 125.3106 34.0161 112.0098 36.774 99.0985 C 40.6821 80.8121 46.23 53.6988 50.0527 43.7864 L 48.1661 67.7811 Z " stroke-width="1.0430107001713982"/>
  <path id="ID0.8664965587668121" fill="#000000" stroke="none" stroke-linecap="round" d="M 76.2321 97.2988 C 78.4176 102.987 80.9686 111.8896 82.6687 119.5589 C 84.0295 127.7828 89.9799 138.2523 85.3944 144.7905 C 81.8755 149.8053 69.7536 147.524 65.7176 142.2975 C 60.683 135.7767 63.3445 125.7225 63.6474 117.4303 C 64.6372 104.8688 65.865 86.4251 69.5761 80.065 L 76.2321 97.2988 Z " stroke-width="0.9999999664006899"/>
  <path id="ID0.8664965587668121" fill="#000000" stroke="none" stroke-linecap="round" d="M 121.5174 92.9002 C 121.6737 98.9876 121.3314 108.1971 120.701 115.949 C 119.7129 124.0925 121.4973 135.6042 116.6917 140.4042 C 111.5064 145.5832 98.4821 147.0381 96.5048 139.9397 C 94.3158 130.3447 104.4449 117.6825 108.3592 107.0173 C 112.3905 96.0261 117.0424 79.0011 121.0208 74.4443 L 121.5174 92.9002 Z " stroke-width="0.8680667382551577"/>
  <path id="ID0.6347123826853931" fill="#000000" stroke="none" stroke-linecap="round" d="M 244.9516 142.9281 L 262.8596 86.9757 L 269.5552 147.3656 L 244.9516 142.9281 Z " stroke-width="1.304312512767191"/>
  <path id="ID0.6347123826853931" fill="#000000" stroke="none" stroke-linecap="round" d="M 186.5 141.0419 L 194.5 98.5419 L 212.5 141.0419 L 186.5 141.0419 Z " stroke-width="1.0768922071005929"/>
  <path id="ID0.6347123826853931" fill="#000000" stroke="none" stroke-linecap="round" d="M 207.0115 140.5 L 212.2423 103.5 L 224.0115 140.5 L 207.0115 140.5 Z " stroke-width="0.8448416363165174"/>
  <path id="ID0.6347123826853931" fill="#000000" stroke="none" stroke-linecap="round" d="M 282.0115 149.5 L 287.2423 112.5 L 299.0115 149.5 L 282.0115 149.5 Z " stroke-width="0.8448416363165174"/>
  <path id="ID0.6347123826853931" fill="#000000" stroke="none" stroke-linecap="round" d="M 9.3923 142.8976 L 20.1332 107.1066 L 26.1986 145.4567 L 9.3923 142.8976 Z " stroke-width="0.8448416099937296"/>
  <path id="ID0.6347123826853931" fill="#000000" stroke="none" stroke-linecap="round" d="M 47.5114 149.9803 L 54.0007 113.1802 L 64.5015 150.56 L 47.5114 149.9803 Z " stroke-width="0.8448416205087157"/>
  <path id="ID0.6347123826853931" fill="#000000" stroke="none" stroke-linecap="round" d="M 137.805 142.8387 L 142.9315 105.8242 L 154.8049 142.7909 L 137.805 142.8387 Z " stroke-width="0.8448415947856172"/>
  <path id="ID0.6347123826853931" fill="#000000" stroke="none" stroke-linecap="round" d="M 162.6115 159 L 167.8423 122 L 179.6115 159 L 162.6115 159 Z " stroke-width="0.8448416363165174"/>
  <path id="ID0.7789521687664092" fill="none" stroke="#000000" stroke-width="2" stroke-linecap="round" d="M 338.5 141 L 18.5 141 L 20 121.5 "/>
</svg>