<svg xmlns="http://www.w3.org/2000/svg" xmlns:xlink="http://www.w3.org/1999/xlink" version="1.1" width="89.41268157958984" height="97.01268768310547" viewBox="-0.21268701553344727 1.2000000476837158 89.41268157958984 97.01268768310547">
  <!-- Exported by Scratch - http://scratch.mit.edu/ -->
  <path id="ID0.48413723474368453_19_" fill="none" stroke="#000000" stroke-width="2" stroke-linecap="round" stroke-linejoin="round" d="M 52.3 12.1 C 50.8 11.8 47.8 11.2 46.1 11.1 C 41.5 10.7 37 11.9 37 11.9 L 25.5 2.2 L 25.4 20.6 C 26.1 19.9 13.8 31.7 19.2 43.4 C 24.8 55.3 38.6 62 57.1 60.6 C 75.6 59.2 81.2 49.4 80.6 43.8 C 80 38.2 73.5 35.3 73.5 35.3 C 73.5 35.3 73.9 31 71.5 25.4 C 70 22 64.4 16.7 64.4 16.7 L 63 5.2 L 55 11.3 L 52.3 12.1 Z "/>
  <path id="ID0.40227043256163597_19_" fill="none" stroke="#000000" stroke-width="2" stroke-linecap="round" stroke-linejoin="round" d="M 20.3 75.6 C 18 74.7 15.3 73.2 13.4 70.5 C 9 64.4 9 55.9 4.7 57.2 C 0.4 58.5 -2.2 71.8 9 78.3 C 12.9 80.6 16.7 81.4 19.7 81.9 C 20.5 82.1 27.5 82.8 30.5 79.8 C 33.5 76.8 32.1 75.7 31.4 75 C 30.7 74.4 23.6 77 20.3 75.6 Z "/>
  <g id="ID0.7344332123175263">
    <g id="ID0.7407716196030378_19_">
      <path id="ID0.15909873321652412_19_" fill="#000000" stroke="#000000" stroke-width="2" stroke-linecap="round" stroke-linejoin="round" d="M 20.2 63.5 C 18.1 56.7 17.2 59.2 18.3 56.6 C 22.2 53.3 31 54.1 36.6 56.7 L 38.8 64.4 "/>
      <path id="ID0.8024068027734756_19_" fill="#FAA51F" stroke="#8E5322" stroke-width="1.4" stroke-linecap="round" stroke-linejoin="round" d="M 25.7 61.6 "/>
      <path id="ID0.06734407460317016_19_" fill="none" stroke="#8E5322" stroke-width="1.4" stroke-linecap="round" stroke-linejoin="round" d="M 28.7 63.6 "/>
      <path id="ID0.8143284288235009_19_" fill="#FAA51F" stroke="#8E5322" stroke-width="1.4" stroke-linecap="round" stroke-linejoin="round" d="M 25 61.9 L 30.6 62.2 "/>
      <path id="ID0.6682511982508004_19_" fill="none" stroke="#000000" stroke-width="2" stroke-linecap="round" stroke-linejoin="round" d="M 24.2 62.1 L 23.9 60.2 "/>
    </g>
    <path id="ID0.1790580078959465_19_" fill="#000000" stroke="#000000" stroke-width="2" stroke-linecap="round" stroke-linejoin="round" d="M 24 62.6 C 24.8 68.4 21.2 70.8 19.6 70.5 C 15.7 69.6 14.7 64.8 18.1 56.7 "/>
  </g>
  <path id="ID0.8535828334279358_19_" fill="#000000" d="M 20.3 75.6 C 18 74.7 15.3 73.2 13.4 70.5 C 9 64.4 9 55.9 4.7 57.2 C 0.4 58.5 -2.2 71.8 9 78.3 C 12.9 80.6 16.7 81.4 19.7 81.9 C 20.5 82.1 27.5 82.8 30.5 79.8 C 33.5 76.8 32.1 75.7 31.4 75 C 30.7 74.4 23.6 77 20.3 75.6 Z " stroke-width="1"/>
  <path id="ID0.914295740891248_19_" fill="#101010" d="M 4.9 57.1 C 2.8 57.4 0.6 61.9 0.8 65.6 C 1.1 69.3 2.6 71.9 3.5 73.4 C 4.8 74.8 3.4 70.3 5.9 68.9 C 8.4 67.5 12.3 69 12.3 69 C 12.3 69 10.1 64.1 8.9 61.3 C 8 58.8 7.1 57 4.9 57.1 Z " stroke-width="1"/>
  <g id="ID0.16171270422637463_20_">
    <path id="ID0.007584026083350182_20_" fill="#000000" stroke="#000000" stroke-width="2" stroke-linecap="round" stroke-linejoin="round" d="M 42.2 74.8 C 42.2 74.8 41.5 79.9 44.5 88.2 C 45.8 91.8 51.5 85.8 53 93.1 C 53.4 95.2 44.4 97.4 42.2 97.2 C 40.2 97 39.5 96.5 39.3 94.5 C 38.5 87.2 29.8 77.4 29.8 77.4 "/>
    <path id="ID0.31672530295327306_20_" fill="#FAA51F" stroke="#000000" stroke-width="2" stroke-linecap="round" stroke-linejoin="round" d="M 46.9 89.4 C 46.9 89.4 45.6 89.5 44.2 90.2 "/>
  </g>
  <g id="Layer_2_40_">
    <path id="ID0.39854341372847557_19_" fill="#FAA51F" stroke="#8E5322" stroke-width="1.4" stroke-linecap="round" stroke-linejoin="round" d="M 34.3 72.5 "/>
  </g>
  <path id="ID0.46792364912107587_19_" fill="#000000" stroke="#000000" stroke-width="2" stroke-linecap="round" stroke-linejoin="round" d="M 46.4 66.8 C 44.5 73.2 43.4 83.1 32 79.8 C 20.6 76.5 24 68.1 26.1 61.7 C 27.9 56.3 33.3 54.9 38.9 56.6 C 45.2 58.6 48.3 60.4 46.4 66.8 Z "/>
  <path id="ID0.38032895559445024_19_" fill="#101010" d="M 44.1 68.9 C 42.9 72.9 42 79.2 35.9 77.4 C 29.8 75.6 31.8 70.3 33 66.2 C 34.2 62.2 36.6 61.6 40.2 62.7 C 43.7 63.8 45.3 64.9 44.1 68.9 Z " stroke-width="1"/>
  <g id="ID0.15723733883351088_22_">
    <path id="ID0.527006761636585_22_" fill="#000000" stroke="#000000" stroke-width="2" stroke-linecap="round" stroke-linejoin="round" d="M 26.5 73.6 C 26.5 73.6 22.6 77.9 21.4 78.5 C 14.6 75.4 15.2 74.2 12.2 77.8 C 10.8 79.5 7.8 83.2 9.4 85.1 C 15.3 90.7 13 79.3 21.2 85.9 C 23.4 86.8 25.8 81.2 35.4 80.1 "/>
    <path id="ID0.8937406223267317_30_" fill="#FAA51F" stroke="#000000" stroke-width="2" stroke-linecap="round" stroke-linejoin="round" d="M 17.9 83.7 C 17.4 83.3 15.9 82.8 15.4 82.3 "/>
  </g>
  <path id="ID0.2591130444779992_19_" fill="#000000" d="M 52.3 12.1 C 50.8 11.8 47.8 11.2 46.1 11.1 C 41.5 10.7 37 11.9 37 11.9 L 25.5 2.2 L 25.4 20.6 C 26.1 19.9 13.8 31.7 19.2 43.4 C 24.8 55.3 38.6 62 57.1 60.6 C 75.6 59.2 81.2 49.4 80.6 43.8 C 80 38.2 73.5 35.3 73.5 35.3 C 73.5 35.3 73.9 31 71.5 25.4 C 70 22 64.4 16.7 64.4 16.7 L 63 5.2 L 55 11.3 L 52.3 12.1 Z " stroke-width="1"/>
  <path id="ID0.3588979784399271_19_" fill="#101010" d="M 72.7 35 L 70.6 32.7 L 61.5 34.2 C 61.5 34.2 61.1 37.5 56.8 37.9 C 52.5 38.3 45.7 35.8 45.7 35.8 L 38.4 36.7 C 38.4 36.7 30.4 35.2 29.2 41.5 C 27.2 52.4 35.7 58.8 44.2 59.8 C 49.7 60.5 53.2 60.2 57.2 60 C 74.6 59 80.8 49.3 80 43.7 C 79.5 38.1 73.1 35.7 73.1 35.7 L 72.7 35 Z " stroke-width="1"/>
  <path id="ID0.2727069961838424_19_" fill="none" stroke="#000000" stroke-width="2" stroke-linecap="round" stroke-linejoin="round" d="M 77 41 C 77 41 81.4 40.5 83.7 39.9 C 86.3 39.1 88.2 37.6 88.2 37.6 "/>
  <path id="ID0.5861211125738919_19_" fill="none" stroke="#000000" stroke-width="2" stroke-linecap="round" stroke-linejoin="round" d="M 76.8 46.8 C 76.8 46.8 79.4 48 82.2 48.2 C 84.9 48.6 86.7 48.4 86.7 48.4 "/>
  <path id="ID0.4793355236761272_19_" fill="none" stroke="#000000" stroke-width="2" stroke-linecap="round" stroke-linejoin="round" d="M 34.9 10.1 L 39.6 14.3 "/>
  <path id="ID0.9024141579866409_19_" fill="none" stroke="#000000" stroke-width="2" stroke-linecap="round" stroke-linejoin="round" d="M 8.2 37.3 C 8.2 37.3 12.1 38.4 13.8 38.6 C 15.6 38.8 19.1 39 19.1 39 "/>
  <path id="ID0.16030752705410123_19_" fill="none" stroke="#000000" stroke-width="2" stroke-linecap="round" stroke-linejoin="round" d="M 19.9 35.2 C 19.9 35.2 18 33 14.9 30.7 C 11.4 28.1 9.3 27.2 9.3 27.2 "/>
  <g id="Layer_5_20_">
    <path id="ID0.40023312577977777_19_" fill="#FFFFFF" stroke="black" stroke-width="2" stroke-linecap="round" stroke-linejoin="round" d="M 69.4 25.2 C 71.7 29.8 71.1 34.8 68.3 36.1 C 65.4 37.6 61.2 34.9 58.9 30.2 C 56.6 25.6 57.2 20.6 60 19.3 C 62.9 17.9 67.1 20.5 69.4 25.2 Z "/>
    <path id="ID0.43813491938635707_19_" fill="#414142" d="M 68.8 28.7 C 69 29.7 68.4 30.7 67.3 30.8 C 66.4 31 65.5 30.3 65.3 29.1 C 65.1 28.1 65.7 27.1 66.8 27 C 67.8 27 68.7 27.7 68.8 28.7 " stroke-width="1"/>
  </g>
  <g id="Layer_7_20_">
    <path id="ID0.4253597157076001_19_" fill="#FFFFFF" stroke="black" stroke-width="2" stroke-linecap="round" stroke-linejoin="round" d="M 46 25.4 C 48.3 30 47.3 35.1 43.9 36.8 C 40.5 38.5 35.8 36.1 33.6 31.4 C 31.3 26.8 32.3 21.7 35.7 20 C 39.1 18.4 43.7 20.8 46 25.4 Z "/>
    <path id="ID0.814307457767427_19_" fill="#414142" d="M 45.2 29.2 C 45.1 30.2 44.2 31 43.3 30.9 C 42.3 30.8 41.7 29.9 41.8 28.8 C 41.9 27.8 42.8 27 43.7 27.1 C 44.6 27.2 45.3 28.1 45.2 29.2 " stroke-width="1"/>
  </g>
  <path id="ID0.5240494590252638_19_" fill="#000000" stroke="#000000" stroke-width="2" stroke-linecap="round" stroke-linejoin="round" d="M 55.7 36.6 C 57.4 36.6 59.9 35.6 59.9 37.5 C 59.8 38.3 57.8 41.4 56 41.3 C 54 41.2 50.8 38.2 51.1 36.8 C 51.4 35.2 54.2 36.6 55.7 36.6 Z "/>
  <path id="ID0.046259244438260794_19_" fill="#FFFFFF" stroke="#000000" stroke-width="2" stroke-linecap="round" stroke-linejoin="round" d="M 44.8 50.7 C 44.8 50.7 47 53.3 52.5 52.9 "/>
  <g id="ID0.1691434239037335">
    <g id="ID0.7407716196030378_18_">
      <path id="ID0.15909873321652412_18_" fill="#000000" stroke="#000000" stroke-width="2" stroke-linecap="round" stroke-linejoin="round" d="M 39.9 60.6 C 39.8 60.8 51.8 70.6 51.5 70.7 C 49.5 71.1 47.1 72.5 46.2 72.4 C 42.1 71.9 36.8 69 33.5 64.9 L 33 63.6 "/>
      <path id="ID0.8024068027734756_18_" fill="#FAA51F" stroke="#8E5322" stroke-width="1.4" stroke-linecap="round" stroke-linejoin="round" d="M 45.5 65.1 "/>
      <path id="ID0.06734407460317016_18_" fill="none" stroke="#8E5322" stroke-width="1.4" stroke-linecap="round" stroke-linejoin="round" d="M 43.7 62 "/>
      <path id="ID0.8143284288235009_18_" fill="#FAA51F" stroke="#000000" stroke-width="2" stroke-linecap="round" stroke-linejoin="round" d="M 45.5 65.1 L 41.4 62.4 "/>
    </g>
    <path id="ID0.1790580078959465_18_" fill="#000000" stroke="#000000" stroke-width="2" stroke-linecap="round" stroke-linejoin="round" d="M 42.7 63.2 C 41.7 62.7 44.8 65.6 45.7 65.4 C 46.5 65.3 48.2 64.6 48.8 64 C 52.6 60.4 56.5 61.9 57.2 63.4 C 58.8 67.1 54.8 70.3 46.5 72.5 "/>
  </g>
  <path id="ID0.042709666304290295" fill="#101010" stroke="none" d="M 43.4058 26.45 C 44.0607 26.45 44.6545 26.741 45.0847 27.212 C 45.515 27.683 45.7808 28.333 45.7808 29.05 C 45.7808 29.767 45.515 30.417 45.0847 30.888 C 44.6545 31.359 44.0607 31.65 43.4058 31.65 C 42.7508 31.65 42.1571 31.359 41.7268 30.888 C 41.2966 30.417 41.0308 29.767 41.0308 29.05 C 41.0308 28.333 41.2966 27.683 41.7268 27.212 C 42.1571 26.741 42.7508 26.45 43.4058 26.45 Z " stroke-width="0.9577087324721634"/>
  <path id="ID0.042709666304290295" fill="#101010" stroke="none" d="M 66.9058 26.3 C 67.5607 26.3 68.1545 26.591 68.5847 27.062 C 69.015 27.533 69.2808 28.183 69.2808 28.9 C 69.2808 29.617 69.015 30.267 68.5847 30.738 C 68.1545 31.209 67.5607 31.5 66.9058 31.5 C 66.2508 31.5 65.6571 31.209 65.2268 30.738 C 64.7966 30.267 64.5308 29.617 64.5308 28.9 C 64.5308 28.183 64.7966 27.533 65.2268 27.062 C 65.6571 26.591 66.2508 26.3 66.9058 26.3 Z " stroke-width="0.9577087324721634"/>
</svg>