<svg xmlns="http://www.w3.org/2000/svg" xmlns:xlink="http://www.w3.org/1999/xlink" version="1.1" width="90.39331817626953" height="96.74613189697266" viewBox="0.7066837549209595 1.9000000953674316 90.39331817626953 96.74613189697266">
  <!-- Exported by Scratch - http://scratch.mit.edu/ -->
  <path id="ID0.48413723474368453_12_" fill="none" stroke="#000000" stroke-width="2" stroke-linecap="round" stroke-linejoin="round" d="M 54 12.8 C 52.5 12.5 49.5 11.9 47.8 11.8 C 43.2 11.4 38.7 12.6 38.7 12.6 L 27.2 2.9 L 27.1 21.3 C 27.8 20.6 15.5 32.4 20.9 44.1 C 26.5 56 40.3 62.7 58.8 61.3 C 77.3 60 82.9 50.1 82.3 44.5 C 81.8 38.9 75.2 36 75.2 36 C 75.2 36 75.6 31.7 73.2 26.1 C 71.7 22.7 66.1 17.4 66.1 17.4 L 64.7 5.9 L 56.7 12 L 54 12.8 Z "/>
  <g id="ID0.5961372470483184">
    <g id="ID0.7407716196030378_21_">
      <path id="ID0.15909873321652412_21_" fill="#000000" stroke="#000000" stroke-width="2" stroke-linecap="round" stroke-linejoin="round" d="M 34.1 63.9 C 34.1 63.6 19.4 58.5 19.6 58.3 C 21.3 57.2 23.1 55.3 24 55.1 C 28 54.1 34 55 38.5 57.6 L 40.6 59.5 "/>
      <path id="ID0.8024068027734756_21_" fill="#FAA51F" stroke="#8E5322" stroke-width="1.4" stroke-linecap="round" stroke-linejoin="round" d="M 27.3 61.7 "/>
      <path id="ID0.06734407460317016_21_" fill="none" stroke="#8E5322" stroke-width="1.4" stroke-linecap="round" stroke-linejoin="round" d="M 30.1 63.9 "/>
      <path id="ID0.8143284288235009_20_" fill="#FAA51F" stroke="#8E5322" stroke-width="1.4" stroke-linecap="round" stroke-linejoin="round" d="M 27.3 61.7 L 32.1 62.7 "/>
    </g>
    <path id="ID0.1790580078959465_21_" fill="#000000" stroke="#000000" stroke-width="2" stroke-linecap="round" stroke-linejoin="round" d="M 30 61.3 C 31.5 61.3 25.4 61.3 24.2 64.4 C 22.2 69.3 18.2 69.7 17 68.7 C 13.9 66.1 16.1 61.4 22.6 55.8 "/>
  </g>
  <path id="ID0.8535828334279358_12_" fill="#FAA51F" d="M 24 73.7 C 21.5 73.5 18.5 73 15.8 71 C 9.7 66.6 7 58.6 3.4 61.2 C -0.2 63.8 1.5 77.2 14.1 79.9 C 18.5 80.9 22.4 80.4 25.4 79.9 C 26.2 79.8 33.1 78.3 35 74.5 C 36.9 70.7 35.2 70.1 34.3 69.6 C 33.5 69.3 27.5 74 24 73.7 Z " stroke-width="1"/>
  <path id="ID0.40227043256163597_12_" fill="#000000" stroke="#000000" stroke-width="2" stroke-linecap="round" stroke-linejoin="round" d="M 24 73.7 C 21.5 73.5 18.5 73 15.8 71 C 9.7 66.6 7 58.6 3.4 61.2 C -0.2 63.8 1.5 77.2 14.1 79.9 C 18.5 80.9 22.4 80.4 25.4 79.9 C 26.2 79.8 33.1 78.3 35 74.5 C 36.9 70.7 35.2 70.1 34.3 69.6 C 33.5 69.3 27.5 74 24 73.7 Z "/>
  <path id="ID0.914295740891248_12_" fill="#101010" d="M 3.6 61 C 1.7 61.9 1.1 66.9 2.4 70.4 C 3.9 73.8 6.1 75.8 7.5 77 C 9.2 77.9 6.4 74.1 8.3 72 C 10.2 69.9 14.4 70.1 14.4 70.1 C 14.4 70.1 10.7 66.1 8.7 63.9 C 7 61.7 5.6 60.2 3.6 61 Z " stroke-width="1"/>
  <g id="ID0.16171270422637463_12_">
    <path id="ID0.007584026083350182_12_" fill="#000000" stroke="#000000" stroke-width="2" stroke-linecap="round" stroke-linejoin="round" d="M 45.3 73.8 C 45.3 73.8 46.8 80.7 51.3 88.4 C 53.2 91.7 57.8 84.8 60.5 91.7 C 61.2 93.7 52.8 97.4 50.6 97.6 C 48.6 97.8 47.8 97.4 47.3 95.4 C 45.2 88.3 35.9 79.6 35.9 79.6 "/>
    <path id="ID0.31672530295327306_12_" fill="#FAA51F" stroke="#000000" stroke-width="2" stroke-linecap="round" stroke-linejoin="round" d="M 53.8 89.2 C 53.8 89.2 52.5 89.6 51.3 90.5 "/>
  </g>
  <g id="Layer_2_26_">
    <path id="ID0.39854341372847557_12_" fill="#FAA51F" stroke="#8E5322" stroke-width="1.4" stroke-linecap="round" stroke-linejoin="round" d="M 36 72.2 "/>
  </g>
  <path id="ID0.46792364912107587_12_" fill="#000000" stroke="#000000" stroke-width="2" stroke-linecap="round" stroke-linejoin="round" d="M 48.1 66.6 C 46.2 73 45.1 82.9 33.7 79.6 C 22.3 76.3 25.6 67.8 27.8 61.5 C 29.8 55.8 35.8 54.8 40.6 56.4 C 46.8 58.4 50 60.1 48.1 66.6 Z "/>
  <path id="ID0.38032895559445024_12_" fill="#101010" d="M 45.2 68.6 C 44 72.6 43.1 78.9 37 77.1 C 30.9 75.3 32.9 70 34.1 65.9 C 35.3 61.9 38.2 62.1 41.3 62.4 C 45 62.7 46.4 64.6 45.2 68.6 Z " stroke-width="1"/>
  <g id="ID0.15723733883351088_15_">
    <path id="ID0.527006761636585_15_" fill="#000000" stroke="#000000" stroke-width="2" stroke-linecap="round" stroke-linejoin="round" d="M 27.1 72.5 C 27.1 72.5 20.6 77.9 19.3 78.6 C 18.1 76.9 16.7 76.6 14.9 77.7 C 13 78.9 7.2 83.8 8.8 85.7 C 13.6 91.6 15.8 83.6 18.7 86 C 20.8 86.9 28.3 79.7 36.9 79 "/>
    <path id="ID0.8937406223267317_20_" fill="#FAA51F" stroke="#000000" stroke-width="2" stroke-linecap="round" stroke-linejoin="round" d="M 18.6 85.9 C 17.4 85 16.7 83.6 16.7 83.6 "/>
  </g>
  <path id="ID0.2591130444779992_12_" fill="#000000" d="M 54 12.8 C 52.5 12.5 49.5 11.9 47.8 11.8 C 43.2 11.4 38.7 12.6 38.7 12.6 L 27.2 2.9 L 27.1 21.3 C 27.8 20.6 15.5 32.4 20.9 44.1 C 26.5 56 40.3 62.7 58.8 61.3 C 77.3 60 82.9 50.1 82.3 44.5 C 81.8 38.9 75.2 36 75.2 36 C 75.2 36 75.6 31.7 73.2 26.1 C 71.7 22.7 66.1 17.4 66.1 17.4 L 64.7 5.9 L 56.7 12 L 54 12.8 Z " stroke-width="1"/>
  <path id="ID0.3588979784399271_12_" fill="#101010" d="M 74.4 35.7 L 72.3 33.4 L 63.2 35 C 63.2 35 62.8 38.3 58.5 38.7 C 54.2 39.1 47.4 36.6 47.4 36.6 L 40.1 37.5 C 40.1 37.5 32.1 36 30.9 42.3 C 28.9 53.2 37.4 59.6 45.9 60.6 C 51.4 61.3 54.9 61 58.9 60.8 C 76.4 59.8 82.5 50.1 81.7 44.5 C 81.2 38.9 74.8 36.5 74.8 36.5 L 74.4 35.7 Z " stroke-width="1"/>
  <path id="ID0.2727069961838424_12_" fill="none" stroke="#000000" stroke-width="2" stroke-linecap="round" stroke-linejoin="round" d="M 78.7 41.7 C 78.7 41.7 83.2 41.5 85.4 41 C 88.1 40.4 90.1 39.1 90.1 39.1 "/>
  <path id="ID0.5861211125738919_12_" fill="none" stroke="#000000" stroke-width="2" stroke-linecap="round" stroke-linejoin="round" d="M 78.5 47.5 C 78.5 47.5 80.9 48.9 83.7 49.5 C 86.3 50.1 88.2 50.1 88.2 50.1 "/>
  <path id="ID0.4793355236761272_12_" fill="none" stroke="#000000" stroke-width="2" stroke-linecap="round" stroke-linejoin="round" d="M 36.7 10.8 L 41.4 15 "/>
  <path id="ID0.9024141579866409_12_" fill="none" stroke="#000000" stroke-width="2" stroke-linecap="round" stroke-linejoin="round" d="M 9.9 38.6 C 9.9 38.6 13.8 39.5 15.6 39.6 C 17.4 39.7 20.9 39.7 20.9 39.7 "/>
  <path id="ID0.16030752705410123_12_" fill="none" stroke="#000000" stroke-width="2" stroke-linecap="round" stroke-linejoin="round" d="M 21.6 35.9 C 21.6 35.9 19.5 33.9 16.1 31.9 C 12.4 29.6 10.2 29 10.2 29 "/>
  <g id="Layer_5_13_">
    <path id="ID0.40023312577977777_12_" fill="#FFFFFF" stroke="black" stroke-width="2" stroke-linecap="round" stroke-linejoin="round" d="M 71.1 25.9 C 73.4 30.5 72.8 35.5 70 36.8 C 67.1 38.3 62.9 35.6 60.6 30.9 C 58.3 26.3 58.9 21.3 61.7 20 C 64.6 18.6 68.8 21.2 71.1 25.9 Z "/>
    <path id="ID0.43813491938635707_12_" fill="#414142" d="M 70.5 29.4 C 70.7 30.4 70.1 31.4 69 31.5 C 68.1 31.7 67.2 31 67 29.8 C 66.8 28.8 67.4 27.8 68.5 27.7 C 69.5 27.7 70.4 28.4 70.5 29.4 " stroke-width="1"/>
  </g>
  <g id="Layer_7_13_">
    <path id="ID0.4253597157076001_12_" fill="#FFFFFF" stroke="black" stroke-width="2" stroke-linecap="round" stroke-linejoin="round" d="M 47.7 26.1 C 50 30.7 49 35.8 45.6 37.5 C 42.2 39.2 37.5 36.8 35.3 32.1 C 33 27.5 34 22.4 37.4 20.7 C 40.8 19.1 45.4 21.5 47.7 26.1 Z "/>
    <path id="ID0.814307457767427_12_" fill="#414142" d="M 46.9 29.9 C 46.8 30.9 45.9 31.7 45 31.6 C 44 31.5 43.4 30.6 43.5 29.5 C 43.6 28.5 44.5 27.7 45.4 27.8 C 46.3 27.9 47 28.8 46.9 29.9 " stroke-width="1"/>
  </g>
  <path id="ID0.5240494590252638_12_" fill="#000000" stroke="#000000" stroke-width="2" stroke-linecap="round" stroke-linejoin="round" d="M 57.4 37.3 C 59.1 37.3 61.6 36.3 61.6 38.2 C 61.5 39 59.5 42.1 57.7 42 C 55.7 41.9 52.5 38.9 52.8 37.5 C 53.1 35.9 55.9 37.3 57.4 37.3 Z "/>
  <path id="ID0.046259244438260794_12_" fill="#FFFFFF" stroke="#000000" stroke-width="2" stroke-linecap="round" stroke-linejoin="round" d="M 46.5 51.4 C 46.5 51.4 48.7 54 54.2 53.6 "/>
  <g id="ID0.3586832140572369">
    <g id="ID0.7407716196030378_11_">
      <path id="ID0.15909873321652412_10_" fill="#000000" stroke="#000000" stroke-width="2" stroke-linecap="round" stroke-linejoin="round" d="M 41 60.5 C 40.9 60.7 53.1 69 52.8 69 C 50.9 69.5 48.8 72 47.9 71.9 C 43.8 71.6 38.4 68.9 34.9 64.9 L 34.2 63.7 "/>
      <path id="ID0.8024068027734756_11_" fill="#FAA51F" stroke="#8E5322" stroke-width="1.4" stroke-linecap="round" stroke-linejoin="round" d="M 46.8 64.7 "/>
      <path id="ID0.06734407460317016_11_" fill="none" stroke="#8E5322" stroke-width="1.4" stroke-linecap="round" stroke-linejoin="round" d="M 44.8 61.7 "/>
    </g>
    <path id="ID0.1790580078959465_12_" fill="#000000" stroke="#000000" stroke-width="2" stroke-linecap="round" stroke-linejoin="round" d="M 45.2 63.8 C 46.3 64.5 47 64.9 48 64.8 C 48.8 64.7 50.5 64.2 51.2 63.6 C 55.3 60.3 59.1 62.1 59.6 63.6 C 60.9 67.4 56.7 70.3 48.2 71.8 "/>
  </g>
  <path id="ID0.042709666304290295" fill="#101010" stroke="none" d="M 44.9058 27.3 C 45.5607 27.3 46.1545 27.591 46.5847 28.062 C 47.015 28.533 47.2808 29.183 47.2808 29.9 C 47.2808 30.617 47.015 31.267 46.5847 31.738 C 46.1545 32.209 45.5607 32.5 44.9058 32.5 C 44.2508 32.5 43.6571 32.209 43.2268 31.738 C 42.7966 31.267 42.5308 30.617 42.5308 29.9 C 42.5308 29.183 42.7966 28.533 43.2268 28.062 C 43.6571 27.591 44.2508 27.3 44.9058 27.3 Z " stroke-width="0.9577087324721634"/>
  <path id="ID0.042709666304290295" fill="#101010" stroke="none" d="M 68.4558 27 C 69.1107 27 69.7045 27.291 70.1347 27.762 C 70.565 28.233 70.8308 28.883 70.8308 29.6 C 70.8308 30.317 70.565 30.967 70.1347 31.438 C 69.7045 31.909 69.1107 32.2 68.4558 32.2 C 67.8008 32.2 67.2071 31.909 66.7768 31.438 C 66.3466 30.967 66.0808 30.317 66.0808 29.6 C 66.0808 28.883 66.3466 28.233 66.7768 27.762 C 67.2071 27.291 67.8008 27 68.4558 27 Z " stroke-width="0.9577087324721634"/>
</svg>