<svg xmlns="http://www.w3.org/2000/svg" xmlns:xlink="http://www.w3.org/1999/xlink" version="1.1" width="82.49900067056454" height="97.52030194009579" viewBox="0.7009999145803998 1.1999999870596478 82.49900067056454 97.52030194009579">
  <!-- Exported by Scratch - http://scratch.mit.edu/ -->
  <g id="ID0.5404896885156631">
    <path id="ID0.40227043256163597_16_" fill="none" stroke="#000000" stroke-width="1.9999999366964145" stroke-linecap="round" stroke-linejoin="round" d="M 29.619 73.4724 C 27.4449 72.2221 25.0284 70.4415 23.4526 67.4461 C 19.9701 60.8173 21.1168 52.3927 16.7099 53.1046 C 12.3029 53.8176 7.8494 66.6017 18.0225 74.585 C 21.5322 77.3939 25.2081 78.7121 28.1225 79.6429 C 28.8952 79.9309 35.7511 81.606 39.1542 79.0697 C 42.5593 76.5336 41.301 75.1839 40.6834 74.4102 C 40.0545 73.7378 32.6317 75.3199 29.619 73.4724 Z "/>
    <path id="ID0.8535828334279358_16_" fill="#000000" d="M 29.619 73.4724 C 27.4449 72.2221 25.0284 70.4415 23.4526 67.4461 C 19.9701 60.8173 21.1168 52.3927 16.7099 53.1046 C 12.3029 53.8176 7.8494 66.6017 18.0225 74.585 C 21.5322 77.3939 25.2081 78.7121 28.1225 79.6429 C 28.8952 79.9309 35.7511 81.606 39.1542 79.0697 C 42.5593 76.5336 41.301 75.1839 40.6834 74.4102 C 40.0545 73.7378 32.6317 75.3199 29.619 73.4724 Z " stroke-width="0.9999999683482073"/>
    <path id="ID0.914295740891248_16_" fill="#101010" d="M 16.9197 53.0285 C 14.8105 52.9931 12.024 57.2086 11.7098 60.8966 C 11.496 64.5948 12.5972 67.3357 13.3132 69.0251 C 14.449 70.5614 13.659 65.9445 16.2882 64.9324 C 18.9177 63.9183 22.6149 65.9443 22.6149 65.9443 C 22.6149 65.9443 21.0846 60.7411 20.3047 57.836 C 19.7004 55.1509 19.106 53.2739 16.9197 53.0285 Z " stroke-width="0.9999999683482073"/>
  </g>
  <path id="ID0.48413723474368453_16_" fill="none" stroke="#000000" stroke-width="2" stroke-linecap="round" stroke-linejoin="round" d="M 43.2 10.4 C 41.7 10.3 38.599 10.1 36.9 10.2 C 32.299 10.4 28 12.1 28 12.1 L 15.4 3.9 L 17.6 22.2 C 18.201 21.4 7.401 34.6 14.201 45.6 C 21.1 56.7 35.701 61.6 53.901 58 C 72.1 54.4 76.4 43.9 75.2 38.4 C 74 32.9 67.099 30.8 67.099 30.8 C 67.099 30.8 67 26.501 63.9 21.2 C 62 18.001 55.8 13.4 55.8 13.4 L 53 2.2 L 45.8 9.2 L 43.2 10.4 Z "/>
  <path id="ID0.007584026083350182_16_" fill="#000000" stroke="#000000" stroke-width="1.999999963561948" stroke-linecap="round" stroke-linejoin="round" d="M 53.7315 74.8141 C 53.7315 74.8141 53.834 80.5699 57.3422 88.681 C 58.8138 92.1973 64.216 85.8953 66.0515 93.0804 C 66.5176 95.1388 57.7149 97.8207 55.4704 97.7174 C 53.4468 97.6457 52.7532 97.1369 52.4127 95.1435 C 51.1791 87.8647 45.0402 81.0405 45.0402 81.0405 "/>
  <path id="ID0.46792364912107587_16_" fill="#000000" stroke="#000000" stroke-width="2" stroke-linecap="round" stroke-linejoin="round" d="M 53.2 65.801 C 53.2 72.501 54.9 82.301 43 82.301 C 31.1 82.301 32.2 73.301 32.2 66.601 C 32.2 59.901 36.3 58.101 43 58.101 C 49.7 58.101 53.2 59.101 53.2 65.801 Z "/>
  <path id="ID0.38032895559445024_22_" fill="#101010" d="M 50.6 68.7 C 50.6 72.9 51.5 79.2 45.1 79.2 C 38.701 79.2 39.201 73.501 39.201 69.301 C 39.201 65.101 41.401 63.901 45.1 63.901 C 48.8 63.9 50.6 64.501 50.6 68.7 Z " stroke-width="1"/>
  <path id="ID0.527006761636585_19_" fill="#000000" stroke="#000000" stroke-width="2.00000006112208" stroke-linecap="round" stroke-linejoin="round" d="M 32.9521 73.833 C 32.9521 73.833 32.7445 79.913 27.6045 87.0516 C 25.3308 90.1549 22.5046 83.413 19.38 90.3514 C 18.324 92.6196 25.1717 95.9225 27.3106 96.5744 C 29.3607 97.1806 30.5747 96.5687 31.3591 94.6093 C 33.0159 90.7383 38.517 83.3357 38.517 83.3357 "/>
  <path id="ID0.8143284288235009_1_" fill="#FAA51F" stroke="#000000" stroke-width="2" stroke-linecap="round" stroke-linejoin="round" d="M 35.3 65.4 C 34.135 68.535 32.218 72.335 32.218 72.335 "/>
  <path id="ID0.2591130444779992_16_" fill="#000000" d="M 43.2 10.4 C 41.7 10.3 38.599 10.1 36.9 10.2 C 32.299 10.4 28 12.1 28 12.1 L 15.4 3.9 L 17.6 22.2 C 18.201 21.4 7.401 34.6 14.201 45.6 C 21.1 56.7 35.701 61.6 53.901 58 C 72.1 54.4 76.4 43.9 75.2 38.4 C 74 32.9 67.099 30.8 67.099 30.8 C 67.099 30.8 67 26.501 63.9 21.2 C 62 18.001 55.8 13.4 55.8 13.4 L 53 2.2 L 45.8 9.2 L 43.2 10.4 Z " stroke-width="1"/>
  <path id="ID0.3588979784399271_16_" fill="#101010" d="M 66.2 30.7 L 63.8 28.7 L 55 31.301 C 55 31.301 55 34.601 50.8 35.501 C 46.6 36.4 39.5 34.801 39.5 34.801 L 32.4 36.601 C 32.4 36.601 24.299 36.101 23.9 42.501 C 23.2 53.601 32.5 58.9 41 58.801 C 46.5 58.801 50 58.101 53.9 57.401 C 71.099 54.301 76 43.901 74.5 38.401 C 73.3 32.901 66.7 31.301 66.7 31.301 L 66.2 30.7 Z " stroke-width="1"/>
  <path id="ID0.2727069961838424_16_" fill="none" stroke="#000000" stroke-width="2" stroke-linecap="round" stroke-linejoin="round" d="M 71.2 36.101 C 71.2 36.101 75.599 35.401 77.8 34.601 C 80.401 33.701 82.2 32.101 82.2 32.101 "/>
  <path id="ID0.5861211125738919_16_" fill="none" stroke="#000000" stroke-width="2" stroke-linecap="round" stroke-linejoin="round" d="M 71.7 41.9 C 71.7 41.9 74.3 43.001 77.099 43.2 C 79.799 43.501 81.599 43.301 81.599 43.301 "/>
  <path id="ID0.4793355236761272_16_" fill="none" stroke="#000000" stroke-width="2" stroke-linecap="round" stroke-linejoin="round" d="M 25.7 10.601 L 30.9 14.201 "/>
  <path id="ID0.9024141579866409_16_" fill="none" stroke="#000000" stroke-width="2" stroke-linecap="round" stroke-linejoin="round" d="M 2.5 41.4 C 2.5 41.4 6.5 41.8 8.3 41.7 C 10.1 41.6 13.6 41.1 13.6 41.1 "/>
  <path id="ID0.16030752705410123_16_" fill="none" stroke="#000000" stroke-width="2" stroke-linecap="round" stroke-linejoin="round" d="M 13.8 37.301 C 13.8 37.301 11.5 35.601 7.901 34.001 C 3.901 32.2 1.701 31.801 1.701 31.801 "/>
  <path id="ID0.40023312577977777_16_" fill="#FFFFFF" stroke="black" stroke-width="2" stroke-linecap="round" stroke-linejoin="round" d="M 61.7 21.301 C 64.5 25.601 64.599 30.601 61.9 32.301 C 59.2 34.101 54.7 32.001 51.9 27.601 C 49.099 23.301 49 18.301 51.7 16.601 C 54.4 14.901 58.9 17.001 61.7 21.301 Z "/>
  <path id="ID0.4253597157076001_16_" fill="#FFFFFF" stroke="black" stroke-width="2" stroke-linecap="round" stroke-linejoin="round" d="M 38.5 24.4 C 41.3 28.7 41 33.9 37.8 36.001 C 34.6 38.101 29.7 36.301 26.901 31.9 C 24.1 27.6 24.401 22.4 27.6 20.3 C 30.8 18.301 35.7 20.101 38.5 24.4 Z "/>
  <path id="ID0.5240494590252638_16_" fill="#000000" stroke="#000000" stroke-width="2" stroke-linecap="round" stroke-linejoin="round" d="M 49.5 34.301 C 51.2 34.101 53.5 32.801 53.8 34.7 C 53.8 35.501 52.2 38.801 50.401 38.9 C 48.401 39.001 44.901 36.501 45.001 35.001 C 45.101 33.501 48 34.501 49.5 34.301 Z "/>
  <path id="ID0.046259244438260794_16_" fill="#FFFFFF" stroke="#000000" stroke-width="2" stroke-linecap="round" stroke-linejoin="round" d="M 40.4 49.7 C 40.4 49.7 42.9 52.001 48.299 50.9 "/>
  <path id="ID0.042709666304290295" fill="#101010" stroke="none" d="M 58.9558 26.05 C 59.6107 26.05 60.2045 26.341 60.6347 26.812 C 61.065 27.283 61.3308 27.933 61.3308 28.65 C 61.3308 29.367 61.065 30.017 60.6347 30.488 C 60.2045 30.959 59.6107 31.25 58.9558 31.25 C 58.3008 31.25 57.7071 30.959 57.2768 30.488 C 56.8466 30.017 56.5808 29.367 56.5808 28.65 C 56.5808 27.933 56.8466 27.283 57.2768 26.812 C 57.7071 26.341 58.3008 26.05 58.9558 26.05 Z " stroke-width="0.9577087324721634"/>
  <path id="ID0.042709666304290295" fill="#101010" stroke="none" d="M 34.6558 29.55 C 35.3107 29.55 35.9045 29.841 36.3347 30.312 C 36.765 30.783 37.0308 31.433 37.0308 32.15 C 37.0308 32.867 36.765 33.517 36.3347 33.988 C 35.9045 34.459 35.3107 34.75 34.6558 34.75 C 34.0008 34.75 33.4071 34.459 32.9768 33.988 C 32.5466 33.517 32.2808 32.867 32.2808 32.15 C 32.2808 31.433 32.5466 30.783 32.9768 30.312 C 33.4071 29.841 34.0008 29.55 34.6558 29.55 Z " stroke-width="0.9577087324721634"/>
  <path id="ID0.1790580078959465_14_" fill="#000000" stroke="#000000" stroke-width="2.00000001908883" stroke-linecap="round" stroke-linejoin="round" d="M 33.245 59.7013 C 32.504 59.0224 26.7046 59.4312 26.0639 58.9522 C 19.2756 53.5025 14.6356 53.5295 13.7577 54.8709 C 11.8423 57.9338 13.8678 61.5707 20.2324 64.5811 C 24.9159 66.8339 36.4959 66.8763 37.2564 67.1952 "/>
  <path id="ID0.1790580078959465_13_" fill="#000000" stroke="#000000" stroke-width="2.000000121248136" stroke-linecap="round" stroke-linejoin="round" d="M 52.2077 59.468 C 53.0335 58.8952 58.7248 60.0819 59.4243 59.6936 C 66.8851 55.2085 71.4791 55.8606 72.1683 57.308 C 73.6533 60.6011 71.1562 63.9319 64.4439 66.057 C 59.4996 67.6581 48.0195 66.1395 47.2229 66.353 "/>
</svg>