<svg xmlns="http://www.w3.org/2000/svg" xmlns:xlink="http://www.w3.org/1999/xlink" version="1.1" width="211" height="265.3999938964844" viewBox="0.5 0.09999990463256836 211 265.3999938964844">
  <!-- Exported by Scratch - http://scratch.mit.edu/ -->
  <path id="ID0.597796970512718" fill="none" stroke="#272727" stroke-width="15" stroke-linecap="round" d="M 8 258 C 8 258 28.121 239.139 40.3 233.5 C 49.184 228.668 61.614 233.312 69.5 227.5 C 81.445 218.646 87.224 203.026 95.5 191.6 C 101.661 183.102 109.144 175.73 113.9 166 C 118.087 156.218 120.046 144.875 121.9 134 C 124.386 119.057 127.652 105.808 127.5 91.6 C 127.652 80.723 125.317 70.858 121.9 59.6 C 116.187 41.703 99.5 7.6 99.5 7.6 "/>
  <path id="ID0.597796970512718" fill="none" stroke="#272727" stroke-width="15" stroke-linecap="round" d="M 95.7 219.1 C 95.7 219.1 106.04 202.424 109.5 193.5 C 118.058 174.382 127.75 155.297 131.7 135.1 C 134.844 119.019 132.566 102.238 131.3 86 C 130 73.05 128.959 63.399 125.7 51.6 C 121.596 37.529 109.3 8.7 109.3 8.7 "/>
  <path id="ID0.597796970512718" fill="none" stroke="#272727" stroke-width="15" stroke-linecap="round" d="M 116 147.6 C 116 147.6 102.624 145.374 96 143.6 C 90.473 141.361 86.778 140.065 80 135.6 C 69.295 127.509 60.348 116.757 52 106 C 47.896 100.514 44 86 44 86 "/>
  <path id="ID0.597796970512718" fill="none" stroke="#272727" stroke-width="15" stroke-linecap="round" d="M 109.6 226 C 109.6 226 109.674 209.491 115.5 205.5 C 129.343 194.158 149.076 193.19 164 183.6 C 175.404 176.261 186.085 166.108 192 154 C 199.877 139.912 204 107.6 204 107.6 "/>
  <path id="ID0.597796970512718" fill="none" stroke="#272727" stroke-width="15" stroke-linecap="round" d="M 106.85 227 C 106.85 227 99.677 201.633 107.5 194.3 C 119.534 181.836 140.674 185.028 156 178 C 168.257 172.464 182.227 166.737 189.25 155 C 197.639 141.38 201.25 108.6 201.25 108.6 "/>
  <path id="ID0.597796970512718" fill="none" stroke="#272727" stroke-width="15" stroke-linecap="round" d="M 112 162 C 112 162 101.468 152.928 96 150 C 90.853 145.558 86.035 143.192 80.15 138.75 C 69.785 130.153 60.498 119.907 52.15 109.15 C 48.046 103.664 44.15 89.15 44.15 89.15 "/>
  <path id="ID0.08594858646392822" fill="none" stroke="#272727" stroke-width="4" stroke-linecap="round" d="M 119.5 97.5 L 119.4 119.4 "/>
  <path id="ID0.329490824136883" fill="none" stroke="#272727" stroke-width="11" stroke-linecap="round" d="M 47.5 117.5 L 63.5 127.5 "/>
  <path id="ID0.9171783579513431" fill="none" stroke="#272727" stroke-width="5" stroke-linecap="round" d="M 187.1 136.95 L 182.3 154.95 "/>
</svg>