<svg xmlns="http://www.w3.org/2000/svg" xmlns:xlink="http://www.w3.org/1999/xlink" version="1.1" width="36.58013704366373" height="35.88046815938639" viewBox="-0.13704766306721716 -0.12024106058918982 36.58013704366373 35.88046815938639">
  <!-- Exported by Scratch - http://scratch.mit.edu/ -->
  <path id="ID0.5443468582816422" fill="#000000" stroke="#000000" stroke-width="1.1585145573557825" d="M 20.3982 0.6738 C 23.6391 0.4338 26.9231 2.8636 28.9297 6.041 C 31.2172 9.6566 32.3229 14.5876 32.5261 18.9855 C 32.7372 23.4669 32.7639 29.2446 29.7435 31.9617 C 26.4412 35.5741 21.128 34.8941 16.6312 34.8978 C 12.294 34.9029 7.1908 35.7017 3.7289 32.4352 C 0.9195 29.4233 0.3709 23.5951 0.7363 18.9855 C 1.1048 14.3767 3.0442 9.0877 6.1702 6.041 C 10.0958 2.2075 15.411 0.4344 20.3982 0.6738 Z "/>
  <path id="ID0.37750169076025486" fill="#FFFFFF" stroke="#000000" stroke-width="0.8471974517271978" d="M 30.8166 12.696 C 32.1559 12.696 33.3692 13.2341 34.2478 14.1041 C 35.1264 14.9735 35.6704 16.1747 35.6704 17.4999 C 35.6704 18.825 35.1264 20.0263 34.2478 20.8957 C 33.3692 21.7657 32.1559 22.3038 30.8166 22.3038 C 29.4774 22.3038 28.2641 21.7657 27.3854 20.8957 C 26.5068 20.0263 25.9628 18.825 25.9628 17.4999 C 25.9628 16.1747 26.5068 14.9735 27.3854 14.1041 C 28.2641 13.2341 29.4774 12.696 30.8166 12.696 Z "/>
  <path id="ID0.37750169076025486" fill="#FFFFFF" stroke="#000000" stroke-width="1.1104878126595163" d="M 20.4339 11.2129 C 22.4221 11.211 24.224 11.8832 25.5294 12.9714 C 26.8349 14.0589 27.6439 15.5625 27.6456 17.222 C 27.6472 18.8816 26.841 20.3867 25.5377 21.4768 C 24.2343 22.5675 22.4337 23.2432 20.4455 23.2451 C 18.4573 23.2471 16.6554 22.5749 15.3499 21.4867 C 14.0445 20.3991 13.2354 18.8955 13.2338 17.236 C 13.2322 15.5765 14.0383 14.0713 15.3417 12.9812 C 16.645 11.8905 18.4456 11.2148 20.4339 11.2129 Z "/>
  <path id="ID0.234124637208879" fill="#000000" stroke="black" stroke-width="1.178983154000629" stroke-linecap="round" d="M 30.8693 13.3284 C 31.2323 13.3284 31.5609 13.7773 31.7989 14.5033 C 32.0372 15.2292 32.1845 16.2314 32.1845 17.337 C 32.1845 18.4427 32.0372 19.4449 31.7989 20.1708 C 31.5609 20.8967 31.2323 21.3457 30.8693 21.3457 C 30.5062 21.3457 30.1776 20.8967 29.9397 20.1708 C 29.7013 19.4449 29.554 18.4427 29.554 17.337 C 29.554 16.2314 29.7013 15.2292 29.9397 14.5033 C 30.1776 13.7773 30.5062 13.3284 30.8693 13.3284 Z "/>
  <path id="ID0.234124637208879" fill="#000000" stroke="black" stroke-width="1.5453851515738875" stroke-linecap="round" d="M 20.0253 11.8243 C 20.5642 11.8237 21.0526 12.3855 21.4068 13.2943 C 21.7615 14.2031 21.9814 15.4579 21.9828 16.8426 C 21.9841 18.2272 21.7666 19.4825 21.4136 20.392 C 21.0612 21.3014 20.5739 21.8641 20.035 21.8647 C 19.4961 21.8652 19.0077 21.3034 18.6535 20.3946 C 18.2988 19.4859 18.0789 18.231 18.0775 16.8464 C 18.0762 15.4617 18.2937 14.2064 18.6467 13.297 C 18.999 12.3875 19.4864 11.8248 20.0253 11.8243 Z "/>
</svg>