<svg xmlns="http://www.w3.org/2000/svg" xmlns:xlink="http://www.w3.org/1999/xlink" version="1.1" width="493.9047876714504" height="421.19928230035663" viewBox="-3.219953647198092 -3.125153607072245 493.9047876714504 421.19928230035663">
  <!-- Exported by Scratch - http://scratch.mit.edu/ -->
  <path id="ID0.5560680064372718" fill="#070707" stroke="#070707" stroke-width="6.839907300356648" stroke-linecap="round" d="M 327.6283 313.5977 C 329.6828 313.8628 329.7323 315.4943 330.383 317.111 C 332.8954 323.3664 334.7427 329.7749 336.5277 336.4043 C 336.9746 338.0627 336.9625 339.1 336.5758 340.385 C 335.2715 344.9832 334.0228 349.7387 331.5053 353.816 C 330.7399 355.0562 331.0217 355.8811 327.5645 355.7239 C 313.7364 355.0949 299.7338 354.0869 286.2052 351.513 C 282.8234 350.8694 282.3044 350.0954 282.9914 347.4141 C 285.7395 336.6896 290.3627 326.2668 295.4664 316.5948 C 296.7422 314.1767 299.1319 313.0604 301.4883 312.8188 C 310.0276 311.9502 318.9532 312.269 327.6283 313.5977 Z "/>
  <path id="ID0.7033852632157505" fill="#000000" stroke="#000000" stroke-width="2" stroke-linecap="round" d="M 88 54 C 87.141 56.289 87.342 59.359 87 62 C 85.549 66.215 84.964 67.86 84 70 C 82.492 72.636 82.03 74.302 81 76 C 76.57 81.712 74.818 82.598 73 85 C 69.882 89.514 69.245 93.118 66 96 C 58.74 102.465 50.122 104.637 43.6 110.6 C 40.237 113.785 37.648 111.083 38 121 L 38 242.6 L 39.6 258.6 C 39.336 264.384 44.931 277.267 50 285 C 53.098 289.713 57.497 293.458 62 297 C 67.891 302.434 73.635 308.425 81 312 C 85.898 314.365 92.333 314.454 97 315 C 99.91 315.257 102.668 314.893 105 315 C 109.674 315.192 113.28 315.358 116 316 C 121.442 317.421 126.702 318.82 131 321 C 135.149 323.141 138.8 326.632 142 329 C 146.012 332.201 149.177 334.725 152 336 C 158.418 338.975 164.212 341.322 170 343 C 179.115 344.176 180.153 344.339 184 344.5 C 193.611 344.194 196.821 344.3 201.5 344.5 C 208.638 344.882 214.521 345.36 220.8 345.6 C 237.026 346.675 237.787 347.604 244 349 C 251.357 351.569 251.424 351.242 254 352 C 261.551 354.065 262.277 354.399 266 355 C 278.781 356.225 278.644 354.789 283 355 C 286.959 355.892 288.251 354.98 291 355 C 312.704 355.94 319.366 356.318 329 357 C 331.918 357.202 334.342 357.812 337 358 C 343.773 358.436 346.702 358.716 351 358 C 355.085 356.179 357.141 355.522 360 354 C 363.818 350.4 366.332 348.766 368.5 346 C 372.2 341.138 375.501 335.884 378.25 330.5 C 379.824 327.395 380.465 323.751 381.25 320.5 C 381.903 317.799 381.896 314.807 382.5 312.25 C 383.103 309.716 384.181 307.312 384.75 304.75 C 385.3 302.279 385.615 299.622 386 297.25 C 386.184 295.832 386.501 294.129 386 293 C 385.737 292.405 384.666 293 384 293 C 383.334 293 382.666 293 382 293 C 380.558 293 380.238 293.254 379.5 293 C 378.722 292.751 378.271 292.481 378 292 C 377.585 291.263 377.961 290.722 378 290 C 378.731 283.107 378.909 281.926 380 279 C 383.189 274.178 384.037 273.84 385.5 272.5 C 388.929 269.408 392.524 266.327 396.5 263.5 C 400.112 261.644 402.204 261.595 404.5 261 C 406.85 260.404 410.655 259.519 412.5 259 C 416.106 257.93 416.556 257.049 418 257 C 423.778 257.393 426.591 257.62 429 258 C 429.682 258.117 430.334 258.667 431 259 C 431.666 259.333 432.389 259.581 433 260 C 435.361 261.499 435.166 262.645 436.5 263.5 C 439.168 264.459 440.157 264.856 442 265.5 C 447.319 267.267 446.702 267.185 449 268 C 456.234 270.257 452.297 269.656 453.5 270 C 455.319 270.477 458.235 270.84 460 271 C 460.663 271.049 461.312 270.948 462 271 C 468.796 272.078 468.147 270.747 471 271 C 473.796 272.5 473.922 271.066 475 271 C 476.254 270.886 477.638 271.427 479 271.5 C 480.779 271.421 481.483 271.516 482.5 271.5 C 483.756 271.36 485.161 270.365 486 271 C 487.194 274.381 486.874 275.496 487 277 C 487.041 277.663 487 278.334 487 279 C 487 280.332 487 281.668 487 283 C 487 283.999 487 285.001 487 286 C 487 287.665 487 289.335 487 291 C 487 292.332 487 293.668 487 295 C 487 296.332 487 297.668 487 299 C 487 300.665 487 302.335 487 304 C 487 304.999 487 306.001 487 307 C 487 308.665 487 310.335 487 312 C 487 312.666 487 313.334 487 314 C 487 315.665 487 317.335 487 319 C 487 320.665 487 322.335 487 324 C 487 325.665 487 327.335 487 329 C 487 329.999 487 331.001 487 332 C 487 333.332 487 334.668 487 336 C 487 336.999 487 338.001 487 339 C 487 339.666 487 340.334 487 341 C 487 342.332 487 343.668 487 345 C 487 345.999 487 347.001 487 348 C 487 348.666 487 349.334 487 350 C 487 350.666 487 351.334 487 352 C 487 353.332 487 354.668 487 356 C 487 356.666 487 357.334 487 358 C 487 358.999 487 360.001 487 361 C 487 362.332 487 363.668 487 365 C 487 366.332 487 367.668 487 369 C 487 369.999 487 371.001 487 372 C 487 372.999 487 374.001 487 375 C 487 375.666 487 376.334 487 377 C 487 377.999 487 379.001 487 380 C 487 380.666 487 381.334 487 382 C 487 382.666 487 383.334 487 384 C 487 384.666 487 385.334 487 386 C 487 386.999 487 388.001 487 389 C 487 389.666 487 390.334 487 391 C 487 391.666 487 392.334 487 393 C 487 393.666 487 394.334 487 395 C 487 395.666 487 396.334 487 397 C 487 397.999 487 399.001 487 400 C 487 400.666 487 401.334 487 402 C 487 402.666 487 403.334 487 404 C 487 404.666 487 405.334 487 406 C 487 406.666 487 407.334 487 408 C 487 408.666 487 409.334 487 410 C 487 410.666 487 411.334 487 412 C 487 412.666 487.596 413.702 487 414 C 485.809 414.596 484.332 414 483 414 C 481.335 414 479.665 414 478 414 C 476.002 414 473.998 414 472 414 C 470.002 414 467.998 414 466 414 C 464.002 414 461.998 414 460 414 C 458.002 414 455.998 414 454 414 C 452.002 414 449.998 414 448 414 C 446.002 414 443.998 414 442 414 C 440.002 414 437.998 414 436 414 C 434.335 414 432.665 414 431 414 C 429.002 414 426.998 414 425 414 C 423.002 414 420.998 414 419 414 C 416.669 414 414.331 414 412 414 C 410.002 414 407.998 414 406 414 C 404.002 414 401.998 414 400 414 C 398.002 414 395.998 414 394 414 C 392.002 414 389.998 414 388 414 C 385.336 414 382.664 414 380 414 C 378.002 414 375.998 414 374 414 C 372.002 414 369.998 414 368 414 C 366.335 414 364.665 414 363 414 C 361.002 414 358.998 414 357 414 C 355.335 414 353.665 414 352 414 C 350.335 414 348.665 414 347 414 C 346.001 414 344.999 414 344 414 C 342.335 414 340.665 414 339 414 C 337.668 414 336.332 414 335 414 C 333.335 414 331.665 414 330 414 C 328.335 414 326.665 414 325 414 C 323.002 414 320.998 414 319 414 C 316.669 414 314.331 414 312 414 C 309.669 414 307.331 414 305 414 C 303.002 414 300.998 414 299 414 C 296.336 414 293.664 414 291 414 C 289.002 414 286.998 414 285 414 C 283.002 414 280.998 414 279 414 C 276.336 414 273.664 414 271 414 C 269.002 414 266.998 414 265 414 C 257.835 414 256.498 414 254 414 C 248.691 414 245.122 414 242 414 C 237.967 414 234.706 414 232 414 C 230.002 414 227.97 413.738 226 414 C 221.357 415.148 217.239 414.403 213.5 414.3 C 211.326 414.228 209.095 414.03 207 414 C 205.002 413.972 202.989 414.127 201 414 C 194.498 412.884 192.732 413.925 190 414 C 187.675 414.091 185.331 414 183 414 C 180.669 414 178.331 414 176 414 C 172.67 414 169.33 414 166 414 C 163.336 414 160.664 414 158 414 C 154.67 414 151.33 414 148 414 C 144.67 414 141.33 414 138 414 C 135.669 414 133.331 414 131 414 C 129.002 414 126.998 414 125 414 C 114.236 414 110.294 414 105 414 C 100.846 414 96.575 414 93 414 C 90.019 414 87.164 414 85 414 C 80.493 414 76.914 414 74 414 C 67.985 414 63.09 414 59 414 C 57.668 414 56.332 414 55 414 C 53.668 414 52.332 414 51 414 C 45.502 414 44.165 414 42 414 C 40.335 414 38.663 414.057 37 414 C 35.759 413.96 34.591 413.6 33.5 413.5 C 30.377 413.69 27.813 414.233 25.5 414.3 C 24.349 414.306 23.17 413.971 22 414 C 21.571 414.035 23.129 413.499 22.3 413.5 C 11.717 414.989 10.009 414.904 7 414 C 6.018 413.544 7 411.999 7 411 C 7 409.002 7 406.998 7 405 C 7 403.002 7 400.998 7 399 C 7 396.669 7 394.331 7 392 C 7 390.002 7 387.998 7 386 C 7 383.336 7 380.664 7 378 C 7 375.669 7 373.331 7 371 C 7 369.002 7 366.998 7 365 C 7 362.669 7 360.331 7 358 C 7 356.002 7 353.998 7 352 C 7 350.002 7 347.998 7 346 C 7 343.669 7 341.331 7 339 C 7 337.002 7 334.998 7 333 C 7 331.002 7 328.998 7 327 C 7 325.002 7 322.998 7 321 C 7 319.335 7 317.665 7 316 C 7 314.002 7 311.998 7 310 C 7 308.335 7 306.665 7 305 C 7 303.335 7 301.665 7 300 C 7 298.335 7 296.665 7 295 C 7 293.668 7 292.332 7 291 C 7 289.668 7 288.332 7 287 C 7 286.001 7 284.999 7 284 C 7 282.335 7 280.665 7 279 C 7 277.335 7 275.665 7 274 C 7 272.335 7 270.665 7 269 C 7 267.002 7 264.998 7 263 C 7 261.002 7 258.998 7 257 C 7 255.002 7 252.998 7 251 C 7 249.335 7 247.665 7 246 C 7 244.002 7 241.998 7 240 C 7 238.335 7 236.665 7 235 C 7 233.002 7 230.998 7 229 C 7 227.335 7 225.665 7 224 C 7 221.669 7 219.331 7 217 C 7 215.335 7 213.665 7 212 C 7 209.669 7 207.331 7 205 C 7 203.335 7 201.665 7 200 C 7 198.002 6.983 195.998 7 194 C 7.055 188.006 7.477 187.225 7.5 185.5 C 7.477 182.549 6.958 179.515 7 177 C 7.017 175.939 7.449 178.444 7.5 178.3 C 7.668 173.762 7.472 169.654 7.5 166.3 C 7.513 162.645 7.545 158.753 7.5 155.5 C 7.449 151.972 6.98 148.326 7 145 C 7.486 143.272 7.424 141.096 7.5 139.5 C 7.53 138.085 7.476 136.397 7.5 135.5 C 7.379 131.947 6.999 128.691 7 126 C 7.321 121.465 6.922 120.304 7 118 C 7.315 115.991 7.016 114.432 7 113 C 6.98 110.766 7 108.623 7 107 C 7 102.704 7 99.101 7 96 C 7 91.714 7.258 87.443 7 84 C 6.933 83.097 6.366 86.506 6.3 85.5 C 6.167 71.676 5.4 70.22 5.5 66.3 C 5.573 64.455 6.817 62.683 7 61 C 7.202 58.659 6.307 56.318 7 55 C 7.523 54.095 8.573 54.119 10 54 C 26.818 53.924 32.841 54 41 54 C 45.338 54 49.742 54 54 54 C 58.662 54.007 59.725 54.003 62 54 C 67.053 54.222 69.842 54.045 73 54 C 74.339 53.981 75.773 54 77 54 C 77.666 54 78.334 54 79 54 C 79.666 54 80.334 54 81 54 C 81.666 54 82.334 54 83 54 C 83.666 54 84.334 54 85 54 C 85.666 54 86.334 54 87 54 C 87.166 54 87 53.428 87 54 Z "/>
  <path id="ID0.828332953620702" fill="#000000" stroke="none" d="M 0.2 0.2948 L 88.2 0.2948 L 88.2 59.4948 L 0.2 59.4948 L 0.2 0.2948 Z " stroke-width="0.8063703863804648"/>
</svg>