<svg xmlns="http://www.w3.org/2000/svg" xmlns:xlink="http://www.w3.org/1999/xlink" version="1.1" width="82.02300262451172" height="97.86005401611328" viewBox="0.9730000495910645 1.2000000476837158 82.02300262451172 97.86005401611328">
  <!-- Exported by Scratch - http://scratch.mit.edu/ -->
  <path id="ID0.40227043256163597_16_" fill="none" stroke="#000000" stroke-width="2" stroke-linecap="round" stroke-linejoin="round" d="M 22.831 77.164 C 20.436 76.422 17.686 75.218 15.488 72.644 C 10.63 66.949 9.889 58.478 5.75 60.144 C 1.607 61.813 0.084 75.263 11.768 80.806 C 15.808 82.774 19.686 83.248 22.734 83.513 C 23.55 83.623 30.605 83.745 33.366 80.524 C 36.127 77.296 34.605 76.258 33.832 75.641 C 33.067 75.12 26.178 78.303 22.831 77.164 Z "/>
  <path id="ID0.48413723474368453_16_" fill="none" stroke="#000000" stroke-width="2" stroke-linecap="round" stroke-linejoin="round" d="M 45.486 11.428 C 44.002 11.183 40.939 10.674 39.236 10.604 C 34.64 10.345 30.194 11.611 30.194 11.611 L 18.47 2.2 L 18.84 20.626 C 19.516 19.893 7.459 31.95 13.133 43.576 C 18.893 55.306 32.936 61.634 51.403 59.859 C 69.87 58.086 75.192 48.064 74.546 42.473 C 73.898 36.88 67.24 34.106 67.24 34.106 C 67.24 34.106 67.569 29.814 65.009 24.233 C 63.437 20.86 57.724 15.667 57.724 15.667 L 56.052 4.246 L 48.191 10.496 L 45.486 11.428 Z "/>
  <path id="ID0.8535828334279358_16_" fill="#000000" d="M 22.831 77.164 C 20.436 76.422 17.686 75.218 15.488 72.644 C 10.63 66.949 9.889 58.478 5.75 60.144 C 1.607 61.813 0.084 75.263 11.768 80.806 C 15.808 82.774 19.686 83.248 22.734 83.513 C 23.55 83.623 30.605 83.745 33.366 80.524 C 36.127 77.296 34.605 76.258 33.832 75.641 C 33.067 75.12 26.178 78.303 22.831 77.164 Z " stroke-width="1"/>
  <path id="ID0.914295740891248_16_" fill="#101010" d="M 5.937 60.023 C 3.872 60.454 2.084 65.18 2.59 68.846 C 3.198 72.502 4.875 74.931 5.948 76.423 C 7.395 77.67 5.605 73.342 7.945 71.773 C 10.286 70.204 14.34 71.364 14.34 71.364 C 14.34 71.364 11.702 66.628 10.3 63.966 C 9.117 61.479 8.122 59.78 5.937 60.023 Z " stroke-width="1"/>
  <path id="ID0.007584026083350182_16_" fill="#000000" stroke="#000000" stroke-width="2" stroke-linecap="round" stroke-linejoin="round" d="M 44.074 77.545 C 44.074 77.545 45.284 82.094 45.08 84.832 C 41.951 88.046 40.229 90.645 40.229 90.645 C 41.024 90.781 45.907 92.22 45.129 96.369 C 45.345 98.469 36.054 98.167 33.839 97.791 C 31.837 97.478 31.209 96.891 31.112 94.866 C 30.99 92.277 37.74 87.257 37.75 84.725 C 36.22 82.806 33.193 79.159 33.193 79.159 "/>
  <path id="ID0.31672530295327306_16_" fill="#FAA51F" stroke="#000000" stroke-width="2" stroke-linecap="round" stroke-linejoin="round" d="M 40.229 90.646 C 40.229 90.646 39.893 90.057 38.48 90.646 "/>
  <path id="ID0.46792364912107587_16_" fill="#000000" stroke="#000000" stroke-width="2" stroke-linecap="round" stroke-linejoin="round" d="M 46.688 66.09 C 46.36 72.781 47.579 82.653 35.693 82.074 C 23.806 81.494 25.346 72.555 25.673 65.865 C 26.001 59.172 30.183 57.574 36.874 57.902 C 43.566 58.229 47.014 59.399 46.688 66.09 Z "/>
  <path id="ID0.38032895559445024_22_" fill="#101010" d="M 45.892 68.391 C 45.687 72.588 46.278 78.922 39.885 78.609 C 33.492 78.299 34.271 72.63 34.477 68.434 C 34.683 64.238 36.937 63.148 40.633 63.328 C 44.329 63.506 46.097 64.196 45.892 68.391 Z " stroke-width="1"/>
  <path id="ID0.527006761636585_19_" fill="#000000" stroke="#000000" stroke-width="2" stroke-linecap="round" stroke-linejoin="round" d="M 28.929 75.329 C 28.929 75.329 28.705 80.699 24.645 88.504 C 22.842 91.901 21.812 86.612 19.718 93.929 C 18.999 96.325 23.514 97.632 25.724 97.971 C 27.84 98.275 28.954 97.495 29.448 95.444 C 30.531 91.376 36.286 81.429 36.286 81.429 "/>
  <path id="ID0.8937406223267317_26_" fill="#FAA51F" stroke="#000000" stroke-width="2" stroke-linecap="round" stroke-linejoin="round" d="M 23.449 89.549 C 23.449 89.549 27.126 89.549 28.335 91.934 "/>
  <path id="ID0.15909873321652412_36_" fill="#000000" stroke="#000000" stroke-width="2" stroke-linecap="round" stroke-linejoin="round" d="M 36.229 70.218 C 36.039 70.215 30.315 75.62 30.134 75.58 C 25.851 74.664 24.31 64.067 27.596 56.41 L 35.214 53.895 "/>
  <path id="ID0.8143284288235009_9_" fill="#FAA51F" stroke="#000000" stroke-width="2" stroke-linecap="round" stroke-linejoin="round" d="M 33.408 62.138 C 33.87 65.451 33.985 69.705 33.985 69.705 "/>
  <path id="ID0.6682511982508004_9_" fill="none" stroke="#000000" stroke-width="2" stroke-linecap="round" stroke-linejoin="round" d="M 34.368 69.688 L 33.17 69.992 "/>
  <path id="ID0.1790580078959465_41_" fill="#000000" stroke="#000000" stroke-width="2" stroke-linecap="round" stroke-linejoin="round" d="M 35.293 69.784 C 41.174 69.823 43.056 73.707 42.43 75.29 C 40.991 79.027 36.057 79.3 28.577 74.84 "/>
  <path id="ID0.2591130444779992_16_" fill="#000000" d="M 45.486 11.428 C 44.002 11.183 40.939 10.674 39.236 10.604 C 34.64 10.345 30.194 11.611 30.194 11.611 L 18.47 2.2 L 18.84 20.626 C 19.516 19.893 7.459 31.95 13.133 43.576 C 18.893 55.306 32.936 61.634 51.403 59.859 C 69.87 58.086 75.192 48.064 74.546 42.473 C 73.898 36.88 67.24 34.106 67.24 34.106 C 67.24 34.106 67.569 29.814 65.009 24.233 C 63.437 20.86 57.724 15.667 57.724 15.667 L 56.052 4.246 L 48.191 10.496 L 45.486 11.428 Z " stroke-width="1"/>
  <path id="ID0.3588979784399271_16_" fill="#101010" d="M 66.355 33.917 L 64.167 31.685 L 55.152 33.4 C 55.152 33.4 54.824 36.681 50.554 37.16 C 46.284 37.639 39.378 35.343 39.378 35.343 L 32.135 36.428 C 32.135 36.428 24.125 35.128 23.089 41.455 C 21.292 52.43 30.018 58.625 38.485 59.372 C 43.958 59.92 47.51 59.57 51.461 59.263 C 68.885 57.886 74.793 48.027 73.848 42.403 C 73.196 36.811 66.792 34.563 66.792 34.563 L 66.355 33.917 Z " stroke-width="1"/>
  <path id="ID0.2727069961838424_16_" fill="none" stroke="#000000" stroke-width="2" stroke-linecap="round" stroke-linejoin="round" d="M 70.793 39.787 C 70.793 39.787 75.222 39.327 77.464 38.65 C 80.109 37.894 81.996 36.395 81.996 36.395 "/>
  <path id="ID0.5861211125738919_16_" fill="none" stroke="#000000" stroke-width="2" stroke-linecap="round" stroke-linejoin="round" d="M 70.714 45.606 C 70.714 45.606 73.215 46.916 75.989 47.344 C 78.656 47.864 80.465 47.813 80.465 47.813 "/>
  <path id="ID0.4793355236761272_16_" fill="none" stroke="#000000" stroke-width="2" stroke-linecap="round" stroke-linejoin="round" d="M 28.054 9.888 L 32.87 13.991 "/>
  <path id="ID0.9024141579866409_16_" fill="none" stroke="#000000" stroke-width="2" stroke-linecap="round" stroke-linejoin="round" d="M 1.973 37.591 C 1.973 37.591 5.859 38.613 7.653 38.796 C 9.448 38.979 12.982 39.035 12.982 39.035 "/>
  <path id="ID0.16030752705410123_16_" fill="none" stroke="#000000" stroke-width="2" stroke-linecap="round" stroke-linejoin="round" d="M 13.557 35.276 C 13.557 35.276 11.576 33.213 8.293 31.035 C 4.652 28.591 2.55 27.827 2.55 27.827 "/>
  <path id="ID0.40023312577977777_16_" fill="#FFFFFF" stroke="black" stroke-width="2" stroke-linecap="round" stroke-linejoin="round" d="M 62.812 24.11 C 65.169 28.672 64.771 33.657 61.917 35.082 C 59.051 36.604 54.782 34.066 52.434 29.409 C 50.074 24.853 50.473 19.867 53.326 18.443 C 56.186 17.018 60.454 19.558 62.812 24.11 Z "/>
  <path id="ID0.43813491938635707_16_" fill="#414142" d="M 62.352 27.688 C 62.554 28.709 61.958 29.654 60.934 29.856 C 60.005 30.064 59.072 29.366 58.882 28.243 C 58.683 27.219 59.279 26.273 60.303 26.074 C 61.321 25.975 62.153 26.662 62.352 27.688 " stroke-width="1"/>
  <path id="ID0.4253597157076001_16_" fill="#FFFFFF" stroke="black" stroke-width="2" stroke-linecap="round" stroke-linejoin="round" d="M 39.418 24.894 C 41.776 29.452 40.961 34.597 37.568 36.371 C 34.174 38.141 29.481 35.86 27.131 31.206 C 24.772 26.646 25.587 21.502 28.978 19.733 C 32.36 18.059 37.059 20.338 39.418 24.894 Z "/>
  <path id="ID0.814307457767427_16_" fill="#414142" d="M 38.73 28.746 C 38.633 29.74 37.746 30.557 36.852 30.464 C 35.856 30.366 35.238 29.501 35.349 28.406 C 35.449 27.412 36.333 26.593 37.229 26.685 C 38.126 26.773 38.84 27.651 38.73 28.746 " stroke-width="1"/>
  <path id="ID0.5240494590252638_16_" fill="#101010" stroke="#101010" stroke-width="2" stroke-linecap="round" stroke-linejoin="round" d="M 49.378 35.839 C 51.091 35.809 53.512 34.745 53.616 36.664 C 53.537 37.458 51.619 40.587 49.817 40.505 C 47.817 40.405 44.586 37.571 44.832 36.09 C 45.08 34.606 47.866 35.888 49.378 35.839 Z "/>
  <path id="ID0.046259244438260794_16_" fill="#FFFFFF" stroke="#101010" stroke-width="2" stroke-linecap="round" stroke-linejoin="round" d="M 38.793 50.258 C 38.793 50.258 41.053 52.797 46.536 52.237 "/>
  <path id="ID0.042709666304290295" fill="#101010" stroke="none" d="M 36.8058 25.95 C 37.4607 25.95 38.0545 26.241 38.4847 26.712 C 38.915 27.183 39.1808 27.833 39.1808 28.55 C 39.1808 29.267 38.915 29.917 38.4847 30.388 C 38.0545 30.859 37.4607 31.15 36.8058 31.15 C 36.1508 31.15 35.5571 30.859 35.1268 30.388 C 34.6966 29.917 34.4308 29.267 34.4308 28.55 C 34.4308 27.833 34.6966 27.183 35.1268 26.712 C 35.5571 26.241 36.1508 25.95 36.8058 25.95 Z " stroke-width="0.9577087324721634"/>
  <path id="ID0.042709666304290295" fill="#101010" stroke="none" d="M 60.4058 25.45 C 61.0607 25.45 61.6545 25.741 62.0847 26.212 C 62.515 26.683 62.7808 27.333 62.7808 28.05 C 62.7808 28.767 62.515 29.417 62.0847 29.888 C 61.6545 30.359 61.0607 30.65 60.4058 30.65 C 59.7508 30.65 59.1571 30.359 58.7268 29.888 C 58.2966 29.417 58.0308 28.767 58.0308 28.05 C 58.0308 27.333 58.2966 26.683 58.7268 26.212 C 59.1571 25.741 59.7508 25.45 60.4058 25.45 Z " stroke-width="0.9577087324721634"/>
</svg>