<svg xmlns="http://www.w3.org/2000/svg" xmlns:xlink="http://www.w3.org/1999/xlink" version="1.1" width="44.18856990337372" height="44.18856990337372" viewBox="-0.7654857132583857 -0.7957857146393508 44.18856990337372 44.18856990337372">
  <defs>
    <radialGradient id="grad_1" cx="0.4797" cy="0.48979999999999996" r="0.6763899999999999">
      <stop offset="0" stop-color="#EAEAEA" stop-opacity="1"/>
      <stop offset="1" stop-color="#EAEAEA" stop-opacity="0"/>
    </radialGradient>
  <radialGradient id="grad_1-.075757622718811,0,0,1.075757622718811,-239.65,-154.05" cx="20.464" cy="20.864" r="28.8142" gradientUnits="userSpaceOnUse">
      <stop offset="0" stop-color="#EAEAEA" stop-opacity="1"/>
      <stop offset="1" stop-color="#EAEAEA" stop-opacity="0"/>
    </radialGradient></defs>
  <!-- Exported by Scratch - http://scratch.mit.edu/ -->
  <path id="ID0.7450102074071765" fill="url(#grad_1-.075757622718811,0,0,1.075757622718811,-239.65,-154.05)" stroke="none" d="M 21.3288 -0.0015 C 27.2057 -0.0015 32.5307 2.3856 36.3862 6.2411 C 40.2417 10.0966 42.6288 15.4216 42.6288 21.2985 C 42.6288 27.1754 40.2417 32.5004 36.3862 36.3559 C 32.5307 40.2114 27.2057 42.5985 21.3288 42.5985 C 15.4519 42.5985 10.1269 40.2114 6.2714 36.3559 C 2.4159 32.5004 0.0288 27.1754 0.0288 21.2985 C 0.0288 15.4216 2.4159 10.0966 6.2714 6.2411 C 10.1269 2.3856 15.4519 -0.0015 21.3288 -0.0015 Z " stroke-width="1.075757622718811"/>
  <path id="ID0.8790538497269154" fill="#F6F6F6" stroke="#E5E5E5" stroke-width="1.5885714292526245" d="M 20.9611 9.7189 C 24.5767 9.7189 27.8532 11.1875 30.2257 13.56 C 32.5982 15.9326 34.0669 19.209 34.0669 22.8246 C 34.0669 26.4402 32.5982 29.7166 30.2257 32.0891 C 27.8532 34.4617 24.5767 35.9303 20.9611 35.9303 C 17.3456 35.9303 14.0691 34.4617 11.6966 32.0891 C 9.3241 29.7166 7.8554 26.4402 7.8554 22.8246 C 7.8554 19.209 9.3241 15.9326 11.6966 13.56 C 14.0691 11.1875 17.3456 9.7189 20.9611 9.7189 Z "/>
</svg>